<svg xmlns="http://www.w3.org/2000/svg" width="793.562" height="710.05" viewBox="0 0 793.562 710.05"><g transform="translate(-1022.9 -255.333)"><path d="M623.632,202.941a1.188,1.188,0,0,1-.908-.443,1.165,1.165,0,0,1,0-1.3l5.59-9.573a1.165,1.165,0,1,1,2,1.165l-4.076,6.988,8.246-2.516a1.118,1.118,0,0,1,1.444.769,1.141,1.141,0,0,1-.769,1.444l-11.087,3.424Z" transform="translate(1151.224 363.578)" fill="#2870db"/><path d="M617.621,224.108a1.164,1.164,0,0,1-1.072-.722c-.3-.722-.582-1.444-.885-2.143a1.164,1.164,0,0,1,.629-1.537,1.188,1.188,0,0,1,1.514.629l.909,2.166a1.188,1.188,0,0,1-.652,1.514,1,1,0,0,1-.442.093Z" transform="translate(1141.98 401.714)" fill="#2870db"/><path d="M615.9,226.878h0a1.165,1.165,0,0,1-1.095-1.235l.373-6.219a1.257,1.257,0,0,1,.675-.978,1.141,1.141,0,0,1,1.188.117l5.241,3.89a1.164,1.164,0,0,1,.233,1.63,1.118,1.118,0,0,1-1.607.233l-3.517-2.609-.256,4.076a1.164,1.164,0,0,1-1.234,1.095Z" transform="translate(1140.956 399.993)" fill="#2870db"/><path d="M658.4,292.367a60.544,60.544,0,0,0-.559-7.85l13.09-1.654a118.408,118.408,0,0,0-5.94-19.8l-14.884-4.5a106.3,106.3,0,0,0-9.317-16l3.564-15.024A118.8,118.8,0,0,0,630.071,212.5l-8.013,10.389a60.96,60.96,0,0,0-6.545-4.426,49.274,49.274,0,0,0-6.569-3.145l-8.013-19.636a39.6,39.6,0,0,0-14.278-1.444l3.587,19.147a20.544,20.544,0,0,0-9.317,5.287l-14.907-12.695a39.016,39.016,0,0,0-5.916,12.951l13.067,16.747a50.445,50.445,0,0,0-.559,7.221,64.123,64.123,0,0,0,.559,7.826L560.1,252.373a117,117,0,0,0,5.916,19.8l14.907,4.519a102.226,102.226,0,0,0,9.317,15.979l-3.587,15.047a120.055,120.055,0,0,0,14.278,15.024l8.013-10.365a69,69,0,0,0,6.569,4.426,52.079,52.079,0,0,0,6.545,3.145l8.013,19.636A39.6,39.6,0,0,0,644.35,341l-3.517-19.03a20.568,20.568,0,0,0,9.317-5.288l14.884,12.695a38.594,38.594,0,0,0,5.939-12.951l-13.09-16.747A46.758,46.758,0,0,0,658.4,292.367ZM615.956,304.5c-17.866-10.319-32.33-35.288-32.33-55.786s14.465-28.743,32.33-18.448,32.353,35.288,32.353,55.9S633.821,314.821,615.956,304.5Z" transform="translate(1068.246 367.788)" fill="#2870db"/><path d="M586.858,210.714l-1.048-5.567-10.6-9.038-12.531,7.2L577.587,216a20.545,20.545,0,0,1,9.271-5.287Z" transform="translate(1071.676 370.455)" fill="#72b5e8"/><path d="M572.741,216l-12.6,7.384,13.067-1.654C572.951,219.68,572.811,217.77,572.741,216Z" transform="translate(1068.299 396.894)" fill="#d1ebff"/><g transform="translate(1629.068 561.829)"><path d="M573.4,202.88v-.21c-.606.233-1.188.512-1.747.792a15.741,15.741,0,0,1,1.747-.582Z" transform="translate(-545.469 -182.654)" fill="#fff"/><path d="M571.264,218.51l-10.854,1.374a6.159,6.159,0,0,0,.14.629l10.761-1.374C571.288,218.929,571.288,218.72,571.264,218.51Z" transform="translate(-560.41 -161.598)" fill="#fff"/><path d="M603.723,217.889l-3.587,15.024a104.462,104.462,0,0,1,9.317,16l14.884,4.5a119.323,119.323,0,0,1,5.777,19.17l1.491-.233a117.119,117.119,0,0,0-5.94-19.8l-14.954-4.519a106.035,106.035,0,0,0-9.317-15.979L604.958,217a120.062,120.062,0,0,0-14.279-15.024l-.489,1.654A120.548,120.548,0,0,1,603.723,217.889Z" transform="translate(-520.825 -183.571)" fill="#fff"/><path d="M603.285,284.375c-17.865-10.319-32.354-35.312-32.354-55.9,0-9.038,2.842-15.676,7.547-19.4-5.427,3.494-8.758,10.482-8.758,20.288,0,20.5,14.465,45.467,32.33,55.9,9.014,5.218,17.167,5.683,23.036,2.329l-1.328.3C618.169,289.8,611.064,288.847,603.285,284.375Z" transform="translate(-548.035 -174.146)" fill="#fff"/><path d="M595.79,250.823a19.869,19.869,0,0,0,5.893-3.308l-.559-.466a20.2,20.2,0,0,1-5.334,3.773Z" transform="translate(-513.381 -123.661)" fill="#fff"/><path d="M576.928,212.271c-.536,0,0-.419.559-.862L563.255,199.18c-.4.559-.769,1.165,0,1.258Z" transform="translate(-557.223 -187.293)" fill="#fff"/><path d="M594.67,249.745l3.424,18.331h1.141L595.6,249C595,249.3,594.25,249.559,594.67,249.745Z" transform="translate(-515.032 -121.069)" fill="#fff"/><path d="M603.594,240.367a58.69,58.69,0,0,0-.489-7.2h-1.3a60.545,60.545,0,0,1,.559,7.85,46.711,46.711,0,0,1-.557,7.188l13.089,16.757a39.6,39.6,0,0,1-4.659,11.18v1.048a39.04,39.04,0,0,0,5.94-12.951l-13.09-16.771a46.717,46.717,0,0,0,.513-7.1Z" transform="translate(-505.392 -142.111)" fill="#fff"/><path d="M584.88,196.228l8.036,19.636a52.1,52.1,0,0,1,6.545,3.145,69.063,69.063,0,0,1,6.569,4.426l.233-1.235a60.546,60.546,0,0,0-5.614-3.773,52.326,52.326,0,0,0-6.568-3.145l-8.013-19.636A40.179,40.179,0,0,0,571.79,194.2l.163.839A46.444,46.444,0,0,1,584.88,196.228Z" transform="translate(-545.283 -194.077)" fill="#fff"/><path d="M584.268,245.25l-6.708,8.735.838.792L585.2,246Z" transform="translate(-537.613 -126.053)" fill="#fff"/></g><path d="M691.479,253.128a92.665,92.665,0,0,0-.838-11.786l19.682-2.492a177,177,0,0,0-8.921-29.768L678.994,202.4a157.737,157.737,0,0,0-13.976-24.061l5.381-22.617A178.868,178.868,0,0,0,648.923,133.1l-12.066,15.606A97.608,97.608,0,0,0,627,142.045a75.507,75.507,0,0,0-9.853-4.659l-12.112-29.7a59.769,59.769,0,0,0-21.476-2.166l5.38,28.813a30.958,30.958,0,0,0-13.975,7.966l-22.408-19.1a58.366,58.366,0,0,0-8.921,19.473l19.682,25.2a72,72,0,0,0-.838,10.831,92.642,92.642,0,0,0,.839,11.786l-19.589,2.586a177.027,177.027,0,0,0,8.921,29.768l22.407,6.778a157.72,157.72,0,0,0,13.976,24.061L583.657,276.3a180.515,180.515,0,0,0,21.383,22.524l12.066-15.606a97.556,97.556,0,0,0,9.853,6.662,75.5,75.5,0,0,0,9.853,4.659l12.065,29.535a59.815,59.815,0,0,0,21.476,2.166l-5.381-28.813a30.955,30.955,0,0,0,13.976-7.966l22.407,19.1a58.371,58.371,0,0,0,8.921-19.473l-19.682-25.2A71.992,71.992,0,0,0,691.479,253.128Zm-63.822,18.261C600.777,255.876,579,218.3,579,187.535s21.779-43.254,48.659-27.742,48.658,53.084,48.658,83.854-21.8,43.278-48.658,27.742Z" transform="translate(1046.366 249.779)" fill="#2870db"/><path d="M629.17,135.177a178.765,178.765,0,0,0-21.476-22.617L588.85,123.391a178.862,178.862,0,0,1,21.476,22.617Z" transform="translate(1106.463 259.395)" fill="#cce1ff"/><g transform="translate(1590.1 344.28)"><path d="M581.09,207.317a49.276,49.276,0,0,1,6.569,3.144,60.965,60.965,0,0,1,6.545,4.426l8.013-10.389h0l-2.026-1.234a49.291,49.291,0,0,0-6.568-3.145Z" transform="translate(-493.952 31.506)" fill="#cce1ff"/><path d="M598.3,192.589a39.6,39.6,0,0,0-14.278-1.444l-12.531,7.2a39.6,39.6,0,0,1,14.278,1.444Z" transform="translate(-506.713 19.401)" fill="#cce1ff"/><path d="M616.97,213.957a118.8,118.8,0,0,0-14.278-15.047l-12.532,7.2a118.77,118.77,0,0,1,14.279,15.047Z" transform="translate(-481.896 29.897)" fill="#cce1ff"/><path d="M298.56,163.437l14.907,4.5,12.532-7.2-14.907-4.5Z" transform="translate(-170.334 118.64)" fill="#cce1ff"/><path d="M301.89,181.037l13.067,16.747,12.531-7.2L314.421,173.84Z" transform="translate(-165.907 142.035)" fill="#cce1ff"/><path d="M575.21,125.168a75.506,75.506,0,0,1,9.853,4.659,97.55,97.55,0,0,1,9.853,6.662l12.066-15.606h0s-2.026-1.281-3.075-1.863a75.764,75.764,0,0,0-9.853-4.659Z" transform="translate(-501.768 -82.492)" fill="#cce1ff"/><path d="M601.13,103.034a60.213,60.213,0,0,0-21.453-2.166L560.81,111.7a59.77,59.77,0,0,1,21.476,2.166Z" transform="translate(-520.91 -100.679)" fill="#cce1ff"/><path d="M301.58,90.668l22.408,6.778,18.844-10.808L320.424,79.86Z" transform="translate(-166.32 17.111)" fill="#cce1ff"/><path d="M306.58,117.161l19.659,25.2,18.867-10.831-19.682-25.2Z" transform="translate(-159.673 52.296)" fill="#cce1ff"/><path d="M562.64,138.18l-18.96,11.227,19.682-2.492C563.06,143.91,562.78,141.045,562.64,138.18Z" transform="translate(-543.68 -50.829)" fill="#cce1ff"/></g><g transform="translate(1599.021 346.636)"><path d="M613.458,280.942c-17.842-10.319-32.33-35.288-32.33-55.786,0-7.593,2-13.486,5.427-17.376-9.806.7-16.3,8.9-16.3,22.757,0,20.5,14.465,45.467,32.33,55.786,11.227,6.475,20.963,5.59,26.88-1.025a28.184,28.184,0,0,1-16-4.356Z" transform="translate(-517.282 39.332)" fill="#6ca1f1"/><path d="M298.024,148.852l-8.013-19.612-12.531,7.174,8.013,19.636Z" transform="translate(-207.276 80.394)" fill="#6ca1f1"/><path d="M298.167,150.117l-3.587,15.024,12.531-7.2,3.564-15.024Z" transform="translate(-184.545 98.578)" fill="#6ca1f1"/><path d="M594.76,219.017a106.3,106.3,0,0,1,9.317,16l12.532-7.2a106.291,106.291,0,0,0-9.317-16Z" transform="translate(-484.702 44.702)" fill="#6ca1f1"/><path d="M605.13,227.817a118.411,118.411,0,0,1,5.94,19.8l12.531-7.2a118.416,118.416,0,0,0-5.939-19.8Z" transform="translate(-470.918 56.4)" fill="#6ca1f1"/><path d="M611.07,250.677a38.593,38.593,0,0,1-5.94,12.951l12.532-7.2A38.6,38.6,0,0,0,623.6,243.48Z" transform="translate(-470.918 86.787)" fill="#6ca1f1"/><path d="M614.538,241.727a49.884,49.884,0,0,0,.559-7.2c0-.769,0-1.537,0-2.329l-13,1.63a60.546,60.546,0,0,1,.559,7.85,46.75,46.75,0,0,1-.559,7.2Z" transform="translate(-474.945 71.793)" fill="#6ca1f1"/><path d="M604.057,246.68a20.568,20.568,0,0,1-9.317,5.288l3.564,19.146,12.531-7.2-2.539-13.58Z" transform="translate(-484.729 91.04)" fill="#6ca1f1"/><path d="M585.663,244.88l-8.013,10.365,12.625-7.174C588.714,247.07,587.177,246.021,585.663,244.88Z" transform="translate(-507.446 88.648)" fill="#6ca1f1"/><path d="M624.016,235.931c-26.88-15.513-48.659-53.084-48.659-83.854,0-11.437,3.028-20.288,8.176-26.158-14.744,1.071-24.713,13.417-24.713,34.264,0,30.816,21.778,68.387,48.658,83.854,16.864,9.76,31.7,8.409,40.413-1.537a42.322,42.322,0,0,1-23.875-6.568Z" transform="translate(-532.476 -69.482)" fill="#6ca1f1"/><path d="M300.769,68.775,288.7,39.24,269.86,50.071,281.9,79.606Z" transform="translate(-217.405 -39.24)" fill="#6ca1f1"/><path d="M300.947,70.651,295.59,93.245l18.844-10.808,5.381-22.617Z" transform="translate(-183.203 -11.884)" fill="#6ca1f1"/><path d="M595.76,142.811a157.742,157.742,0,0,1,13.976,24.061l18.844-10.831A157.728,157.728,0,0,0,614.6,131.98Z" transform="translate(-483.373 -61.427)" fill="#6ca1f1"/><path d="M611.37,156.051a177,177,0,0,1,8.921,29.768l18.844-10.831a177.009,177.009,0,0,0-8.921-29.768Z" transform="translate(-462.623 -43.827)" fill="#6ca1f1"/><path d="M583.87,130.315l-1.561-8.385-15.955-13.58L547.51,119.181l22.408,19.1A30.955,30.955,0,0,1,583.87,130.315Z" transform="translate(-547.51 -92.837)" fill="#6ca1f1"/><path d="M620.291,190.431A58.372,58.372,0,0,1,611.37,209.9L630.214,199.1a58.516,58.516,0,0,0,8.921-19.5Z" transform="translate(-462.623 1.873)" fill="#6ca1f1"/><path d="M625.617,176.915a75.245,75.245,0,0,0,.815-10.831,33.428,33.428,0,0,0-.116-3.424l-19.566,2.469a92.6,92.6,0,0,1,.839,11.786,71.941,71.941,0,0,1-.838,10.831Z" transform="translate(-468.764 -20.645)" fill="#6ca1f1"/><path d="M609.725,184.41a30.954,30.954,0,0,1-13.975,7.966l5.38,28.813,18.844-10.831-3.82-20.428Z" transform="translate(-483.386 8.267)" fill="#6ca1f1"/><path d="M582.136,181.7,570,197.306,588.984,186.5C586.724,185.008,584.395,183.424,582.136,181.7Z" transform="translate(-517.615 4.665)" fill="#6ca1f1"/></g><g transform="translate(1591.078 355.042)"><path d="M563.629,118.5v-.28c-.885.326-1.747.745-2.609,1.165A24.417,24.417,0,0,1,563.629,118.5Z" transform="translate(-521.609 -88.123)" fill="#fff"/><path d="M560.4,142l-16.3,2.05a6.314,6.314,0,0,0,.21.955l16.3-2.05A2.425,2.425,0,0,1,560.4,142Z" transform="translate(-544.1 -56.513)" fill="#fff"/><path d="M609.068,141.115l-5.357,22.617a158.624,158.624,0,0,1,13.975,24.038l22.408,6.778a179.651,179.651,0,0,1,8.688,28.836l2.329-.373a174.867,174.867,0,0,0-8.9-29.768l-22.408-6.778A157.752,157.752,0,0,0,605.831,162.4l5.357-22.617a180.277,180.277,0,0,0-21.453-22.617l-.745,2.492A179.069,179.069,0,0,1,609.068,141.115Z" transform="translate(-484.429 -89.519)" fill="#fff"/><path d="M608.6,240.993c-26.88-15.536-48.658-53.107-48.658-83.854,0-13.626,4.263-23.619,11.344-29.209-8.176,5.264-13.184,15.746-13.184,30.513,0,30.839,21.779,68.411,48.635,83.854,13.58,7.826,25.832,8.525,34.659,3.354-.652.186-1.328.326-2,.466C631.006,249.215,620.291,247.724,608.6,240.993Z" transform="translate(-525.49 -75.216)" fill="#fff"/><path d="M597.32,190.653a30.679,30.679,0,0,0,8.851-4.961l-.815-.722a30.908,30.908,0,0,1-8.036,5.683Z" transform="translate(-473.356 0.606)" fill="#fff"/><path d="M569.081,132.666c-.815,0,0-.652.815-1.3l-21.569-18.4c-.606.839-1.165,1.77-.163,1.887Z" transform="translate(-539.429 -95.115)" fill="#fff"/><path d="M595.635,189.028l5.148,27.579c-.606,0,.582,0,1.7-.163l-5.311-28.534C596.1,188.329,595.006,188.725,595.635,189.028Z" transform="translate(-475.841 4.514)" fill="#fff"/><path d="M609.062,174.921a90.737,90.737,0,0,0-.745-10.831l-1.957.163a92.971,92.971,0,0,1,.839,11.786,71.982,71.982,0,0,1-.839,10.831l19.682,25.2a60.375,60.375,0,0,1-7.2,16.817l.14,1.561a58.021,58.021,0,0,0,8.9-19.5l-19.659-25.2a75.169,75.169,0,0,0,.839-10.831Z" transform="translate(-461.34 -27.15)" fill="#fff"/><path d="M580.926,108.516l12.066,29.535a75.512,75.512,0,0,1,9.853,4.659,97.329,97.329,0,0,1,9.853,6.638l.373-1.863a87.387,87.387,0,0,0-8.455-5.637,74.522,74.522,0,0,0-9.876-4.658L582.7,107.654a60.374,60.374,0,0,0-21.476-2.166l.233,1.258a69.551,69.551,0,0,1,19.473,1.77Z" transform="translate(-521.343 -105.299)" fill="#fff"/><path d="M579.976,182.26,569.89,195.3c.443.4.839.792,1.281,1.165l10.2-13.207Z" transform="translate(-509.818 -2.997)" fill="#fff"/></g><path d="M589.9,102.818c.14-3.121,2.329-4.472,4.775-3.028a9.714,9.714,0,0,1,4.239,8.246c-.14,3.121-2.329,4.472-4.659,3.028a9.736,9.736,0,0,1-4.356-8.246Z" transform="translate(1107.858 241.652)" fill="#2870db"/><path d="M583.911,262.173c0-2.073,1.537-2.981,3.191-2.026a6.5,6.5,0,0,1,2.818,5.474c0,2.073-1.514,2.981-3.191,2.026A6.5,6.5,0,0,1,583.911,262.173Z" transform="translate(1099.896 455.072)" fill="#2870db"/><path d="M589.588,215.16a26.764,26.764,0,0,1,10.389,12.531,25.63,25.63,0,0,0,3.424-1.165,9.317,9.317,0,0,1,8.013,1.235A27.136,27.136,0,0,1,623.712,249c0,14.278-24.411,19.216-24.411,19.216s-23.293-31.049-23.293-45.328c0-3.89-1.654-5.078.559-6.359.186-.116,4.659-2.469,4.822-2.539a9.061,9.061,0,0,1,8.2,1.165Z" transform="translate(1088.604 393.566)" fill="#2870db"/><path d="M586.828,216.119a27.206,27.206,0,0,1,10.924,13.976c2.05-3.331,6.149-4.03,10.9-1.3a27.16,27.16,0,0,1,12.322,21.243c0,14.278-23.293,18.494-23.293,18.494s-23.293-31.026-23.293-45.3C574.507,215.35,580.027,212.206,586.828,216.119Z" transform="translate(1087.241 394.819)" fill="#2870db"/><g transform="translate(1665.917 609.161)"><path d="M583.707,216.477a27.95,27.95,0,0,1,11.46,13.976c.419-.675-.163-.419.419-.885a26.81,26.81,0,0,0-10.6-13.114c-3.727-2.166-6.545-2.655-8.758-1.3a9.526,9.526,0,0,1,7.477,1.328Z" transform="translate(-576.23 -214.397)" fill="#fff" opacity="0.7"/><path d="M594.065,221.572c-3.7-2.143-6.592-2.189-8.455-1.048a9.573,9.573,0,0,1,7.454,1.4,27.159,27.159,0,0,1,12.322,21.243c0,6.638-5.008,11.087-10.389,13.976,6.009-2.818,11.39-6.988,11.39-14.325a27.158,27.158,0,0,0-12.322-21.243Z" transform="translate(-563.762 -207.24)" fill="#fff" opacity="0.7"/></g><path d="M667.728,319.936l-1.561-1.724c12.531-11.39,19.17-29.931,19.17-53.573,0-59.024-41.927-131.208-93.287-160.906l1.165-2c52.082,29.978,94.452,103.117,94.452,162.816C687.666,288.956,680.772,308.1,667.728,319.936Z" transform="translate(1110.716 244.999)" fill="#2870db"/><path d="M620.115,256.5a1.141,1.141,0,0,1-1.165-1.141,1.165,1.165,0,0,1,1.142-1.188,39.532,39.532,0,0,0,4.659-.186,1.168,1.168,0,0,1,.186,2.329c-1.561.117-3.144.186-4.659.186Zm-6.988-.256h0c-1.537-.116-3.1-.3-4.659-.512a1.176,1.176,0,0,1,.326-2.329c1.537.21,3.028.373,4.659.512a1.162,1.162,0,1,1-.28,2.306Zm18.424-.815a1.141,1.141,0,0,1-1.141-.955,1.165,1.165,0,0,1,.932-1.351c1.491-.28,2.982-.606,4.426-.978a1.17,1.17,0,0,1,.606,2.259c-1.514.4-3.051.722-4.659,1.025Zm11.111-3.145a1.172,1.172,0,0,1-.443-2.259c1.4-.536,2.8-1.165,4.146-1.817a1.167,1.167,0,0,1,1.025,2.1c-1.4.675-2.841,1.328-4.309,1.887a.907.907,0,0,1-.373.07Zm10.319-5.334a1.165,1.165,0,0,1-.652-2.143c1.258-.839,2.492-1.724,3.68-2.655a1.17,1.17,0,0,1,1.444,1.84c-1.235.955-2.516,1.887-3.843,2.772a1.234,1.234,0,0,1-.629.186Zm8.921-7.314a1.258,1.258,0,0,1-.815-.326,1.165,1.165,0,0,1,0-1.654c1.071-1.071,2.1-2.189,3.075-3.331a1.165,1.165,0,0,1,1.77,1.514c-1.025,1.188-2.1,2.329-3.191,3.471a1.257,1.257,0,0,1-.885.326Zm7.36-8.9a1.07,1.07,0,0,1-.652-.186,1.188,1.188,0,0,1-.326-1.63c.862-1.234,1.677-2.539,2.446-3.82a1.165,1.165,0,1,1,2,1.165q-1.188,2.027-2.516,3.983a1.141,1.141,0,0,1-.931.489Zm5.707-10.016a1.257,1.257,0,0,1-.489,0,1.165,1.165,0,0,1-.559-1.561c.629-1.351,1.235-2.725,1.817-4.169a1.17,1.17,0,0,1,2.166.885c-.606,1.467-1.211,2.888-1.887,4.286a1.141,1.141,0,0,1-1.095.559Zm4.193-10.761a.931.931,0,0,1-.349,0,1.141,1.141,0,0,1-.769-1.444c.466-1.444.885-2.912,1.281-4.4a1.2,1.2,0,1,1,2.329.606c-.4,1.514-.838,3.028-1.281,4.5a1.188,1.188,0,0,1-1.258.7Zm2.818-11.2h-.21a1.165,1.165,0,0,1-.932-1.374c.279-1.467.559-2.981.792-4.5a1.142,1.142,0,0,1,1.328-.978,1.165,1.165,0,0,1,.978,1.328c-.256,1.561-.512,3.1-.815,4.659a1.141,1.141,0,0,1-1.188.862Zm1.654-11.437h0a1.188,1.188,0,0,1-1.048-1.281c.14-1.514.256-3.028.373-4.659a1.095,1.095,0,0,1,1.234-1.095,1.141,1.141,0,0,1,1.072,1.234c0,1.561-.21,3.121-.349,4.659a1.211,1.211,0,0,1-1.328,1.141Z" transform="translate(1131.194 349.408)" fill="#a8cff0"/><path d="M606.973,213.723h-.256l-2.329-.536a1.188,1.188,0,0,1-.839-1.421,1.165,1.165,0,0,1,1.4-.839l2.329.512a1.172,1.172,0,0,1-.256,2.329Z" transform="translate(1125.958 390.11)" fill="#a8cff0"/><path d="M541.806,135.653a1.188,1.188,0,0,1-1.142-.955c-.14-.769-.279-1.537-.4-2.329a1.168,1.168,0,1,1,2.306-.373,14.778,14.778,0,0,0,.4,2.329,1.165,1.165,0,0,1-.955,1.374Z" transform="translate(1041.865 283.912)" fill="#a8cff0"/><path d="M758.034,223.687a1.188,1.188,0,0,1-1.072-.722q-.862-2.166-1.817-4.332a1.188,1.188,0,0,1,.629-1.537,1.142,1.142,0,0,1,1.514.606c.629,1.467,1.235,2.935,1.84,4.379a1.188,1.188,0,0,1-.652,1.537A1.469,1.469,0,0,1,758.034,223.687Zm-4.659-10.831a1.188,1.188,0,0,1-1.072-.7c-.652-1.421-1.3-2.842-1.98-4.263a1.142,1.142,0,0,1,.536-1.537,1.165,1.165,0,0,1,1.561.536c.675,1.444,1.351,2.865,2,4.309a1.141,1.141,0,0,1-.582,1.537,1.072,1.072,0,0,1-.466.116Zm-5.148-10.645a1.165,1.165,0,0,1-1.025-.629l-2.166-4.169a1.165,1.165,0,0,1,.489-1.584,1.141,1.141,0,0,1,1.561.489c.745,1.4,1.467,2.8,2.189,4.216a1.165,1.165,0,0,1-.512,1.561,1.071,1.071,0,0,1-.536.116ZM742.684,191.8a1.165,1.165,0,0,1-1.025-.582c-.769-1.374-1.537-2.725-2.329-4.076a1.164,1.164,0,1,1,2-1.188c.792,1.374,1.584,2.748,2.329,4.123a1.164,1.164,0,0,1-.443,1.584,1.236,1.236,0,0,1-.536.14Zm-200.829-1a1.188,1.188,0,0,1-1.164-1c-.187-1.584-.4-3.144-.559-4.659a1.172,1.172,0,0,1,2.329-.256c.163,1.537.349,3.1.559,4.659a1.188,1.188,0,0,1-1,1.3ZM736.7,181.713a1.164,1.164,0,0,1-1-.559c-.815-1.328-1.654-2.655-2.492-3.983a1.165,1.165,0,1,1,1.957-1.234c.862,1.328,1.7,2.655,2.516,4.006a1.141,1.141,0,0,1-.373,1.607,1.118,1.118,0,0,1-.489.093Zm-196.031-2.632a1.165,1.165,0,0,1-1.141-1.095c0-1.584-.21-3.168-.256-4.659a1.188,1.188,0,0,1,1.118-1.211h0a1.188,1.188,0,0,1,1.164,1.141c0,1.537.14,3.1.233,4.659a1.164,1.164,0,0,1-1.071,1.258Zm189.626-7.267a1.165,1.165,0,0,1-.955-.512l-2.656-3.867a1.17,1.17,0,0,1,1.91-1.351L731.271,170a1.165,1.165,0,0,1-.326,1.607,1.1,1.1,0,0,1-.652.14Zm-190-4.519h0a1.188,1.188,0,0,1-1.165-1.165v-4.659a1.188,1.188,0,0,1,1.165-1.141h0a1.165,1.165,0,0,1,1.118,1.211V166.2a1.165,1.165,0,0,1-1.118,1.025Zm183.22-5.124a1.188,1.188,0,0,1-.932-.466l-2.818-3.75a1.165,1.165,0,1,1,1.84-1.421c.955,1.258,1.91,2.516,2.842,3.8a1.165,1.165,0,0,1-.233,1.631,1.282,1.282,0,0,1-.7.14ZM540.83,155.509h-.116a1.141,1.141,0,0,1-1.048-1.258c.14-1.607.3-3.191.489-4.659a1.165,1.165,0,0,1,1.281-1.025,1.188,1.188,0,0,1,1.025,1.3c-.186,1.514-.349,3.075-.489,4.659a1.141,1.141,0,0,1-1.142.908Zm175.487-2.655a1.118,1.118,0,0,1-.908-.443c-.978-1.211-1.98-2.329-2.982-3.61a1.188,1.188,0,0,1,.163-1.654,1.165,1.165,0,0,1,1.631.163c1,1.188,2,2.329,3,3.657a1.164,1.164,0,0,1-.186,1.63,1.188,1.188,0,0,1-.722.186Zm-7.593-8.991a1.118,1.118,0,0,1-.862-.4l-3.144-3.494a1.188,1.188,0,0,1,0-1.654,1.165,1.165,0,0,1,1.654,0c1.072,1.141,2.12,2.329,3.168,3.494a1.188,1.188,0,0,1-.885,1.957Zm-166.356,0h-.21a1.165,1.165,0,0,1-.932-1.351c.279-1.584.606-3.144.955-4.659a1.195,1.195,0,1,1,2.329.536c-.326,1.491-.652,3-.932,4.659a1.141,1.141,0,0,1-1.211.722Zm158.39-8.642a1.188,1.188,0,0,1-.839-.349c-1.095-1.118-2.19-2.329-3.308-3.331a1.165,1.165,0,0,1,0-1.654,1.188,1.188,0,0,1,1.654,0c1.118,1.118,2.329,2.329,3.331,3.377a1.118,1.118,0,0,1,0,1.631,1.049,1.049,0,0,1-.862.233ZM545.14,132.4h-.326a1.165,1.165,0,0,1-.792-1.467c.489-1.537.978-3.051,1.514-4.519a1.165,1.165,0,1,1,2.19.792c-.513,1.444-1,2.912-1.468,4.426a1.165,1.165,0,0,1-1.142.675Zm147.186-5.427a1.165,1.165,0,0,1-.792-.3c-1.141-1.071-2.329-2.143-3.471-3.168a1.165,1.165,0,0,1,0-1.654,1.188,1.188,0,0,1,1.654,0l3.494,3.191a1.188,1.188,0,0,1,0,1.654,1.164,1.164,0,0,1-.908.186Zm-143.017-5.59a1.257,1.257,0,0,1-.489,0,1.164,1.164,0,0,1-.582-1.537c.675-1.467,1.4-2.888,2.143-4.286a1.162,1.162,0,0,1,2.05,1.095c-.722,1.351-1.421,2.749-2.073,4.169a1.142,1.142,0,0,1-1.072.466Zm134.166-2.329a1.3,1.3,0,0,1-.745-.256c-1.188-1.025-2.329-2-3.634-2.981A1.16,1.16,0,1,1,680.54,114c1.235.978,2.469,1.98,3.68,3a1.174,1.174,0,0,1-.769,2.073Zm-9.317-7.291a1.072,1.072,0,0,1-.676-.233c-1.281-.932-2.539-1.84-3.82-2.725a1.188,1.188,0,0,1-.279-1.631,1.165,1.165,0,0,1,1.63-.279c1.281.908,2.562,1.817,3.843,2.772a1.165,1.165,0,0,1-.7,2.1Zm-119.026-.745a1.165,1.165,0,0,1-.955-1.817c.885-1.351,1.84-2.655,2.818-3.89a1.16,1.16,0,1,1,1.817,1.444,36.959,36.959,0,0,0-2.7,3.75A1.21,1.21,0,0,1,555.132,111.02ZM664.608,105.1a1.235,1.235,0,0,1-.629-.186c-1.328-.862-2.655-1.677-3.983-2.492a1.161,1.161,0,1,1,1.211-1.98l4.03,2.492a1.188,1.188,0,0,1,.349,1.63A1.234,1.234,0,0,1,664.608,105.1Zm-102.045-3.214a1.212,1.212,0,0,1-.815-.326,1.165,1.165,0,0,1,0-1.654,45.744,45.744,0,0,1,3.494-3.284,1.165,1.165,0,0,1,1.514,1.77c-1.141,1-2.329,2.05-3.354,3.144a1.188,1.188,0,0,1-.955.349Zm91.913-2.818a1.165,1.165,0,0,1-.559-.14c-1.4-.769-2.772-1.491-4.146-2.189a1.141,1.141,0,0,1-.512-1.561,1.165,1.165,0,0,1,1.561-.512L655.034,97a1.188,1.188,0,0,1,.466,1.584,1.165,1.165,0,0,1-1.141.489Zm-82.829-4.659a1.188,1.188,0,0,1-.978-.536,1.165,1.165,0,0,1,.326-1.607c1.328-.885,2.725-1.724,4.123-2.469a1.157,1.157,0,1,1,1.118,2.026c-1.351.745-2.679,1.537-3.96,2.329a1.236,1.236,0,0,1-.839.256Zm72.207-.559a1.048,1.048,0,0,1-.466,0c-1.444-.652-2.888-1.258-4.309-1.817a1.166,1.166,0,0,1,.862-2.166c1.444.582,2.911,1.188,4.379,1.84a1.188,1.188,0,0,1-.466,2.329ZM632.86,89.614a1.049,1.049,0,0,1-.373,0c-1.491-.489-2.982-.955-4.449-1.374a1.165,1.165,0,0,1-.815-1.421A1.188,1.188,0,0,1,628.667,86c1.514.419,3.028.885,4.659,1.4a1.142,1.142,0,0,1-.536,2.213Zm-50.825-.629a1.188,1.188,0,0,1-1.095-.745,1.165,1.165,0,0,1,.675-1.491c1.467-.582,2.982-1.118,4.542-1.584a1.188,1.188,0,0,1,1.444.792,1.164,1.164,0,0,1-.792,1.444c-1.467.443-2.935.955-4.356,1.514a1.328,1.328,0,0,1-.489.07Zm39.458-2.446h-.256c-1.537-.3-3.051-.582-4.659-.815a1.118,1.118,0,0,1-.978-1.3,1.141,1.141,0,0,1,1.3-.978c1.561.233,3.144.512,4.659.815a1.142,1.142,0,0,1,.909,1.374,1.118,1.118,0,0,1-1.048.908Zm-28.138-.722a1.169,1.169,0,1,1-.21-2.329c1.561-.28,3.168-.489,4.659-.652a1.172,1.172,0,0,1,.256,2.329c-1.537.163-3.1.373-4.658.629Zm16.445-.839h0c-1.56,0-3.121-.14-4.659-.14a1.165,1.165,0,0,1,0-2.329,47.184,47.184,0,0,1,4.775.163,1.141,1.141,0,0,1,1.095,1.235,1.188,1.188,0,0,1-1.281,1.071Z" transform="translate(1040.372 219.451)" fill="#a8cff0"/><path d="M618.563,327.615h0a30.911,30.911,0,0,1-4.659-.233,1.141,1.141,0,0,1-1.048-1.258,1.211,1.211,0,0,1,1.258-1.071,42.175,42.175,0,0,0,4.5.233,1.165,1.165,0,1,1-.047,2.329Zm6.988-.489a1.167,1.167,0,0,1-.163-2.329,44.27,44.27,0,0,0,4.379-.908,1.165,1.165,0,0,1,1.421.815,1.141,1.141,0,0,1-.815,1.421,39.023,39.023,0,0,1-4.659.978Zm-18.331-.815h-.233c-1.491-.326-3.028-.7-4.658-1.141a1.188,1.188,0,0,1-.792-1.444,1.165,1.165,0,0,1,1.444-.792c1.491.419,2.958.792,4.4,1.095a1.172,1.172,0,0,1-.256,2.329Zm29.349-2.492a1.193,1.193,0,0,1-.512-2.329,35.4,35.4,0,0,0,3.913-2.143,1.165,1.165,0,0,1,1.258,1.956,38.444,38.444,0,0,1-4.169,2.329,1.209,1.209,0,0,1-.582.186Zm-40.483-.885h-.419c-1.421-.559-2.865-1.165-4.309-1.817a1.211,1.211,0,0,1-.582-1.561,1.164,1.164,0,0,1,1.56-.559c1.4.629,2.8,1.234,4.169,1.77a1.165,1.165,0,0,1,.675,1.514A1.188,1.188,0,0,1,596.086,322.933Zm49.87-5.544a1.141,1.141,0,0,1-.862-.373,1.165,1.165,0,0,1,0-1.654,36.5,36.5,0,0,0,3.075-3.214,1.188,1.188,0,0,1,1.654-.14,1.141,1.141,0,0,1,0,1.631,38.294,38.294,0,0,1-3.284,3.447,1.071,1.071,0,0,1-.559.3Zm7.221-8.921a1.212,1.212,0,0,1-.605-.186,1.141,1.141,0,0,1-.373-1.584c.768-1.258,1.491-2.586,2.166-3.96a1.141,1.141,0,0,1,1.537-.536,1.165,1.165,0,0,1,.536,1.561,36.263,36.263,0,0,1-2.329,4.146,1.188,1.188,0,0,1-.908.559Zm4.868-10.435a1.184,1.184,0,0,1-.4,0,1.165,1.165,0,0,1-.722-1.491q.745-2.1,1.328-4.332a1.141,1.141,0,0,1,1.421-.815,1.165,1.165,0,0,1,.815,1.421c-.4,1.537-.862,3.051-1.351,4.5a1.165,1.165,0,0,1-1.071.722Zm2.772-11.18h-.21a1.165,1.165,0,0,1-.955-1.328c.256-1.467.443-2.982.606-4.519a1.172,1.172,0,0,1,2.329.256c-.163,1.584-.373,3.121-.629,4.659a1.165,1.165,0,0,1-1.118.932Zm1.072-11.483h0a1.164,1.164,0,0,1-1.141-1.188v-4.565a1.165,1.165,0,0,1,1.141-1.188,1.234,1.234,0,0,1,1.188,1.141v4.682a1.165,1.165,0,0,1-1.165,1.118Zm-.256-11.53a1.165,1.165,0,0,1-1.165-1.071c0-1.514-.256-3.028-.419-4.659a1.16,1.16,0,0,1,2.306-.256c.163,1.561.326,3.1.442,4.659a1.164,1.164,0,0,1-1.071,1.258Zm-1.4-11.46a1.142,1.142,0,0,1-1.141-.955c-.256-1.491-.535-3-.838-4.5a1.188,1.188,0,0,1,2.329-.466c.3,1.537.582,3.051.838,4.659a1.188,1.188,0,0,1-.955,1.351ZM657.9,241.106a1.164,1.164,0,0,1-1.118-.885c-.372-1.467-.769-2.958-1.188-4.426a1.188,1.188,0,0,1,.815-1.444,1.165,1.165,0,0,1,1.421.815c.443,1.491.839,2.981,1.211,4.5a1.165,1.165,0,0,1-.838,1.4Zm-3.214-11.087a1.141,1.141,0,0,1-1.095-.792c-.489-1.444-.978-2.888-1.491-4.332a1.165,1.165,0,0,1,.7-1.491,1.142,1.142,0,0,1,1.491.7c.535,1.467,1.025,2.935,1.514,4.379a1.141,1.141,0,0,1-.745,1.467.954.954,0,0,1-.4.07Z" transform="translate(1108.894 406.634)" fill="#2870db"/><path d="M590.321,265.986a1.233,1.233,0,0,1-.559-.14l-2.05-1.165a1.142,1.142,0,0,1-.419-1.584,1.165,1.165,0,0,1,1.584-.442l2,1.141a1.188,1.188,0,0,1,.466,1.584A1.141,1.141,0,0,1,590.321,265.986Z" transform="translate(1104.176 458.713)" fill="#2870db"/><path d="M461.183,141.4c0-7.64-10.831-13.859-24.061-13.976s-23.945,6.149-23.922,13.813c0,6.988,9.084,12.788,20.754,13.719v4.1c-2.213.326-3.843,1.491-3.843,2.865v13.23c0,1.677,2.329,3,5.218,3.028h3.936c2.865,0,5.194-1.328,5.171-2.981v-13.23c0-1.4-1.654-2.562-3.866-2.912v-3.867C452.332,154.161,461.206,148.408,461.183,141.4Z" transform="translate(872.977 279.147)" fill="#fff"/><path d="M812.719,765.682l-416.4-240.543c-16.119-9.317-29.186-34.287-29.186-55.786V90.591c0-21.5,13.067-31.375,29.186-22.058l416.4,240.52c16.119,9.317,29.186,34.264,29.186,55.763V743.6C842,765.1,828.837,774.976,812.719,765.682Z" transform="translate(811.738 196.207)" fill="#cce1ff"/><path d="M817.935,306.455,401.555,66c-6.382-3.68-12.275-4.379-17.1-2.516-.606.233-12.019,6.126-12.578,6.452h0c4.961-2.329,11.274-1.98,18.145,2L806.4,312.418c16.119,9.317,29.186,34.264,29.186,55.763V746.966c0,13.417-5.1,22.314-12.834,24.83a4.8,4.8,0,0,0,2.562-.862c.373-.21,12.461-6.755,12.811-6.988,5.544-3.89,9.014-11.856,9.014-22.92V362.217C847.143,340.718,834.053,315.749,817.935,306.455Z" transform="translate(818.052 192.841)" fill="#6ca1f1"/><path d="M814.72,307.172,398.271,66.629c-6.359-3.68-12.275-4.356-17.073-2.516-.606.256-8.758,4.659-9.317,4.891h0c4.961-2.329,11.274-1.98,18.145,2L806.4,311.574Z" transform="translate(818.052 193.685)" fill="#4f9fdb"/><path d="M806.616,308.761,390.283,68.218c-6.592-3.82-12.671-4.379-17.563-2.329A21.546,21.546,0,0,1,386.7,69.2l416.5,240.613c16.118,9.317,29.186,34.264,29.186,55.763V744.357c0,12.694-4.659,21.289-11.646,24.318,9.014-1.421,15.117-10.668,15.117-25.366V364.523C835.871,343.024,822.921,318.055,806.616,308.761Z" transform="translate(819.168 195.799)" fill="#fff"/><path d="M374.17,90.45v345.1c0,16.864,8.013,33.332,20.963,41.577L807.018,715.089l.7.4a5.567,5.567,0,0,0,8.339-4.845V345.784Z" transform="translate(821.096 230.005)" fill="#3f8eee"/><path d="M815.539,712.364l-.675-.373L402.91,474.034c-12.974-8.246-20.963-24.714-20.963-41.577V94.922L374.19,90.45v345.1c0,16.864,8.013,33.332,20.963,41.577L806.991,715.089l.7.4a5.567,5.567,0,0,0,7.989-3Z" transform="translate(821.122 230.005)" fill="#3d68b2"/><path d="M554,185.548a17.609,17.609,0,0,0,8.036,13.836c4.425,2.562,8.012.512,8.012-4.658a17.7,17.7,0,0,0-8.013-13.859C557.517,178.4,554,180.446,554,185.548Z" transform="translate(1060.138 348.804)" fill="#fc0"/><path d="M545.07,180.42a17.749,17.749,0,0,0,8.036,13.859c4.426,2.562,8.036.512,8.036-4.659a17.748,17.748,0,0,0-8.036-13.976C548.68,173.176,545.07,175.319,545.07,180.42Z" transform="translate(1048.267 341.889)" fill="#eb4680"/><path d="M536.18,175.19a17.7,17.7,0,0,0,8.013,13.859c4.449,2.562,8.036.512,8.036-4.659a17.61,17.61,0,0,0-8.036-13.836C539.767,168.062,536.18,170.112,536.18,175.19Z" transform="translate(1036.45 335.077)" fill="#0fbab8"/><path d="M511.241,177.385,480.96,159.939c-3.051-1.747-5.52-.349-5.52,3.168a12.182,12.182,0,0,0,5.52,9.527l30.281,17.446c3.051,1.747,5.544.349,5.544-3.145a12.229,12.229,0,0,0-5.544-9.55Zm49.753,28.72-30.281-17.446c-3.051-1.747-5.544-.349-5.544,3.168a12.205,12.205,0,0,0,5.544,9.527L560.994,218.8c3.051,1.747,5.52.349,5.52-3.168A12.182,12.182,0,0,0,560.994,206.1Zm49.73,28.72-30.28-17.446c-3.051-1.747-5.52-.349-5.52,3.168a12.183,12.183,0,0,0,5.52,9.527l30.28,17.446c3.051,1.747,5.544.349,5.544-3.168a12.205,12.205,0,0,0-5.544-9.527Zm49.753,28.743L630.2,246.122c-3.051-1.747-5.52-.349-5.52,3.145a12.206,12.206,0,0,0,5.52,9.55l30.281,17.446c3.051,1.747,5.52.349,5.52-3.168A12.182,12.182,0,0,0,660.477,263.568Z" transform="translate(955.711 321.375)" fill="#72b5e8"/><path d="M139.17,120.208V250.251l14.232-8.339V111.52Z" transform="translate(1207.894 403.475)" fill="#6ca1f1"/><path d="M301.081,208.3V338.342L17.4,175.642V45.25Z" transform="translate(1046.029 315.385)" fill="#2870db"/><path d="M17.4,50.142,301.081,213.19l14.185-8.688L31.469,41.57Z" transform="translate(1046.029 310.493)" fill="#6ca1f1"/><path d="M17.4,45.25,301.081,208.3l14.185-8.688-14.208,6.708Z" transform="translate(1046.029 315.385)" fill="#fff" opacity="0.7"/><path d="M172.457,183.025V177.5L82.92,126.61v5.52Z" transform="translate(1133.123 423.534)" fill="#fff"/><path d="M66.27,82.52v5.52l150.494,86.113V168.61Z" transform="translate(1110.991 364.927)" fill="#fff"/><path d="M119.261,132.827,66.27,102.22v5.52l52.991,30.607Z" transform="translate(1110.991 391.113)" fill="#fff"/><path d="M104.42,134.1v5.52l21.872,11.833v-5.52Z" transform="translate(1161.702 433.49)" fill="#fff"/><path d="M151.731,141.7,66.27,92.37v5.52l85.461,49.334Z" transform="translate(1110.991 378.02)" fill="#cce1ff"/><path d="M97.575,115.375,66.27,97.3v5.52L97.575,120.9Z" transform="translate(1110.991 384.573)" fill="#fff"/><path d="M76.29,123.38l60.072,34.683v-5.52L76.29,117.86Z" transform="translate(1124.31 411.903)" fill="#cce1ff"/><path d="M82.04,106.4v5.52l84.343,47.913v-5.52Z" transform="translate(1131.953 396.67)" fill="#fff"/><path d="M91.35,116.7v5.544l42.183,24.341v-5.52Z" transform="translate(1144.329 410.361)" fill="#fff"/><path d="M84.182,122.412,66.27,112.07v5.52l17.912,10.342Z" transform="translate(1110.991 404.207)" fill="#fff"/><path d="M105.29,120.42,164.9,154.055v-5.52L105.29,114.9Z" transform="translate(1162.859 407.968)" fill="#fff"/><path d="M120.58,133.854l23.991,13.836v-5.52L120.58,128.31Z" transform="translate(1183.183 425.794)" fill="#fff"/><path d="M66.27,92.97l150.494,86.09v-5.52L66.27,87.45Z" transform="translate(1110.991 371.48)" fill="#fff"/><path d="M111.79,134.02l44.466,24.9V153.4L111.79,128.5Z" transform="translate(1171.499 426.046)" fill="#cce1ff"/><path d="M99.6,136.24,66.27,117v5.52L99.6,141.76Z" transform="translate(1110.991 410.76)" fill="#fff"/><path d="M123.69,155.33,140.437,165v-5.52L123.69,149.81Z" transform="translate(1187.317 454.373)" fill="#cce1ff"/><path d="M116.15,146.05l34.31,19.822v-5.52L116.15,140.53Z" transform="translate(1177.294 442.037)" fill="#fff"/><path d="M66.27,112.67l150.494,86.09v-5.52L66.27,107.15Z" transform="translate(1110.991 397.667)" fill="#fff"/><path d="M390.106,153.007l-49.474-28.627c-8.642-4.985-15.653.3-15.653,11.856v57.3c0,11.646,6.988,24.946,15.653,29.931l49.474,28.627c8.665,4.985,15.676-.3,15.676-11.833V182.938C405.782,171.408,398.771,157.992,390.106,153.007Z" transform="translate(755.709 272.614)" fill="#fff"/><path d="M396.232,247.316l-49.474-28.627c-8.665-4.985-15.676-18.378-15.676-29.931V131.5a18.634,18.634,0,0,1,1.933-8.944c-4.8.792-8.036,5.753-8.036,13.6v57.3c0,11.646,6.988,24.946,15.653,29.931l49.474,28.627c5.916,3.424,11.064,2,13.743-2.912a11.646,11.646,0,0,1-7.617-1.794Z" transform="translate(755.709 272.688)" fill="#3d68b2"/><path d="M373.606,159.87l-49.474-28.6c-8.642-5.008-15.653.3-15.653,11.833v57.277c0,11.53,6.988,24.923,15.653,29.931l49.474,28.627c8.665,5.008,15.676-.3,15.676-11.833V189.8C389.282,178.271,382.271,164.878,373.606,159.87Z" transform="translate(733.776 281.754)" fill="#2870db"/><path d="M378.618,157.816l-49.474-28.6a10.272,10.272,0,0,0-9.783-1.072h0l-8.572,5.031h0a9.923,9.923,0,0,1,10.319.769l49.474,28.6c8.665,5.008,15.676,18.4,15.676,29.931v57.277c0,5.614-1.677,9.713-4.379,11.926l4.659-3.145a14.092,14.092,0,0,0,7.663-13.51V187.747C394.271,176.217,387.26,162.824,378.618,157.816Z" transform="translate(736.847 279.079)" fill="#2870db"/><path d="M371.341,159.545l-49.474-28.627c-4.309-2.469-8.2-2.329-11.017-.3a10.575,10.575,0,0,1,9.107,1.328l49.474,28.627c8.665,4.985,15.676,18.4,15.676,29.931v57.183c0,5.8-1.793,10.016-4.659,12.159,3.96-1.514,6.545-6.2,6.545-13.184V189.453C386.994,177.947,379.983,164.53,371.341,159.545Z" transform="translate(736.927 281.356)" fill="#fff" opacity="0.7"/><path d="M314.11,137v65.569l53.573,30.979V167.933Zm50.219,90.608-46.772-27.02v-57.7l46.772,27.019Z" transform="translate(741.26 291.882)" fill="#cce1ff"/><path d="M339.826,162.458c0,4.309-3.051,6.033-6.778,3.867a14.907,14.907,0,0,1-6.778-11.646c0-4.286,3.028-6.033,6.778-3.867a15,15,0,0,1,6.778,11.646Z" transform="translate(757.424 309.004)" fill="#cce1ff"/><path d="M14.71,105.492,28.686,87.44l14.185,35.894,10.319-8.385L64.58,145.9l-.233,3.121L14.92,122.589Z" transform="translate(1042.454 371.467)" fill="#cce1ff"/><path d="M630.277,189.287c0,8.9-3.075,15.21-8.059,18.261l-8.688,5.381c-5.218,2.912-1.887-3.68-9.783-8.246-15.886-9.177-28.766-31.4-28.766-49.637,0-9.014-8.339-9.084-3.238-12.089l9.666-5.52c5.194-2.818,12.275-2.329,20.1,2.213C617.4,148.827,630.277,171.048,630.277,189.287Z" transform="translate(1081.526 290.141)" fill="#2870db"/><path d="M591.362,141.74c-7.617-4.4-14.535-4.985-19.682-2.329,4.8-1.328,10.738-.326,17.19,3.4,15.909,9.177,28.79,31.4,28.79,49.637,0,9.48-3.494,16.025-9.084,18.82,6.988-1.957,11.646-8.968,11.646-19.8C620.129,173.185,607.364,150.917,591.362,141.74Z" transform="translate(1083.639 292.966)" fill="#fff"/><ellipse cx="23.432" cy="40.576" rx="23.432" ry="40.576" transform="translate(1632.928 445.23) rotate(-30.31)" fill="#2870db"/><path d="M581.956,153.194c0,2.562-1.817,3.587-4.053,2.329a8.968,8.968,0,0,1-4.053-6.988c0-2.562,1.817-3.587,4.053-2.329a8.968,8.968,0,0,1,4.053,6.988Z" transform="translate(1086.524 303.407)" fill="#fff"/><path d="M588.963,157.3c0,2.562-1.817,3.587-4.053,2.329a8.851,8.851,0,0,1-4.03-6.988c0-2.562,1.794-3.61,4.03-2.329A8.874,8.874,0,0,1,588.963,157.3Z" transform="translate(1095.868 308.851)" fill="#f8fbfd"/><path d="M572.54,153.43l3.773.629a27.53,27.53,0,0,0,11.646,16.072c5.031,2.888,9.643,1.933,11.46-2.329l3.727,3.82c-2.329,5.753-8.5,6.988-15.187,3.168A36.523,36.523,0,0,1,572.54,153.43Z" transform="translate(1084.782 313.722)" fill="#fff"/><path d="M579.091,154.648a8.875,8.875,0,0,1-4.053-6.988,3.331,3.331,0,0,1,.559-1.98c-1.048.233-1.747,1.235-1.747,2.8a8.968,8.968,0,0,0,4.053,6.988c1.514.862,2.8.652,3.494-.349A3.075,3.075,0,0,1,579.091,154.648Z" transform="translate(1086.524 303.42)" fill="#7ea9ce"/><path d="M586.1,158.694a8.968,8.968,0,0,1-4.053-6.988,3.214,3.214,0,0,1,.559-1.957c-1.048.233-1.724,1.211-1.724,2.8a8.851,8.851,0,0,0,4.03,6.988c1.514.862,2.819.675,3.494-.326a3.308,3.308,0,0,1-2.306-.512Z" transform="translate(1095.868 308.831)" fill="#7ea9ce"/><path d="M585.5,160.059l-.466-.489a6.706,6.706,0,0,1-1.723,2.469,5.917,5.917,0,0,0,2.189-1.98Z" transform="translate(1099.099 321.884)" fill="#b08100"/><path d="M589.078,173.881a36.335,36.335,0,0,1-15.047-20.195l-1.491-.256a36.523,36.523,0,0,0,15.35,21.289c5.031,2.888,9.736,2.888,12.764.256C597.65,176.723,593.48,176.443,589.078,173.881Z" transform="translate(1084.782 313.722)" fill="#7ea9ce"/><path d="M289.69,224.008V382.794l14.232-8.315V215.32Z" transform="translate(1407.975 541.453)" fill="#6ca1f1"/><path d="M466.888,320.872V479.658L156.42,301.632V142.45Z" transform="translate(1230.824 444.59)" fill="#2870db"/><path d="M156.42,147.328,466.888,325.75l14.185-8.688L170.489,138.78Z" transform="translate(1230.824 439.711)" fill="#6ca1f1"/><path d="M156.42,142.45,466.888,320.872l14.185-8.688-14.232,6.708Z" transform="translate(1230.824 444.59)" fill="#fff" opacity="0.7"/><ellipse cx="39.667" cy="68.69" rx="39.667" ry="68.69" transform="translate(1561.237 767.586) rotate(-30.31)" fill="#cce1ff"/><path d="M593.294,384.537C566.367,369,544.659,331.383,544.659,300.5c0-11.507,3.028-20.474,8.245-26.367-8.013,5.357-12.9,15.816-12.9,30.444,0,30.886,21.8,68.5,48.728,84.04,16.864,9.736,31.725,8.479,40.459-1.421C620.2,393.132,607.549,392.62,593.294,384.537Z" transform="translate(1041.528 474.165)" fill="#084c94"/><path d="M552.469,249.159l-10.482-6.033V361.174l10.482,6.056Zm15.094-5.916-10.482-6.033V369.745l10.482,6.056Zm15.513,26.67-10.458-6.056V378.62l10.458,6.056Zm-72.207,8.315v64.684l10.482,6.033v-64.66Zm26.018-17.982L526.4,254.214v97.573l10.482,6.056Zm61.376,42.439L587.8,296.653v90.841l10.458,6.056Zm14.954,37.478-10.482-6.056v62.122l10.482,6.056ZM505.861,267,495.4,260.945v72.58l10.458,6.033Zm-41.531,4.286V315.24l10.482,6.056V277.343Zm26.018-17.26-10.482-6.033v76.12l10.482,6.056Z" transform="translate(940.942 425.088)" fill="#cce1ff"/><path d="M552.5,284.306l-10.482-6.056v71.718l10.482,6.056ZM567.59,251.7l-10.482-6.056v112.9L567.59,364.6ZM583.1,279.647l-10.458-6.056v93.8l10.458,6.056ZM510.9,282.722v48.915l10.482,6.033V288.755Zm26.018-1.933-10.482-6.033v65.825l10.482,6.056Zm-31.072-19.053-10.458-6.056v66.64l10.458,6.033ZM464.31,291.317v12.718l10.482,6.056V297.35Zm26.018,0-10.482-6.056v27.625l10.482,6.056Zm107.961,17.027-10.412-5.963v73.931l10.458,6.056Zm14.954,29.768-10.482-6.033v52.9l10.482,6.056Z" transform="translate(940.916 436.294)" fill="#6ca1f1"/><path d="M221.122,202.56,210.64,196.5v-1.3l10.482,6.033Z" transform="translate(1302.897 514.708)" fill="#fff"/><path d="M214.452,190.551l-10.482-6.056v-1.3l10.482,6.056Z" transform="translate(1294.031 498.744)" fill="#fff"/><path d="M234.058,227.671,223.6,221.638V220.31l10.458,6.056Z" transform="translate(1320.124 548.086)" fill="#fff"/><path d="M207.958,204.551,197.5,198.494v-1.3l10.458,6.056Z" transform="translate(1285.43 517.354)" fill="#fff"/><path d="M227.662,214.89l-10.482-6.056v-1.3l10.482,6.056Z" transform="translate(1311.59 531.098)" fill="#fff"/><path d="M181.3,207.58l-10.482-6.056v-1.3l10.482,6.056Z" transform="translate(1249.965 521.381)" fill="#fff"/><path d="M187.972,194.871l-10.482-6.056v-1.3l10.482,6.033Z" transform="translate(1258.832 504.486)" fill="#fff"/><path d="M174.618,208.843v1.3l-10.458-6.033v-1.3Z" transform="translate(1241.113 524.824)" fill="#fff"/><path d="M201.312,203.051l-10.482-6.033V195.69l10.482,6.056Z" transform="translate(1276.564 515.36)" fill="#fff"/><path d="M194.642,206.457l-10.482-6.033v-1.3l10.482,6.033Z" transform="translate(1267.698 519.919)" fill="#fff"/><path d="M545.684,312.063c.629-23.293,17.609-32.61,38.41-20.614,10.715,6.2,20.4,16.841,27.392,29.023l7.687-1.933c-8.758-15.862-21.243-29.861-35.079-37.851-26.181-15.117-47.517-3.168-47.843,26.6l6.149,5.59Z" transform="translate(1036.543 474.175)" fill="#6ca1f1"/><path d="M604.975,362.143a33.144,33.144,0,0,1-19.286-5.124c-19.706-11.39-35.987-37.9-38.2-61.12l-9.317-4.659c0,.163-3.144.815-3.121.978,2.632,28.743,26.088,61.353,50.639,75.561,8.921,5.148,14.954,7.85,22.1,6.988.3,0,2.912-.792,3.214-.815Z" transform="translate(1034.948 496.908)" fill="#6ca1f1"/><path d="M574.138,298.163a73.489,73.489,0,0,1,7.454,30.28c0,13.976-5.684,23.106-14.511,26.111l5.94,11.786c10.948-3.773,17.959-15.163,17.959-32.47a91.383,91.383,0,0,0-9.317-37.641Z" transform="translate(1077.525 503.542)" fill="#6ca1f1"/><path d="M581.4,330.168a32.165,32.165,0,0,1-6.732-8.083c-1.118-1.863-1.095-3.89,0-4.519a8.734,8.734,0,0,0,3.448-3.843c1.188.326,2.655-.117,2.655-1.724a6.5,6.5,0,0,0-1.724-4.379,21.43,21.43,0,0,0-10.854-19.053,10.016,10.016,0,0,0-6.592-1.84,32.4,32.4,0,0,0-3.913,1.071c-2.213,1.095-.163,3.471-.326,7.314-.978-.233-1.724.722-1.724,2.329a7.827,7.827,0,0,0,2.655,4.8,39.612,39.612,0,0,0,3.447,7.826c1.071,1.887,1.118,3.936,0,4.519a8.921,8.921,0,0,1-6.732.3,4.915,4.915,0,0,0-2.818-.116,32.451,32.451,0,0,0-3.354.932c-1.514.745.21,1.84.21,4.426v7.291a4.869,4.869,0,0,0,2.329,3.843l31.282,20.754c.536.326,3.61-.769,3.983-.932a1.613,1.613,0,0,0,.815-1.491V342.28A17.376,17.376,0,0,0,581.4,330.168Z" transform="translate(1052.445 490.87)" fill="#6ca1f1"/><path d="M544.784,312.306c.629-23.293,17.586-32.61,38.41-20.591,10.715,6.173,20.4,16.841,27.392,29l7.663-1.91c-8.735-15.886-21.22-29.861-35.055-37.851-26.2-15.14-47.54-3.168-47.843,26.6Z" transform="translate(1035.347 474.515)" fill="#fff"/><path d="M602.293,362.4a33.145,33.145,0,0,1-19.286-5.124c-19.729-11.39-35.987-37.9-38.2-61.12L535.49,291.5c2.516,29.023,22.9,62.354,47.587,76.61,9.317,5.357,17.959,7.314,25.3,6.266Z" transform="translate(1035.533 497.254)" fill="#fff"/><path d="M573.251,298.413a73.583,73.583,0,0,1,7.454,30.28c0,13.976-5.683,23.106-14.535,26.111l5.963,11.763c10.924-3.75,17.935-15.164,17.935-32.447a91.026,91.026,0,0,0-9.2-37.641Z" transform="translate(1076.315 503.874)" fill="#fff"/><path d="M580.05,330.457a32.236,32.236,0,0,1-6.755-8.083c-1.118-1.863-1.072-3.89,0-4.519a8.548,8.548,0,0,0,3.424-3.843c1.188.326,2.655-.117,2.655-1.724a6.428,6.428,0,0,0-1.7-4.379,21.476,21.476,0,0,0-10.854-19.053c-8.129-4.659-10.552-.21-10.854,6.522-.978-.21-1.7.745-1.7,2.329a7.826,7.826,0,0,0,2.655,4.8,36.367,36.367,0,0,0,3.447,7.8c1.071,1.887,1.118,3.96,0,4.542a8.874,8.874,0,0,1-6.755.28c-3.4-1.025-5.963,1.048-5.963,5.241v7.314a4.868,4.868,0,0,0,2.329,3.843l33.867,19.543c1.235.722,2.329.14,2.329-1.258V342.5a17.377,17.377,0,0,0-6.126-12.042Z" transform="translate(1051.697 491.186)" fill="#fff"/><path d="M544.264,312.44c.629-23.293,17.609-32.61,38.41-20.591,10.715,6.172,20.4,16.841,27.392,29l7.687-1.933c-8.758-15.862-21.243-29.838-35.079-37.851-26.181-15.117-47.517-3.145-47.843,26.624Z" transform="translate(1034.656 474.683)" fill="#6ca1f1"/><path d="M601.774,362.533a33.193,33.193,0,0,1-19.287-5.124c-19.705-11.39-35.987-37.9-38.2-61.12l-9.317-4.659c2.516,29.023,22.9,62.354,47.587,76.61,9.317,5.357,17.959,7.314,25.319,6.266Z" transform="translate(1034.842 497.427)" fill="#6ca1f1"/><path d="M572.718,298.53a73.513,73.513,0,0,1,7.454,30.281c0,13.976-5.683,23.106-14.511,26.111l5.94,11.646c10.948-3.75,17.959-15.164,17.959-32.447a91.376,91.376,0,0,0-9.131-37.5Z" transform="translate(1075.637 504.06)" fill="#6ca1f1"/><path d="M579.464,330.587a33.1,33.1,0,0,1-6.732-8.082c-1.118-1.863-1.095-3.89,0-4.519a8.733,8.733,0,0,0,3.448-3.843c1.188.326,2.655-.117,2.655-1.724a6.452,6.452,0,0,0-1.724-4.379,21.429,21.429,0,0,0-10.854-19.053c-8.129-4.659-10.552-.21-10.831,6.522-.978-.21-1.724.745-1.724,2.329a7.826,7.826,0,0,0,2.655,4.8,38.825,38.825,0,0,0,3.447,7.8c1.095,1.887,1.118,3.96,0,4.542a8.8,8.8,0,0,1-6.732.28c-3.424-1.025-5.963,1.048-5.963,5.241v7.314a4.938,4.938,0,0,0,2.329,3.843L583.284,351.2c1.235.722,2.329.14,2.329-1.258v-7.128a17.329,17.329,0,0,0-6.149-12.229Z" transform="translate(1050.979 491.359)" fill="#6ca1f1"/><path d="M157.16,205.629v66.5L168.294,266V199.13Z" transform="translate(1231.808 519.932)" fill="#6ca1f1"/><path d="M297.6,283.2v66.5L51.54,207.643V140.77Z" transform="translate(1091.411 442.356)" fill="#2870db"/><path d="M51.54,144.4,297.6,286.834l11.087-6.5L62.534,138.04Z" transform="translate(1091.411 438.728)" fill="#6ca1f1"/><path d="M51.54,140.77,297.6,283.2l11.087-6.5-10.854,4.752Z" transform="translate(1091.411 442.356)" fill="#fff" opacity="0.7"/><path d="M278.17,317.926,56.75,188.7V149.52L278.17,278.748Z" transform="translate(1098.336 453.987)" fill="#cce1ff"/><path d="M360.91,216.73l4.472,2.585,2.073,21.383h0l2.213-18.914,5.055,2.912,2.213,21.476h0l2.073-19.007,4.006,2.329-2.981,26.321-5.8-3.354-2.12-18.215h0l-2.12,15.769-6.172-3.564Z" transform="translate(803.47 397.865)" fill="#084c94"/><path d="M372.29,223.35l4.472,2.585,2.073,21.383h0l2.213-18.937,5.055,2.935,2.213,21.453h0l2.073-18.984,4.006,2.329-2.981,26.321-5.8-3.331-2.12-18.215h0l-2.12,15.769-6.172-3.564Z" transform="translate(818.597 406.665)" fill="#084c94"/><path d="M383.76,229.87l4.472,2.585,2.073,21.383h0l2.213-18.914,5.054,2.912,2.213,21.476h0l2.073-19.007,4.006,2.329-2.912,26.391-5.8-3.331-2.1-18.215h0l-2.12,15.769-6.289-3.61Z" transform="translate(833.844 415.331)" fill="#084c94"/><path d="M99.5,57.406v46.376l6.988-3.867V53.19Z" transform="translate(1155.162 325.939)" fill="#518de4"/><path d="M123.075,68.811v46.376L81.8,91.335V44.61Z" transform="translate(1131.634 314.534)" fill="#2870db"/><path d="M81.8,46.95l41.275,24.2,6.941-4.216L88.648,42.85Z" transform="translate(1131.634 312.195)" fill="#518de4"/><path d="M81.8,44.61l41.275,24.2,6.941-4.216-7.291,1.98Z" transform="translate(1131.634 314.534)" fill="#fff"/><path d="M86.42,31.53l66.85,39.2L164.5,63.907l-10.924,5.218Z" transform="translate(1137.775 297.147)" fill="#fff" opacity="0.7"/><path d="M115.08,52.255v75.1l11.32-6.242V45.43Z" transform="translate(1175.872 315.624)" fill="#6ca1f1"/><path d="M86.42,35.305l66.85,39.2L164.5,67.682,97.507,28.69Z" transform="translate(1137.775 293.372)" fill="#6ca1f1"/><path d="M86.42,31.53V62.672L121.8,83.426v44.209l31.468,18.192v-75.1Z" transform="translate(1137.775 297.147)" fill="#2870db"/><path d="M176.42,128.885v51.85l7.826-4.309V124.18Z" transform="translate(1257.409 420.304)" fill="#2870db"/><path d="M202.773,141.646V193.5l-46.143-26.67V114.58Z" transform="translate(1231.103 407.543)" fill="#2870db"/><path d="M156.63,117.185l46.143,27.066,7.78-4.705L164.293,112.62Z" transform="translate(1231.103 404.938)" fill="#2870db"/><path d="M156.63,114.58l46.143,27.066,7.78-4.705-8.152,2.213Z" transform="translate(1231.103 407.543)" fill="#fff" opacity="0.7"/><path d="M202.42,143.885v51.85l7.826-4.309V139.18Z" transform="translate(1291.97 440.243)" fill="#2870db"/><path d="M228.773,156.646V208.5l-46.143-26.67V129.58Z" transform="translate(1265.664 427.482)" fill="#2870db"/><path d="M182.63,132.185l46.143,27.066,7.78-4.705L190.293,127.62Z" transform="translate(1265.664 424.877)" fill="#2870db"/><path d="M182.63,129.58l46.143,27.066,7.78-4.705-8.152,2.213Z" transform="translate(1265.664 427.482)" fill="#fff" opacity="0.7"/><path d="M228.25,158.715v51.849l7.826-4.309V154.01Z" transform="translate(1326.305 459.956)" fill="#2870db"/><path d="M254.613,171.476v51.849l-46.143-26.67V144.41Z" transform="translate(1300.012 447.195)" fill="#2870db"/><path d="M208.47,147l46.143,27.066,7.756-4.705-46.259-26.9Z" transform="translate(1300.012 444.603)" fill="#2870db"/><path d="M208.47,144.41l46.143,27.066,7.756-4.705-8.152,2.213Z" transform="translate(1300.012 447.195)" fill="#fff" opacity="0.7"/><path d="M253.75,173.215v51.849l7.826-4.309V168.51Z" transform="translate(1360.201 479.23)" fill="#2870db"/><path d="M280.113,185.976v51.849l-46.143-26.67V158.91Z" transform="translate(1333.909 466.469)" fill="#2870db"/><path d="M233.97,161.5l46.143,27.066,7.756-4.705-46.259-26.9Z" transform="translate(1333.909 463.877)" fill="#2870db"/><path d="M233.97,158.91l46.143,27.066,7.756-4.705-8.152,2.213Z" transform="translate(1333.909 466.469)" fill="#fff" opacity="0.7"/><path d="M534.278,243.575a19.889,19.889,0,0,1-4.286-5.1c-.7-1.188-.675-2.469,0-2.865a5.521,5.521,0,0,0,2.166-2.329c.745.186,1.677,0,1.677-1.095a4.146,4.146,0,0,0-1.071-2.772,13.626,13.626,0,0,0-6.988-12.066c-5.148-2.958-6.685-.14-6.871,4.146-.606-.14-1.072.466-1.072,1.514a5.008,5.008,0,0,0,1.677,3.028,24.452,24.452,0,0,0,2.166,4.938c.7,1.188.722,2.516,0,2.865a5.637,5.637,0,0,1-4.263.186c-2.166-.652-3.773.652-3.773,3.308v4.659a3.075,3.075,0,0,0,1.421,2.329l21.429,12.368a.86.86,0,0,0,1.4-.792v-4.659a11.064,11.064,0,0,0-3.61-7.663Z" transform="translate(1006.488 397.061)" fill="#cce1ff"/><path d="M537.72,254.831l7.477,4.309V245.747l-7.477-4.332Zm11.833,6.848,7.454,4.263v-24.55l-7.477-4.309Zm11.856-28.929V268.5l7.477,4.426V237.059Z" transform="translate(1038.497 419.16)" fill="#cce1ff"/><path d="M513.034,227.316a10.93,10.93,0,0,0-.14-2.12l3.517-.443a33.343,33.343,0,0,0-1.584-5.357l-4.03-1.211a28.713,28.713,0,0,0-2.516-4.333l.978-4.053a32.059,32.059,0,0,0-3.867-3.96l-2.166,2.8a16.791,16.791,0,0,0-1.77-1.188,13.7,13.7,0,0,0-1.77-.862l-2.166-5.311a10.785,10.785,0,0,0-3.867-.373l.978,5.171a5.427,5.427,0,0,0-2.516,1.421l-4.03-3.424a10.741,10.741,0,0,0-1.607,3.494l3.541,4.659a12.559,12.559,0,0,0-.14,1.933,16.467,16.467,0,0,0,.14,2.12l-3.541.443a32.774,32.774,0,0,0,1.607,5.357l4.03,1.211a26.871,26.871,0,0,0,2.516,4.332l-.978,4.053a32.2,32.2,0,0,0,3.867,4.076l2.166-2.818a17.049,17.049,0,0,0,1.77,1.211,13.444,13.444,0,0,0,1.771.838l2.166,5.311a11.345,11.345,0,0,0,3.867.4l-.978-5.194a5.543,5.543,0,0,0,2.516-1.421l4.03,3.424A10.507,10.507,0,0,0,516.411,234l-3.517-4.519a17.174,17.174,0,0,0,.14-2.166Zm-11.646-1.351a10.249,10.249,0,0,1-4.659-8.013c0-2.958,2.1-4.146,4.659-2.655a10.3,10.3,0,0,1,4.659,8.013c.07,2.958-2.05,4.146-4.589,2.655Z" transform="translate(970.386 376.774)" fill="#cce1ff"/><path d="M460.493,185.967l14.861,23.293,14.837-6.056h0a5.66,5.66,0,0,0-1.77-1.724L462.24,186.223a2.166,2.166,0,0,0-1.77-.326Z" transform="translate(935.811 356.793)" fill="#cce1ff"/><path d="M490.926,203.063l-14.884,8.5-4.332-7.291-10.622,4.356h0l9.876-5.637-9.876-17.074a1.887,1.887,0,0,0-1.118,1.98v17.749a6.452,6.452,0,0,0,2.912,5.031L489.132,225.7c1.607.932,2.912.186,2.912-1.654V206.3a6.1,6.1,0,0,0-1.118-3.238Zm0,22.71L480.3,209.143l.792-.443,9.876,17.05Z" transform="translate(935.124 356.91)" fill="#cce1ff"/><path d="M76.64,194.909v66.477l10.505-5.963V188.55Z" transform="translate(1124.775 505.869)" fill="#6ca1f1"/><path d="M178.585,250.313V316.79L0,213.72V146.87Z" transform="translate(1022.9 450.465)" fill="#2870db"/><path d="M0,150.419,178.585,253.862,189.02,247.5,10.365,144.2Z" transform="translate(1022.9 446.916)" fill="#6ca1f1"/><path d="M0,146.87,178.585,250.313l10.435-6.359-10.878,4.379Z" transform="translate(1022.9 450.465)" fill="#fff" opacity="0.7"/><path d="M361.237,243.576l-32.61-18.844c-2-1.165-3.61-.233-3.61,2.073v22.1a7.989,7.989,0,0,0,3.61,6.266l20.4,11.646,10.2,17.609V272.785l2.05,1.188c2,1.141,3.634.233,3.634-2.073V249.8a8.013,8.013,0,0,0-3.68-6.219Zm-23.013,4.146c-1.072.606-2.8-.4-3.843-2.329s-1.071-3.8,0-4.4,2.772.4,3.843,2.329,1.048,3.8,0,4.4Zm8.828,5.1c-1.048.606-2.772-.4-3.843-2.329s-1.048-3.82,0-4.426,2.8.4,3.843,2.329S348.123,252.218,347.052,252.823Zm8.851,5.1c-1.071.606-2.8-.4-3.843-2.329s-1.072-3.82,0-4.426,2.772.4,3.843,2.329,1.141,3.727,0,4.426Zm-33.658-10.575V229.391l-12.462-7.1c-2-1.165-3.634-.233-3.634,2.073v22.1a8.013,8.013,0,0,0,3.634,6.266l2.026,1.165v11.646l10.2-5.823,20.4,11.786c2,1.141,3.634.233,3.634-2.073v-1.048l-17.47-10.062a13.976,13.976,0,0,1-6.336-10.971Z" transform="translate(730.679 404.584)" fill="#cce1ff"/><path d="M34.37,173.46v5.52l85.321,49.264v-5.52Z" transform="translate(1068.587 485.81)" fill="#fff"/><path d="M92.718,217.038,34.37,183.31v5.52l58.348,33.728Z" transform="translate(1068.587 498.903)" fill="#fff"/><path d="M34.37,183.91l85.321,49.264v-5.52L34.37,178.39Z" transform="translate(1068.587 492.363)" fill="#cce1ff"/><path d="M509.195,351.015l-55.46-31.236c4.659-3.517,7.594-7.687,7.594-12.182,0-12.415-21.173-22.477-47.284-22.477S366.76,295.182,366.76,307.6s21.173,22.454,47.284,22.454a96.648,96.648,0,0,0,15.513-1.258l59.723,33.541a16.793,16.793,0,0,0,15.047-.629C509.241,359.377,515.111,354.486,509.195,351.015Z" transform="translate(811.246 488.773)" fill="#92b4d1" opacity="0.2"/><path d="M441.46,314.6a12.695,12.695,0,1,1-17.213-5.171A12.694,12.694,0,0,1,441.46,314.6Z" transform="translate(878.795 519.066)" fill="#001a46"/><path d="M426.265,276.51,398.78,291.324l41,75.608h0v.116c2.329,4.426,10.458,4.659,18.052.606s11.809-10.994,9.317-15.42h0Z" transform="translate(853.809 477.328)" fill="#2870db"/><path d="M426.587,278.515c2.329,4.426-1.84,11.32-9.317,15.42s-15.676,3.82-18.052-.606,1.84-11.32,9.434-15.4S424.211,274.113,426.587,278.515Z" transform="translate(853.511 475.37)" fill="#72b5e8"/><path d="M412.165,267.9l-16.3,8.8,11.646,21.569h0c1.421,2.632,6.242,2.772,10.738.349s6.988-6.545,5.614-9.154h0Z" transform="translate(849.928 465.883)" fill="#001a46"/><path d="M424.523,199.314c-20.358-11.646-38.806-13.09-52.315-5.777-.373.21-19.752,11.017-20.358,11.949,13.719-10.365,34.077-10.2,56.764,2.912,41.391,23.9,74.933,81.757,74.933,129.251,0,24.224-8.735,41.065-22.78,48.589a17.35,17.35,0,0,0,3.657-1.607l13.976-8.479c13.021-7.966,20.963-24.387,20.963-47.587C499.456,281.094,465.891,223.212,424.523,199.314Z" transform="translate(791.427 361.079)" fill="#6ca1f1"/><path d="M418.969,203.235c-41.368-23.9-74.909-4.775-74.909,42.719S377.6,351.307,418.969,375.2s74.932,4.659,74.932-42.719S460.384,227.133,418.969,203.235Zm-1.118,160.719c-35.1-20.288-63.589-69.389-63.589-109.685s28.487-56.531,63.589-36.243,63.5,69.272,63.5,109.569-28.37,56.485-63.5,36.267Z" transform="translate(781.072 366.242)" fill="#2870db"/><path d="M425.189,346.545c-35.1-20.265-63.589-69.366-63.589-109.662,0-16.445,4.659-28.883,12.741-36.453-15.7,4.216-25.9,19.682-25.9,43.79,0,40.3,28.487,89.4,63.589,109.685,20.8,12,39.248,11.2,50.848.186C452.349,356.933,439.3,354.7,425.189,346.545Z" transform="translate(786.894 376.198)" fill="#6ca1f1"/><path d="M407.014,202.457c-19.845-11.46-37.874-13-51.244-6.312,12.485-3.494,30.863-1.584,47.657,8.106,41.391,23.9,74.933,81.757,74.933,129.251,0,24.713-11.973,42.439-26.53,49.73,18.285-5.124,30.141-23.293,30.141-51.547C481.946,284.215,448.4,226.332,407.014,202.457Z" transform="translate(796.637 365.226)" fill="#fff"/></g></svg>