<svg xmlns="http://www.w3.org/2000/svg" width="776.932" height="659.574" viewBox="0 0 776.932 659.574"><g transform="translate(-932.568 -289)"><g transform="translate(932.568 755.245)"><path d="M-3015.552,7140.271c35.59,4.861,174.39,17.216,245.57,58.536s351.627,18.837,409.994-20.659,30.608-77.576,30.608-77.576-31.32-53.674-246.993-68.662-366.575,13.165-366.575,13.165-128.834,17.015-154.459,52.46C-3112.356,7117.586-3051.141,7135.41-3015.552,7140.271Z" transform="translate(3099.715 -7027.514)" fill="rgba(40,112,219,0.07)"/></g><g transform="translate(932.568 290)"><ellipse cx="85.717" cy="11.072" rx="85.717" ry="11.072" transform="translate(584.577 551.121)" fill="rgba(63,61,86,0.19)"/><path d="M0,0H302.591V188.772H0Z" transform="translate(0 18.391)" fill="#5292f1"/><rect width="302.591" height="188.772" transform="translate(19.085 0)" fill="none" stroke="#3f3d56" stroke-miterlimit="10" stroke-width="2"/><path d="M332.13,188.467A65.237,65.237,0,0,0,286,77.1v65.237Z" transform="translate(-115.272 -48.298)" fill="#b7d4ff"/><path d="M257.235,77.1a65.245,65.245,0,0,0-31.209,122.538l31.209-57.3Z" transform="translate(-86.507 -48.298)" fill="#87b7ff"/><path d="M318.37,217.23l-46.13-46.13-31.209,57.3A65.272,65.272,0,0,0,318.37,217.23Z" transform="translate(-101.513 -77.061)" fill="#5499ff"/><rect width="12.492" height="12.492" transform="translate(30.537 149.56)" fill="#87b7ff"/><rect width="12.492" height="12.492" transform="translate(48.581 149.56)" fill="#5499ff"/><path d="M0,0H12.492V12.492H0Z" transform="translate(66.625 149.56)" fill="#b7d4ff"/><rect width="51.357" height="2.082" transform="translate(246.375 152.336)" fill="#3f3d56"/><rect width="51.357" height="2.082" transform="translate(246.375 158.583)" fill="#3f3d56"/><rect width="51.357" height="2.082" transform="translate(246.375 164.829)" fill="#3f3d56"/><rect width="172.116" height="188.772" transform="translate(95.08 281.423)" fill="#bcd7ff"/><rect width="172.116" height="188.772" transform="translate(112.43 263.379)" fill="none" stroke="#3f3d56" stroke-miterlimit="10" stroke-width="2"/><rect width="9.28" height="9.28" transform="translate(121.453 430.854)" fill="#2870db"/><rect width="9.28" height="9.28" transform="translate(134.857 430.854)" fill="#6ea8ff"/><path d="M0,0H9.28V9.28H0Z" transform="translate(148.262 430.854)" fill="#81a7df"/><rect width="36.089" height="1.463" transform="translate(225.555 434.885)" fill="#3f3d56"/><rect width="36.089" height="1.463" transform="translate(225.555 439.274)" fill="#3f3d56"/><rect width="36.089" height="1.463" transform="translate(225.555 443.663)" fill="#3f3d56"/><path d="M326,463.1v15.268a45.805,45.805,0,0,1,32.389,78.194l10.8,10.8A61.073,61.073,0,0,0,326,463.1Z" transform="translate(-127.512 -166.408)" fill="#81a7df"/><path d="M352.892,608.565l-10.8-10.8a45.793,45.793,0,0,1-60.1,4.075L272.753,614A61.072,61.072,0,0,0,352.892,608.565Z" transform="translate(-111.219 -207.615)" fill="#6ea8ff"/><path d="M253.267,524.173a45.8,45.8,0,0,1,45.805-45.8V463.1a61.073,61.073,0,0,0-36.954,109.7l9.241-12.16a45.725,45.725,0,0,1-18.092-36.464Z" transform="translate(-100.583 -166.408)" fill="#2870db"/><path d="M955.572,174.418s-2.832,21.036,4.45,23.463,5.259,21.036,5.259,21.036L943.436,235.5l-19.418,1.618-4.855-25.081L922,205.568s10.923-12.945,3.236-26.3S955.572,174.418,955.572,174.418Z" transform="translate(-309.01 -77.261)" fill="#ffb9b9"/><path d="M955.572,174.418s-2.832,21.036,4.45,23.463,5.259,21.036,5.259,21.036L943.436,235.5l-19.418,1.618-4.855-25.081L922,205.568s10.923-12.945,3.236-26.3S955.572,174.418,955.572,174.418Z" transform="translate(-309.01 -77.261)" opacity="0.1"/><path d="M905.738,363.866l-25.486,59.872s-19.822-11.327-31.554-10.113-26.3-12.945-26.3-12.945l14.563-70.39,27.1-74.84,37.622,23.868Z" transform="translate(-279.403 -102.87)" fill="#575a89"/><path d="M905.738,363.866l-25.486,59.872s-19.822-11.327-31.554-10.113-26.3-12.945-26.3-12.945l14.563-70.39,27.1-74.84,37.622,23.868Z" transform="translate(-279.403 -102.87)" opacity="0.1"/><path d="M952.16,742.281V761.7h-18.2l2.831-22.654Z" transform="translate(-285.776 -226.83)" fill="#575a89"/><path d="M1021.254,695.328l13.346,8.091-9.709,22.249-10.112-1.214L1005.07,710.7Z" transform="translate(-307.536 -213.454)" fill="#575a89"/><path d="M972.27,403.5l23.868,56.231s-8.5,62.3-8.091,67.558.809,7.282-1.214,11.732-2.832,7.282-1.618,12.541,1.618,7.282.809,9.3-6.473,85.358-9.3,91.021,1.618,14.968-1.214,15.777-23.868-1.214-25.081-6.068,4.045-16.586,1.214-20.227.4-134.712-3.641-143.611-48.545-16.991-48.545-16.991-4.045-25.89-1.618-29.936,5.665-29.531,5.665-29.531Z" transform="translate(-302.247 -148.173)" fill="#2f2e41"/><path d="M970.019,799.008s11.327-13.35,21.036,0c0,0,.809,15.777,7.686,19.013s3.641,16.181-6.068,16.586-22.25,2.023-22.654-3.236,1.618-8.5-2.023-10.113,0-10.923,0-10.923Z" transform="translate(-323.457 -267.375)" fill="#2f2e41"/><path d="M950.755,515.865s-.4,29.127-3.236,33.172-4.45,6.473-2.832,10.923,4.045,12.541,2.832,14.159,1.214,10.113,1.214,10.113,31.15,14.968,45.713,46.117c0,0,14.968,24.677,19.418,25.081s9.709-2.832,7.281,6.473-11.732,21.441-18.609,20.227S990.4,669.185,990.4,669.185s-53.8-54.613-59.467-56.231S909.09,598.391,906.258,590.3s-8.9-75.649-6.068-80.1,13.35-10.518,13.35-10.518Z" transform="translate(-302.98 -177.602)" fill="#2f2e41"/><path d="M1067.527,727.6s25.082.809,25.486,6.877-10.518,42.072-8.9,50.567-12.541,27.913-21.845,23.868-2.023-25.081-2.023-25.081-9.3-28.722-7.686-29.127,17.8-5.259,16.991-10.113S1067.527,727.6,1067.527,727.6Z" transform="translate(-349.77 -247.34)" fill="#2f2e41"/><path d="M25.069,0A25.081,25.081,0,0,1,50.151,25.081c0,13.852-8.257,20.822-25.081,25.081S-2.5,41.119-.012,25.081C2.506,10.744,11.217,0,25.069,0Z" transform="translate(602.681 68.638)" fill="#ffb9b9"/><path d="M949.917,221.449s-13.754,14.563-23.868,12.136-15.372-19.822-15.372-19.822l-18.2-3.236s-12.945,57.445-12.945,63.108,12.945,66.749,12.945,77.671-10.518,17.4,5.663,16.991,8.5-5.664,31.959-6.068,27.1,4.854,31.959-3.641a67.678,67.678,0,0,1,12.136-14.968l-8.5-29.936-1.217-84.549s-10.372-20.227-15.1-18.609C949.383,210.526,951.939,219.426,949.917,221.449Z" transform="translate(-296.882 -89.096)" fill="#2870db"/><path d="M972.222,205.411s21.569,2.364,27.637,6.814,23.059,7.686,22.654,10.923-19.822,49.354-19.822,49.354-8.9,36.409-1.214,44.9,36.409,101.135,31.554,108.821-20.227-23.463-20.227-23.463-20.632-66.749-31.959-78.076-12.136-72.412-12.136-75.244S972.222,205.411,972.222,205.411Z" transform="translate(-324.171 -87.559)" fill="#575a89"/><path d="M892.235,209.116s-26.577-10.014-35.881-5.969S841.386,208,841.386,208l-3.236,39.645s-1.214,57.04-11.732,70.794-17.4,71.2-15.777,76.862-2.832,15.372,4.045,12.945S840.577,350,840.577,350s0-31.959,11.327-40.858,29.936-45.713,30.745-54.613,8.5-33.577,8.5-33.577Z" transform="translate(-275.732 -86.572)" fill="#575a89"/><path d="M1038.718,392.075s-12.139,22.654-13.756,26.7-12.945,31.554-29.127,25.486,15.777-35.6,15.777-35.6l7.282-24.677S1037.912,379.939,1038.718,392.075Z" transform="translate(-331.071 -142.002)" fill="#ffb9b9"/><path d="M827.6,209.371h-4.045a9.315,9.315,0,0,0-8.9-1.214c-4.854,2.023-16.182-.809-16.182.4s-12.541-3.641-17.8-1.214-24.272,3.236-24.272,3.236-7.686,19.418-2.427,23.059,12.945.809,16.586,3.641,10.518-.4,12.945,3.236,11.327,10.113,13.35,6.068-2.023-7.686,6.473-3.236,21.845,4.45,21.845,4.45Z" transform="translate(-257.903 -87.941)" fill="#575a89"/><path d="M937.547,130.839c-3.566-.7-7.268.076-10.88.578s-7.593.668-10.648-1.043c-2.256-1.264-3.644-3.354-4.946-5.365a5.648,5.648,0,0,1-1.064-2.367c-.154-1.487.961-2.844,2.144-3.948,5.5-5.129,13.528-7.936,21.628-8.828a43.528,43.528,0,0,1,19.748,2.047c6.149,2.289,11.434,6.482,13.851,11.8a29.177,29.177,0,0,1,2.069,8.426,21.4,21.4,0,0,1,.139,6.381,24.144,24.144,0,0,1-1.457,4.623l-4,10.265a6.447,6.447,0,0,1-1.575,2.646,3.065,3.065,0,0,1-3.19.593,7.186,7.186,0,0,0,.144-3.405,3.162,3.162,0,0,0-2.671-2.286c-1.476-.133-2.737.838-4.137,1.257a5.887,5.887,0,0,1-4.049-.43,4.425,4.425,0,0,1-2.376-2.817c-.221-1.174.15-2.43-.374-3.532-.614-1.291-2.242-1.968-3.465-2.9a6.113,6.113,0,0,1-2.188-7.036c.327-.854,1.252-1.243,1.067-2.224C941.071,131.991,938.835,131.091,937.547,130.839Z" transform="translate(-309.091 -52.501)" fill="#2f2e41"/><rect width="172.116" height="188.772" transform="translate(351.866 163.441)" fill="#a6c9fc"/><rect width="172.116" height="188.772" transform="translate(369.216 145.396)" fill="none" stroke="#3f3d56" stroke-miterlimit="10" stroke-width="2"/><path d="M556,227.5V371.855H695.5" transform="translate(-170.127 -70.306)" fill="none" stroke="#3f3d56" stroke-miterlimit="10" stroke-width="2"/><path d="M0,0H31.231V49.969H0Z" transform="translate(393.507 250.887)" fill="#6ea8ff"/><rect width="31.231" height="83.976" transform="translate(438.618 216.88)" fill="#81a7df"/><rect width="31.231" height="123.535" transform="translate(483.729 177.321)" fill="#2870db"/><rect width="9.28" height="9.28" transform="translate(383.79 312.872)" fill="#6ea8ff"/><rect width="9.28" height="9.28" transform="translate(397.195 312.872)" fill="#81a7df"/><rect width="9.28" height="9.28" transform="translate(410.6 312.872)" fill="#2870db"/><rect width="36.089" height="1.463" transform="translate(487.893 316.903)" fill="#3f3d56"/><rect width="36.089" height="1.463" transform="translate(487.893 321.292)" fill="#3f3d56"/><rect width="36.089" height="1.463" transform="translate(487.893 325.681)" fill="#3f3d56"/><path d="M758.706,212.277a12.89,12.89,0,0,1,12.059,14.35c-.723,6.65-3.39,14.925-11.789,18.1-14.968,5.664-14.159-26.3-11.327-27.509C749.536,216.412,752.5,212.007,758.706,212.277Z" transform="translate(-256.025 -89.656)" fill="#ffb9b9"/><path d="M1030.545,227.854l4.45,2.161s9.709,19.822,10.114,22.654,6.877,13.35,4.45,16.182-6.068,10.113-3.641,12.945,8.091,14.159,8.091,18.2-6.068,14.968-2.023,16.182,2.832,16.991,2.023,18.2-11.327,21.036-11.327,21.036-2.023-22.654-21.845-13.35c0,0-1.618-11.327,0-12.136s5.663-5.663,2.427-6.473-7.686-10.518-6.877-11.732,2.832-2.832.809-4.045-3.641-8.091-3.236-9.3-4.45-6.877-4.45-6.877Z" transform="translate(-336.655 -94.427)" fill="#575a89"/></g></g></svg>