<svg xmlns="http://www.w3.org/2000/svg" width="731.243" height="401.883" viewBox="0 0 731.243 401.883"><g transform="translate(-132.337 -2113.899)"><rect width="577.877" height="370.098" transform="translate(282.62 2114.227)" fill="#e6e6e6"/><rect width="208.621" height="214.37" transform="translate(333.719 2163.925)" fill="#fff"/><rect width="208.621" height="260.366" transform="translate(620.368 2168.082)" fill="#fff"/><ellipse cx="37.371" cy="5.339" rx="37.371" ry="5.339" transform="translate(788.838 2500.556)" fill="#e6e6e6"/><ellipse cx="37.371" cy="5.339" rx="37.371" ry="5.339" transform="translate(415.207 2500.676)" fill="#e6e6e6"/><ellipse cx="85.769" cy="4.107" rx="85.769" ry="4.107" transform="translate(132.337 2496.569)" fill="#e6e6e6"/><rect width="577.877" height="24.55" transform="translate(282.373 2113.899)" fill="#2870db"/><circle cx="4.55" cy="4.55" r="4.55" transform="translate(296.067 2121.901)" fill="#e6e6e6"/><circle cx="4.55" cy="4.55" r="4.55" transform="translate(313.339 2121.901)" fill="#e6e6e6"/><circle cx="4.55" cy="4.55" r="4.55" transform="translate(330.61 2121.901)" fill="#e6e6e6"/><path d="M922.09,344.46h-1.264V309.84A20.037,20.037,0,0,0,900.788,289.8H827.442A20.037,20.037,0,0,0,807.4,309.84V499.768A20.037,20.037,0,0,0,827.442,519.8h73.347a20.037,20.037,0,0,0,20.037-20.037V369.1h1.264Z" transform="translate(-139.096 1893.461)" fill="#3f3d56"/><path d="M901.8,296.15h-9.574a7.109,7.109,0,0,1-6.582,9.794H843.624a7.109,7.109,0,0,1-6.582-9.794H828.1a14.964,14.964,0,0,0-14.964,14.963v189.65A14.964,14.964,0,0,0,828.1,515.727h73.7a14.964,14.964,0,0,0,14.963-14.964V311.113A14.964,14.964,0,0,0,901.8,296.15Z" transform="translate(-140.12 1892.327)" fill="#fff"/><rect width="145.003" height="6.614" transform="translate(365.672 2299.339)" fill="#e6e6e6"/><rect width="145.003" height="6.614" transform="translate(365.672 2320.694)" fill="#2870db"/><rect width="145.003" height="6.614" transform="translate(365.672 2342.049)" fill="#e6e6e6"/><rect width="84.651" height="6.614" transform="translate(683.326 2313.77)" fill="#e6e6e6"/><rect width="84.651" height="6.614" transform="translate(683.326 2334.303)" fill="#e6e6e6"/><rect width="84.651" height="6.614" transform="translate(683.326 2354.837)" fill="#e6e6e6"/><rect width="14.108" height="14.108" transform="translate(776.828 2443.433) rotate(90)" fill="#3f3d56"/><rect width="14.108" height="14.108" transform="translate(754.097 2443.433) rotate(90)" fill="#2870db"/><rect width="14.108" height="14.108" transform="translate(731.367 2443.433) rotate(90)" fill="#3f3d56"/><rect width="14.108" height="14.108" transform="translate(708.637 2443.433) rotate(90)" fill="#3f3d56"/><rect width="14.108" height="14.108" transform="translate(685.906 2443.433) rotate(90)" fill="#3f3d56"/><rect width="47.028" height="47.028" transform="translate(700.316 2228.058)" fill="#2870db"/><path d="M503.792,477.1l-.609,1.217-1.826-9.131s-2.435-9.74,2.435-9.74,3.652,9.74,3.652,9.74v6.7Z" transform="translate(-84.31 1863.152)" fill="#a0616a"/><path d="M600.872,475.585l.609,1.217,1.826-9.131s2.435-9.74-2.435-9.74-3.652,9.74-3.652,9.74v6.7Z" transform="translate(-101.521 1863.424)" fill="#a0616a"/><path d="M380.626,358.94l-7.3,45.046,3.652,43.828,8.522-3.652-1.217-32.872,8.522-26.175,1.826,31.045-3.652,32.262,10.957,1.218,7.914-66.351-.609-22.523Z" transform="translate(65.64 2049.772)" fill="#2f2e41"/><path d="M536.137,665.693l-4.261,6.7V687.35a1.814,1.814,0,0,0,1.524,1.791c2.089.343,5.725.586,7-1.534,1.826-3.044.609-9.74.609-9.74s2.435-4.87,1.217-8.522-2.435-4.261-2.435-4.261Z" transform="translate(-89.871 1826.415)" fill="#2f2e41"/><path d="M557.709,673.1l1.218,1.826s1.826,1.826.609,3.044a23.8,23.8,0,0,0-2.435,3.044s-6.7,1.826-6.7-.609V672.5Z" transform="translate(-93.181 1825.09)" fill="#2f2e41"/><circle cx="8.069" cy="8.069" r="8.069" transform="translate(454.265 2343.03)" fill="#a0616a"/><path d="M395.053,291.867l-.609,11.566,10.957.609-.609-11.566Z" transform="translate(61.867 2061.755)" fill="#a0616a"/><path d="M558.263,511.191l-1.728-4.221s-8.012-3.083-10.447-.04l-1.218,3.652-9.74-2.435-5.479,12.175,4.87,34.7s12.783,16.436,29.828.609l4.87-32.871-3.652-12.783Z" transform="translate(-89.474 1854.91)" fill="#575a89"/><path d="M417.049,301.64l1.217-2.435,12.175-7.305,7.43-21.993,5.749,2.464L437.137,298.6l-17.653,16.435Z" transform="translate(57.828 2065.679)" fill="#575a89"/><path d="M376.336,298.879l-1.217-1.217-12.783-7.914L353.2,271.486l-7.3,2.435,7.913,22.523,19.48,15.827Z" transform="translate(70.539 2065.396)" fill="#575a89"/><path d="M560.766,478.413l1.319-.66-1.979-.66v-.659s-9.895-3.958-11.214,2.639a13.259,13.259,0,0,0,0,15.832v1.979l10.554,1.319,1.319-3.958S567.362,482.371,560.766,478.413Z" transform="translate(-92.442 1860.328)" fill="#2f2e41"/><path d="M267.875,565.16l-2.345,1.173s-9.381,4.3-6.645,6.645,10.163-2.345,10.163-2.345l1.563-1.954Z" transform="translate(-41.01 1844.267)" fill="#ffb8b8"/><path d="M191.189,359.1l-7.249,48.662L173,441.767l-5.863-2.736,5.472-46.514-15.635-13.29,1.173-19.544Z" transform="translate(104.293 2049.744)" fill="#2f2e41"/><path d="M322.495,662.938s6.645-3.518,7.036,1.564l-.782,5.081s2.345,8.99-5.472,7.036-2.345-7.818-2.345-7.818Z" transform="translate(-51.851 1827.01)" fill="#2f2e41"/><path d="M316.9,583.72l-5.081,4.3s0,26.58,3.518,30.489,25.8,23.844,26.58,24.625,4.3-7.818,4.3-7.818l-21.107-24.625,1.564-15.244Z" transform="translate(-50.556 1840.951)" fill="#2f2e41"/><path d="M350.077,645.08s6.254-1.173,6.254,3.127a94.649,94.649,0,0,0,.782,10.163s1.564,13.681-3.518,11.726-7.036-15.635-7.036-15.635a5.823,5.823,0,0,1,2.345-2.736C350.468,650.943,350.077,645.08,350.077,645.08Z" transform="translate(-56.762 1830.015)" fill="#2f2e41"/><path d="M169.732,288.424l1.173,14.463-3.127,5.472-8.6-8.208-.782-10.944Z" transform="translate(104.038 2062.37)" fill="#ffb8b8"/><circle cx="9.381" cy="9.381" r="9.381" transform="translate(257.354 2336.723)" fill="#ffb8b8"/><path d="M165.84,303.091l3.909-11.335,7.036,7.818,12.9,49.641-9.772,5.864-4.3-6.255-.782,8.208-19.154-3.909-1.563-52.378,3.906-5.5Z" transform="translate(104.803 2061.775)" fill="#d0cde1"/><path d="M158.072,359.361l-2.345-63.322-5.082,3.909-9.381,6.254,6.255,22.281,1.954,23.453Z" transform="translate(107.099 2061.01)" fill="#2f2e41"/><path d="M138.9,308.8l-2.737-.391-7.818,23.062L112.71,351.018l5.864,6.254,17.98-17.59L143.2,325.22Z" transform="translate(112.2 2058.799)" fill="#2f2e41"/><path d="M351.122,565.595l-.533,2.567s-2.44,10.027,1.1,9.333,4.458-9.429,4.458-9.429l-.565-2.438Z" transform="translate(-57.336 1844.189)" fill="#ffb8b8"/><path d="M172.337,290.983l19.373,7.671-2.345,23.453,4.691,25.8-4.691,5.081-17.343-58.68Z" transform="translate(101.604 2061.913)" fill="#2f2e41"/><path d="M316.6,468.582l2.754-1.377v1.377l1.836-.918v2.295s6.884,5.048,5.507,11.015-1.377,6.425-1.377,6.425-1.741-11.346-8.625-9.51-7.438,2.167-9.274,7.216l-.5,2.165S299.16,469.5,316.6,468.582Z" transform="translate(-49.374 1861.767)" fill="#2f2e41"/><path d="M191.982,300.322h3.127l5.082,27.361v23.844l-6.254-1.173-5.082-35.961Z" transform="translate(98.597 2060.245)" fill="#2f2e41"/><rect width="115.252" height="80.09" transform="translate(135.24 2418.43)" fill="#2870db"/><path d="M223.234,595.148a24.418,24.418,0,1,0,24.418,24.418,24.418,24.418,0,0,0-24.418-24.418Zm0,7.325a7.325,7.325,0,1,1-7.325,7.325A7.325,7.325,0,0,1,223.234,602.473Zm0,35.265a17.788,17.788,0,0,1-14.651-7.818c.117-4.883,9.767-7.572,14.651-7.572s14.533,2.688,14.651,7.572a17.818,17.818,0,0,1-14.651,7.818Z" transform="translate(-30.367 1838.909)" fill="#fff"/><rect width="144.556" height="82.956" transform="translate(365.752 2188.565)" fill="#2870db"/><path d="M962.143,493.605l.67-4.32s3.9-8.875.818-9.353-5.66,7.971-5.66,7.971l1.129,9.023Z" transform="translate(-165.996 1859.497)" fill="#ffb8b8"/><path d="M838.207,315.34l-27.581-5.54-3.2-20.089-8.119-.627.4,25.973,23.964,12.564Z" transform="translate(-10.464 2062.252)" fill="#575a89"/><path d="M838.207,315.34l-27.581-5.54-3.2-20.089-8.119-.627.4,25.973,23.964,12.564Z" transform="translate(-10.464 2062.252)" opacity="0.2"/><rect width="84.651" height="6.614" transform="translate(837.359 2347.788) rotate(180)" fill="#2870db"/><path d="M955.4,491.791l.006-4.372s2.51-9.365-.613-9.369-4.383,8.738-4.383,8.738l2.487,8.747Z" transform="translate(-164.646 1859.829)" fill="#ffb8b8"/><path d="M997.478,504.512l3.784-.922a9.743,9.743,0,0,0,9.562-11.672h0a12.734,12.734,0,0,0-12.718-12.75h0a12.734,12.734,0,0,0-12.749,12.718h0a10.12,10.12,0,0,0,12.121,12.626Z" transform="translate(-170.818 1859.63)" fill="#2f2e41"/><path d="M818.254,380.374l3.081,33.729,5.578,33.108,9.368.012-1.208-32.478-4.947-39.352Z" transform="translate(-13.85 2046.833)" fill="#2f2e41"/><path d="M981.992,665.9l-6.25,3.739s-9.994,1.237-8.125,4.362,23.731,1.279,23.732.03-.614-8.12-1.863-8.121Z" transform="translate(-167.678 1826.268)" fill="#2f2e41"/><path d="M1001.57,581.859s-.176,4.822-4.557,12.311l.6,23.109,22.447,28.757-8.128,6.86-27.441-31.261-6.823-37.481,8.755-8.733Z" transform="translate(-169.514 1842.434)" fill="#2f2e41"/><path d="M1025.037,661.394s7.493,1.258,6.24,4.38-4.394,17.482-12.51,15.6c0,0-3.747,0-2.5-2.5a45.2,45.2,0,0,1,2.5-4.369l.01-8.119Z" transform="translate(-176.366 1827.074)" fill="#2f2e41"/><circle cx="9.368" cy="9.368" r="9.368" transform="translate(813.238 2346.04)" fill="#ffb8b8"/><path d="M843.552,301.65l-.013,10.617-9.992-.012,1.262-10.615Z" transform="translate(-16.582 2060.01)" fill="#ffb8b8"/><path d="M982.9,515.185l3.028-.744,9.463.759s4.99,5,4.364,6.251-3.787,31.847-3.787,31.847l5.593,21.866-19.987,1.224-9.991-1.262,1.923-39.344s-4.358-10.623,1.266-13.738a24.6,24.6,0,0,0,8.128-6.86Z" transform="translate(-168.427 1853.328)" fill="#575a89"/><path d="M834.961,308.564l-28.1-1.285-6.221-19.368-8.12.613,4.339,25.612,25.6,8.776Z" transform="translate(-9.252 2062.462)" fill="#575a89"/><circle cx="6.044" cy="6.044" r="6.044" transform="translate(834.645 2336.418)" fill="#2f2e41"/><path d="M1010.187,478.261a6.041,6.041,0,0,1,7.234-5.918,6.041,6.041,0,1,0-3.768,11.385,6.039,6.039,0,0,1-3.466-5.468Z" transform="translate(-175.076 1860.953)" fill="#2f2e41"/><path d="M1000.075,483.521l-8.148-1.5-6.267,3.928a9.506,9.506,0,0,0-4.379,9.277l6.276-1.591,1.405-3.524,1.674,2.743,6.79,11.872,6.875-3.739,4.38-6.864Z" transform="translate(-170.146 1859.12)" fill="#2f2e41"/><rect width="1.642" height="166.668" transform="translate(365.343 2189.279) rotate(-60.15)" fill="#fff"/><rect width="166.668" height="1.642" transform="matrix(0.867, -0.498, 0.498, 0.867, 365.339, 2270.804)" fill="#fff"/><rect width="1.643" height="66.209" transform="translate(701.103 2228.569) rotate(-45)" fill="#fff"/><rect width="66.209" height="1.643" transform="translate(701.103 2274.224) rotate(-45)" fill="#fff"/></g></svg>