<svg xmlns="http://www.w3.org/2000/svg" width="713.863" height="622.684" viewBox="0 0 713.863 622.684"><g transform="translate(0 0)"><path d="M736.161,745.526h-16.25a7.165,7.165,0,0,1-7.157-7.157V602.928a7.165,7.165,0,0,1,7.157-7.157h16.251a7.165,7.165,0,0,1,7.157,7.157V738.369a7.165,7.165,0,0,1-7.158,7.157Z" transform="translate(-231.677 -123.931)" fill="#4b4982"/><path d="M706.969,745.526h-16.25a7.165,7.165,0,0,1-7.157-7.157V602.928a7.165,7.165,0,0,1,7.157-7.157h16.25a7.165,7.165,0,0,1,7.157,7.157V738.369a7.165,7.165,0,0,1-7.157,7.157Z" transform="translate(-234.627 -123.931)" fill="#4b4982"/><path d="M665.911,612.488s-6.14,55.209,55.843,53.335S759.622,609.7,759.622,609.7s-12.953-10.179-45.7-.334S665.911,612.488,665.911,612.488Z" transform="translate(-236.427 -122.991)" fill="#5a93e8"/><path d="M700.9,535.1a15.2,15.2,0,0,1-8.411-2.534L586.315,462.3a7.165,7.165,0,0,1-2.018-9.918l8.969-13.551a7.156,7.156,0,0,1,9.918-2.018l106.169,70.267A15.278,15.278,0,0,1,700.9,535.1Z" transform="translate(-244.775 -140.11)" fill="#fec3be"/><circle cx="56.152" cy="56.152" r="56.152" transform="translate(419.246 218.187)" fill="#fec3be"/><rect width="11.86" height="2.202" transform="translate(450.56 262.597)" fill="#2f2e41"/><rect width="11.86" height="2.202" transform="translate(487.995 262.597)" fill="#2f2e41"/><path d="M769.065,636.51s4.848-164.84-63.027-153.527-39.594,170.5-39.594,170.5,14.545,29.089,50.1-3.232S769.065,636.51,769.065,636.51Z" transform="translate(-236.946 -135.382)" fill="#2870db"/><path d="M599.152,610.151a7.168,7.168,0,0,1-6.541-4.227L585.96,591.1a7.156,7.156,0,0,1,3.6-9.459l116.164-52.111a15.282,15.282,0,0,1,12.51,27.886L602.071,609.524A7.117,7.117,0,0,1,599.152,610.151Z" transform="translate(-244.55 -130.759)" fill="#fec3be"/><path d="M743.822,376.665c-10.926-7.418-24.716-2.379-35.332,2.915-10.31,5.142-21.929,11.684-33.595,6.731-4.556-1.934-8.259-5.717-8.9-10.779-.767-6.03,2.88-11.675,6.935-15.774a50.511,50.511,0,0,1,15.156-9.988,70.833,70.833,0,0,1,17.251-5.245,75.079,75.079,0,0,1,65.6,20.624,83.18,83.18,0,0,1,23.59,63.939c-.928,12.491-4.917,25.229-12.921,35.035-7.509,9.2-18.754,15.669-30.755,16.209a34.5,34.5,0,0,1-8.767-.712c-2.073-.442-2.959,2.741-.878,3.185,12.5,2.665,25.448-1.295,35.362-9.093C787,465.5,793.4,453.074,796.211,440.27c5.372-24.5-1.358-50.873-16.781-70.49a76.847,76.847,0,0,0-28.756-22.691,79.832,79.832,0,0,0-37.1-6.807,73.884,73.884,0,0,0-35.76,11.331c-9.612,6.212-20.446,19.381-12.607,31.033,2.932,4.357,7.8,7.011,12.851,8.1a31.545,31.545,0,0,0,17.312-1.508c12.559-4.435,24.174-14.344,38.231-12.842a18.642,18.642,0,0,1,8.549,3.121c1.763,1.2,3.418-1.664,1.667-2.852Z" transform="translate(-236.752 -149.755)" fill="#2f2e41"/><path d="M589.608,575.056a4.285,4.285,0,0,1-3.329-1.6l-18.261-22.32H301.091a9.921,9.921,0,0,1-9.909-9.909V382.685a9.921,9.921,0,0,1,9.909-9.909H584.054a9.921,9.921,0,0,1,9.909,9.909V570.718a4.286,4.286,0,0,1-2.875,4.079,4.389,4.389,0,0,1-1.48.258ZM301.091,374.977a7.716,7.716,0,0,0-7.707,7.707V541.232a7.716,7.716,0,0,0,7.707,7.707h267.97l18.922,23.127a2.13,2.13,0,0,0,3.778-1.349V382.684a7.716,7.716,0,0,0-7.707-7.707Z" transform="translate(-274.266 -146.459)" fill="#3f3d56"/><path d="M548.791,421.785h-219.1a5.505,5.505,0,0,1,0-11.01h219.1a5.505,5.505,0,0,1,0,11.01Z" transform="translate(-270.932 -142.62)" fill="#ccc"/><path d="M548.791,454.785h-219.1a5.505,5.505,0,1,1,0-11.01h219.1a5.505,5.505,0,1,1,0,11.01Z" transform="translate(-270.932 -139.286)" fill="#ccc"/><path d="M548.791,487.785h-219.1a5.505,5.505,0,1,1,0-11.01h219.1a5.505,5.505,0,0,1,0,11.01Z" transform="translate(-270.932 -135.953)" fill="#ccc"/><path d="M312.095,354.592l-4.522-1.48c-16.138-5.441-26.741-8.916-30.517-17.428a13.248,13.248,0,0,1,6.43-17.6q.174-.081.351-.157a14.411,14.411,0,0,1,12.108.259,14.41,14.41,0,0,1,7.933-9.15,13.248,13.248,0,0,1,17.558,6.536q.08.175.155.352c3.777,8.513-.763,18.7-7.559,34.32Z" transform="translate(-275.818 -153.02)" fill="#2870db"/><path d="M518.919,197.708l-2.948-.965c-10.521-3.547-17.433-5.812-19.9-11.362a8.637,8.637,0,0,1,4.192-11.473q.114-.053.229-.1a9.4,9.4,0,0,1,7.893.169,9.394,9.394,0,0,1,5.172-5.965,8.637,8.637,0,0,1,11.447,4.261q.052.114.1.229c2.462,5.55-.5,12.194-4.928,22.375Z" transform="translate(-253.648 -167.225)" fill="#2870db"/><path d="M607.87,280.544H523.091a9.921,9.921,0,0,1-9.909-9.909v-53.95a9.921,9.921,0,0,1,9.909-9.909H607.87a9.921,9.921,0,0,1,9.909,9.909v53.95A9.921,9.921,0,0,1,607.87,280.544Zm-84.779-71.567a7.716,7.716,0,0,0-7.707,7.707v53.95a7.716,7.716,0,0,0,7.707,7.707H607.87a7.716,7.716,0,0,0,7.707-7.707v-53.95a7.716,7.716,0,0,0-7.707-7.707Z" transform="translate(-251.839 -163.229)" fill="#3f3d56"/><path d="M564.754,242.909a11.054,11.054,0,0,1-6.337-1.982l-42.54-29.742,1.262-1.8,42.54,29.742a8.906,8.906,0,0,0,10.033.078L613.5,209.594l1.233,1.825-43.793,29.607a11.054,11.054,0,0,1-6.191,1.883Z" transform="translate(-251.567 -162.966)" fill="#3f3d56"/><circle cx="13.212" cy="13.212" r="13.212" transform="translate(299.878 66.668)" fill="#4b4982"/><path d="M853.033,282.143l-2.35-.769c-8.386-2.827-13.9-4.633-15.858-9.056a6.884,6.884,0,0,1,3.341-9.145q.091-.042.182-.082a7.489,7.489,0,0,1,6.292.135,7.488,7.488,0,0,1,4.122-4.755,6.884,6.884,0,0,1,9.124,3.4q.041.091.08.183c1.962,4.423-.4,9.72-3.928,17.834Z" transform="translate(-219.41 -158.07)" fill="#2870db"/><path d="M923.933,348.17H856.358a7.907,7.907,0,0,1-7.9-7.9v-43a7.908,7.908,0,0,1,7.9-7.9h67.575a7.908,7.908,0,0,1,7.9,7.9v43a7.907,7.907,0,0,1-7.9,7.9Zm-67.576-57.044a6.15,6.15,0,0,0-6.143,6.143v43a6.15,6.15,0,0,0,6.143,6.143h67.576a6.15,6.15,0,0,0,6.143-6.143v-43a6.15,6.15,0,0,0-6.143-6.143Z" transform="translate(-217.968 -154.885)" fill="#3f3d56"/><path d="M889.567,318.172a8.812,8.812,0,0,1-5.051-1.58l-33.909-23.706,1.006-1.438,33.908,23.707a7.1,7.1,0,0,0,8,.063l34.906-23.6.983,1.454-34.906,23.6a8.81,8.81,0,0,1-4.934,1.5Z" transform="translate(-217.751 -154.675)" fill="#3f3d56"/><circle cx="10.531" cy="10.531" r="10.531" transform="translate(661.208 152.916)" fill="#4b4982"/><path d="M945.773,732.977H526.283a1.1,1.1,0,0,1,0-2.2h419.49a1.1,1.1,0,0,1,0,2.2Z" transform="translate(-250.627 -110.293)" fill="#3f3d56"/><path d="M496.859,297.911s-.6,13.312-11.661,13.312" transform="translate(129.761 -164.74) rotate(21)" fill="none" stroke="#2f2e41" stroke-linecap="round" stroke-width="2"/><line x1="4" y1="25" transform="translate(473 265.634)" fill="none" stroke="#2f2e41" stroke-linecap="round" stroke-width="2"/></g></svg>