<svg xmlns="http://www.w3.org/2000/svg" width="1059.041" height="930.274" viewBox="0 0 1059.041 930.274"><g transform="translate(-431.55 -5568.308)"><g transform="translate(104.853 3176.957) rotate(0.974)"><path d="M-2986.671,7559.741c47.8,22.943,234.23,81.263,329.833,276.294s472.284,88.912,550.68-97.516,41.11-366.163,41.11-366.163-42.066-253.351-331.746-324.1-492.361,62.143-492.361,62.143-173.043,80.308-207.46,247.614C-3116.693,7452.664-3034.473,7536.8-2986.671,7559.741Z" transform="translate(3482.467 -4642.665)" fill="#2870db"/><path d="M-2988.164,7381.688c6.49-1.467,69.016-11.313,144.255,87.119,41.3,57.135-63.66,62.527-99,45.255-15.274-9.05-57.136-26.586-68.45-99.562C-3015.345,7391.193-2994.655,7383.153-2988.164,7381.688Z" transform="translate(3545.925 -4387.516)" fill="#2870db"/></g><g transform="translate(521.26 5869.119)"><path d="M632.58,618.33v27.212h7.737l-1.5-29.212Z" transform="translate(-188.712 -156.829)" fill="#aaabb0"/><path d="M477.41,611v27.212h7.745L483.657,609Z" transform="translate(-149.767 -154.989)" fill="#aaabb0"/><rect width="9.984" height="48.439" rx="4.992" transform="translate(452.856 411.07)" fill="#aaabb0"/><rect width="9.984" height="59.172" rx="4.992" transform="translate(324.774 400.329)" fill="#aaabb0"/><path d="M732.84,234.748s9.984-4.247,11.482,0S746.57,275.7,746.57,275.7h-9.49Z" transform="translate(-257.259 -113.547)" fill="#aaabb0"/><path d="M582.237,234.748s-9.992-4.247-11.49,0S568.5,275.7,568.5,275.7h9.49Z" transform="translate(-216.012 -113.547)" fill="#aaabb0"/><path d="M530.408,115.749l-1.5,30.463h6.741V115Z" transform="translate(-162.692 -31.003)" fill="#aaabb0"/><path d="M581.17,272.874l2-43.945s-.749-9.737,22.965-6.741,93.133,8.988,93.133,8.988v41.7Z" transform="translate(-219.192 -110.725)" fill="#585858"/><path d="M665.841,598.38,662.1,665.537s-54.933,30.462-121.6,1.5l5.992-70.655Z" transform="translate(-208.984 -204.784)" fill="#585858"/><path d="M580.25,170.647l1.243,43.443h77.4L654.4,156.67Z" transform="translate(-175.578 -41.462)" fill="#444053"/><rect width="72.909" height="92.376" transform="translate(339.627 364.878)" fill="#2870db"/><path d="M612.831,608.967s10.486-8.239,12.232-5.745-6.232,13.235-9.483,11.984S612.831,608.967,612.831,608.967Z" transform="translate(-227.131 -206.384)" fill="#ffb9b9"/><rect width="478.6" height="239.686" transform="translate(198.138 159.647)" fill="#585858"/><path d="M580.942,164.545s-3.745-34.957,0-39.2S647.6,80.9,705.781,128.09c0,0,5.49.255,4.494,12.733a149.813,149.813,0,0,0,.12,23.721S585.189,173.533,580.942,164.545Z" transform="translate(-218.717 -81.544)" fill="#585858"/><path d="M580.942,164.545s-3.745-34.957,0-39.2c1.6-1.812,32.38-15.557,32.38-15.557s59.122-8.738,92.459,18.3c0,0,5.49.255,4.494,12.733a149.813,149.813,0,0,0,.12,23.721S585.189,173.533,580.942,164.545Z" transform="translate(-218.717 -81.544)" fill="#585858" opacity="0.1"/><path d="M580.942,170.545s-3.745-34.957,0-39.2S647.6,86.9,705.781,134.09c0,0,5.49.255,4.494,12.733a149.813,149.813,0,0,0,.12,23.721S585.189,179.533,580.942,170.545Z" transform="translate(-218.717 -83.05)" fill="#585858"/><path d="M745.635,169.05s3.992,14.98,2.749,17.475-1.019,9.49-1.019,9.49.27,4.494-1.73,4.988-3.745.749-2.127,2.247,0,3.745,0,3.745-.876,3.5,0,5.745-5.123,3.183-4.614,5.992,2.187,10.733,0,10.988.749,9.984-1.221,9.984-3.371,17.475-3.371,17.475-13.857-11.73-23.092-8.486c0,0,.749-9.737,3.745-13.235s2.09-12.479,2.09-12.479l14.861-44.694Z" transform="translate(-251.83 -97.532)" fill="#4c4981"/><path d="M650.143,427.07c-3.243,3.588-6.743-15.57-6.743-15.57s-9.235,12.733-15.227,4.247c-4.15-5.88-.876-22.538,1.5-32.208,1.064-4.3,1.962-7.221,1.962-7.221l13.482-2.247s.045,2.936.345,6.5c.4,4.816,1.281,10.793,3.146,12.224C651.9,395.275,653.394,423.453,650.143,427.07Z" transform="translate(-230.491 -148.988)" fill="#ae6e79"/><path d="M636.246,143.038s-23.474-.247-29.212,12.231S601.042,172,598.8,174s24.463,12.486,24.463,12.486l1.251,42.941a14.269,14.269,0,0,1,13.729-2.906c8.486,2.4,19.227,0,19.227,0s-.5-.906,6.494,0S693.176,215.7,693.176,215.7s.367-18.785-.127-22.785S708.9,159.522,708.9,159.522s12.733-12.231-.494-16.478c0,0-4.681-7.056-16.726-6.988S636.246,143.038,636.246,143.038Z" transform="translate(-223.582 -89.249)" opacity="0.1"/><path d="M636.246,142.038s-23.474-.247-29.212,12.231S601.042,171,598.8,173s24.463,12.486,24.463,12.486l1.251,42.941a14.269,14.269,0,0,1,13.729-2.906c8.486,2.4,19.227,0,19.227,0s-.5-.906,6.494,0S693.176,214.7,693.176,214.7s8.733-14.231,8.239-18.224,17.475-34.208,17.475-34.208,2.749-15.977-10.486-20.223c0,0-4.681-7.056-16.726-6.988S636.246,142.038,636.246,142.038Z" transform="translate(-223.582 -88.998)" fill="#4c4981"/><path d="M646.709,380.551c-5.146-1.6-13.22,1.932-15.789,3,1.064-4.3,1.962-7.22,1.962-7.22l13.482-2.247S646.387,377.016,646.709,380.551Z" transform="translate(-231.678 -148.991)" opacity="0.1"/><path d="M605.852,185.71h-7.235s-1.5,15.235,0,19.729,2.247,3.842,1.745,7.168,3.5,8.419,3.5,8.419.494,12.554,3,17.227-2.749,25.631-2.749,25.631a30.155,30.155,0,0,0,6.239,9.737c4.247,4.239,6.494,19.969,5.243,25.961s3.5,8.239,3.5,8.239,2,27.968,2.749,27.968,15.227-7.49,19.722-1l-3.5-25.714.255-49.682s-4.749-6.247-2.247-11.737-2-18.478-2-18.478l-6.494-28.957Z" transform="translate(-223.404 -101.713)" fill="#4c4981"/><path d="M543.267,712.375s-10.486-2.247-10.733,0-12.486,25.219,2.749,31.96,55.922,21.22,122.09,2.494c0,0,4.24,1.5,3.243-7.737s-1-19.474-1-19.474-9.992-2.749-17.482-1.745S569.483,732.1,543.267,712.375Z" transform="translate(-205.76 -233.647)" fill="#33323d"/><path d="M543.267,712.375s-10.486-2.247-10.733,0-12.486,25.219,2.749,31.96,55.922,21.22,122.09,2.494c0,0,4.24,1.5,3.243-7.737s-1-19.474-1-19.474-9.992-2.749-17.482-1.745S569.483,732.1,543.267,712.375Z" transform="translate(-205.76 -233.647)" fill="#585858"/><path d="M543.267,708.375s-10.486-2.247-10.733,0-12.486,25.219,2.749,31.961,55.922,21.22,122.09,2.494c0,0,4.24,1.5,3.243-7.737s-1-19.475-1-19.475-9.992-2.749-17.482-1.745S569.483,728.1,543.267,708.375Z" transform="translate(-205.76 -232.643)" fill="#585858"/><path d="M629.352,197.188c-.644,3.663-2.1,7.183-2.329,10.891s1.206,7.925,4.629,9.378a15.6,15.6,0,0,1,2.764,1.124,6.077,6.077,0,0,1,2.135,4.142,22.622,22.622,0,0,1,.262,6.157c-.187,2.067-.629,4.292.389,6.1,1.79,3.2,6.456,2.726,10.007,1.828l-1.221,9.46a1.8,1.8,0,0,0,2.187,2.494c3.086-.195,6.262-.622,8.906-2.247s4.614-4.651,4.112-7.7c-.584-3.535-4.239-6.344-3.745-9.9.382-2.749,3.071-4.494,4.839-6.606,3.2-3.865,3.37-9.737.861-14.111a16.056,16.056,0,0,0-12.344-7.58c-2.764-.277-5.64.06-8.239-.9a6.247,6.247,0,0,1-3.82-4.03" transform="translate(-230.694 -104.218)" fill="#444053"/><path d="M513.84,633.435l2.614-5.693s14.112-13.145,17.355-14.067,16.478-4.936,18.478-4.936,38.455-2,38.455-2l4.239,9.992-45.75,10.044L533.809,638.01Z" transform="translate(-202.293 -207.385)" fill="#767d9f"/><path d="M651.405,431.006l-2.389,18.388-.921,7.078-10.733,1.5s-1.161-2.487-2.8-6.307c-4.981-11.6-14.359-35.5-8.921-39.631,7.228-5.5,8.988,12.733,8.988,12.733l8.239-4Z" transform="translate(-229.94 -158.257)" fill="#ffb9b9"/><rect width="54.206" height="81.89" transform="translate(365.468 306.957)" fill="#fff"/><rect width="54.206" height="81.89" transform="translate(365.468 306.957)" opacity="0.1"/><rect width="54.206" height="81.89" transform="translate(390.414 303.466) rotate(8.41)" fill="#fff"/><rect width="27.901" height="42.147" transform="translate(395.462 311.192) rotate(8.41)" fill="#2870db"/><rect width="33.803" height="9.153" transform="translate(386.339 364.751) rotate(8.41)" fill="#2870db"/><circle cx="31.331" cy="31.331" r="31.331" transform="translate(402.552 37.685)" opacity="0.1"/><circle cx="31.331" cy="31.331" r="31.331" transform="translate(402.552 36.936)" fill="#ae6e79"/><path d="M636.71,169.809a3.565,3.565,0,0,1,.217-2.419c1.191-2.479,4.584-2.7,7.333-2.569,6.464.3,13.557.337,18.613-3.745,2.1-1.678,4.442-5.9,7.49-5.093,2.711.712,3.842,4.389,6.666,5.206,2.045.592,4.164-.352,6.247-.749,3-.592,6.067-.1,9.108-.075s6.344-.554,8.419-2.779c2.8-3,2.344-7.677,2.1-11.782a63.44,63.44,0,0,1,1.071-15.834c1.019-5.183,2.584-10.981-.277-15.422-2.726-4.232-8.374-5.393-12.231-8.636-3.61-3-5.52-7.8-9.333-10.576-4.8-3.5-11.325-3-17.227-2.389L652.1,94.308c-3.3.352-6.741.749-9.46,2.719-4.906,3.55-5.58,10.928-10.224,14.816-2.067,1.723-4.711,2.577-7.071,3.865s-4.636,3.326-4.906,5.992c-.225,2.247.989,4.322,1.58,6.487,1.4,5.168-.786,10.486-2.187,15.692s-1.67,11.527,2.4,14.98c.824.7,1.783,1.243,2.584,1.977,2.749,2.509,3.123,6.741,2.487,10.4" transform="translate(-228.66 -78.322)" fill="#444053"/><ellipse cx="0.749" cy="1.873" rx="0.749" ry="1.873" transform="translate(435.689 103.658)" fill="#444053"/><ellipse cx="0.749" cy="1.873" rx="0.749" ry="1.873" transform="translate(435.689 111.463)" fill="#444053"/><path d="M655.958,438.882c.8-.921,1.333-3.288,1.64-6.412l-8.928-11.13S652.452,442.919,655.958,438.882Z" transform="translate(-236.133 -160.852)" fill="#ae6e79"/><path d="M630.416,673.6s-14.651,22.65-60.423,20.224c-43.121-2.247-64.168-23.467-63.165-30.957s-2.749-25.721,6.487-30.964c5.355-3.034,12.4-1.236,17.377.816a9.812,9.812,0,0,0,10.314-1.85c4.547-4.1,13.025-8.711,26.41-5.078a9.513,9.513,0,0,0,5.243-.1c5.573-1.7,18.838-4.651,28.463,1.9a9.737,9.737,0,0,0,10.426.4l.135-.082c4.494-2.749,25.467,23.22,25.467,23.22S638.154,671.11,630.416,673.6Z" transform="translate(-200.525 -211.601)" opacity="0.1"/><path d="M630.416,674.6s-14.651,22.65-60.423,20.224c-43.121-2.247-64.168-23.467-63.165-30.957s-2.749-25.721,6.487-30.964c5.355-3.033,12.4-1.236,17.377.816a9.812,9.812,0,0,0,10.314-1.85c4.547-4.1,13.025-8.711,26.41-5.078a9.513,9.513,0,0,0,5.243-.1c5.573-1.7,18.838-4.651,28.463,1.9a9.737,9.737,0,0,0,10.426.4l.135-.083c4.494-2.749,25.467,23.22,25.467,23.22S638.154,672.11,630.416,674.6Z" transform="translate(-200.525 -211.852)" fill="#767d9f"/><circle cx="29.841" cy="29.841" r="29.841" transform="translate(339.627 411.939)" opacity="0.1"/><circle cx="29.841" cy="29.841" r="29.841" transform="translate(339.627 412.688)" fill="#ffb9b9"/><path d="M571.5,629.7c-3.131.846-6.217,2.464-7.745,5.123-.921,1.6-1.243,3.528-2.577,4.861-1.887,1.9-5.071,1.932-7.625,3s-4.239,4.809-1.738,5.992c-2.607.135-4.539,2.539-4.861,4.928s.584,4.771,1.461,7.048c2.861,7.37,5.94,15.063,12.246,20.306,10.276,8.554,25.766,8.157,39.571,7.251a6.473,6.473,0,0,0,3.243-.749c1.5-.989,1.685-2.884,1.932-4.547,1.041-7.1,4.891-13.55,7.408-20.328s3.55-14.741-.689-20.74C605.89,632.946,582,626.857,571.5,629.7Z" transform="translate(-210.589 -212.97)" fill="#b96b6b"/><path d="M652.556,462.122l-.921,7.078L640.9,470.7s-1.161-2.487-2.8-6.307l14.284-2.682Z" transform="translate(-233.48 -170.985)" opacity="0.1"/><path d="M663.231,618.76l6.247-7.243-1.251-39.945a64.794,64.794,0,0,0,1.251-8.741c.247-4.247-3.123-13.73-3.123-13.73a29.745,29.745,0,0,1,2.12-5.5c1.5-3-2.112-9.737-2.112-9.737s-5.378-17.475-3.131-26.216-.547-13.729-.547-13.729-2.2-9.737-1.947-13.73-5-7.745-5-7.745l-3.992-9.737-15.977,3v33.706s1,32.208,0,38.454,1.992,12.231,1.992,12.231-1.745,9.235-.247,12.733,4.494,11.984,4.494,11.984a19.473,19.473,0,0,0,.5,9.108c1.5,4.374,0,6.868,0,6.868Z" transform="translate(-232.845 -171.236)" fill="#767d9f"/><g transform="translate(390.264 41.213)" opacity="0.1"><path d="M732.127,136.56A63.4,63.4,0,0,0,731,149.87a63.7,63.7,0,0,1,1.161-11.056c.659-3.326,1.5-6.906,1.318-10.224a62.184,62.184,0,0,1-1.348,7.97Z" transform="translate(-647.056 -128.59)"/><path d="M624.841,177.335c-.8-.749-1.76-1.273-2.584-1.985a10.281,10.281,0,0,1-3.288-7.49c-.217,3.745.547,7.37,3.288,9.737.824.712,1.783,1.251,2.584,1.985a9.153,9.153,0,0,1,2.711,6.254C627.769,182.691,627.133,179.417,624.841,177.335Z" transform="translate(-618.933 -138.446)"/><path d="M622.956,139.99a14.117,14.117,0,0,0-.4-4.711c-.435-1.6-1.213-3.168-1.5-4.779a4.957,4.957,0,0,1-.082.539c-.217,2.247,1,4.322,1.58,6.486a12.742,12.742,0,0,1,.4,2.465Z" transform="translate(-619.439 -129.069)"/><path d="M703.659,173.891c-2.075,2.247-5.378,2.8-8.419,2.779s-6.119-.517-9.108.082c-2.082.419-4.2,1.356-6.247.749-2.824-.816-3.955-4.494-6.659-5.206-3.079-.809-5.423,3.408-7.49,5.086-5.056,4.045-12.149,4.007-18.613,3.745-2.749-.127-6.142.09-7.325,2.577a3.475,3.475,0,0,0-.217,2.419l-9.153,1.438a17.766,17.766,0,0,1-.247,2.247l9.4-1.5a3.475,3.475,0,0,1,.217-2.419c1.183-2.487,4.576-2.7,7.325-2.577,6.464.3,13.557.337,18.613-3.745,2.1-1.678,4.442-5.9,7.49-5.086,2.7.7,3.835,4.389,6.659,5.206,2.045.584,4.164-.352,6.247-.749,3-.6,6.067-.1,9.108-.082s6.344-.554,8.419-2.779,2.374-5.543,2.247-8.779C705.816,169.809,705.3,172.131,703.659,173.891Z" transform="translate(-621.756 -138.306)"/></g><g transform="translate(396.448 105.935)" opacity="0.1"><path d="M633.572,222.514a15.158,15.158,0,0,0-2.764-1.123,7.153,7.153,0,0,1-3.618-3.7,8.014,8.014,0,0,0,4.367,5.947,15.148,15.148,0,0,1,2.764,1.124,4.148,4.148,0,0,1,1.326,1.551A5.78,5.78,0,0,0,633.572,222.514Z" transform="translate(-627.19 -215.675)"/><path d="M649.487,247.925c-3.453.876-7.962,1.333-9.857-1.6a5.145,5.145,0,0,0,.6,2.015c1.618,2.884,5.573,2.786,8.936,2.075Z" transform="translate(-630.312 -222.863)"/><path d="M666.567,251.2c.479,3.041-1.5,6.075-4.12,7.67s-5.82,2.037-8.906,2.247a3.056,3.056,0,0,1-1.453-.165,1.783,1.783,0,0,0,2.2,2.412c3.086-.2,6.262-.622,8.906-2.247s4.621-4.651,4.112-7.7a8.5,8.5,0,0,0-.742-2.217Z" transform="translate(-633.401 -224.086)"/><path d="M673.525,215a12.328,12.328,0,0,1-2.247,10.6c-1.768,2.142-4.457,3.857-4.839,6.606a6.239,6.239,0,0,0,.749,3.648,4.856,4.856,0,0,1,0-1.4c.382-2.749,3.071-4.494,4.839-6.606a12.6,12.6,0,0,0,1.5-12.848Z" transform="translate(-637.033 -215)"/></g><g transform="translate(336.301 415.695)" opacity="0.1"><path d="M554.81,643.726c2.547-1.056,5.73-1.094,7.625-3,1.333-1.333,1.655-3.258,2.577-4.854,1.5-2.666,4.606-4.277,7.737-5.123,10.486-2.846,34.4,3.236,40.627,12.052a16.366,16.366,0,0,1,2.861,9.048,16.912,16.912,0,0,0-2.854-10.539c-6.232-8.816-30.118-14.9-40.627-12.052-3.131.846-6.217,2.457-7.737,5.123-.921,1.6-1.243,3.52-2.577,4.854-1.9,1.9-5.078,1.933-7.625,3-1.94.8-3.378,3.168-2.854,4.756A5.153,5.153,0,0,1,554.81,643.726Z" transform="translate(-548.135 -628.555)"/><path d="M546.972,661.26c.315-2.4,2.247-4.794,4.861-4.929a1.992,1.992,0,0,1-1.146-1.281,5.82,5.82,0,0,0-3.745,4.711,7.906,7.906,0,0,0,0,1.835A1.285,1.285,0,0,0,546.972,661.26Z" transform="translate(-546.889 -635.205)"/></g><rect width="68.161" height="88.886" transform="translate(426.888 170.313)" fill="#fff"/><rect width="68.161" height="88.886" transform="translate(426.888 170.313)" opacity="0.1"/><rect width="68.161" height="88.886" transform="translate(453.918 187.084) rotate(-9.76)" fill="#fff"/><rect width="16.014" height="20.883" transform="translate(470.199 246.801) rotate(-9.76)" fill="#2870db"/><rect width="16.014" height="20.883" transform="translate(492.038 243.041) rotate(-9.76)" fill="#2870db"/><rect width="56.158" height="20.976" transform="matrix(0.986, -0.169, 0.169, 0.986, 467.904, 219.676)" fill="#2870db"/><rect width="56.158" height="4.68" transform="matrix(0.986, -0.169, 0.169, 0.986, 463.29, 195.002)" fill="#2870db"/><rect width="56.158" height="4.68" transform="matrix(0.986, -0.169, 0.169, 0.986, 465.106, 203.486)" fill="#2870db"/><path d="M712.292,268.71s-31.331,31.459-15.6,39.451,25.968-26.59,25.968-26.59l2.487-7.865Z" transform="translate(-247.077 -122.545)" fill="#ae6e79"/><path d="M714.042,263.484l-3.872,8.554s19.1,2.681,23.092,8.456L730.9,265.4l-2.809-6.442Z" transform="translate(-251.569 -120.098)" opacity="0.1"/><path d="M715.042,262.484l-3.872,8.554s19.1,2.681,23.092,8.456L731.9,264.4l-2.809-6.442Z" transform="translate(-251.82 -119.847)" fill="#4c4981"/><path d="M812.642,403.26l-.412.285.569.255.614-.052.075-.427Z" transform="translate(-233.801 -103.352)" fill="#464a5f"/><path d="M812.642,403.26l-.412.285.569.255.614-.052.075-.427Z" transform="translate(-233.801 -103.352)" opacity="0.1"/><path d="M812.529,403.084l-.419.27-.33-.4.2-.33.187-.06Z" transform="translate(-233.688 -103.176)" fill="#9c9ca1"/><path d="M812.529,403.084l-.419.27-.33-.4.2-.33.187-.06Z" transform="translate(-233.688 -103.176)" opacity="0.1"/><path d="M933.716,389.489,903.051,345.2a3.648,3.648,0,0,0-5.078-.936l-68.355,46.918a3.663,3.663,0,0,0-.951,5.086l30.582,44.851Z" transform="translate(-281.149 -141.346)" fill="#9c9ca1"/><path d="M933.716,389.489,903.051,345.2a3.648,3.648,0,0,0-5.078-.936l-68.355,46.918a3.663,3.663,0,0,0-.951,5.086l30.582,44.851Z" transform="translate(-281.149 -141.346)" opacity="0.1"/><path d="M934.715,389.629,904.05,345.34a3.655,3.655,0,0,0-5.086-.936l-68.348,46.948a3.67,3.67,0,0,0-.959,5.086l30.582,44.874Z" transform="translate(-281.399 -141.38)" fill="#9c9ca1"/><path d="M970.859,413.949l-25.467-8.179L870.91,457.4l25.871,8.464a3.918,3.918,0,0,0,3.468-.524l70.819-50a.749.749,0,0,0-.21-1.386Z" transform="translate(-291.912 -156.945)" fill="#464a5f"/><path d="M970.859,413.949l-25.467-8.179L870.91,457.4l25.871,8.464a3.918,3.918,0,0,0,3.468-.524l70.819-50a.749.749,0,0,0-.21-1.386Z" transform="translate(-291.912 -156.945)" opacity="0.1"/><path d="M970.649,413.257l-25.467-8.187L870.7,456.7l25.871,8.449a3.887,3.887,0,0,0,3.468-.517l70.82-50a.749.749,0,0,0-.21-1.371Z" transform="translate(-291.859 -156.769)" fill="#464a5f"/><g transform="translate(567.468 227.718)" opacity="0.1"><path d="M952.056,401.352l-1.88-2.7a.749.749,0,0,0-1.019-.187l-2.794,1.865a.749.749,0,0,0-.2,1.011l1.73,2.659a.749.749,0,0,0,1.011.217l2.944-1.85a.749.749,0,0,0,.208-1.015Z" transform="translate(-878.238 -382.799)"/><path d="M945.354,405.995l-1.887-2.689a.749.749,0,0,0-1.019-.187L939.662,405a.749.749,0,0,0-.21,1.011l1.73,2.659a.749.749,0,0,0,1.011.225l2.951-1.85a.749.749,0,0,0,.21-1.049Z" transform="translate(-876.554 -383.966)"/><path d="M938.313,410.865l-1.887-2.689a.749.749,0,0,0-1.019-.187l-2.794,1.88a.749.749,0,0,0-.2,1.019l1.73,2.659a.749.749,0,0,0,1.011.217l2.944-1.85a.749.749,0,0,0,.217-1.049Z" transform="translate(-874.786 -385.189)"/><path d="M931.186,415.8l-1.887-2.7a.749.749,0,0,0-1.011-.187l-2.794,1.887a.749.749,0,0,0-.2,1.011l1.73,2.659a.749.749,0,0,0,1,.225l2.951-1.858a.749.749,0,0,0,.21-1.041Z" transform="translate(-873 -386.427)"/><path d="M924.065,420.735l-1.888-2.689a.749.749,0,0,0-1.019-.187l-2.786,1.88a.749.749,0,0,0-.21,1.011l1.73,2.659a.749.749,0,0,0,1.011.225l2.951-1.858a.749.749,0,0,0,.21-1.041Z" transform="translate(-871.211 -387.666)"/><path d="M917.125,425.951l-2.344-3.341a.337.337,0,0,0-.472-.09l-3.431,2.314a.337.337,0,0,0-.1.472l2.15,3.3a.345.345,0,0,0,.472.1l3.625-2.247a.344.344,0,0,0,.1-.517Z" transform="translate(-869.372 -388.852)"/><path d="M910,430.88l-2.359-3.341a.344.344,0,0,0-.479-.09l-3.431,2.314a.344.344,0,0,0-.09.472l2.149,3.3a.33.33,0,0,0,.472.1l3.618-2.247a.337.337,0,0,0,.12-.517Z" transform="translate(-867.58 -390.089)"/><path d="M903.7,435.263l-2.344-3.311a.344.344,0,0,0-.472-.082l-3.431,2.307a.352.352,0,0,0-.1.479l2.15,3.3a.352.352,0,0,0,.472.1l3.625-2.247a.345.345,0,0,0,.1-.554Z" transform="translate(-866.002 -391.198)"/><path d="M896.635,440.133l-2.344-3.341a.344.344,0,0,0-.472-.082l-3.43,2.307a.344.344,0,0,0-.1.479l2.15,3.3a.352.352,0,0,0,.472.1l3.625-2.247a.352.352,0,0,0,.1-.524Z" transform="translate(-864.229 -392.413)"/><path d="M889.795,444.83l-2.344-3.341a.337.337,0,0,0-.472-.09l-3.431,2.314a.337.337,0,0,0-.1.472l2.15,3.3a.345.345,0,0,0,.472.1l3.625-2.247a.345.345,0,0,0,.1-.517Z" transform="translate(-862.513 -393.59)"/><path d="M882.962,449.611l-2.322-3.348a.345.345,0,0,0-.472-.082l-3.43,2.307a.344.344,0,0,0-.1.479l2.15,3.3a.352.352,0,0,0,.472.1l3.625-2.247a.345.345,0,0,0,.075-.517Z" transform="translate(-860.803 -394.79)"/><path d="M876.115,454.34,873.771,451a.337.337,0,0,0-.472-.09l-3.431,2.3a.337.337,0,0,0-.1.472l2.15,3.3a.345.345,0,0,0,.472.1l3.625-2.247a.345.345,0,0,0,.1-.5Z" transform="translate(-859.079 -395.977)"/><path d="M947.562,394.842l-1.888-2.7a.749.749,0,0,0-1.019-.187l-2.764,1.888a.749.749,0,0,0-.21,1.011l1.73,2.659a.749.749,0,0,0,1.011.217l2.951-1.85a.749.749,0,0,0,.187-1.041Z" transform="translate(-877.114 -381.165)"/><path d="M937.7,380.609l-1.888-2.711a.749.749,0,0,0-1.011-.187l-2.794,1.88a.749.749,0,0,0-.21,1.011l1.73,2.659a.749.749,0,0,0,1.011.225l2.951-1.85A.749.749,0,0,0,937.7,380.609Z" transform="translate(-874.634 -377.59)"/><path d="M940.846,399.486l-1.888-2.689a.749.749,0,0,0-1.011-.187l-2.794,1.88a.749.749,0,0,0-.2,1.011l1.723,2.659a.749.749,0,0,0,1.011.225l2.951-1.85a.749.749,0,0,0,.21-1.049Z" transform="translate(-875.424 -382.333)"/><path d="M933.8,404.355l-1.887-2.689a.749.749,0,0,0-1.019-.187l-2.786,1.858a.749.749,0,0,0-.21,1.019l1.73,2.659a.749.749,0,0,0,1.011.217l2.951-1.85a.749.749,0,0,0,.21-1.027Z" transform="translate(-873.654 -383.555)"/><path d="M926.676,409.292l-1.88-2.7a.749.749,0,0,0-1.019-.187l-2.794,1.91a.749.749,0,0,0-.2,1.011l1.73,2.659a.749.749,0,0,0,1.011.217l2.944-1.85a.749.749,0,0,0,.21-1.064Z" transform="translate(-871.868 -384.792)"/><path d="M931.154,385.486l-1.888-2.689a.749.749,0,0,0-1.011-.187l-2.794,1.88a.749.749,0,0,0-.21,1.011l1.73,2.659a.749.749,0,0,0,1.011.225l2.951-1.85a.749.749,0,0,0,.21-1.049Z" transform="translate(-872.99 -378.82)"/><path d="M924.115,390.362l-1.888-2.7a.749.749,0,0,0-1.019-.187l-2.786,1.858a.749.749,0,0,0-.21,1.011l1.73,2.659a.749.749,0,0,0,1.011.217l2.951-1.85A.749.749,0,0,0,924.115,390.362Z" transform="translate(-871.223 -380.041)"/><path d="M916.986,395.294l-1.888-2.689a.749.749,0,0,0-1.011-.2l-2.794,1.91a.749.749,0,0,0-.2,1.011l1.73,2.659a.749.749,0,0,0,1.011.225l2.944-1.858a.749.749,0,0,0,.21-1.064Z" transform="translate(-869.436 -381.28)"/><path d="M919.564,414.224l-1.888-2.689a.749.749,0,0,0-1.011-.2l-2.771,1.888a.749.749,0,0,0-.2,1.011l1.7,2.659a.749.749,0,0,0,1,.225l2.951-1.858a.749.749,0,0,0,.217-1.041Z" transform="translate(-870.088 -386.031)"/><path d="M912.435,419.155l-1.888-2.689a.749.749,0,0,0-1.019-.187l-2.786,1.88a.749.749,0,0,0-.21,1.011l1.73,2.659a.749.749,0,0,0,1.011.225l2.951-1.85a.749.749,0,0,0,.21-1.049Z" transform="translate(-868.292 -387.269)"/><path d="M905.495,424.37l-2.344-3.341a.337.337,0,0,0-.472-.09l-3.43,2.314a.337.337,0,0,0-.1.472l2.15,3.3a.337.337,0,0,0,.472.1l3.625-2.247a.345.345,0,0,0,.1-.517Z" transform="translate(-866.453 -388.455)"/><path d="M899.188,428.741l-2.344-3.348a.345.345,0,0,0-.472-.082l-3.423,2.307a.352.352,0,0,0-.1.479l2.15,3.3a.352.352,0,0,0,.472.1l3.625-2.247a.329.329,0,0,0,.09-.517Z" transform="translate(-864.873 -389.552)"/><path d="M892.125,433.623l-2.344-3.341a.345.345,0,0,0-.472-.082l-3.43,2.307a.337.337,0,0,0-.1.472l2.15,3.311a.352.352,0,0,0,.472.1l3.625-2.247a.352.352,0,0,0,.1-.524Z" transform="translate(-863.098 -390.779)"/><path d="M885.285,438.36l-2.345-3.341a.337.337,0,0,0-.472-.09l-3.431,2.284a.337.337,0,0,0-.1.472l2.15,3.3a.345.345,0,0,0,.472.1l3.625-2.247a.345.345,0,0,0,.1-.487Z" transform="translate(-861.381 -391.966)"/><path d="M929.116,397.586l-1.888-2.689a.749.749,0,0,0-1.011-.187l-2.794,1.887a.749.749,0,0,0-.2,1.011l1.73,2.659a.749.749,0,0,0,1,.217l2.951-1.85a.749.749,0,0,0,.21-1.049Z" transform="translate(-872.48 -381.857)"/><path d="M921.984,402.522l-1.888-2.7a.749.749,0,0,0-1.019-.187l-2.786,1.887a.749.749,0,0,0-.21,1.011l1.73,2.659a.749.749,0,0,0,1.011.225l2.951-1.858a.749.749,0,0,0,.21-1.041Z" transform="translate(-870.689 -383.093)"/><path d="M914.874,407.455l-1.888-2.689a.749.749,0,0,0-1.019-.187l-2.794,1.88a.749.749,0,0,0-.2,1.011l1.73,2.659a.749.749,0,0,0,1.011.225l2.944-1.858a.749.749,0,0,0,.217-1.041Z" transform="translate(-868.904 -384.333)"/><path d="M907.746,412.386l-1.888-2.689a.749.749,0,0,0-1.011-.187l-2.794,1.88a.749.749,0,0,0-.2,1.011l1.73,2.689a.749.749,0,0,0,1,.225l2.951-1.85a.749.749,0,0,0,.21-1.079Z" transform="translate(-867.117 -385.571)"/><path d="M900.856,417.6l-2.344-3.341a.337.337,0,0,0-.472-.09l-3.431,2.314a.345.345,0,0,0-.1.472l2.15,3.311a.337.337,0,0,0,.472.1l3.625-2.247a.345.345,0,0,0,.1-.517Z" transform="translate(-865.29 -386.756)"/><path d="M894.506,421.97l-2.344-3.348a.352.352,0,0,0-.479-.082l-3.423,2.307a.352.352,0,0,0-.1.479l2.15,3.3a.345.345,0,0,0,.472.1l3.625-2.247a.344.344,0,0,0,.1-.517Z" transform="translate(-863.696 -387.853)"/><path d="M887.444,426.83l-2.344-3.348a.352.352,0,0,0-.479-.082l-3.43,2.307a.359.359,0,0,0-.1.479l2.157,3.3a.345.345,0,0,0,.472.1l3.618-2.247a.337.337,0,0,0,.1-.517Z" transform="translate(-861.922 -389.072)"/><path d="M880.6,431.59l-2.344-3.341a.345.345,0,0,0-.479-.09l-3.43,2.314a.345.345,0,0,0-.09.472l2.15,3.3a.33.33,0,0,0,.472.1L880.5,432.1a.337.337,0,0,0,.1-.517Z" transform="translate(-860.206 -390.267)"/><path d="M878.445,443.093l-2.344-3.341a.344.344,0,0,0-.472-.082l-3.431,2.307a.337.337,0,0,0-.1.472l2.15,3.311a.352.352,0,0,0,.472.1l3.625-2.247a.352.352,0,0,0,.1-.524Z" transform="translate(-859.664 -393.156)"/><path d="M871.6,447.831l-2.344-3.341a.337.337,0,0,0-.472-.09l-3.43,2.314a.337.337,0,0,0-.1.472l2.15,3.3a.345.345,0,0,0,.472.1l3.625-2.247a.345.345,0,0,0,.1-.517Z" transform="translate(-857.947 -394.343)"/><path d="M882.371,419.542l-2.247-3.146a.464.464,0,0,0-.637-.112l-3.236,2.18a.457.457,0,0,0-.127.637l2.022,3.108a.449.449,0,0,0,.629.142l3.423-2.15a.464.464,0,0,0,.172-.659Z" transform="translate(-860.669 -387.281)"/><path d="M875.543,424.279l-2.21-3.146a.457.457,0,0,0-.637-.12l-3.236,2.217a.449.449,0,0,0-.127.629l2.022,3.116a.464.464,0,0,0,.629.142l3.423-2.15a.464.464,0,0,0,.135-.689Z" transform="translate(-858.965 -388.468)"/><path d="M868.7,429.019l-2.209-3.153a.464.464,0,0,0-.637-.112l-3.236,2.18a.457.457,0,0,0-.127.637l2.022,3.108a.449.449,0,0,0,.629.142l3.423-2.15a.457.457,0,0,0,.135-.652Z" transform="translate(-857.248 -389.658)"/><path d="M861.916,433.831l-2.345-3.348a.344.344,0,0,0-.472-.082l-3.431,2.307a.352.352,0,0,0-.1.479l2.15,3.3a.352.352,0,0,0,.472.1l3.625-2.247a.33.33,0,0,0,.1-.517Z" transform="translate(-855.516 -390.829)"/><path d="M941.219,387.781l-2.03-2.884a.749.749,0,0,0-1.019-.18l-7.925,5.55a.749.749,0,0,0-.2,1l1.91,2.951a.749.749,0,0,0,1.041.2l8.044-5.625A.749.749,0,0,0,941.219,387.781Z" transform="translate(-874.195 -379.347)"/><path d="M871.981,436.123l-2.487-3.513a.337.337,0,0,0-.479-.082l-8.554,5.992a.337.337,0,0,0-.09.464l2.337,3.618a.344.344,0,0,0,.487.1l8.7-6.09a.352.352,0,0,0,.09-.487Z" transform="translate(-856.721 -391.362)"/><path d="M904.878,400.306l-2.292-3.356a.345.345,0,0,0-.472-.09l-19,12.823a.345.345,0,0,0-.1.472l2.344,3.6a.344.344,0,0,0,.487.1l18.935-13.063a.345.345,0,0,0,.09-.479Z" transform="translate(-862.406 -382.412)"/></g><path d="M952.724,401.473l-1.887-2.7a.749.749,0,0,0-1.019-.187l-2.786,1.888a.749.749,0,0,0-.21,1.011l1.73,2.659a.749.749,0,0,0,1.011.225l2.951-1.858a.749.749,0,0,0,.21-1.041Z" transform="translate(-310.936 -155.111)" fill="#464a5f"/><path d="M945.984,406.116l-1.888-2.689a.749.749,0,0,0-1.011-.187l-2.794,1.88a.749.749,0,0,0-.21,1.011l1.73,2.659a.749.749,0,0,0,1.011.225l2.951-1.85a.749.749,0,0,0,.21-1.049Z" transform="translate(-309.244 -156.279)" fill="#464a5f"/><path d="M938.984,410.995l-1.887-2.689a.749.749,0,0,0-1.019-.187l-2.786,1.887a.749.749,0,0,0-.21,1.011l1.73,2.659a.749.749,0,0,0,1.011.217l2.951-1.85a.749.749,0,0,0,.21-1.049Z" transform="translate(-307.487 -157.503)" fill="#464a5f"/><path d="M931.842,415.924l-1.888-2.7a.749.749,0,0,0-1.011-.187l-2.794,1.888a.749.749,0,0,0-.2,1.049l1.73,2.659a.749.749,0,0,0,1.011.225L931.64,417a.749.749,0,0,0,.2-1.079Z" transform="translate(-305.693 -158.739)" fill="#464a5f"/><path d="M924.726,420.856l-1.887-2.689a.749.749,0,0,0-1.011-.187l-2.794,1.88a.749.749,0,0,0-.2,1.011l1.723,2.659a.749.749,0,0,0,1.011.225l2.951-1.858a.749.749,0,0,0,.21-1.041Z" transform="translate(-303.91 -159.979)" fill="#464a5f"/><path d="M917.785,426.07l-2.344-3.341a.337.337,0,0,0-.472-.09l-3.43,2.314a.337.337,0,0,0-.1.472l2.15,3.3a.344.344,0,0,0,.472.1l3.625-2.247a.345.345,0,0,0,.1-.517Z" transform="translate(-302.07 -161.164)" fill="#464a5f"/><path d="M910.665,431l-2.344-3.341a.345.345,0,0,0-.479-.09l-3.423,2.314a.337.337,0,0,0-.1.472l2.15,3.311a.337.337,0,0,0,.472.1l3.625-2.247a.352.352,0,0,0,.1-.517Z" transform="translate(-300.283 -162.401)" fill="#464a5f"/><path d="M904.356,435.371l-2.344-3.348a.345.345,0,0,0-.472-.082l-3.43,2.277a.352.352,0,0,0-.1.479l2.15,3.3a.352.352,0,0,0,.472.1l3.625-2.247a.345.345,0,0,0,.1-.487Z" transform="translate(-298.7 -163.498)" fill="#464a5f"/><path d="M897.295,440.271l-2.344-3.318a.344.344,0,0,0-.472-.082l-3.431,2.307a.345.345,0,0,0-.1.479l2.15,3.3a.352.352,0,0,0,.472.1l3.625-2.247a.344.344,0,0,0,.1-.547Z" transform="translate(-296.927 -164.735)" fill="#464a5f"/><path d="M890.455,444.99l-2.344-3.341a.337.337,0,0,0-.472-.09l-3.43,2.314a.337.337,0,0,0-.1.472l2.15,3.3a.337.337,0,0,0,.472.1l3.625-2.247a.345.345,0,0,0,.1-.517Z" transform="translate(-295.21 -165.912)" fill="#464a5f"/><path d="M883.616,449.731l-2.344-3.348a.345.345,0,0,0-.472-.082l-3.431,2.307a.352.352,0,0,0-.1.479l2.15,3.3a.352.352,0,0,0,.472.1l3.625-2.247a.345.345,0,0,0,.1-.517Z" transform="translate(-293.494 -167.102)" fill="#464a5f"/><path d="M876.775,454.46l-2.344-3.341a.337.337,0,0,0-.472-.09l-3.431,2.315a.337.337,0,0,0-.1.472l2.15,3.3a.337.337,0,0,0,.472.1l3.625-2.247a.344.344,0,0,0,.1-.517Z" transform="translate(-291.777 -168.289)" fill="#464a5f"/><path d="M948.216,394.994l-1.888-2.7a.749.749,0,0,0-1.011-.187L942.524,394a.749.749,0,0,0-.2,1.011l1.723,2.659a.749.749,0,0,0,1.011.225l2.951-1.858a.749.749,0,0,0,.21-1.041Z" transform="translate(-309.806 -153.486)" fill="#464a5f"/><path d="M938.366,380.736l-1.888-2.689a.749.749,0,0,0-1.011-.187l-2.794,1.88a.749.749,0,0,0-.2,1.011l1.73,2.659a.749.749,0,0,0,1,.225l2.951-1.85a.749.749,0,0,0,.21-1.049Z" transform="translate(-307.334 -149.91)" fill="#464a5f"/><path d="M941.506,399.6l-1.887-2.7a.749.749,0,0,0-1.011-.187l-2.794,1.88a.749.749,0,0,0-.2,1.011l1.73,2.659a.749.749,0,0,0,1,.225l2.951-1.85a.749.749,0,0,0,.211-1.038Z" transform="translate(-308.122 -154.641)" fill="#464a5f"/><path d="M934.475,404.476l-1.858-2.689a.749.749,0,0,0-1.011-.187l-2.794,1.88a.749.749,0,0,0-.2,1.019l1.723,2.659a.749.749,0,0,0,1.011.217l2.951-1.85a.749.749,0,0,0,.18-1.049Z" transform="translate(-306.364 -155.868)" fill="#464a5f"/><path d="M927.344,409.412l-1.888-2.7a.749.749,0,0,0-1.019-.187l-2.786,1.887a.749.749,0,0,0-.21,1.011l1.73,2.659a.749.749,0,0,0,1.011.225l2.951-1.858a.749.749,0,0,0,.21-1.041Z" transform="translate(-304.566 -157.104)" fill="#464a5f"/><path d="M931.816,385.6l-1.887-2.7a.749.749,0,0,0-1.011-.187l-2.794,1.88a.749.749,0,0,0-.2,1.011l1.73,2.659a.749.749,0,0,0,1,.225l2.951-1.85a.749.749,0,0,0,.211-1.038Z" transform="translate(-305.69 -151.127)" fill="#464a5f"/><path d="M924.774,390.484l-1.888-2.7a.749.749,0,0,0-1.011-.187l-2.794,1.888a.749.749,0,0,0-.21,1.011l1.73,2.659a.749.749,0,0,0,1.011.225l2.951-1.858a.749.749,0,0,0,.21-1.041Z" transform="translate(-303.921 -152.354)" fill="#464a5f"/><path d="M917.654,395.415l-1.888-2.689a.749.749,0,0,0-1.019-.187l-2.786,1.88a.749.749,0,0,0-.21,1.011l1.73,2.666a.749.749,0,0,0,1.011.225l2.944-1.858a.749.749,0,0,0,.217-1.049Z" transform="translate(-302.134 -153.593)" fill="#464a5f"/><path d="M920.216,414.346l-1.887-2.689a.749.749,0,0,0-1.011-.187l-2.794,1.865a.749.749,0,0,0-.2,1.011l1.73,2.659a.749.749,0,0,0,1,.225L920,415.372a.749.749,0,0,0,.211-1.026Z" transform="translate(-302.778 -158.345)" fill="#464a5f"/><path d="M913.094,419.276l-1.887-2.689a.749.749,0,0,0-1.011-.187l-2.794,1.917a.749.749,0,0,0-.21,1.011l1.73,2.659a.749.749,0,0,0,1.011.225l2.951-1.85a.749.749,0,0,0,.21-1.086Z" transform="translate(-300.989 -159.582)" fill="#464a5f"/><path d="M906.165,424.49l-2.344-3.341a.337.337,0,0,0-.472-.09l-3.4,2.315a.337.337,0,0,0-.1.472l2.15,3.3a.337.337,0,0,0,.472.1L906.1,425a.352.352,0,0,0,.067-.517Z" transform="translate(-299.161 -160.767)" fill="#464a5f"/><path d="M899.854,428.83l-2.344-3.348a.352.352,0,0,0-.479-.082l-3.43,2.307a.36.36,0,0,0-.1.479l2.157,3.3a.344.344,0,0,0,.472.1l3.618-2.247a.337.337,0,0,0,.1-.517Z" transform="translate(-297.569 -161.856)" fill="#464a5f"/><path d="M892.786,433.751l-2.344-3.348a.345.345,0,0,0-.472-.082l-3.43,2.307a.352.352,0,0,0-.1.479l2.15,3.3a.352.352,0,0,0,.472.1l3.625-2.247a.329.329,0,0,0,.1-.517Z" transform="translate(-295.796 -163.091)" fill="#464a5f"/><path d="M885.963,438.48l-2.322-3.341a.337.337,0,0,0-.472-.09l-3.43,2.315a.345.345,0,0,0-.1.472l2.15,3.3a.345.345,0,0,0,.472.1L885.889,439a.337.337,0,0,0,.075-.517Z" transform="translate(-294.09 -164.278)" fill="#464a5f"/><path d="M929.776,397.712l-1.88-2.7a.749.749,0,0,0-1.019-.187l-2.794,1.888a.749.749,0,0,0-.2,1.011l1.73,2.659a.749.749,0,0,0,1.011.217l2.944-1.85a.749.749,0,0,0,.21-1.041Z" transform="translate(-305.178 -154.168)" fill="#464a5f"/><path d="M922.656,402.644l-1.888-2.689a.749.749,0,0,0-1.011-.2l-2.794,1.888a.749.749,0,0,0-.2,1.011l1.73,2.659a.749.749,0,0,0,1,.225l2.951-1.858a.749.749,0,0,0,.21-1.041Z" transform="translate(-303.391 -155.407)" fill="#464a5f"/><path d="M915.547,407.577l-1.91-2.681a.749.749,0,0,0-1.019-.187l-2.727,1.873a.749.749,0,0,0-.21,1.011l1.73,2.659a.749.749,0,0,0,1.011.225l2.951-1.85a.749.749,0,0,0,.172-1.049Z" transform="translate(-301.614 -156.647)" fill="#464a5f"/><path d="M908.406,412.506l-1.888-2.689a.749.749,0,0,0-1.011-.187l-2.794,1.88a.749.749,0,0,0-.2,1.011l1.73,2.659a.749.749,0,0,0,1,.225l2.951-1.85a.748.748,0,0,0,.21-1.049Z" transform="translate(-299.814 -157.883)" fill="#464a5f"/><path d="M901.473,417.72l-2.344-3.341a.344.344,0,0,0-.479-.09l-3.431,2.314a.345.345,0,0,0-.1.472l2.15,3.311a.344.344,0,0,0,.479.1l3.618-2.247a.345.345,0,0,0,.1-.517Z" transform="translate(-297.975 -159.068)" fill="#464a5f"/><path d="M895.173,422.09l-2.344-3.341a.337.337,0,0,0-.472-.09l-3.408,2.307a.352.352,0,0,0-.1.479l2.15,3.3a.352.352,0,0,0,.472.1L895.1,422.6a.344.344,0,0,0,.075-.517Z" transform="translate(-296.401 -160.165)" fill="#464a5f"/><path d="M888.106,426.98l-2.344-3.348a.352.352,0,0,0-.479-.082l-3.423,2.307a.352.352,0,0,0-.1.479l2.15,3.3a.345.345,0,0,0,.472.1l3.625-2.247a.345.345,0,0,0,.1-.517Z" transform="translate(-294.621 -161.392)" fill="#464a5f"/><path d="M881.265,431.71l-2.344-3.341a.345.345,0,0,0-.479-.09l-3.423,2.314a.337.337,0,0,0-.1.472l2.15,3.311a.337.337,0,0,0,.472.1l3.625-2.247a.352.352,0,0,0,.1-.517Z" transform="translate(-292.904 -162.579)" fill="#464a5f"/><path d="M879.113,443.22l-2.344-3.348a.352.352,0,0,0-.479-.082l-3.43,2.307a.352.352,0,0,0-.1.479l2.15,3.3a.352.352,0,0,0,.472.1l3.625-2.247a.337.337,0,0,0,.1-.517Z" transform="translate(-292.362 -165.468)" fill="#464a5f"/><path d="M872.273,447.95l-2.344-3.341a.345.345,0,0,0-.479-.09l-3.43,2.314a.344.344,0,0,0-.1.472l2.15,3.3a.344.344,0,0,0,.479.1l3.618-2.247a.337.337,0,0,0,.1-.517Z" transform="translate(-290.646 -166.655)" fill="#464a5f"/><path d="M883.037,419.669l-2.21-3.153a.464.464,0,0,0-.637-.112l-3.258,2.18a.464.464,0,0,0-.127.637l2.022,3.116a.464.464,0,0,0,.637.135l3.416-2.15a.457.457,0,0,0,.157-.652Z" transform="translate(-293.372 -159.593)" fill="#464a5f"/><path d="M876.2,424.4l-2.21-3.146a.457.457,0,0,0-.637-.12l-3.236,2.187a.457.457,0,0,0-.127.629l2.022,3.116a.472.472,0,0,0,.637.142l3.423-2.15a.472.472,0,0,0,.127-.659Z" transform="translate(-291.663 -160.78)" fill="#464a5f"/><path d="M869.352,429.139l-2.247-3.153a.457.457,0,0,0-.629-.112l-3.243,2.18a.464.464,0,0,0-.127.637l2.022,3.116a.465.465,0,0,0,.637.135l3.423-2.15a.457.457,0,0,0,.165-.652Z" transform="translate(-289.934 -161.97)" fill="#464a5f"/><path d="M862.585,433.96l-2.344-3.348a.352.352,0,0,0-.479-.082l-3.431,2.307a.352.352,0,0,0-.09.479l2.15,3.3a.344.344,0,0,0,.472.1l3.625-2.247a.345.345,0,0,0,.1-.517Z" transform="translate(-288.215 -163.144)" fill="#464a5f"/><path d="M941.885,387.929l-2-2.891a.749.749,0,0,0-1.019-.18l-7.97,5.55a.749.749,0,0,0-.2,1l1.917,2.951a.749.749,0,0,0,1.041.2l8.037-5.625a.749.749,0,0,0,.189-1.005Z" transform="translate(-306.89 -151.665)" fill="#464a5f"/><path d="M872.641,436.243l-2.487-3.513a.337.337,0,0,0-.479-.082l-8.554,5.992a.345.345,0,0,0-.09.472l2.345,3.61a.344.344,0,0,0,.487.1l8.7-6.09a.352.352,0,0,0,.078-.489Z" transform="translate(-289.418 -163.674)" fill="#464a5f"/><path d="M905.552,400.432,903.3,397.1a.352.352,0,0,0-.479-.1l-18.983,12.81a.337.337,0,0,0-.1.472l2.337,3.6a.344.344,0,0,0,.487.1L905.5,400.911a.345.345,0,0,0,.052-.479Z" transform="translate(-295.118 -154.73)" fill="#464a5f"/><path d="M899.152,381.13l-10.1-14.673a1.872,1.872,0,0,0-2.592-.494l-27.811,18.673a1.88,1.88,0,0,0-.5,2.614l10.292,15.093a1.873,1.873,0,0,0,2.614.494l27.616-19.107a1.865,1.865,0,0,0,.479-2.6Z" transform="translate(-288.628 -146.873)" opacity="0.1"/><path d="M899.782,381.251l-10.1-14.673a1.88,1.88,0,0,0-2.592-.494l-27.77,18.688a1.872,1.872,0,0,0-.509,2.614l10.262,15.078a1.873,1.873,0,0,0,2.614.494l27.631-19.107a1.865,1.865,0,0,0,.464-2.6Z" transform="translate(-288.793 -146.904)" fill="#939498"/><path d="M967.009,415.706l-21.422-7.146L876.88,456.287l21.265,6.928a3.9,3.9,0,0,0,3.438-.509l65.621-45.63a.749.749,0,0,0-.2-1.371Z" transform="translate(-293.41 -157.645)" fill="#2870db"/></g></g></svg>