<svg xmlns="http://www.w3.org/2000/svg" xmlns:xlink="http://www.w3.org/1999/xlink" width="1030.688" height="593.942" viewBox="0 0 1030.688 593.942"><defs><linearGradient id="a" x1="0.5" y1="1" x2="0.5" gradientUnits="objectBoundingBox"><stop offset="0" stop-color="gray" stop-opacity="0.251"/><stop offset="0.54" stop-color="gray" stop-opacity="0.122"/><stop offset="1" stop-color="gray" stop-opacity="0.102"/></linearGradient><linearGradient id="b" y1="1" y2="0" xlink:href="#a"/></defs><g transform="translate(-444.663 -4772.908)"><path d="M378.245,537.063c-62.316-21.532-133.566-39.758-191.787-8.816-7.379,3.922-14.65,8.859-18.626,16.206-10.5,19.328,6.191,44.392-1.945,64.822s-38.753,30.715-36.246,52.538c.659,5.7,3.749,10.868,7.39,15.32C159.837,705,201.647,707.815,236.986,700.9s69.9-21.251,105.876-19.447c34.572,1.783,66.378,18.366,98.054,32.325,53.4,23.6,115.772,40.525,169.132,16.811,24.449-10.869,44.663-29.375,68.063-42.3A167.522,167.522,0,0,1,781.5,669.322c23.768,3.349,46.456,11.776,69.716,17.589,52.83,13.191,107.972,12.759,162.412,12.241,10.134-.1,20.43-.216,30.142-3.112,14.38-4.321,26.242-14.272,37.662-24.006,15.006-12.781,30.812-26.826,35.652-45.937,5.715-22.688-6.115-46.8-23.66-62.219s-39.974-23.844-61.862-31.968c-5.4-1.988-11.171-4.008-16.7-2.506-3.63.994-6.687,3.414-9.4,6.018-15.536,14.952-28.662,40.244-49.848,36.182-7.563-1.448-13.753-6.709-19.738-11.571-31.957-25.929-74.945-45.948-113.515-31.622-28.208,10.48-48.12,37.392-76.706,46.888-20.333,6.763-42.426,3.835-63.818,5.153-31.115,1.9-61.4,12.9-92.555,12.23C509.834,590.973,443.64,515,364.513,522.24c-6.2.562-12.964,1.988-16.767,6.893" transform="translate(322.181 4624.832)" fill="#2870db" opacity="0.5"/><path d="M268.329,468.71s-66.021,39.855,55.725,101.242c0,0,26.826-49.8-2.831-90.416a39.974,39.974,0,0,0-51.858-11.365Z" transform="translate(331.903 4620.919)" fill="#2870db"/><path d="M267.73,467.52s56.525,43.215,54.948,102.041" transform="translate(333.291 4621.277)" fill="none" stroke="#535461" stroke-miterlimit="10" stroke-width="1"/><path d="M1053.612,442.742c13.375,48.908-43.679,188.244-43.679,188.244S889.882,540.095,876.5,491.186A91.832,91.832,0,1,1,1053.6,442.732Z" transform="translate(381.909 4613.687)" fill="#2870db"/><path d="M1053.612,442.742c13.375,48.908-43.679,188.244-43.679,188.244S889.882,540.095,876.5,491.186A91.832,91.832,0,1,1,1053.6,442.732Z" transform="translate(381.909 4613.687)" opacity="0.1"/><path d="M936.21,378.27s74.729,112.812,69.144,252.569" transform="translate(387.017 4614.104)" fill="none" stroke="#535461" stroke-miterlimit="10" stroke-width="1"/><path d="M1062.259,520.639s-67.761-36.862-59.183,99.21c0,0,56.525-2.02,76.587-48.13a39.973,39.973,0,0,0-16.411-50.507Z" transform="translate(392.331 4625.181)" fill="#2870db"/><path d="M1063.315,520.52s-8.751,70.635-60.3,98.973" transform="translate(392.387 4625.537)" fill="none" stroke="#535461" stroke-miterlimit="10" stroke-width="1"/><path d="M140.891,506.683s-66.054,39.844,55.7,101.2c0,0,26.826-49.805-2.831-90.416A39.974,39.974,0,0,0,141.906,506.1Z" transform="translate(321.66 4623.968)" fill="#2870db"/><path d="M140.26,505.49s56.525,43.215,54.948,102.041" transform="translate(323.047 4624.329)" fill="none" stroke="#535461" stroke-miterlimit="10" stroke-width="1"/><path d="M956.465,580.281H887.052a23.142,23.142,0,0,0,2.42-10.339V253.869a23.239,23.239,0,0,0-23.239-23.239h-537.3a23.239,23.239,0,0,0-23.239,23.239V569.953a23.141,23.141,0,0,0,2.42,10.339H236.247a6.147,6.147,0,0,0-6.147,6.18v4.959a34.377,34.377,0,0,0,34.377,34.377H928.235a34.377,34.377,0,0,0,34.377-34.377v-4.959a6.147,6.147,0,0,0-6.147-6.19ZM528.758,599.944l-5.985-6.752H670.545l-6.59,6.763Z" transform="translate(330.267 4602.238)" fill="url(#a)"/><rect width="570.565" height="354.351" rx="23.26" transform="translate(642.54 4837.341)" fill="#535461"/><rect width="545.339" height="289.485" transform="translate(654.554 4888.994)" fill="#fff"/><circle cx="4.808" cy="4.808" r="4.808" transform="translate(922.421 4858.959)" fill="#fff"/><path d="M680.537,551.08,661.8,570.3H529.718l-16.929-19.22h-269a6.007,6.007,0,0,0-6.007,6.007v4.84a33.6,33.6,0,0,0,33.6,33.6H920.1a33.6,33.6,0,0,0,33.6-33.6v-4.84a6.007,6.007,0,0,0-6.007-6.007Z" transform="translate(330.884 4627.993)" fill="#535461"/><path d="M258.77,124.19V370.428H665.962" transform="translate(465.457 4782.824)" fill="none" stroke="#535461" stroke-miterlimit="10" stroke-width="2"/><rect width="42.037" height="64.865" transform="translate(760.257 5078.782)" fill="#2870db" opacity="0.5"/><rect width="42.037" height="122.525" transform="translate(832.329 5021.123)" fill="#2870db" opacity="0.7"/><rect width="42.037" height="87.683" transform="translate(904.4 5055.954)" fill="#2870db" opacity="0.5"/><rect width="42.037" height="141.745" transform="translate(976.472 5001.903)" fill="#2870db" opacity="0.8"/><rect width="42.037" height="192.187" transform="translate(1048.543 4951.45)" fill="#2870db"/><path d="M311.02,254.622l73.271-66.065,72.072,62.456,70.872-75.669,72.072-30.034" transform="translate(469.656 4784.521)" fill="none" stroke="#535461" stroke-miterlimit="10" stroke-width="2"/><circle cx="8.405" cy="8.405" r="8.405" transform="translate(772.271 5030.738)" fill="#2870db"/><circle cx="8.405" cy="8.405" r="8.405" transform="translate(916.414 5025.93)" fill="#2870db"/><circle cx="8.405" cy="8.405" r="8.405" transform="translate(989.685 4951.46)" fill="#2870db"/><circle cx="8.405" cy="8.405" r="8.405" transform="translate(845.542 4963.463)" fill="#2870db"/><circle cx="8.405" cy="8.405" r="8.405" transform="translate(1060.557 4921.426)" fill="#2870db"/><path d="M1008.617,591.818c-4.429-1.458-11-3.144-16.206-2.55-4.959-1.8-16.616-6.482-24.578-13.526a177.26,177.26,0,0,0-.529-20.765c-4.073-46.315,5.089-76.847,5.089-76.847s7.2-23.293,6.407-42.621c.464.875.724,1.394.724,1.394.627-16.67,6.309-33.924,10.566-44.673a3.579,3.579,0,0,0,.475-.173l4.754-11.279a9.787,9.787,0,0,0,.9-2.085l.767-1.783-.227-.1c.076-.292.151-.605.227-.918h0c3.036-12.846,5.4-43.312,5.4-43.312,8.146-32.065-11.193-51.858-11.193-51.858l-32.822-28.241a4.164,4.164,0,0,1,.324,1.156l-.27-.238c-.465-1.329-.972-2.917-1.469-4.732a27.748,27.748,0,0,0,10.6-15.9,49.777,49.777,0,0,0,.486-11.884l-.54-13.623a43.222,43.222,0,0,0-.81-7.941c-2.474-10.8-13.548-18.366-24.665-18.863a90.151,90.151,0,0,0-10.588.562,71.228,71.228,0,0,1-8.643.184,1.556,1.556,0,0,1-.929-.248,1.361,1.361,0,0,1-.4-.94,4.689,4.689,0,0,1,1.145-3.511,4.322,4.322,0,0,1,1.491-.853l-.789.184a4.322,4.322,0,0,1,1.3-.7,25.163,25.163,0,0,0-8.189,2.971,10.573,10.573,0,0,0-1.912,1.61,8.351,8.351,0,0,0-2.766,5.143,9.571,9.571,0,0,1-2.917-4.321,4.321,4.321,0,0,1,0-2.1q-.292.357-.562.735v-.227a21.844,21.844,0,0,0-4.322,8.794,3.425,3.425,0,0,1-.778-2.528q-.243.762-.454,1.523a3.523,3.523,0,0,1,0-1.016,34.8,34.8,0,0,0-1.7,12.079c0,4.084,1.815,10.447,6.19,11.884.227.076.454.13.691.184a27.474,27.474,0,0,0,18.528,41.962q.108.745.205,1.567h.173c.119,1.08.216,2.269.281,3.479a23.418,23.418,0,0,1-3.608,2.9,29.755,29.755,0,0,1-12.014,3.976,35.76,35.76,0,0,0-14.444,4.321c-5.24,2.928-11.02,7.2-12.835,12.381-3.025,8.643-19.684,22.094-30.855,23.768l-3.976-.227-.292-.086v.076l-.972-.054h-.313v.054l-1-.054s-.1.465-.238,1.286c-5.618-1.934-17.556-7.292-33.092-21.391-17.286-15.7-40.676-12.608-49.7-10.631a1.545,1.545,0,0,0-.411,2.863c3.641,2,9.28,4.9,11.884,5.229,0,0-5.4,5.65.346,8.643a4.17,4.17,0,0,0,4.321-.421c2.787-2.042,10.534,2.582,21.759,4.991,0,0,31.676,32.778,47.407,37.813a22.631,22.631,0,0,0,1.2,2.085l.972-.076v.076h.41l.119,1.08s24.46-1.286,32.411-10.166a12.736,12.736,0,0,0,1.545-1.653l-8.5,106.957h.076l-.076,1.016h6.255a235.785,235.785,0,0,1-1.7,39.39v69.727s-.324,6.136,12.424,15.125a476.516,476.516,0,0,1,38.591,29.916l1.545,1.34c-2.344,21.337-7.249,61.106-11.344,62.586l2.528.443c-4.321,5.477-16.594,20.527-20.333,20.927-4.581.508-7.638,7.638,0,9.161a85.576,85.576,0,0,0,45.376-4.473,6.925,6.925,0,0,0,4.321-7.368l-1.48-11.236a1.577,1.577,0,0,1,.648.681c1.016,3.057,0-4.073,0-4.073a318.44,318.44,0,0,0,9.842-41.054L979,625.785s.3-.378.832-1.08c3.706,8.405,10.318,25.6,8.837,38.2-2.031,17.286,17.286,2.031,15.266-8.146-1.642-8.232,5.7-43.128,8.567-56.179a5.8,5.8,0,0,0-3.889-6.763Z" transform="translate(373.058 4597.778)" fill="url(#b)"/><path d="M850.359,302.009s-14.412-2.485-35.782-21.867c-16.908-15.33-39.714-12.316-48.509-10.382a1.5,1.5,0,0,0-.4,2.787c3.554,1.945,9.064,4.786,11.646,5.11,0,0-5.326,5.51.335,8.459a4.073,4.073,0,0,0,4.257-.411c2.723-1.988,10.285,2.528,21.251,4.872,0,0,42.739,44.23,52.679,36.733Z" transform="translate(373.248 4605.254)" fill="#fec3be"/><path d="M912.11,245.42s3.976,16.9,0,28.824L930,276.729l15.9-7.952V258.341s-7.455-15.9-5.467-34.291Z" transform="translate(385.08 4601.709)" fill="#fec3be"/><path d="M959,585.042s12.964,25.346,10.933,42.242,16.9,1.988,14.909-7.951c-1.61-8.038,5.564-42.134,8.362-54.818a5.661,5.661,0,0,0-3.76-6.6c-5.974-1.966-15.979-4.375-21-.691C961.02,562.679,959,585.042,959,585.042Z" transform="translate(388.849 4628.333)" fill="#8b416f"/><path d="M915.418,608.7s-16.9,21.867-21.37,22.364-7.455,7.455,0,8.945a83.556,83.556,0,0,0,44.3-4.322,6.763,6.763,0,0,0,4.246-7.2l-2.852-21.283Z" transform="translate(383.264 4632.504)" fill="#8b416f"/><path d="M888.95,393.78l-16.206,2.161a237.176,237.176,0,0,1-.194,56.968v68.063s-.313,6,12.133,14.715a465.3,465.3,0,0,1,37.683,29.17l45.095,39.066s17.891-21.867,15.406-34.788c0,0-29.818-9.442-33.794-24.849-2.28-8.816-13.84-16.206-23.3-20.851a28.975,28.975,0,0,1-15.5-32.886,25.352,25.352,0,0,1,2.539-6.385c7.952-13.915,19.382-45.224,19.382-45.224L910.32,397.259Z" transform="translate(381.901 4615.351)" fill="#4d4981"/><path d="M888.95,393.78l-16.206,2.161a237.176,237.176,0,0,1-.194,56.968v68.063s-.313,6,12.133,14.715a465.3,465.3,0,0,1,37.683,29.17l45.095,39.066s17.891-21.867,15.406-34.788c0,0-29.818-9.442-33.794-24.849-2.28-8.816-13.84-16.206-23.3-20.851a28.975,28.975,0,0,1-15.5-32.886,25.352,25.352,0,0,1,2.539-6.385c7.952-13.915,19.382-45.224,19.382-45.224L910.32,397.259Z" transform="translate(381.901 4615.351)" opacity="0.05"/><path d="M910.99,627.364s29.321,4.97,30.315,7.952,0-3.976,0-3.976,16.9-51.188,12.964-96.4,4.97-75.043,4.97-75.043,10.436-33.794,4.473-53.176-68.582-10.933-68.582-10.933S917,446.974,916.5,471.326c0,0,2.485,73.552,6.958,82C923.414,553.283,916.457,625.343,910.99,627.364Z" transform="translate(383.716 4615.365)" fill="#4d4981"/><path d="M916.287,255.79s2.982,18.366,32.8,10.436L929.252,417.295s-57.649,1.988-57.152-4.97l11.884-91.432Z" transform="translate(381.864 4604.26)" fill="#fff"/><path d="M919.395,254.87a24.222,24.222,0,0,1-14.358,6.817,34.928,34.928,0,0,0-14.11,4.192c-5.11,2.863-10.8,7.022-12.532,12.089-3.479,9.939-25.346,26.339-35.285,22.861l3.479,29.818s28.327-1.491,33.3-12.424l-8.438,106.406H878.9s3.976-28.824,6.958-34.788,8.945-38.764,9.442-46.715,7.952-53.673,14.412-61.581l9.723-23.606Z" transform="translate(379.535 4604.187)" opacity="0.1"/><path d="M919.468,256.25a30.758,30.758,0,0,1-15.352,6.32,34.929,34.929,0,0,0-14.1,4.213c-5.11,2.863-10.8,7.022-12.532,12.089-3.479,9.939-25.345,26.339-35.285,22.861l3.479,29.818s28.327-1.491,33.3-12.424l-8.449,106.341h7.455s3.976-28.824,6.958-34.788,8.945-38.764,9.442-46.715,7.952-53.673,14.412-61.581l10.674-23.163Z" transform="translate(379.462 4604.297)" opacity="0.1"/><path d="M919.469,255.33a30.758,30.758,0,0,1-15.352,6.32,34.928,34.928,0,0,0-14.11,4.192c-5.11,2.863-10.8,7.022-12.532,12.089-3.479,9.939-25.346,26.339-35.285,22.861l3.479,29.818s28.327-1.491,33.3-12.424l-8.438,106.406h7.455s3.976-28.824,6.958-34.788,8.945-38.764,9.442-46.715,7.951-53.673,14.412-61.581L919.48,258.4Z" transform="translate(379.461 4604.223)" fill="#fd6f8d"/><path d="M939.195,238.6c-.648-4.71.648-7.649,1.242-13.17L912.11,246.8s.681,2.885,1.2,7.109a27.012,27.012,0,0,0,4.322.346C927.462,254.254,934.539,246.573,939.195,238.6Z" transform="translate(385.08 4601.82)" opacity="0.1"/><circle cx="26.836" cy="26.836" r="26.836" transform="translate(1275.821 4800.922)" fill="#fec3be"/><path d="M890.062,203.159a33.966,33.966,0,0,1,2.161-13.278,3.317,3.317,0,0,0,.562,4.321,21.262,21.262,0,0,1,6.741-11.949c-1.912.313-2.9,2.679-2.42,4.559a10.372,10.372,0,0,0,3.317,4.667c-.162-2.841,1.718-5.5,4.095-7.055a24.569,24.569,0,0,1,7.995-2.9,4.635,4.635,0,0,0-3.068,4.754,1.329,1.329,0,0,0,.4.918,1.524,1.524,0,0,0,.908.238,69.548,69.548,0,0,0,8.394-.184,88.034,88.034,0,0,1,10.339-.551c10.8.454,21.661,7.833,24.081,18.366a42.232,42.232,0,0,1,.789,7.757l.529,13.3a48.61,48.61,0,0,1-.475,11.625,24.632,24.632,0,0,1-12.651,16.724c-3.9-5.65-4.246-12.91-5.6-19.641a9.94,9.94,0,0,0-1.685-4.322,3.792,3.792,0,0,0-4.159-1.4c-1.458.583-2.085,2.809-.875,3.8-1.08,1.275-3.1.324-4.321-.81a23.206,23.206,0,0,1-6.731-12.025c-.486-2.312-.972-5.164-3.241-5.953a6.028,6.028,0,0,0-2.4-.162c-4.732.324-12.133,2.28-16.713.778C891.834,213.369,890.062,207.146,890.062,203.159Z" transform="translate(383.306 4598.292)" opacity="0.1"/><path d="M890.522,202.7a33.966,33.966,0,0,1,2.161-13.278,3.317,3.317,0,0,0,.562,4.321,21.263,21.263,0,0,1,6.741-11.949c-1.912.313-2.9,2.679-2.42,4.559a10.371,10.371,0,0,0,3.317,4.667c-.162-2.841,1.718-5.5,4.095-7.055a24.569,24.569,0,0,1,7.995-2.9,4.635,4.635,0,0,0-3.068,4.754,1.329,1.329,0,0,0,.4.918,1.523,1.523,0,0,0,.908.238,69.559,69.559,0,0,0,8.394-.184,88.04,88.04,0,0,1,10.339-.551c10.8.454,21.661,7.833,24.081,18.366a42.222,42.222,0,0,1,.789,7.757l.529,13.3a48.616,48.616,0,0,1-.475,11.625,24.633,24.633,0,0,1-12.651,16.724c-3.9-5.65-4.246-12.91-5.6-19.641a9.939,9.939,0,0,0-1.685-4.322,3.792,3.792,0,0,0-4.159-1.4c-1.459.583-2.085,2.809-.875,3.8-1.08,1.275-3.1.324-4.321-.81a23.207,23.207,0,0,1-6.731-12.025c-.486-2.312-.972-5.164-3.241-5.953a6.028,6.028,0,0,0-2.4-.162c-4.732.324-12.133,2.28-16.713.778C892.294,212.9,890.522,206.686,890.522,202.7Z" transform="translate(383.343 4598.255)" fill="#784f69"/><path d="M841.079,297.42s-3.976,18.366,3.479,29.818l4.224-.346-2.3-29.17Z" transform="translate(379.286 4607.606)" opacity="0.1"/><path d="M842.079,297.42s-3.976,18.366,3.479,29.818l4.224-.346-2.3-29.17Z" transform="translate(379.367 4607.606)" fill="#fd6f8d"/><path d="M943.43,251l32.055,27.582s18.885,19.382,10.933,50.691c0,0-3.479,45.721-7.455,47.709,0,0-13.915,27.83-14.909,54.17,0,0-18.636-37.521-27.085-14.661s-28.09,26.091-28.09,26.091l10.933-135.219S947.406,259.405,943.43,251Z" transform="translate(384.821 4603.875)" opacity="0.1"/><path d="M944.35,251,976.4,278.582s18.885,19.382,10.933,50.691c0,0-3.479,45.721-7.455,47.709,0,0-13.915,27.83-14.909,54.17,0,0-19.63-39.509-28.09-16.649s-27.085,28.09-27.085,28.09l10.933-135.165S948.326,259.405,944.35,251Z" transform="translate(384.895 4603.875)" fill="#fd6f8d"/><path d="M956.958,358.9s7.952-5.467,20.873,9.442l-31.806,57.649-10.685-16.13S957.952,365.363,956.958,358.9Z" transform="translate(386.947 4612.469)" fill="#fec3be"/><path d="M948.22,362.449s17.589,19.749,24.449,16.584l6.353-14.79L955.178,354Z" transform="translate(387.982 4612.153)" opacity="0.1"/><path d="M948.22,361.529s17.589,19.749,24.449,16.584l6.353-14.79L955.178,353.08Z" transform="translate(387.982 4612.08)" fill="#fd6f8d"/><path d="M936.57,402.51s8.373,17.156,12.835,18.15l-6.482,7.455-9.442-17.891Z" transform="translate(386.798 4616.052)" opacity="0.1"/><path d="M936.112,403s8.373,17.156,12.835,18.15l-6.482,7.455L933,410.681Z" transform="translate(386.759 4616.092)" fill="#4d4981"/><path d="M950.742,304.78s.994,35.782-2.982,49.2" transform="translate(387.945 4608.198)" opacity="0.1"/><path d="M876,311.738s5.964-1.988,5.964-6.958" transform="translate(382.178 4608.198)" opacity="0.1"/><path d="M206.884,316.76s-28.327,58.6-9.723,127.948,12.694,152.332-5.856,172.859" transform="translate(327.111 4609.161)" fill="none" stroke="#535461" stroke-miterlimit="10" stroke-width="2"/><circle cx="7.811" cy="7.811" r="7.811" transform="translate(526.184 4918.12)" fill="#2870db"/><path d="M194.79,352.052s29.364,5.294,37.176-5.4" transform="translate(327.429 4611.563)" fill="none" stroke="#535461" stroke-miterlimit="10" stroke-width="2"/><path d="M193.455,369.726s-17.664-19.544-16.692-31.266" transform="translate(325.977 4610.904)" fill="none" stroke="#535461" stroke-miterlimit="10" stroke-width="2"/><path d="M190.82,402.549s16.065,4.235,30.726-27.009" transform="translate(327.11 4613.885)" fill="none" stroke="#535461" stroke-miterlimit="10" stroke-width="2"/><path d="M197.432,427.788s-39.974-25.724-35.1-42.318" transform="translate(324.787 4614.683)" fill="none" stroke="#535461" stroke-miterlimit="10" stroke-width="2"/><path d="M200.57,455.557s28-24.849,25.075-49.3" transform="translate(327.894 4616.354)" fill="none" stroke="#535461" stroke-miterlimit="10" stroke-width="2"/><path d="M205.964,469.813s-35.652-9.961-34.572-25.583" transform="translate(325.547 4619.405)" fill="none" stroke="#535461" stroke-miterlimit="10" stroke-width="2"/><path d="M205.69,489.491S228.151,468.684,231.079,456" transform="translate(328.305 4620.351)" fill="none" stroke="#535461" stroke-miterlimit="10" stroke-width="2"/><path d="M208.927,522.768s-23.044-26.9-24.027-40.568" transform="translate(326.634 4622.457)" fill="none" stroke="#535461" stroke-miterlimit="10" stroke-width="2"/><path d="M207.14,543.508s25.788-28.651,27.733-42.318" transform="translate(328.422 4623.983)" fill="none" stroke="#535461" stroke-miterlimit="10" stroke-width="2"/><circle cx="7.811" cy="7.811" r="7.811" transform="translate(494.929 4943.509)" fill="#2870db"/><circle cx="7.811" cy="7.811" r="7.811" transform="translate(486.146 5055.824)" fill="#2870db"/><circle cx="7.811" cy="7.811" r="7.811" transform="translate(479.307 4992.342)" fill="#2870db"/><circle cx="7.811" cy="7.811" r="7.811" transform="translate(551.584 4950.348)" fill="#2870db"/><circle cx="7.811" cy="7.811" r="7.811" transform="translate(551.584 5070.474)" fill="#2870db"/><circle cx="7.811" cy="7.811" r="7.811" transform="translate(538.889 4981.603)" fill="#2870db"/><circle cx="7.811" cy="7.811" r="7.811" transform="translate(554.511 5122.246)" fill="#2870db"/><circle cx="7.811" cy="7.811" r="7.811" transform="translate(501.768 5101.729)" fill="#2870db"/><circle cx="7.811" cy="7.811" r="7.811" transform="translate(546.7 5014.803)" fill="#2870db"/></g></svg>