<svg xmlns="http://www.w3.org/2000/svg" width="736.421" height="811.362" viewBox="0 0 736.421 811.362"><g transform="translate(-999.847 -239.309)"><g transform="translate(-22.155 30.634)"><path d="M588.522,211.72l-1.12-5.95-11.328-9.66L562.68,203.8l15.933,13.568a21.96,21.96,0,0,1,9.909-5.651Z" transform="translate(1112.865 345.219)" fill="#72b5e8"/><path d="M573.609,216l-13.469,7.892,13.967-1.768C573.833,219.934,573.683,217.892,573.609,216Z" transform="translate(1109.081 374.847)" fill="#d1ebff"/><path d="M541.912,135.973a1.27,1.27,0,0,1-1.22-1.021c-.149-.822-.3-1.643-.423-2.49a1.248,1.248,0,1,1,2.464-.4,15.786,15.786,0,0,0,.424,2.49,1.245,1.245,0,0,1-1.021,1.469Z" transform="translate(1079.459 248.238)" fill="#a8cff0"/><path d="M464.486,142.359c0-8.166-11.577-14.813-25.717-14.938s-25.593,6.573-25.568,14.763c0,7.469,9.709,13.668,22.182,14.664v4.382c-2.365.348-4.108,1.593-4.108,3.062v14.141c0,1.793,2.49,3.212,5.577,3.236h4.207c3.062,0,5.552-1.419,5.527-3.187V164.342c0-1.494-1.768-2.739-4.133-3.112V157.1C455.025,156,464.51,149.852,464.486,142.359Z" transform="translate(890.201 242.898)" fill="#fff"/><path d="M843.389,813.909l-445.064-257.1c-17.228-9.958-31.195-36.647-31.195-59.626V92.35c0-22.979,13.967-33.535,31.195-23.576L843.389,325.849c17.228,9.958,31.195,36.622,31.195,59.6V790.307C874.683,813.286,860.617,823.842,843.389,813.909Z" transform="translate(821.576 149.954)" fill="#cce1ff"/><path d="M848.637,323.247,403.6,66.246c-6.822-3.934-13.12-4.68-18.274-2.689-.647.249-12.846,6.548-13.444,6.9h0c5.3-2.49,12.05-2.116,19.394,2.141L836.313,329.62c17.228,9.958,31.195,36.622,31.195,59.6V794.078c0,14.34-5.452,23.85-13.718,26.539a5.126,5.126,0,0,0,2.738-.921c.4-.224,13.319-7.22,13.693-7.469,5.925-4.158,9.635-12.672,9.635-24.5V382.848C879.856,359.869,865.865,333.18,848.637,323.247Z" transform="translate(828.651 146.183)" fill="#6ca1f1"/><path d="M845.2,323.97,400.087,66.87c-6.8-3.934-13.12-4.656-18.249-2.689-.647.274-9.361,4.979-9.958,5.228h0c5.3-2.49,12.05-2.116,19.394,2.141L836.313,328.675Z" transform="translate(828.651 147.128)" fill="#4f9fdb"/><path d="M836.481,325.559,391.492,68.458c-7.045-4.083-13.543-4.68-18.771-2.49A23.029,23.029,0,0,1,387.658,69.5L832.821,326.679c17.228,9.958,31.195,36.622,31.195,59.6V791.137c0,13.568-4.979,22.755-12.448,25.991,9.635-1.519,16.157-11.4,16.157-27.112V385.159C867.75,362.18,853.908,335.492,836.481,325.559Z" transform="translate(829.902 149.498)" fill="#fff"/><path d="M374.17,90.45V459.308c0,18.025,8.564,35.626,22.406,44.439L836.811,758.083l.747.423a5.95,5.95,0,0,0,8.913-5.178V363.359Z" transform="translate(832.063 187.829)" fill="#3f8eee"/><path d="M845.918,755.171l-.722-.4L404.887,500.436C391.02,491.623,382.48,474.021,382.48,456V95.23l-8.29-4.78V459.308c0,18.025,8.564,35.626,22.406,44.439L836.781,758.083l.747.423a5.95,5.95,0,0,0,8.539-3.212Z" transform="translate(832.092 187.829)" fill="#3d68b2"/><path d="M554,185.942a18.821,18.821,0,0,0,8.589,14.788c4.73,2.739,8.564.548,8.564-4.979a18.921,18.921,0,0,0-8.564-14.813C557.759,178.3,554,180.489,554,185.942Z" transform="translate(1099.935 320.957)" fill="#fc0"/><path d="M545.07,180.82a18.97,18.97,0,0,0,8.589,14.813c4.73,2.739,8.589.548,8.589-4.979a18.969,18.969,0,0,0-8.589-14.938C548.929,173.077,545.07,175.367,545.07,180.82Z" transform="translate(1086.633 313.208)" fill="#eb4680"/><path d="M536.18,175.582a18.922,18.922,0,0,0,8.564,14.813c4.755,2.739,8.589.548,8.589-4.979a18.822,18.822,0,0,0-8.589-14.788C540.014,167.964,536.18,170.154,536.18,175.582Z" transform="translate(1073.391 305.574)" fill="#0fbab8"/><path d="M513.705,178.638,481.34,159.991c-3.261-1.867-5.9-.373-5.9,3.386a13.021,13.021,0,0,0,5.9,10.182l32.365,18.647c3.261,1.867,5.925.373,5.925-3.361a13.07,13.07,0,0,0-5.925-10.207Zm53.177,30.7-32.365-18.647c-3.261-1.867-5.925-.373-5.925,3.386a13.046,13.046,0,0,0,5.925,10.182L566.883,222.9c3.261,1.867,5.9.373,5.9-3.386A13.02,13.02,0,0,0,566.883,209.334Zm53.153,30.7-32.365-18.647c-3.261-1.867-5.9-.373-5.9,3.386a13.021,13.021,0,0,0,5.9,10.182L620.035,253.6c3.261,1.867,5.925.373,5.925-3.386a13.045,13.045,0,0,0-5.925-10.182Zm53.178,30.722-32.365-18.647c-3.261-1.867-5.9-.373-5.9,3.361a13.046,13.046,0,0,0,5.9,10.207l32.365,18.647c3.261,1.867,5.9.373,5.9-3.386A13.021,13.021,0,0,0,673.213,270.753Z" transform="translate(982.913 290.22)" fill="#72b5e8"/><path d="M139.17,120.806V259.8l15.211-8.913V111.52Z" transform="translate(1229.309 374.69)" fill="#6ca1f1"/><path d="M320.607,219.521V358.515L17.4,184.617V45.25Z" transform="translate(1047.921 275.975)" fill="#bcd7ff"/><path d="M17.4,50.732,320.607,225l15.162-9.286L32.437,41.57Z" transform="translate(1047.921 270.493)" fill="#6ca1f1"/><path d="M17.4,45.25,320.607,219.521l15.162-9.286-15.186,7.17Z" transform="translate(1047.921 275.975)" fill="#fff" opacity="0.7"/><path d="M178.62,186.908v-5.9l-95.7-54.4v5.9Z" transform="translate(1145.52 397.168)" fill="#3f8eee"/><path d="M66.27,82.52v5.9l160.853,92.04v-5.925Z" transform="translate(1120.718 331.492)" fill="#3f8eee"/><path d="M122.908,134.933,66.27,102.22v5.9l56.638,32.713Z" transform="translate(1120.718 360.837)" fill="#3f8eee"/><path d="M104.42,134.1V140L127.8,152.647v-5.9Z" transform="translate(1177.546 408.325)" fill="#3f8eee"/><path d="M157.613,145.1,66.27,92.37v5.9L157.613,151Z" transform="translate(1120.718 346.164)" fill="#3f8eee"/><path d="M99.73,116.619,66.27,97.3v5.9L99.73,122.52Z" transform="translate(1120.718 353.508)" fill="#3f8eee"/><path d="M76.29,123.76,140.5,160.83v-5.9L76.29,117.86Z" transform="translate(1135.644 384.134)" fill="#3f8eee"/><path d="M82.04,106.4v5.9l90.148,51.211v-5.9Z" transform="translate(1144.208 367.063)" fill="#3f8eee"/><path d="M91.35,116.7v5.925l45.086,26.016v-5.9Z" transform="translate(1158.077 382.406)" fill="#3f8eee"/><path d="M85.415,123.124,66.27,112.07v5.9l19.145,11.054Z" transform="translate(1120.718 375.509)" fill="#3f8eee"/><path d="M105.29,120.8,169,156.75v-5.9L105.29,114.9Z" transform="translate(1178.841 379.725)" fill="#3f8eee"/><path d="M120.58,134.235l25.643,14.788v-5.9L120.58,128.31Z" transform="translate(1201.617 399.7)" fill="#3f8eee"/><path d="M66.27,93.35l160.853,92.015v-5.9L66.27,87.45Z" transform="translate(1120.718 338.835)" fill="#3f8eee"/><path d="M111.79,134.4l47.526,26.614v-5.9L111.79,128.5Z" transform="translate(1188.524 399.983)" fill="#3f8eee"/><path d="M101.9,137.564,66.27,117v5.9L101.9,143.464Z" transform="translate(1120.718 382.853)" fill="#3f8eee"/><path d="M123.69,155.71l17.9,10.332v-5.9l-17.9-10.332Z" transform="translate(1206.25 431.726)" fill="#3f8eee"/><path d="M116.15,146.43l36.672,21.186v-5.9L116.15,140.53Z" transform="translate(1195.019 417.903)" fill="#3f8eee"/><path d="M66.27,113.05l160.853,92.015v-5.9L66.27,107.15Z" transform="translate(1120.718 368.18)" fill="#3f8eee"/><path d="M394.589,155.107l-52.879-30.6c-9.236-5.328-16.73.324-16.73,12.672v61.244c0,12.448,7.469,26.663,16.73,31.991l52.879,30.6c9.261,5.328,16.755-.324,16.755-12.647V187.1C411.344,174.774,403.85,160.434,394.589,155.107Z" transform="translate(758.789 235.578)" fill="#fff"/><path d="M401.137,255.9l-52.879-30.6C339,219.978,331.5,205.662,331.5,193.314V132.12a19.916,19.916,0,0,1,2.066-9.56c-5.129.846-8.589,6.149-8.589,14.539v61.244c0,12.448,7.469,26.663,16.73,31.991l52.879,30.6c6.324,3.66,11.826,2.141,14.689-3.112a12.447,12.447,0,0,1-8.141-1.917Z" transform="translate(758.789 235.66)" fill="#3d68b2"/><path d="M378.089,161.968,325.21,131.4c-9.236-5.353-16.73.324-16.73,12.647v61.219c0,12.323,7.469,26.639,16.73,31.991l52.879,30.6c9.261,5.353,16.755-.324,16.755-12.647V193.96C394.844,181.636,387.35,167.321,378.089,161.968Z" transform="translate(734.211 245.819)" fill="#bcd7ff"/><path d="M383.287,159.912,330.408,129.34a10.979,10.979,0,0,0-10.456-1.145h0l-9.162,5.378h0a10.606,10.606,0,0,1,11.029.822L374.7,164.966c9.261,5.353,16.755,19.668,16.755,31.991v61.219c0,6-1.792,10.382-4.68,12.747l4.979-3.361a15.062,15.062,0,0,0,8.191-14.44V191.9C400.017,179.58,392.523,165.264,383.287,159.912Z" transform="translate(737.652 242.822)" fill="#6ca1f1"/><path d="M375.5,161.642l-52.879-30.6c-4.606-2.639-8.763-2.49-11.776-.324a11.3,11.3,0,0,1,9.734,1.419l52.879,30.6c9.261,5.328,16.755,19.668,16.755,31.991v61.119c0,6.2-1.917,10.705-4.979,13,4.232-1.618,7-6.622,7-14.091V193.609C392.235,181.31,384.741,166.97,375.5,161.642Z" transform="translate(737.742 245.374)" fill="#fff" opacity="0.7"/><path d="M314.11,137v70.082l57.261,33.112V170.062Zm53.676,96.845-49.991-28.879V143.3l49.991,28.879Z" transform="translate(742.597 257.17)" fill="#3f8eee"/><path d="M340.759,163.323c0,4.606-3.261,6.448-7.245,4.133a15.933,15.933,0,0,1-7.245-12.448c0-4.581,3.236-6.448,7.245-4.133a16.033,16.033,0,0,1,7.245,12.448Z" transform="translate(760.711 276.356)" fill="#3f8eee"/><path d="M14.71,106.734,29.648,87.44,44.809,125.8l11.029-8.963,12.174,33.087-.249,3.336L14.934,125.008Z" transform="translate(1043.915 338.82)" fill="#3f8eee"/><path d="M289.69,224.282v163.8l14.681-8.578V215.32Z" transform="translate(1454.052 535.028)" fill="#6ca1f1"/><path d="M488.257,333.153V502.868L156.42,312.589V142.45Z" transform="translate(1255.004 420.763)" fill="#bcd7ff"/><path d="M156.42,147.917l331.837,190.7,15.162-9.286L171.457,138.78Z" transform="translate(1255.004 415.296)" fill="#6ca1f1"/><path d="M156.42,142.45l331.837,190.7,15.162-9.286-15.211,7.17Z" transform="translate(1255.004 420.763)" fill="#fff" opacity="0.7"/><ellipse cx="42.398" cy="73.418" rx="42.398" ry="73.418" transform="translate(1597.394 756.187) rotate(-30.31)" fill="#cce1ff"/><path d="M596.962,392.137c-28.78-16.606-51.983-56.813-51.983-89.824,0-12.3,3.236-21.883,8.813-28.182-8.564,5.726-13.792,16.9-13.792,32.539,0,33.012,23.3,73.219,52.082,89.825,18.025,10.406,33.908,9.062,43.244-1.519C625.717,401.323,612.2,400.776,596.962,392.137Z" transform="translate(1079.081 461.437)" fill="#3684d6"/><path d="M558.536,249.982l-11.2-6.448V369.706l11.2,6.473Zm16.133-6.324-11.2-6.448V378.868l11.2,6.473Zm16.58,28.506-11.178-6.473V388.353l11.178,6.473Zm-77.177,8.888v69.136l11.2,6.448V287.525Zm27.809-19.22-11.2-6.448V359.673l11.2,6.473Zm65.6,45.36L596.3,300.744v97.094l11.178,6.473Zm15.983,40.057-11.2-6.473v66.4l11.2,6.473Zm-114.745-78.2-11.178-6.473v77.576l11.178,6.448Zm-44.389,4.581v46.979l11.2,6.473V280.106Zm27.809-18.448-11.2-6.448V330.1l11.2,6.473Z" transform="translate(966.364 406.442)" fill="#cce1ff"/><path d="M558.566,286.967l-11.2-6.473v76.655l11.2,6.473ZM574.7,252.113l-11.2-6.473V366.31l11.2,6.473Zm16.581,29.875L580.1,275.515V375.771l11.178,6.473ZM514.1,285.274v52.281L525.3,344V291.722Zm27.809-2.066-11.2-6.448v70.356l11.2,6.473ZM508.7,262.843l-11.178-6.473V327.6l11.178,6.448ZM464.31,294.461v13.593l11.2,6.473V300.909Zm27.809,0-11.2-6.473v29.526l11.2,6.473Zm115.393,18.2-11.129-6.373v79.02l11.178,6.473Zm15.983,31.817-11.2-6.448v56.539l11.2,6.473Z" transform="translate(966.334 418.999)" fill="#6ca1f1"/><path d="M221.843,203.067l-11.2-6.473V195.2l11.2,6.448Z" transform="translate(1335.77 499.339)" fill="#fff"/><path d="M215.173,191.057l-11.2-6.473V183.19l11.2,6.473Z" transform="translate(1325.834 481.449)" fill="#fff"/><path d="M234.778,228.177,223.6,221.729V220.31l11.178,6.473Z" transform="translate(1355.075 536.742)" fill="#fff"/><path d="M208.678,205.057,197.5,198.584V197.19l11.178,6.473Z" transform="translate(1316.197 502.303)" fill="#fff"/><path d="M228.383,215.4l-11.2-6.473V207.53l11.2,6.473Z" transform="translate(1345.512 517.706)" fill="#fff"/><path d="M182.023,208.087l-11.2-6.473V200.22l11.2,6.473Z" transform="translate(1276.454 506.817)" fill="#fff"/><path d="M188.693,195.377l-11.2-6.473V187.51l11.2,6.448Z" transform="translate(1286.39 487.884)" fill="#fff"/><path d="M175.338,209.258v1.394L164.16,204.2V202.81Z" transform="translate(1266.534 510.675)" fill="#fff"/><path d="M202.033,203.557l-11.2-6.448V195.69l11.2,6.473Z" transform="translate(1306.261 500.069)" fill="#fff"/><path d="M195.363,206.962l-11.2-6.448V199.12l11.2,6.448Z" transform="translate(1296.325 505.178)" fill="#fff"/><path d="M546.333,314.673c.672-24.9,18.821-34.854,41.053-22.033,11.452,6.622,21.809,18,29.277,31.02l8.216-2.066c-9.361-16.954-22.705-31.917-37.493-40.456C559.4,264.981,536.6,277.753,536.25,309.57l6.572,5.975Z" transform="translate(1073.495 461.449)" fill="#6ca1f1"/><path d="M609.788,367.023a35.426,35.426,0,0,1-20.614-5.477c-21.062-12.174-38.464-40.506-40.829-65.327l-9.958-4.979c0,.174-3.361.871-3.336,1.046,2.814,30.722,27.884,65.576,54.124,80.762,9.535,5.5,15.983,8.39,23.626,7.469.324,0,3.112-.846,3.436-.871Z" transform="translate(1071.707 486.924)" fill="#6ca1f1"/><path d="M574.623,298.3a78.548,78.548,0,0,1,7.967,32.365c0,14.938-6.075,24.7-15.51,27.908l6.348,12.6c11.7-4.033,19.195-16.207,19.195-34.7a97.67,97.67,0,0,0-9.958-40.232Z" transform="translate(1119.419 494.357)" fill="#6ca1f1"/><path d="M583.683,333.16a34.378,34.378,0,0,1-7.2-8.639c-1.195-1.992-1.17-4.158,0-4.83a9.335,9.335,0,0,0,3.685-4.108c1.269.349,2.838-.125,2.838-1.842a6.948,6.948,0,0,0-1.842-4.681,22.9,22.9,0,0,0-11.6-20.365,10.705,10.705,0,0,0-7.045-1.967,34.622,34.622,0,0,0-4.183,1.145c-2.365,1.17-.174,3.709-.349,7.817-1.046-.249-1.842.772-1.842,2.49a8.365,8.365,0,0,0,2.838,5.129,42.338,42.338,0,0,0,3.685,8.365c1.145,2.017,1.195,4.207,0,4.83a9.535,9.535,0,0,1-7.195.324,5.254,5.254,0,0,0-3.013-.124,34.68,34.68,0,0,0-3.585,1c-1.618.8.224,1.967.224,4.73v7.792a5.2,5.2,0,0,0,2.49,4.108l33.435,22.182c.573.349,3.859-.822,4.257-1a1.724,1.724,0,0,0,.871-1.593v-7.817A18.573,18.573,0,0,0,583.683,333.16Z" transform="translate(1091.314 480.157)" fill="#6ca1f1"/><path d="M545.433,314.915c.672-24.9,18.8-34.854,41.053-22.008,11.452,6.6,21.809,18,29.278,31l8.191-2.042c-9.336-16.979-22.68-31.917-37.468-40.456-28.008-16.182-50.812-3.386-51.136,28.431Z" transform="translate(1072.155 461.83)" fill="#fff"/><path d="M606.892,367.283a35.427,35.427,0,0,1-20.614-5.477c-21.086-12.174-38.464-40.506-40.829-65.327L535.49,291.5c2.689,31.02,24.473,66.646,50.862,81.883,9.958,5.726,19.195,7.817,27.037,6.7Z" transform="translate(1072.363 487.311)" fill="#fff"/><path d="M573.738,298.546a78.645,78.645,0,0,1,7.967,32.365c0,14.938-6.075,24.7-15.535,27.908l6.373,12.572c11.676-4.008,19.17-16.207,19.17-34.68a97.291,97.291,0,0,0-9.834-40.232Z" transform="translate(1118.064 494.73)" fill="#fff"/><path d="M582.28,333.453a34.455,34.455,0,0,1-7.22-8.639c-1.195-1.992-1.145-4.158,0-4.83a9.136,9.136,0,0,0,3.66-4.108c1.27.349,2.838-.125,2.838-1.842a6.871,6.871,0,0,0-1.817-4.68,22.954,22.954,0,0,0-11.6-20.365c-8.689-4.979-11.278-.224-11.6,6.971-1.046-.224-1.817.8-1.817,2.49a8.364,8.364,0,0,0,2.838,5.129,38.876,38.876,0,0,0,3.685,8.34c1.145,2.017,1.195,4.232,0,4.855a9.486,9.486,0,0,1-7.22.3c-3.635-1.1-6.373,1.12-6.373,5.6v7.817a5.2,5.2,0,0,0,2.49,4.108l36.2,20.888c1.32.772,2.49.149,2.49-1.344v-7.817a18.574,18.574,0,0,0-6.548-12.871Z" transform="translate(1090.477 480.511)" fill="#fff"/><path d="M544.913,315.05c.672-24.9,18.821-34.854,41.053-22.008,11.452,6.6,21.809,18,29.278,31l8.216-2.066c-9.361-16.954-22.705-31.892-37.493-40.456-27.983-16.157-50.788-3.361-51.136,28.456Z" transform="translate(1071.38 462.018)" fill="#6ca1f1"/><path d="M606.372,367.413a35.477,35.477,0,0,1-20.614-5.477c-21.062-12.174-38.464-40.506-40.829-65.327l-9.958-4.979c2.689,31.02,24.473,66.646,50.862,81.883,9.958,5.726,19.195,7.817,27.062,6.7Z" transform="translate(1071.589 487.505)" fill="#6ca1f1"/><path d="M573.2,298.661a78.574,78.574,0,0,1,7.967,32.365c0,14.938-6.075,24.7-15.51,27.908l6.349,12.448c11.7-4.008,19.195-16.207,19.195-34.68a97.665,97.665,0,0,0-9.759-40.082Z" transform="translate(1117.304 494.938)" fill="#6ca1f1"/><path d="M581.69,333.583a35.382,35.382,0,0,1-7.195-8.639c-1.195-1.992-1.17-4.158,0-4.83a9.334,9.334,0,0,0,3.685-4.108c1.269.349,2.838-.125,2.838-1.842a6.9,6.9,0,0,0-1.842-4.68,22.9,22.9,0,0,0-11.6-20.365c-8.689-4.979-11.278-.224-11.577,6.971-1.046-.224-1.842.8-1.842,2.49a8.365,8.365,0,0,0,2.838,5.129,41.491,41.491,0,0,0,3.685,8.34c1.17,2.017,1.2,4.232,0,4.855a9.411,9.411,0,0,1-7.195.3c-3.66-1.1-6.373,1.12-6.373,5.6v7.817a5.278,5.278,0,0,0,2.49,4.108l36.174,20.888c1.319.772,2.49.149,2.49-1.344v-7.618a18.522,18.522,0,0,0-6.573-13.07Z" transform="translate(1089.672 480.705)" fill="#6ca1f1"/><path d="M157.16,206.076v71.078l11.9-6.548V199.13Z" transform="translate(1256.107 505.193)" fill="#6ca1f1"/><path d="M314.54,293.008v71.078l-263-151.84V140.77Z" transform="translate(1098.776 418.26)" fill="#4588ee"/><path d="M51.54,144.837l263,152.239,11.85-6.946L63.291,138.04Z" transform="translate(1098.776 414.194)" fill="#6ca1f1"/><path d="M51.54,140.77l263,152.238,11.85-6.946-11.6,5.079Z" transform="translate(1098.776 418.26)" fill="#fff" opacity="0.7"/><path d="M293.41,329.517,56.75,191.395V149.52L293.41,287.643Z" transform="translate(1106.537 431.294)" fill="#cce1ff"/><path d="M360.91,216.73l4.78,2.763,2.216,22.854h0l2.365-20.215,5.4,3.112,2.365,22.954h0l2.216-20.315,4.282,2.49-3.187,28.132-6.2-3.585-2.266-19.469h0l-2.266,16.855-6.6-3.809Z" transform="translate(812.31 375.935)" fill="#3f8eee"/><path d="M372.29,223.35l4.78,2.763,2.216,22.854h0l2.365-20.24,5.4,3.137,2.365,22.929h0l2.216-20.29,4.282,2.49-3.187,28.132-6.2-3.56L384.265,242.1h0L382,258.951l-6.6-3.809Z" transform="translate(829.262 385.796)" fill="#3f8eee"/><path d="M383.76,229.87l4.78,2.763,2.216,22.854h0l2.365-20.215,5.4,3.112,2.365,22.954h0l2.216-20.315,4.282,2.49-3.112,28.207-6.2-3.56-2.241-19.469h0l-2.266,16.855-6.722-3.859Z" transform="translate(846.348 395.508)" fill="#3f8eee"/><path d="M99.5,57.7v49.568l7.469-4.133V53.19Z" transform="translate(1170.217 287.802)" fill="#518de4"/><path d="M125.916,70.477v49.568L81.8,94.551V44.61Z" transform="translate(1143.851 275.021)" fill="#a7caff"/><path d="M81.8,47.232,125.916,73.1l7.419-4.506L89.119,42.85Z" transform="translate(1143.851 272.4)" fill="#518de4"/><path d="M81.8,44.61l44.116,25.867,7.419-4.506-7.792,2.116Z" transform="translate(1143.851 275.021)" fill="#fff"/><path d="M86.42,31.53l71.451,41.9,12-7.295-11.676,5.577Z" transform="translate(1150.733 255.538)" fill="#fff" opacity="0.7"/><path d="M115.08,52.725v80.264l12.1-6.672V45.43Z" transform="translate(1193.425 276.243)" fill="#6ca1f1"/><path d="M86.42,35.76l71.451,41.9,12-7.295L98.27,28.69Z" transform="translate(1150.733 251.307)" fill="#6ca1f1"/><path d="M86.42,31.53V64.816L124.237,87v47.252l33.634,19.444V73.43Z" transform="translate(1150.733 255.538)" fill="#a7caff"/><path d="M176.42,129.209v55.418l8.365-4.606V124.18Z" transform="translate(1284.796 393.548)" fill="#2870db"/><path d="M205.949,143.509v55.418L156.63,170.422V114.58Z" transform="translate(1255.317 379.248)" fill="#4588ee"/><path d="M156.63,117.5l49.319,28.929,8.315-5.029-49.443-28.78Z" transform="translate(1255.317 376.328)" fill="#2870db"/><path d="M156.63,114.58l49.319,28.929,8.315-5.029-8.714,2.365Z" transform="translate(1255.317 379.248)" fill="#fff" opacity="0.7"/><path d="M202.42,144.209v55.418l8.365-4.606V139.18Z" transform="translate(1323.526 415.892)" fill="#2870db"/><path d="M231.949,158.509v55.418L182.63,185.422V129.58Z" transform="translate(1294.046 401.592)" fill="#4588ee"/><path d="M182.63,132.5l49.319,28.929,8.315-5.029-49.443-28.78Z" transform="translate(1294.046 398.672)" fill="#2870db"/><path d="M182.63,129.58l49.319,28.929,8.315-5.029-8.714,2.365Z" transform="translate(1294.046 401.592)" fill="#fff" opacity="0.7"/><path d="M228.25,159.039v55.418l8.365-4.606V154.01Z" transform="translate(1362.002 437.983)" fill="#2870db"/><path d="M257.789,173.339v55.418L208.47,200.251V144.41Z" transform="translate(1332.538 423.682)" fill="#4588ee"/><path d="M208.47,147.315l49.319,28.929,8.29-5.029L216.636,142.46Z" transform="translate(1332.538 420.778)" fill="#2870db"/><path d="M208.47,144.41l49.319,28.929,8.29-5.029-8.713,2.365Z" transform="translate(1332.538 423.682)" fill="#fff" opacity="0.7"/><path d="M253.75,173.539v55.418l8.365-4.606V168.51Z" transform="translate(1399.986 459.582)" fill="#2870db"/><path d="M283.289,187.839v55.418L233.97,214.751V158.91Z" transform="translate(1370.522 445.282)" fill="#4588ee"/><path d="M233.97,161.815l49.319,28.929,8.29-5.029L242.136,156.96Z" transform="translate(1370.522 442.377)" fill="#2870db"/><path d="M233.97,158.91l49.319,28.929,8.29-5.029-8.714,2.365Z" transform="translate(1370.522 445.282)" fill="#fff" opacity="0.7"/><path d="M535.7,245.464a21.258,21.258,0,0,1-4.581-5.452c-.747-1.27-.722-2.639,0-3.062a5.9,5.9,0,0,0,2.315-2.49c.8.2,1.792,0,1.792-1.17a4.431,4.431,0,0,0-1.145-2.963,14.564,14.564,0,0,0-7.469-12.9c-5.5-3.162-7.145-.149-7.344,4.431-.647-.149-1.145.5-1.145,1.618a5.353,5.353,0,0,0,1.792,3.237A26.133,26.133,0,0,0,522.229,232c.747,1.27.772,2.689,0,3.062a6.025,6.025,0,0,1-4.556.2c-2.315-.7-4.033.7-4.033,3.535v4.979a3.287,3.287,0,0,0,1.519,2.49l22.9,13.22a.919.919,0,0,0,1.494-.846v-4.979a11.826,11.826,0,0,0-3.859-8.191Z" transform="translate(1039.815 375.034)" fill="#cce1ff"/><path d="M537.72,256.351l7.992,4.606V246.642l-7.992-4.631Zm12.647,7.319,7.967,4.556v-26.24l-7.992-4.606Zm12.672-30.921v38.215l7.991,4.73v-38.34Z" transform="translate(1075.685 399.798)" fill="#cce1ff"/><path d="M514.861,229.137a11.685,11.685,0,0,0-.149-2.266l3.759-.473a35.626,35.626,0,0,0-1.693-5.726l-4.307-1.295a30.693,30.693,0,0,0-2.689-4.631l1.046-4.332a34.27,34.27,0,0,0-4.133-4.232l-2.315,2.988a17.954,17.954,0,0,0-1.892-1.27,14.649,14.649,0,0,0-1.892-.921l-2.315-5.676a11.526,11.526,0,0,0-4.133-.4l1.046,5.527a5.8,5.8,0,0,0-2.689,1.519l-4.307-3.66a11.479,11.479,0,0,0-1.718,3.734L490.264,213a13.434,13.434,0,0,0-.149,2.066,17.589,17.589,0,0,0,.149,2.266l-3.784.473a35.031,35.031,0,0,0,1.718,5.726l4.307,1.295a28.712,28.712,0,0,0,2.689,4.631l-1.046,4.332a34.411,34.411,0,0,0,4.133,4.357l2.315-3.012a18.223,18.223,0,0,0,1.892,1.295,14.368,14.368,0,0,0,1.892.9L506.7,243a12.126,12.126,0,0,0,4.133.423l-1.046-5.552a5.925,5.925,0,0,0,2.689-1.519l4.307,3.66a11.229,11.229,0,0,0,1.693-3.734l-3.759-4.83a18.368,18.368,0,0,0,.149-2.315Zm-12.448-1.444a10.955,10.955,0,0,1-4.979-8.564c0-3.162,2.241-4.431,4.979-2.838a11,11,0,0,1,4.979,8.564c.075,3.162-2.191,4.431-4.9,2.838Z" transform="translate(999.358 352.3)" fill="#cce1ff"/><path d="M460.495,185.977l15.884,24.9,15.859-6.473h0a6.05,6.05,0,0,0-1.892-1.842L462.362,186.25a2.315,2.315,0,0,0-1.892-.348Z" transform="translate(960.614 329.909)" fill="#cce1ff"/><path d="M493.058,204.243l-15.909,9.087-4.631-7.792-11.353,4.656h0l10.556-6.025L461.166,185.92a2.017,2.017,0,0,0-1.2,2.116v18.971a6.9,6.9,0,0,0,3.112,5.377l28.058,16.058c1.718,1,3.112.2,3.112-1.768V207.7a6.523,6.523,0,0,0-1.2-3.46Zm0,24.274L481.7,210.741l.846-.473,10.556,18.224Z" transform="translate(959.844 330.04)" fill="#cce1ff"/><path d="M76.64,195.347V266.4l11.228-6.373V188.55Z" transform="translate(1136.165 489.433)" fill="#6ca1f1"/><path d="M190.877,257.433v71.053L0,218.321V146.87Z" transform="translate(1022.003 427.347)" fill="#bcd7ff"/><path d="M0,150.847,190.877,261.41l11.153-6.8L11.079,144.2Z" transform="translate(1022.003 423.37)" fill="#6ca1f1"/><path d="M0,146.87,190.877,257.433l11.153-6.8-11.626,4.68Z" transform="translate(1022.003 427.347)" fill="#fff" opacity="0.7"/><path d="M365.029,245.076l-34.854-20.141c-2.141-1.245-3.859-.249-3.859,2.216v23.626a8.54,8.54,0,0,0,3.859,6.7l21.809,12.448,10.9,18.821V276.3l2.191,1.27c2.141,1.22,3.884.249,3.884-2.216V251.723a8.564,8.564,0,0,0-3.934-6.647Zm-24.6,4.431c-1.145.647-2.987-.423-4.108-2.49s-1.145-4.058,0-4.705,2.963.423,4.108,2.49,1.12,4.058,0,4.705Zm9.435,5.452c-1.12.647-2.962-.423-4.108-2.49s-1.12-4.083,0-4.73,2.988.423,4.108,2.49S351.012,254.312,349.867,254.96Zm9.46,5.452c-1.145.647-2.987-.423-4.108-2.49s-1.145-4.083,0-4.73,2.963.423,4.108,2.49,1.22,3.983,0,4.73Zm-35.975-11.3V229.914l-13.319-7.593c-2.141-1.245-3.884-.249-3.884,2.216v23.626a8.564,8.564,0,0,0,3.884,6.7L312.2,256.1v12.448l10.9-6.224,21.809,12.6c2.141,1.22,3.884.249,3.884-2.216v-1.12l-18.672-10.755a14.937,14.937,0,0,1-6.772-11.726Z" transform="translate(730.741 383.464)" fill="#3f8eee"/><path d="M34.37,173.46v5.9l91.194,52.655v-5.9Z" transform="translate(1073.2 466.955)" fill="#3f8eee"/><path d="M96.734,219.359,34.37,183.31v5.9L96.734,225.26Z" transform="translate(1073.2 481.628)" fill="#3f8eee"/><path d="M34.37,184.29l91.194,52.655v-5.9L34.37,178.39Z" transform="translate(1073.2 474.299)" fill="#cce1ff"/><path d="M519,355.551l-59.277-33.385c4.979-3.759,8.116-8.216,8.116-13.021,0-13.269-22.63-24.025-50.539-24.025s-50.539,10.755-50.539,24.025,22.63,24,50.539,24a103.3,103.3,0,0,0,16.581-1.344l63.833,35.85a17.949,17.949,0,0,0,16.083-.672C519.048,364.488,525.322,359.26,519,355.551Z" transform="translate(821.025 477.808)" fill="#92b4d1" opacity="0.2"/><path d="M443.1,315.057a13.568,13.568,0,1,1-18.4-5.527A13.568,13.568,0,0,1,443.1,315.057Z" transform="translate(896.72 511.754)" fill="#001a46"/><path d="M428.157,276.51,398.78,292.344,442.6,373.156h0v.124c2.49,4.73,11.178,4.979,19.294.647s12.622-11.751,9.958-16.481h0Z" transform="translate(868.721 464.982)" fill="#4588ee"/><path d="M428.516,278.754c2.49,4.73-1.967,12.1-9.958,16.481s-16.755,4.083-19.294-.647,1.967-12.1,10.083-16.456S425.977,274.049,428.516,278.754Z" transform="translate(868.387 462.788)" fill="#72b5e8"/><path d="M413.287,267.9l-17.427,9.411,12.448,23.054h0c1.519,2.813,6.672,2.963,11.477.373s7.469-7,6-9.784h0Z" transform="translate(864.372 452.157)" fill="#001a46"/><path d="M429.525,200.02c-21.759-12.448-41.477-13.992-55.916-6.174-.4.224-21.112,11.776-21.759,12.772,14.664-11.079,36.423-10.9,60.671,3.112,44.24,25.543,80.09,87.385,80.09,138.147,0,25.892-9.336,43.892-24.348,51.933a18.544,18.544,0,0,0,3.909-1.718l14.938-9.062c13.917-8.514,22.406-26.066,22.406-50.862C509.615,287.429,473.74,225.563,429.525,200.02Z" transform="translate(798.815 334.712)" fill="#6ca1f1"/><path d="M424.125,203.944C379.91,178.4,344.06,198.84,344.06,249.6s35.85,112.6,80.065,138.147,80.09,4.979,80.09-45.659S468.39,229.487,424.125,203.944ZM422.93,375.726c-37.518-21.684-67.966-74.165-67.966-117.235s30.448-60.422,67.966-38.738,67.866,74.04,67.866,117.11-30.323,60.373-67.866,38.763Z" transform="translate(787.211 340.497)" fill="#4588ee"/><path d="M430.472,356.6c-37.518-21.659-67.966-74.14-67.966-117.21,0-17.576,4.979-30.871,13.618-38.962-16.78,4.506-27.684,21.037-27.684,46.8,0,43.07,30.448,95.55,67.966,117.235,22.232,12.821,41.95,11.975,54.348.2C459.5,367.706,445.559,365.316,430.472,356.6Z" transform="translate(793.736 351.655)" fill="#6ca1f1"/><path d="M410.541,203.165c-21.211-12.249-40.481-13.892-54.771-6.747,13.344-3.734,32.987-1.693,50.937,8.664,44.24,25.543,80.09,87.385,80.09,138.147,0,26.414-12.8,45.36-28.357,53.153,19.543-5.477,32.215-24.9,32.215-55.095C490.631,290.55,454.781,228.683,410.541,203.165Z" transform="translate(804.654 339.36)" fill="#fff"/></g><g transform="translate(617.095 -1555.576)"><path d="M-3020.016,7156.643c33.7,5.567,165.14,19.717,232.543,67.035s332.975,21.572,388.247-23.659,28.984-88.839,28.984-88.839-29.659-61.469-233.892-78.633-347.131,15.076-347.131,15.076-122,19.486-146.266,60.078C-3111.686,7130.665-3053.718,7151.076-3020.016,7156.643Z" transform="translate(3482.468 -4642.666)" fill="rgba(40,112,219,0.07)"/></g></g></svg>