<svg x="0" y="0" width="2160" height="1080" viewBox="0 0 2277.10843373494 1138.55421686747" xmlns="http://www.w3.org/2000/svg" xmlns:xlink="http://www.w3.org/1999/xlink" xmlns:fi="http://pattern.flaticon.com/"><rect x="0px" y="0px" width="100%" height="100%" opacity="1" fill="#e7ebff"/><defs><g transform="matrix(0.16979165375232697 0.04549553617835045 -0.04549553617835045 0.16979165375232697 317.9742431640625 295.04449462890625)" id="L1_110"><path d="M256,168a40,40,0,1,0-40-40A40.045,40.045,0,0,0,256,168Zm0-64a24,24,0,1,1-24,24A24.028,24.028,0,0,1,256,104Z" fill="#276fdb"/><path d="M476,80H337.94l14.23-14.23a8,8,0,0,0,0-11.31L329.54,31.83a8,8,0,0,0-11.31,0L292.99,57.07A78.673,78.673,0,0,0,280,51.69V16a8,8,0,0,0-8-8H240a8,8,0,0,0-8,8V51.69a78.673,78.673,0,0,0-12.99,5.38L193.77,31.83a8,8,0,0,0-11.31,0L159.83,54.46a8,8,0,0,0,0,11.31L174.06,80H36A28.031,28.031,0,0,0,8,108V404a28.031,28.031,0,0,0,28,28H190.56l-5.34,32H152a8,8,0,0,0-8,8v16H112a8,8,0,0,0,0,16H400a8,8,0,0,0,0-16H368V472a8,8,0,0,0-8-8H326.78l-5.34-32H476a28.031,28.031,0,0,0,28-28V108A28.031,28.031,0,0,0,476,80ZM188.12,48.8l23.9,23.91a8.016,8.016,0,0,0,9.93,1.11,63.469,63.469,0,0,1,19.82-8.21,8.01,8.01,0,0,0,6.23-7.8V24h16V57.81a8.01,8.01,0,0,0,6.23,7.8,63.469,63.469,0,0,1,19.82,8.21,8.018,8.018,0,0,0,9.93-1.11l23.9-23.91L335.2,60.12l-23.91,23.9a8.018,8.018,0,0,0-1.11,9.93,63.469,63.469,0,0,1,8.21,19.82,8.01,8.01,0,0,0,7.8,6.23H360v16H326.19a8.01,8.01,0,0,0-7.8,6.23,63.469,63.469,0,0,1-8.21,19.82,8.018,8.018,0,0,0,1.11,9.93l23.91,23.9L323.88,207.2l-23.9-23.91a8,8,0,0,0-9.93-1.11,63.469,63.469,0,0,1-19.82,8.21,8.01,8.01,0,0,0-6.23,7.8V232H248V198.19a8.01,8.01,0,0,0-6.23-7.8,63.469,63.469,0,0,1-19.82-8.21,8,8,0,0,0-9.93,1.11l-23.9,23.91L176.8,195.88l23.91-23.9a8.018,8.018,0,0,0,1.11-9.93,63.469,63.469,0,0,1-8.21-19.82,8.01,8.01,0,0,0-7.8-6.23H152V120h33.81a8.01,8.01,0,0,0,7.8-6.23,63.469,63.469,0,0,1,8.21-19.82,8.018,8.018,0,0,0-1.11-9.93L176.8,60.12ZM352,480v8H160v-8ZM201.44,464l5.34-32h98.44l5.34,32ZM488,404a12.01,12.01,0,0,1-12,12H36a12.01,12.01,0,0,1-12-12V384H488Zm0-36H24V108A12.01,12.01,0,0,1,36,96H182.7a78.577,78.577,0,0,0-3.01,8H144a8,8,0,0,0-8,8v32a8,8,0,0,0,8,8h35.69a78.673,78.673,0,0,0,5.38,12.99l-25.24,25.24a8,8,0,0,0,0,11.31l22.63,22.63a8,8,0,0,0,11.31,0l25.24-25.24A78.673,78.673,0,0,0,232,204.31V240a8,8,0,0,0,8,8h32a8,8,0,0,0,8-8V204.31a78.673,78.673,0,0,0,12.99-5.38l25.24,25.24a8,8,0,0,0,11.31,0l22.63-22.63a8,8,0,0,0,0-11.31l-25.24-25.24A78.673,78.673,0,0,0,332.31,152H368a8,8,0,0,0,8-8V112a8,8,0,0,0-8-8H332.31a78.577,78.577,0,0,0-3.01-8H476a12.01,12.01,0,0,1,12,12Z" fill="#276fdb"/><path d="M96,392H48a8,8,0,0,0,0,16H96a8,8,0,0,0,0-16Z" fill="#276fdb"/><path d="M128,392h-8a8,8,0,0,0,0,16h8a8,8,0,0,0,0-16Z" fill="#276fdb"/></g><g transform="matrix(0.0390625 0 0 0.0390625 77.5 340)" id="L1_111"><path d="m476 120h-100v-60a28.031 28.031 0 0 0 -28-28h-312a28.031 28.031 0 0 0 -28 28v216a28.031 28.031 0 0 0 28 28h20v72a8 8 0 0 0 13.66 5.66l66.34-66.35v48.69a28.031 28.031 0 0 0 28 28h200.69l77.65 77.66a8 8 0 0 0 13.66-5.66v-72h20a28.031 28.031 0 0 0 28-28v-216a28.031 28.031 0 0 0 -28-28zm-332 168a8.008 8.008 0 0 0 -5.66 2.34l-66.34 66.35v-60.69a8 8 0 0 0 -8-8h-28a12.01 12.01 0 0 1 -12-12v-216a12.01 12.01 0 0 1 12-12h312a12.01 12.01 0 0 1 12 12v216a12.01 12.01 0 0 1 -12 12zm344 76a12.01 12.01 0 0 1 -12 12h-28a8 8 0 0 0 -8 8v60.69l-66.34-66.35a8.008 8.008 0 0 0 -5.66-2.34h-204a12.01 12.01 0 0 1 -12-12v-60h196a28.031 28.031 0 0 0 28-28v-140h100a12.01 12.01 0 0 1 12 12z" fill="#276fdb"/><path d="m136 152a8 8 0 0 0 8-8 48 48 0 1 1 48 48 8 8 0 0 0 -8 8v24a8 8 0 0 0 16 0v-16.5a64 64 0 1 0 -72-63.5 8 8 0 0 0 8 8z" fill="#276fdb"/><path d="m192 240a8 8 0 0 0 -8 8v8a8 8 0 0 0 16 0v-8a8 8 0 0 0 -8-8z" fill="#276fdb"/></g><g transform="matrix(0.078125 0 0 0.078125 155 330)" id="L1_112"><path d="M476,80H319.84a168.14,168.14,0,0,0-40.22-53.71l-18.3-16.27a8.023,8.023,0,0,0-10.64,0L232.39,26.29A168.025,168.025,0,0,0,192.16,80H36A28.031,28.031,0,0,0,8,108V404a28.031,28.031,0,0,0,28,28H190.56l-5.34,32H152a8,8,0,0,0-8,8v16H112a8,8,0,0,0,0,16H400a8,8,0,0,0,0-16H368V472a8,8,0,0,0-8-8H326.78l-5.34-32H476a28.031,28.031,0,0,0,28-28V108A28.031,28.031,0,0,0,476,80ZM192,151.85a152.066,152.066,0,0,1,51.02-113.6L256,26.7l12.99,11.55A152.092,152.092,0,0,1,320,151.85V296H280V256a8,8,0,0,0-8-8H240a8,8,0,0,0-8,8v40H192ZM240,344h32a8,8,0,0,0,8-8V312h24v56H208V312h24v24A8,8,0,0,0,240,344Zm8-16V264h16v64ZM24,108A12.01,12.01,0,0,1,36,96H185.58A167.749,167.749,0,0,0,176,151.85v64.61A72.083,72.083,0,0,0,112,288a8,8,0,0,0,8,8h56v8a8,8,0,0,0,8,8h8v56H24ZM176,232.57V280H128.57A56.132,56.132,0,0,1,176,232.57ZM352,480v8H160v-8ZM201.44,464l5.34-32h98.44l5.34,32ZM488,404a12.01,12.01,0,0,1-12,12H36a12.01,12.01,0,0,1-12-12V384H488Zm0-36H320V312h8a8,8,0,0,0,8-8v-8h56a8,8,0,0,0,8-8,72.083,72.083,0,0,0-64-71.54V151.85A167.749,167.749,0,0,0,326.42,96H476a12.01,12.01,0,0,1,12,12ZM336,280V232.57A56.132,56.132,0,0,1,383.43,280Z" fill="#276fdb"/><path d="M96,392H48a8,8,0,0,0,0,16H96a8,8,0,0,0,0-16Z" fill="#276fdb"/><path d="M128,392h-8a8,8,0,0,0,0,16h8a8,8,0,0,0,0-16Z" fill="#276fdb"/><path d="M256,200a56,56,0,1,0-56-56A56.064,56.064,0,0,0,256,200Zm0-96a40,40,0,1,1-40,40A40.045,40.045,0,0,1,256,104Z" fill="#276fdb"/><path d="M256,176a32,32,0,1,0-32-32A32.036,32.036,0,0,0,256,176Zm0-48a16,16,0,1,1-16,16A16.019,16.019,0,0,1,256,128Z" fill="#276fdb"/></g><g transform="matrix(0.078125 0 0 0.078125 242.5 67.5)" id="L1_113"><path d="m476 48h-440a28.031 28.031 0 0 0 -28 28v296a28.031 28.031 0 0 0 28 28h154.56l-5.34 32h-33.22a8 8 0 0 0 -8 8v16h-32a8 8 0 0 0 0 16h288a8 8 0 0 0 0-16h-32v-16a8 8 0 0 0 -8-8h-33.22l-5.34-32h154.56a28.031 28.031 0 0 0 28-28v-296a28.031 28.031 0 0 0 -28-28zm-124 400v8h-192v-8zm-150.56-16 5.34-32h98.44l5.34 32zm286.56-60a12.01 12.01 0 0 1 -12 12h-440a12.01 12.01 0 0 1 -12-12v-20h464zm0-36h-464v-260a12.01 12.01 0 0 1 12-12h440a12.01 12.01 0 0 1 12 12z" fill="#276fdb"/><path d="m96 360h-48a8 8 0 0 0 0 16h48a8 8 0 0 0 0-16z" fill="#276fdb"/><path d="m128 360h-8a8 8 0 0 0 0 16h8a8 8 0 0 0 0-16z" fill="#276fdb"/><path d="m432 304a8 8 0 0 0 0 16h24a8 8 0 0 0 8-8v-208a8 8 0 0 0 -8-8h-24a8 8 0 0 0 0 16h16v192z" fill="#276fdb"/><path d="m56 320h24a8 8 0 0 0 0-16h-16v-192h16a8 8 0 0 0 0-16h-24a8 8 0 0 0 -8 8v208a8 8 0 0 0 8 8z" fill="#276fdb"/><path d="m112 120h288a8 8 0 0 0 0-16h-288a8 8 0 0 0 0 16z" fill="#276fdb"/><path d="m112 152h288a8 8 0 0 0 0-16h-288a8 8 0 0 0 0 16z" fill="#276fdb"/><path d="m112 184h288a8 8 0 0 0 0-16h-288a8 8 0 0 0 0 16z" fill="#276fdb"/><path d="m112 216h128a8 8 0 0 0 0-16h-128a8 8 0 0 0 0 16z" fill="#276fdb"/><path d="m264 200a8 8 0 0 0 0 16h8a8 8 0 0 0 0-16z" fill="#276fdb"/><path d="m112 248h288a8 8 0 0 0 0-16h-288a8 8 0 0 0 0 16z" fill="#276fdb"/><path d="m112 280h288a8 8 0 0 0 0-16h-288a8 8 0 0 0 0 16z" fill="#276fdb"/><path d="m112 312h128a8 8 0 0 0 0-16h-128a8 8 0 0 0 0 16z" fill="#276fdb"/><path d="m272 296h-8a8 8 0 0 0 0 16h8a8 8 0 0 0 0-16z" fill="#276fdb"/></g><g transform="matrix(0.13671875 0 0 0.13671875 315 140)" id="L1_114"><path d="m484 136h-12v-88a8 8 0 0 0 -8-8h-416a8 8 0 0 0 -8 8v24h-12a20.02 20.02 0 0 0 -20 20v360a20.02 20.02 0 0 0 20 20h456a20.02 20.02 0 0 0 20-20v-296a20.02 20.02 0 0 0 -20-20zm-428-80h400v80h-243.06l-29.78-59.58a8.011 8.011 0 0 0 -7.16-4.42h-120zm432 396a4 4 0 0 1 -4 4h-456a4 4 0 0 1 -4-4v-360a4 4 0 0 1 4-4h143.06l29.78 59.58a8.011 8.011 0 0 0 7.16 4.42h276a4 4 0 0 1 4 4z" fill="#276fdb"/><path d="m316 304h-4v-40a56 56 0 0 0 -112 0v40h-4a20.02 20.02 0 0 0 -20 20v72a20.02 20.02 0 0 0 20 20h120a20.02 20.02 0 0 0 20-20v-72a20.02 20.02 0 0 0 -20-20zm-100-40a40 40 0 0 1 80 0v40h-80zm104 132a4 4 0 0 1 -4 4h-120a4 4 0 0 1 -4-4v-72a4 4 0 0 1 4-4h120a4 4 0 0 1 4 4z" fill="#276fdb"/><path d="m440 432h-80a8 8 0 0 0 0 16h80a8 8 0 0 0 0-16z" fill="#276fdb"/><path d="m472 432h-8a8 8 0 0 0 0 16h8a8 8 0 0 0 0-16z" fill="#276fdb"/></g><path d="M448,385.01V328a8,8,0,0,0-8-8H264V280H384a120,120,0,0,0,0-240,120.523,120.523,0,0,0-48.86,10.37A127.541,127.541,0,0,0,240,8C173.62,8,118.73,58.98,112.58,123.84A80.021,80.021,0,1,0,88,280H248v40H72a8,8,0,0,0-8,8v57.01a32,32,0,1,0,16,0V336H248V440a8.258,8.258,0,0,0,.07,1,32,32,0,1,0,15.86,0,8.258,8.258,0,0,0,.07-1V336H432v49.01a32,32,0,1,0,16,0ZM88,416a16,16,0,1,1-16-16A16.021,16.021,0,0,1,88,416Zm184,56a16,16,0,1,1-16-16A16.021,16.021,0,0,1,272,472ZM88,264a64,64,0,1,1,28.44-121.34,8,8,0,0,0,11.57-7.13C128.25,74.03,178.49,24,240,24a111.627,111.627,0,0,1,86.85,41.29,8,8,0,0,0,9.84,2.06A102.911,102.911,0,0,1,384,56a104,104,0,1,1,0,208ZM440,432a16,16,0,1,1,16-16A16.021,16.021,0,0,1,440,432Z" transform="matrix(0.13206017017364502 -0.03538541495800018 0.03538541495800018 0.13206017017364502 132.69219970703125 149.0258026123047)" id="L1_115" fill="#276fdb"/><g transform="matrix(0.09765625 0 0 0.09765625 62.5 237.5)" id="L1_116"><path d="M476,56H36A28.031,28.031,0,0,0,8,84V428a28.031,28.031,0,0,0,28,28H476a28.031,28.031,0,0,0,28-28V84A28.031,28.031,0,0,0,476,56Zm12,372a12.01,12.01,0,0,1-12,12H36a12.01,12.01,0,0,1-12-12V120H488Zm0-324H24V84A12.01,12.01,0,0,1,36,72H476a12.01,12.01,0,0,1,12,12Z" fill="#276fdb"/><path d="M40,96h8a8,8,0,0,0,0-16H40a8,8,0,0,0,0,16Z" fill="#276fdb"/><path d="M72,96h8a8,8,0,0,0,0-16H72a8,8,0,0,0,0,16Z" fill="#276fdb"/><path d="M104,96h8a8,8,0,0,0,0-16h-8a8,8,0,0,0,0,16Z" fill="#276fdb"/><path d="M440,416H368a8,8,0,0,0,0,16h72a8,8,0,0,0,0-16Z" fill="#276fdb"/><path d="M472,416h-8a8,8,0,0,0,0,16h8a8,8,0,0,0,0-16Z" fill="#276fdb"/><path d="M368,248H332.31a78.673,78.673,0,0,0-5.38-12.99l25.24-25.24a8,8,0,0,0,0-11.31l-22.63-22.63a8,8,0,0,0-11.31,0l-25.24,25.24A78.673,78.673,0,0,0,280,195.69V160a8,8,0,0,0-8-8H240a8,8,0,0,0-8,8v35.69a78.673,78.673,0,0,0-12.99,5.38l-25.24-25.24a8,8,0,0,0-11.31,0l-22.63,22.63a8,8,0,0,0,0,11.31l25.24,25.24A78.673,78.673,0,0,0,179.69,248H144a8,8,0,0,0-8,8v32a8,8,0,0,0,8,8h35.69a78.673,78.673,0,0,0,5.38,12.99l-25.24,25.24a8,8,0,0,0,0,11.31l22.63,22.63a8,8,0,0,0,11.31,0l25.24-25.24A78.673,78.673,0,0,0,232,348.31V384a8,8,0,0,0,8,8h32a8,8,0,0,0,8-8V348.31a78.673,78.673,0,0,0,12.99-5.38l25.24,25.24a8,8,0,0,0,11.31,0l22.63-22.63a8,8,0,0,0,0-11.31l-25.24-25.24A78.673,78.673,0,0,0,332.31,296H368a8,8,0,0,0,8-8V256A8,8,0,0,0,368,248Zm-8,32H326.19a8.01,8.01,0,0,0-7.8,6.23,63.469,63.469,0,0,1-8.21,19.82,8.018,8.018,0,0,0,1.11,9.93l23.91,23.9L323.88,351.2l-23.9-23.91a8,8,0,0,0-9.93-1.11,63.469,63.469,0,0,1-19.82,8.21,8.01,8.01,0,0,0-6.23,7.8V376H248V342.19a8.01,8.01,0,0,0-6.23-7.8,63.469,63.469,0,0,1-19.82-8.21,8,8,0,0,0-9.93,1.11l-23.9,23.91L176.8,339.88l23.91-23.9a8.018,8.018,0,0,0,1.11-9.93,63.469,63.469,0,0,1-8.21-19.82,8.01,8.01,0,0,0-7.8-6.23H152V264h33.81a8.01,8.01,0,0,0,7.8-6.23,63.469,63.469,0,0,1,8.21-19.82,8.018,8.018,0,0,0-1.11-9.93l-23.91-23.9,11.32-11.32,23.9,23.91a8.016,8.016,0,0,0,9.93,1.11,63.469,63.469,0,0,1,19.82-8.21,8.01,8.01,0,0,0,6.23-7.8V168h16v33.81a8.01,8.01,0,0,0,6.23,7.8,63.469,63.469,0,0,1,19.82,8.21,8.016,8.016,0,0,0,9.93-1.11l23.9-23.91,11.32,11.32-23.91,23.9a8.018,8.018,0,0,0-1.11,9.93,63.469,63.469,0,0,1,8.21,19.82,8.01,8.01,0,0,0,7.8,6.23H360Z" fill="#276fdb"/><path d="M256,232a40,40,0,1,0,40,40A40.045,40.045,0,0,0,256,232Zm0,64a24,24,0,1,1,24-24A24.028,24.028,0,0,1,256,296Z" fill="#276fdb"/></g><g transform="matrix(0.17578125 0 0 0.17578125 217.5 217.5)" id="L1_117"><path d="m476 72h-12v-28a28.031 28.031 0 0 0 -28-28h-360a28.031 28.031 0 0 0 -28 28v28h-12a28.031 28.031 0 0 0 -28 28v296a28.031 28.031 0 0 0 28 28h154.56l-5.34 32h-33.22a8 8 0 0 0 -8 8v16h-32a8 8 0 0 0 0 16h288a8 8 0 0 0 0-16h-32v-16a8 8 0 0 0 -8-8h-33.22l-5.34-32h154.56a28.031 28.031 0 0 0 28-28v-296a28.031 28.031 0 0 0 -28-28zm-412-28a12.01 12.01 0 0 1 12-12h360a12.01 12.01 0 0 1 12 12v20h-384zm0 36h384v212a12.01 12.01 0 0 1 -12 12h-360a12.01 12.01 0 0 1 -12-12zm288 392v8h-192v-8zm-150.56-16 5.34-32h98.44l5.34 32zm286.56-60a12.01 12.01 0 0 1 -12 12h-440a12.01 12.01 0 0 1 -12-12v-20h464zm0-36h-464v-260a12.01 12.01 0 0 1 12-12h12v204a28.031 28.031 0 0 0 28 28h360a28.031 28.031 0 0 0 28-28v-204h12a12.01 12.01 0 0 1 12 12z" fill="#276fdb"/><path d="m96 384h-48a8 8 0 0 0 0 16h48a8 8 0 0 0 0-16z" fill="#276fdb"/><path d="m128 384h-8a8 8 0 0 0 0 16h8a8 8 0 0 0 0-16z" fill="#276fdb"/><path d="m80 56h8a8 8 0 0 0 0-16h-8a8 8 0 0 0 0 16z" fill="#276fdb"/><path d="m112 56h8a8 8 0 0 0 0-16h-8a8 8 0 0 0 0 16z" fill="#276fdb"/><path d="m144 56h8a8 8 0 0 0 0-16h-8a8 8 0 0 0 0 16z" fill="#276fdb"/></g><g transform="matrix(0.0390625 0 0 0.0390625 252.5 340)" id="L1_118"><path d="M476,56H36A28.031,28.031,0,0,0,8,84V428a28.031,28.031,0,0,0,28,28H476a28.031,28.031,0,0,0,28-28V84A28.031,28.031,0,0,0,476,56ZM211.56,289.34A8.033,8.033,0,0,0,208,296V440H176V296a8.033,8.033,0,0,0-3.56-6.66L128,259.72V187.85l24-19.2v70.57a8.006,8.006,0,0,0,3.61,6.69l32,21a8,8,0,0,0,8.78,0l32-21a8.006,8.006,0,0,0,3.61-6.69V168.65l24,19.2v71.87ZM360,440H328V312h32Zm4-144H324l-19.22-25.62L334.03,168h19.94l29.25,102.38ZM488,428a12.01,12.01,0,0,1-12,12H376V306.67l22.4-29.87a8,8,0,0,0,1.29-7l-32-112A8,8,0,0,0,360,152H328a8,8,0,0,0-7.69,5.8l-32,112a8,8,0,0,0,1.29,7L312,306.67V440H224V300.28l44.44-29.62A8.033,8.033,0,0,0,272,264V184a8,8,0,0,0-3-6.25l-40-32A8,8,0,0,0,216,152v82.9l-24,15.75L168,234.9V152a8,8,0,0,0-13-6.25l-40,32a8,8,0,0,0-3,6.25v80a8.033,8.033,0,0,0,3.56,6.66L160,300.28V440H36a12.01,12.01,0,0,1-12-12V120H488Zm0-324H24V84A12.01,12.01,0,0,1,36,72H476a12.01,12.01,0,0,1,12,12Z" fill="#276fdb"/><path d="M40,96h8a8,8,0,0,0,0-16H40a8,8,0,0,0,0,16Z" fill="#276fdb"/><path d="M72,96h8a8,8,0,0,0,0-16H72a8,8,0,0,0,0,16Z" fill="#276fdb"/><path d="M104,96h8a8,8,0,0,0,0-16h-8a8,8,0,0,0,0,16Z" fill="#276fdb"/><path d="M440,416H392a8,8,0,0,0,0,16h48a8,8,0,0,0,0-16Z" fill="#276fdb"/><path d="M472,416h-8a8,8,0,0,0,0,16h8a8,8,0,0,0,0-16Z" fill="#276fdb"/></g><g transform="matrix(0.078125 0 0 0.078125 67.5 67.5)" id="L1_119"><path d="M40,320a8,8,0,0,0,8,8h96a8,8,0,0,0,0-16H48A8,8,0,0,0,40,320Z" fill="#276fdb"/><path d="M144,344H48a8,8,0,0,0,0,16h96a8,8,0,0,0,0-16Z" fill="#276fdb"/><path d="M144,376H48a8,8,0,0,0,0,16h96a8,8,0,0,0,0-16Z" fill="#276fdb"/><path d="M96,408H48a8,8,0,0,0,0,16H96a8,8,0,0,0,0-16Z" fill="#276fdb"/><path d="M128,408h-8a8,8,0,0,0,0,16h8a8,8,0,0,0,0-16Z" fill="#276fdb"/><path d="M496,280H424V240a8,8,0,0,0-8-8H264V200h96a8,8,0,0,0,8-8V64a8,8,0,0,0-8-8h-8V16a8,8,0,0,0-8-8H168a8,8,0,0,0-8,8V32h-8a8,8,0,0,0-8,8V192a8,8,0,0,0,8,8h96v32H96a8,8,0,0,0-8,8v40H16a8,8,0,0,0-8,8V496a8,8,0,0,0,8,8H128a8.008,8.008,0,0,0,5.66-2.34l48-48A8.008,8.008,0,0,0,184,448V288a8,8,0,0,0-8-8H104V248H408v32H336a8,8,0,0,0-8,8V496a8,8,0,0,0,8,8H448a8.008,8.008,0,0,0,5.66-2.34l48-48A8.008,8.008,0,0,0,504,448V288A8,8,0,0,0,496,280ZM136,476.69V456h20.69ZM168,296V440H128a8,8,0,0,0-8,8v40H24V296Zm8-272H336V56H236.28L222.66,35.56A8.033,8.033,0,0,0,216,32H176ZM160,184V48h51.72l13.62,20.44A8.033,8.033,0,0,0,232,72H352V184ZM456,476.69V456h20.69ZM488,440H448a8,8,0,0,0-8,8v40H344V296H488Z" fill="#276fdb"/><path d="M368,328h96a8,8,0,0,0,0-16H368a8,8,0,0,0,0,16Z" fill="#276fdb"/><path d="M368,360h96a8,8,0,0,0,0-16H368a8,8,0,0,0,0,16Z" fill="#276fdb"/><path d="M368,392h96a8,8,0,0,0,0-16H368a8,8,0,0,0,0,16Z" fill="#276fdb"/><path d="M416,408H368a8,8,0,0,0,0,16h48a8,8,0,0,0,0-16Z" fill="#276fdb"/><path d="M440,424h8a8,8,0,0,0,0-16h-8a8,8,0,0,0,0,16Z" fill="#276fdb"/></g></defs><g fi:class="KUsePattern"><pattern id="pattern_L1_110" width="350" height="350" patternUnits="userSpaceOnUse"><use xlink:href="#L1_110" x="-350" y="-350"/><use xlink:href="#L1_110" x="0" y="-350"/><use xlink:href="#L1_110" x="350" y="-350"/><use xlink:href="#L1_110" x="-350" y="0"/><use xlink:href="#L1_110" x="0" y="0"/><use xlink:href="#L1_110" x="350" y="0"/><use xlink:href="#L1_110" x="-350" y="350"/><use xlink:href="#L1_110" x="0" y="350"/><use xlink:href="#L1_110" x="350" y="350"/></pattern><rect x="0" y="0" width="100%" height="100%" fill="url(#pattern_L1_110)"/></g><g fi:class="KUsePattern"><pattern id="pattern_L1_111" width="350" height="350" patternUnits="userSpaceOnUse"><use xlink:href="#L1_111" x="-350" y="-350"/><use xlink:href="#L1_111" x="0" y="-350"/><use xlink:href="#L1_111" x="350" y="-350"/><use xlink:href="#L1_111" x="-350" y="0"/><use xlink:href="#L1_111" x="0" y="0"/><use xlink:href="#L1_111" x="350" y="0"/><use xlink:href="#L1_111" x="-350" y="350"/><use xlink:href="#L1_111" x="0" y="350"/><use xlink:href="#L1_111" x="350" y="350"/></pattern><rect x="0" y="0" width="100%" height="100%" fill="url(#pattern_L1_111)"/></g><g fi:class="KUsePattern"><pattern id="pattern_L1_112" width="350" height="350" patternUnits="userSpaceOnUse"><use xlink:href="#L1_112" x="-350" y="-350"/><use xlink:href="#L1_112" x="0" y="-350"/><use xlink:href="#L1_112" x="350" y="-350"/><use xlink:href="#L1_112" x="-350" y="0"/><use xlink:href="#L1_112" x="0" y="0"/><use xlink:href="#L1_112" x="350" y="0"/><use xlink:href="#L1_112" x="-350" y="350"/><use xlink:href="#L1_112" x="0" y="350"/><use xlink:href="#L1_112" x="350" y="350"/></pattern><rect x="0" y="0" width="100%" height="100%" fill="url(#pattern_L1_112)"/></g><g fi:class="KUsePattern"><pattern id="pattern_L1_113" width="350" height="350" patternUnits="userSpaceOnUse"><use xlink:href="#L1_113" x="-350" y="-350"/><use xlink:href="#L1_113" x="0" y="-350"/><use xlink:href="#L1_113" x="350" y="-350"/><use xlink:href="#L1_113" x="-350" y="0"/><use xlink:href="#L1_113" x="0" y="0"/><use xlink:href="#L1_113" x="350" y="0"/><use xlink:href="#L1_113" x="-350" y="350"/><use xlink:href="#L1_113" x="0" y="350"/><use xlink:href="#L1_113" x="350" y="350"/></pattern><rect x="0" y="0" width="100%" height="100%" fill="url(#pattern_L1_113)"/></g><g fi:class="KUsePattern"><pattern id="pattern_L1_114" width="350" height="350" patternUnits="userSpaceOnUse"><use xlink:href="#L1_114" x="-350" y="-350"/><use xlink:href="#L1_114" x="0" y="-350"/><use xlink:href="#L1_114" x="350" y="-350"/><use xlink:href="#L1_114" x="-350" y="0"/><use xlink:href="#L1_114" x="0" y="0"/><use xlink:href="#L1_114" x="350" y="0"/><use xlink:href="#L1_114" x="-350" y="350"/><use xlink:href="#L1_114" x="0" y="350"/><use xlink:href="#L1_114" x="350" y="350"/></pattern><rect x="0" y="0" width="100%" height="100%" fill="url(#pattern_L1_114)"/></g><g fi:class="KUsePattern"><pattern id="pattern_L1_115" width="350" height="350" patternUnits="userSpaceOnUse"><use xlink:href="#L1_115" x="-350" y="-350"/><use xlink:href="#L1_115" x="0" y="-350"/><use xlink:href="#L1_115" x="350" y="-350"/><use xlink:href="#L1_115" x="-350" y="0"/><use xlink:href="#L1_115" x="0" y="0"/><use xlink:href="#L1_115" x="350" y="0"/><use xlink:href="#L1_115" x="-350" y="350"/><use xlink:href="#L1_115" x="0" y="350"/><use xlink:href="#L1_115" x="350" y="350"/></pattern><rect x="0" y="0" width="100%" height="100%" fill="url(#pattern_L1_115)"/></g><g fi:class="KUsePattern"><pattern id="pattern_L1_116" width="350" height="350" patternUnits="userSpaceOnUse"><use xlink:href="#L1_116" x="-350" y="-350"/><use xlink:href="#L1_116" x="0" y="-350"/><use xlink:href="#L1_116" x="350" y="-350"/><use xlink:href="#L1_116" x="-350" y="0"/><use xlink:href="#L1_116" x="0" y="0"/><use xlink:href="#L1_116" x="350" y="0"/><use xlink:href="#L1_116" x="-350" y="350"/><use xlink:href="#L1_116" x="0" y="350"/><use xlink:href="#L1_116" x="350" y="350"/></pattern><rect x="0" y="0" width="100%" height="100%" fill="url(#pattern_L1_116)"/></g><g fi:class="KUsePattern"><pattern id="pattern_L1_117" width="350" height="350" patternUnits="userSpaceOnUse"><use xlink:href="#L1_117" x="-350" y="-350"/><use xlink:href="#L1_117" x="0" y="-350"/><use xlink:href="#L1_117" x="350" y="-350"/><use xlink:href="#L1_117" x="-350" y="0"/><use xlink:href="#L1_117" x="0" y="0"/><use xlink:href="#L1_117" x="350" y="0"/><use xlink:href="#L1_117" x="-350" y="350"/><use xlink:href="#L1_117" x="0" y="350"/><use xlink:href="#L1_117" x="350" y="350"/></pattern><rect x="0" y="0" width="100%" height="100%" fill="url(#pattern_L1_117)"/></g><g fi:class="KUsePattern"><pattern id="pattern_L1_118" width="350" height="350" patternUnits="userSpaceOnUse"><use xlink:href="#L1_118" x="-350" y="-350"/><use xlink:href="#L1_118" x="0" y="-350"/><use xlink:href="#L1_118" x="350" y="-350"/><use xlink:href="#L1_118" x="-350" y="0"/><use xlink:href="#L1_118" x="0" y="0"/><use xlink:href="#L1_118" x="350" y="0"/><use xlink:href="#L1_118" x="-350" y="350"/><use xlink:href="#L1_118" x="0" y="350"/><use xlink:href="#L1_118" x="350" y="350"/></pattern><rect x="0" y="0" width="100%" height="100%" fill="url(#pattern_L1_118)"/></g><g fi:class="KUsePattern"><pattern id="pattern_L1_119" width="350" height="350" patternUnits="userSpaceOnUse"><use xlink:href="#L1_119" x="-350" y="-350"/><use xlink:href="#L1_119" x="0" y="-350"/><use xlink:href="#L1_119" x="350" y="-350"/><use xlink:href="#L1_119" x="-350" y="0"/><use xlink:href="#L1_119" x="0" y="0"/><use xlink:href="#L1_119" x="350" y="0"/><use xlink:href="#L1_119" x="-350" y="350"/><use xlink:href="#L1_119" x="0" y="350"/><use xlink:href="#L1_119" x="350" y="350"/></pattern><rect x="0" y="0" width="100%" height="100%" fill="url(#pattern_L1_119)"/></g></svg>