<svg xmlns="http://www.w3.org/2000/svg" xmlns:xlink="http://www.w3.org/1999/xlink" width="965.558" height="486.23" viewBox="0 0 965.558 486.23"><defs><clipPath id="a"><path d="M2217.6,1273.121a32.814,32.814,0,1,0,32.814,32.814A32.813,32.813,0,0,0,2217.6,1273.121Zm0,50.2a17.383,17.383,0,1,1,17.383-17.383A17.383,17.383,0,0,1,2217.6,1323.318Z" transform="translate(-2184.786 -1273.121)" fill="none"/></clipPath></defs><g transform="translate(-488.507 -2195.224)"><g transform="translate(488.507 2467.411)" opacity="0.177"><path d="M-2238.755,7152.352c-44.23,5.382-216.729,19.061-305.19,64.807s-437,20.855-509.533-22.873-38.039-85.887-38.039-85.887,38.924-59.425,306.959-76.02,455.573,14.575,455.573,14.575,160.113,18.837,191.959,58.081C-2118.448,7127.236-2194.525,7146.969-2238.755,7152.352Z" transform="translate(3099.716 -7027.513)" fill="rgba(135,182,253,0.76)"/></g><g transform="translate(-107.118 -786.077)"><g transform="translate(1151.183 3218.983)"><path d="M4081.94,1699.112c-11.455,23.252-25.815,86.79-29.732,90.272s-26.547,16.973-30.464,23.5-2.176,4.352-.435,4.787,100.094.87,100.094.87-11.315-67.455-12.621-67.89S4081.94,1699.112,4081.94,1699.112Z" transform="translate(-4019.378 -1699.112)" fill="#4b8beb"/><path d="M4197.522,1818.227c18.064.126,37.125.226,47.619.277l-14.367-85.92c-7.664-14.856-16.965-33.472-16.965-33.472-1.443,2.931-2.934,6.5-4.443,10.515-1.49,64.532,7.8,82.62.822,94.118C4204.739,1812.718,4199.767,1816.732,4197.522,1818.227Z" transform="translate(-4151.246 -1699.112)" fill="#2870db"/></g><g transform="translate(1096.607 3128.682)"><path d="M4320.12,1591.078c16.336,15.079,52.7,29.379,52.7,29.379s5.524,51.043,1.754,79.945-1.674,34.766-1.674,34.766l-78.521.668s-6.518-14.632-24.938-58.053c-11.729-27.645-9.634-58.641-9.634-58.641l45.656-20.525Z" transform="translate(-4142.665 -1528.84)" fill="#4b8beb"/><path d="M4381.12,1823.019H4456.1s-2.095-5.864,1.674-34.766c3.1-23.8-.093-62.609-1.319-75.573l-6.818-2.922c-17.118,4.932-26.983,30.465-29.885,55.417-1.941,16.695-29.6,33.13-47.694,42.18C4378,1818.686,4381.12,1823.019,4381.12,1823.019Z" transform="translate(-4225.865 -1616.691)" fill="#2870db"/><path d="M4443.815,1638.833s.7,21.557,4.378,21.325,25.046-27.331,25.046-27.331l-3.634-1.737Z" transform="translate(-4278.984 -1558.459)" fill="#2870db"/><path d="M4387.29,1652.572s-4.646,19.829-6.951,19.368-5.417-20.621-5.417-20.621Z" transform="translate(-4227.986 -1573.433)" fill="#2870db"/><path d="M4393.684,1646.632l6.392.692,2.459,7.613s-5.621,6.579-5.736,9.23,1.238,12.571,1.31,21.568-3.23,44.812-1.73,66.752l1.5,21.94-12.846.5s-.691-24.136,0-49.974,8.046-60.787,8.046-60.787l-2.9-8.884Z" transform="translate(-4235.244 -1569.963)" fill="#5b5b5b"/><path d="M4325.919,1389.392c-9.039,20.13,1.811,38.777,1.48,37.991s13.68-33.986,13.68-33.986Z" transform="translate(-4189.044 -1379.546)" fill="#2e5b9a"/><path d="M4413.154,1446.692l11.462,41.9a3.8,3.8,0,0,1-.725,3.394c-2.689,3.311-6.518,10.124-14.239,12.309a19.139,19.139,0,0,1-4.849.544,3.273,3.273,0,0,1-3.23-2.648l-7.679-39.738Z" transform="translate(-4242.031 -1421.961)" fill="#f09959"/><path d="M4410.965,1460.172l-4.19,1.717-12.88,10.539,4.942,25.188,1.971,10.043C4412.533,1500.348,4416.834,1488.422,4410.965,1460.172Z" transform="translate(-4242.031 -1431.94)" fill="#e38540"/><path d="M4348.229,1430.736c.009,14.014-8.439,25.054-18.87,24.658s-16.829-8.285-18.9-26.091c-1.626-13.969,2.408-30.224,12.838-29.828S4348.22,1416.722,4348.229,1430.736Z" transform="translate(-4180.009 -1387.005)" fill="#f09959"/><path d="M4473.115,1703.174c15.169,3.425,17.99,34.237,22.922,66.733.246,1.619.931,8.473,1.667,16.113.877,9.107,1.814,19.284,1.814,19.284a9.691,9.691,0,0,1-5.513,8.7c-4.958,2.479-6.964,4.352-35.687,4.642-27.587.279-63.154-.87-63.154-.87s-.314-10.264,2.514-15.281c4.255-7.543,47.874-18.376,51.936-18.956.581-8.124-4.005-37.518,2.321-57.448,4.353-13.709,9.031-20.89,14.893-22.767A11.759,11.759,0,0,1,4473.115,1703.174Z" transform="translate(-4242.961 -1611.557)" fill="#4b8beb"/><path d="M4455.239,1839.042c13.6.2,32.263.4,47.556.245,28.724-.29,30.729-2.163,35.688-4.642,5.8-2.9,6.091-7.834,6.091-7.834s-2.932-33.686-3.481-37.428c-3.191-21.76-6.64-46.662-14.665-58.681a164.066,164.066,0,0,1,8.893,48.74,48.473,48.473,0,0,1-1.482,13.423c-1.3,4.28-4.641,6.964-9.863,5.513-10.446-2.9-23.5,3.192-23.5,3.192s9.863-3.482,19.148-.29,28.434,24.372,7.544,32.206C4520.773,1835.881,4482.485,1837.836,4455.239,1839.042Z" transform="translate(-4287.439 -1632.193)" fill="#2870db"/><path d="M4403.017,2071.515s3.87-6.576,11.8-6.576,7.35,12.96,6.189,17.216-5.8,4.448-5.8,4.448l-15.973-.4Z" transform="translate(-4245.979 -1879.607)" fill="#96cfe0"/><path d="M3809.282,2130.071h133.27a6.679,6.679,0,0,0-6.679-6.679H3809.282Z" transform="translate(-3809.282 -1922.876)" fill="#75a1de"/><path d="M4278.713,2062.4c-16.065-7.388-20.605-5.51-24.258-6.923-9.02-3.488-11.53-1.372-18.9,14.5-1.469,3.162,2.017,3.666,5.485,3.962s8.285-6.087,9.7-6.743,5.109-.729,5.109-.729-1.156-.1-3.186,3.222-4.266,4.489-1.568,4.719,3.463-4.169,8.39-2.778,3.919,6.083,16.487,5.677c11.919-.385,20.826.808,21.264-6.725.417-7.148,1.51-10.646-5.149-12.476C4286.964,2056.693,4278.713,2062.4,4278.713,2062.4Z" transform="translate(-4124.563 -1871.533)" fill="#f09959"/><path d="M4403.4,2074.82c11.188-.307,6.758,13.22,5.5,14.278s6.135.933,6.135.933a13.433,13.433,0,0,0,1.567-11.851,10.847,10.847,0,0,0-8.105-7.389l-5.144,2.278Z" transform="translate(-4249.03 -1883.938)" fill="#a86b48"/><path d="M4410.642,2067.811c.09,1.721-2.646,3.261-6.107,3.441s-6.345-1.07-6.434-2.79,2.646-3.261,6.109-3.441S4410.553,2066.09,4410.642,2067.811Z" transform="translate(-4245.143 -1879.654)" fill="#2e5b9a"/><path d="M4410.635,2065.867c.082,1.537-2.363,2.913-5.457,3.074s-5.667-.956-5.747-2.494,2.364-2.914,5.458-3.074S4410.555,2064.329,4410.635,2065.867Z" transform="translate(-4246.127 -1878.437)" fill="#3e6bab"/><path d="M4411.855,2066.157c.058,1.106-1.7,2.1-3.929,2.213s-4.08-.689-4.138-1.795,1.7-2.1,3.929-2.213S4411.8,2065.05,4411.855,2066.157Z" transform="translate(-4249.353 -1879.172)" fill="#f0ceb4"/><path d="M4039.485,2082.319c8.259-4.589,18.355-3.059,22.026,1.529s4.283,7.648-3.977,7.648-24.78.612-27.534.306S4039.485,2082.319,4039.485,2082.319Z" transform="translate(-3972.365 -1890.421)" fill="#f09959"/><path d="M4108.983,2082.652c8.873-2.141,14.935,3.021,22.333,7.954,6.424,4.283,7.715,8.446.611,4.895-10.4-5.2-16.52-5.812-16.52-5.812Z" transform="translate(-4031.13 -1892.35)" fill="#f09959"/><path d="M4004.423,2096.125c-4.48,0-8.391-1.428-11.553-1.165s-13.178,10.542-11.6,11.333a3.984,3.984,0,0,0,.369.157,5.4,5.4,0,0,0,6.4-2.245c1.418-2.275,3.723-4.922,6.407-3.974a28.478,28.478,0,0,0,9.182,1.429Z" transform="translate(-3936.47 -1901.806)" fill="#f09959"/><path d="M4069.337,2083.792c-4.589-1.835,2.753-17.131,5.2-17.131s11.625,7.342,11.625,7.342-2.158,1.218-9.483-1.224c-1.836-.612-3.365,9.789-5.507,11.013S4069.337,2083.792,4069.337,2083.792Z" transform="translate(-4000.689 -1880.882)" fill="#f7a96f"/><path d="M4383.017,1611.409l2.151,11.465-6.284,13.6-6.829-14.419Z" transform="translate(-4225.864 -1543.89)" fill="#4b8beb"/><path d="M4284.107,1401.711c2.642,16.641,8.8,18.4,13.164,19.919s20.681-5.337,22.421-9.894c4.449-11.66-2.731-20.44-1.275-20.556s3.514,3.723,8.219,8.329c.437.429,3.462,3.255,3.387,2.143-1.01-15.151,5.862-21.184,1.25-35.846-3.4-10.809-10.255-8.634-10.255-8.634s-6.239-8.417-20.143-4.762c-9.315,2.449-17.055,7.684-26.329,11.989s16.059,22.448,27.2,12.051,8.185,8.516,10.432,9.525.993.006,3.586,8.925-7.854,16.984-11.017,18.374c-10.117,4.441-12.208,3.024-15.26-.532C4286.835,1409.658,4284.107,1401.711,4284.107,1401.711Z" transform="translate(-4152.203 -1351.49)" fill="#2e5b9a"/><path d="M4454.936,1469.109c-.442,4.4-2.909,7.643-5.51,7.247s-3.3-3.774-3.909-8.682c-.549-4.423,2.907-7.643,5.511-7.247S4455.378,1464.71,4454.936,1469.109Z" transform="translate(-4280.2 -1432.105)" fill="#f09959"/><path d="M4458.519,1594.664l11.4,10.616s-21.927,20.648-23.826,20.417-5.117-17.533-5.117-17.533Z" transform="translate(-4276.878 -1531.495)" fill="#4b8beb"/><path d="M4412.6,1645.638c-2.1.988-1.428,3.988-2.319,5.031s-1.424,1.325-2.142-.129-.6-4.737-1.159-4.9-4.788,13.061-4.788,13.061,3.11-8.459,3.816-7.536.145,1.782,2.719,1.936a18.96,18.96,0,0,0,5.845-.931Z" transform="translate(-4248.172 -1569.226)" fill="#4b8beb"/></g><g transform="translate(1059.022 3266.188)"><path d="M3721.745,1950.52h71.182l-30.228-66.5a5.437,5.437,0,0,0-4.948-3.186h-64.388a2.122,2.122,0,0,0-1.932,3Z" transform="translate(-3684.318 -1880.831)" fill="#a8ceff"/><path d="M3666.721,1880.831h65.7a5.436,5.436,0,0,1,4.948,3.186l30.229,66.5H3695.1l-30.312-66.689A2.122,2.122,0,0,1,3666.721,1880.831Z" transform="translate(-3664.596 -1880.831)" fill="#2870db"/><path d="M3799.292,1996.3c2.491,5.163,6.535,8.373,9.03,7.169s2.5-6.367.008-11.53-6.536-8.373-9.03-7.169S3796.8,1991.135,3799.292,1996.3Z" transform="translate(-3762.921 -1957.581)" fill="#6695d6"/></g><g transform="translate(772.769 3134.62)"><g transform="translate(61.803 3.656)"><path d="M2807.058,1467.232c-1.107,0-2.2-.055-3.265-.109-.884-.045-1.8-.091-2.678-.1a.562.562,0,0,1,.008-1.125c.91.013,1.833.06,2.728.105,6.683.338,13.6.689,20.33-12.26,2.923-5.621,6.1-16.551,5.452-28.852-.535-10.076-3.95-24.408-17.18-35.47a.562.562,0,1,1,.72-.862c13.541,11.321,17.035,25.974,17.582,36.272.665,12.528-2.588,23.683-5.577,29.431C2819.235,1465.687,2812.91,1467.232,2807.058,1467.232Z" transform="translate(-2800.561 -1388.425)" fill="#303c60"/></g><g transform="translate(64.88 10.841)"><path d="M2813.726,1485.049c-.261,0-.522-.006-.785-.02a.562.562,0,0,1,.055-1.123c.242.011.485.017.725.017,6.975,0,13.417-4.939,17.768-13.666,7.154-14.35,7.848-37.891-4.957-53.257a.562.562,0,1,1,.864-.719c13.11,15.732,12.411,39.809,5.1,54.477C2827.946,1479.884,2821.14,1485.047,2813.726,1485.049Z" transform="translate(-2812.406 -1416.08)" fill="#303c60"/></g><path d="M2665.66,1382.466c20.182-15.666,39.137-7.361,45.928,13.841,6.343,19.8-1.786,62.361-31.894,54.945-31.148-7.672-33.743-17.208-33.507-31.067A49.187,49.187,0,0,1,2665.66,1382.466Z" transform="translate(-2624.476 -1374.349)" fill="#303c60"/><path d="M2593.342,1647.376l-28.85,10.765s8.074,58.6,8.766,80.976-10.612,41.792-10.612,41.792h75.439s10.381-60.94,8.3-82.395-16.379-43.685-17.071-44.22-17.994-4.458-17.994-4.458Z" transform="translate(-2562.647 -1576.452)" fill="#2870db"/><path d="M2834.071,1925.052s2.905,27.222,4.105,28.606,45.5,23.066,45.5,23.066l-64.365,4.387Z" transform="translate(-2752.635 -1781.996)" fill="#2870db"/><path d="M2819.307,1674.005c7.152.156,9.093,11.849,10.775,20.537S2819.307,1674.005,2819.307,1674.005Z" transform="translate(-2752.635 -1596.164)" fill="#2870db"/><path d="M2622.351,1700.455c-3.921-14.073-24.994-53.261-24.994-53.261l-27.605,10.812s6.328,45.925,8.26,71.987l10.486,50.78h33.854S2626.273,1714.528,2622.351,1700.455Z" transform="translate(-2567.907 -1576.318)" fill="#4b8beb"/><path d="M2622.259,2045.87l31.116-7.143-2.54,26.53Z" transform="translate(-2606.773 -1866.142)" fill="#2870db"/><path d="M2593.69,1798.848c-5.076-6.872-10.04-14.433-5.205-30.222s5.306-21.456,3.613-35.759-9.38-37.143-24.376-37.835c0,0-.494,5-1.293,12.986,2.435,18.86,6.357,51.078,6.829,66.374.693,22.378-10.612,41.792-10.612,41.792l61.367,1.35S2598.765,1805.72,2593.69,1798.848Z" transform="translate(-2562.647 -1611.729)" fill="#2870db"/><path d="M2801.3,1709.255c-2.076-21.455-16.38-43.684-17.071-44.22-.428-.331-7.2-1.955-12.31-3.148,1.5,3.545,17.352,41.317,16.693,56.875-.692,16.332.02,72.888.02,72.888H2793S2803.377,1730.71,2801.3,1709.255Z" transform="translate(-2717.557 -1587.193)" fill="#4b8beb"/></g><path d="M2921.156,2154.68h-726.61a3.643,3.643,0,0,1-3.643-3.643h0a3.643,3.643,0,0,1,3.643-3.643h726.61a3.642,3.642,0,0,1,3.643,3.643h0A3.643,3.643,0,0,1,2921.156,2154.68Z" transform="translate(-1514.701 1188.039)" fill="#2e5b9a"/><g transform="translate(1056.34 2982.397)"><path d="M15.912,0H70.2A15.912,15.912,0,0,1,86.116,15.912v3.662A15.913,15.913,0,0,1,70.2,35.487H15.912A15.912,15.912,0,0,1,0,19.574V15.912A15.912,15.912,0,0,1,15.912,0Z" fill="#2870db"/><path d="M3694.315,895.858v19.579l22.561-22.561S3694.773,895.858,3694.315,895.858Z" transform="translate(-3683.914 -865.725)" fill="#2870db"/><rect width="77.208" height="28.45" rx="13.491" transform="translate(4.454 3.518)" fill="#fff"/><path d="M3729.541,820.269h-34.874a1.53,1.53,0,1,1,0-3.059h34.874a1.53,1.53,0,0,1,0,3.059Z" transform="translate(-3683.041 -809.715)" fill="#2870db"/><path d="M3758.662,846.6H3694a.861.861,0,0,1-.859-.859h0a.862.862,0,0,1,.859-.859h64.667a.862.862,0,0,1,.859.859h0A.862.862,0,0,1,3758.662,846.6Z" transform="translate(-3683.041 -830.201)" fill="#2870db"/><path d="M3758.662,859.42H3694a.862.862,0,0,1-.859-.859h0a.861.861,0,0,1,.859-.859h64.667a.862.862,0,0,1,.859.859h0A.862.862,0,0,1,3758.662,859.42Z" transform="translate(-3683.041 -839.689)" fill="#2870db"/><g transform="translate(59.331 27.38)"><path d="M1.683,0h.374A1.683,1.683,0,0,1,3.739,1.683v0A1.682,1.682,0,0,1,2.057,3.365H1.682A1.682,1.682,0,0,1,0,1.683v0A1.683,1.683,0,0,1,1.683,0Z" fill="#2870db"/><path d="M1.683,0h.374A1.683,1.683,0,0,1,3.739,1.683v0A1.682,1.682,0,0,1,2.057,3.365H1.683A1.683,1.683,0,0,1,0,1.683v0A1.683,1.683,0,0,1,1.683,0Z" transform="translate(6.798)" fill="#2870db"/><path d="M1.683,0h.374A1.683,1.683,0,0,1,3.739,1.683v0A1.682,1.682,0,0,1,2.057,3.365H1.683A1.683,1.683,0,0,1,0,1.683v0A1.683,1.683,0,0,1,1.683,0Z" transform="translate(13.597)" fill="#2870db"/></g></g><g transform="translate(824.078 3266.188)"><path d="M2893.434,2124.732h-133.27a8.553,8.553,0,0,1,8.553-8.553h124.717Z" transform="translate(-2760.164 -2055.043)" fill="#a8ceff"/><path d="M3070.964,1950.52h-71.183l30.229-66.5a5.436,5.436,0,0,1,4.948-3.186h64.388a2.122,2.122,0,0,1,1.932,3Z" transform="translate(-2937.535 -1880.831)" fill="#a8ceff"/><path d="M3115.338,1880.831h-58.775a5.435,5.435,0,0,0-4.948,3.186l-30.228,66.5h65.571l30.313-66.689A2.122,2.122,0,0,0,3115.338,1880.831Z" transform="translate(-2953.53 -1880.831)" fill="#2870db"/><path d="M3222.215,1989.786c-2.492,5.163-6.535,8.373-9.031,7.169s-2.5-6.367-.007-11.53,6.535-8.373,9.03-7.169S3224.707,1984.622,3222.215,1989.786Z" transform="translate(-3094.116 -1952.76)" fill="#6695d6"/></g><g transform="translate(747.723 3132.343)"><path d="M2690,1486.834s-6.047,30.874-12.731,36.285,15.383,31.5,23.022,24.817.531-21.316.531-21.316-4.137-2.546,2.865-18.779-11.849-28.327-11.849-28.327Z" transform="translate(-2621.523 -1449.918)" fill="#f09959"/><path d="M2725.266,1479.513l-1.838,7.32s-.841,4.3-2.243,9.962c2.613,12.192,7.5,20.121,11.867,25.16.127-2.811,1.093-7.232,4.063-14.116C2744.117,1491.608,2725.266,1479.513,2725.266,1479.513Z" transform="translate(-2654.955 -1449.918)" fill="#e38540"/><path d="M2772.763,1459.769c-4.063,11.208-14,20.2-20.3,18.129-10.3-3.392-17.8-11.444-16.03-29.245,2.086-20.964,18.217-23.367,27.691-20.688S2777.261,1447.367,2772.763,1459.769Z" transform="translate(-2666.05 -1411.1)" fill="#f09959"/><path d="M2648.253,1647.194l-9.745,3.817,15.361,19.684-4.383,7.844s15.818,11.876,20.625,34.888a205.813,205.813,0,0,1,4.284,42.619s1.181-46.67-1.148-55.59C2668.729,1683.152,2648.253,1647.194,2648.253,1647.194Z" transform="translate(-2593.755 -1574.041)" fill="#2870db"/><path d="M2771.92,1661.887s12.159,31.218,14.088,40,2.319,51.717,2.319,51.717,5.591-37.43,3.977-48.5-3.921-21.08-3.921-21.08l-7.383-5.45s-1.4-14.847-2.181-15.039S2771.92,1661.887,2771.92,1661.887Z" transform="translate(-2692.511 -1584.917)" fill="#2870db"/><path d="M2717.175,2078.589c23.652-7.167,20.785-10.751,29.385-6.689s19.379,6.818,14.335,8.122-12.663-2.867-12.663-2.867,1.2,6.451-3.1,8.362-23.4,2.606-34.036-.369S2717.175,2078.589,2717.175,2078.589Z" transform="translate(-2644.862 -1887.159)" fill="#f09959"/><path d="M2724.187,2098.229h4.707l-2.354,13.373s-9.275-1.377-8.583-2.3S2724.187,2098.229,2724.187,2098.229Z" transform="translate(-2652.539 -1907.91)" fill="#a2dff2"/><path d="M2493.12,1688.816c-9.229,16.149-12.156,24.957-19.677,55.178s-10.545,43.973-2.24,47.945c6.873,3.287,56.912,18.293,62.981,16.445,2.768.157,7.017-14.138,7.017-14.138l-45.544-20.3s13.181-31.468,15.457-52.138-7.844-32.99-12.919-32.99Z" transform="translate(-2466.228 -1604.85)" fill="#4b8beb"/><path d="M2721.317,1496.457c-2.229,7-1.272,8.422-4.357,9.077s-5.9-2.408-6.814-6.708.85-8.316,3.935-8.97S2722.651,1492.269,2721.317,1496.457Z" transform="translate(-2646.606 -1457.509)" fill="#f09959"/><path d="M2743.54,1415.5c-12.071,21.454-36.052,18.3-50.625,10.922-11.88-6.019,33.894-28.816,33.894-28.816Z" transform="translate(-2632.572 -1389.285)" fill="#303c60"/><path d="M2645.644,1373.9c-4.475-13.5-22.809-10.3-31.116,7.651s4.4,29.963,12.108,25.564S2645.644,1373.9,2645.644,1373.9Z" transform="translate(-2573.996 -1365.584)" fill="#303c60"/></g><g transform="translate(866.894 2981.302)"><path d="M3135.8,919.973a106.907,106.907,0,0,0,3.213-16.418l-16.947-7.628q.129-2.41.132-4.85a90.562,90.562,0,0,0-.98-13.285l16.157-9.194a106.663,106.663,0,0,0-4.757-16.035l-18.554,1.121a89.66,89.66,0,0,0-9.2-15.656l10.03-15.641a108.01,108.01,0,0,0-11.679-11.988l-15.9,9.61A89.808,89.808,0,0,0,3071.9,810.4l1.612-18.52a106.509,106.509,0,0,0-15.9-5.182L3048,802.6a90.409,90.409,0,0,0-15.634-1.359q-1.241,0-2.474.035l-7.177-17.14a107.089,107.089,0,0,0-16.5,2.777l-1.123,18.548a89.286,89.286,0,0,0-16.659,7.243l-14.319-11.841a107.824,107.824,0,0,0-13.3,10.156l7.625,16.945a90.3,90.3,0,0,0-11.389,14.133l-18.192-3.833a106.931,106.931,0,0,0-7.075,15.156l14.63,11.463a89.407,89.407,0,0,0-3.491,17.822l-17.877,5.057c-.033,1.1-.056,2.2-.056,3.31a108.585,108.585,0,0,0,.831,13.405l18.277,3.351a89.181,89.181,0,0,0,5.167,17.414l-13.483,12.79a107.264,107.264,0,0,0,8.479,14.421L2962,946.929a90.375,90.375,0,0,0,12.665,13l-6,17.594a107.41,107.41,0,0,0,14.194,8.857l13.14-13.138a89.143,89.143,0,0,0,17.271,5.629l2.866,18.361a108.194,108.194,0,0,0,16.22,1.219c.156,0,.313-.005.469-.006l5.529-17.74a89.6,89.6,0,0,0,17.905-3.017l11.074,14.931a106.72,106.72,0,0,0,15.338-6.671l-3.348-18.284a90.2,90.2,0,0,0,14.427-11.016l16.738,8.071a107.855,107.855,0,0,0,10.5-13.03l-11.457-14.625a89.371,89.371,0,0,0,7.682-16.46ZM3032.362,935.26a44.183,44.183,0,1,1,44.183-44.183A44.183,44.183,0,0,1,3032.362,935.26Z" transform="translate(-2924.988 -784.139)" fill="#2870db"/><g transform="translate(37.026 142.218)"><path d="M3075.3,1344.482a1.152,1.152,0,0,1-.927-.466,80.4,80.4,0,0,1-6.721-10.713,1.154,1.154,0,0,1,2.046-1.068,78.061,78.061,0,0,0,6.526,10.4,1.154,1.154,0,0,1-.925,1.842Z" transform="translate(-3067.52 -1331.616)" fill="#2870db"/></g><g transform="translate(59.044 168.4)"><path d="M3191.017,1450.274a1.1,1.1,0,0,1-.151-.01,79.815,79.815,0,0,1-38.132-15.788,1.153,1.153,0,1,1,1.4-1.831,77.513,77.513,0,0,0,37.028,15.331,1.154,1.154,0,0,1-.148,2.3Z" transform="translate(-3152.281 -1432.407)" fill="#2870db"/></g></g><g transform="translate(975.759 3034.892)"><rect width="209.732" height="116.36" fill="#2870db"/><rect width="201.427" height="105.978" transform="translate(2.307 2.538)" fill="#fff"/><g transform="translate(5.031 3.574)" opacity="0.5"><path d="M3554.929,1100.82H3363.9a.461.461,0,0,1-.461-.462v-95.7a.461.461,0,0,1,.461-.461h191.028a.462.462,0,0,1,.462.461v95.7A.462.462,0,0,1,3554.929,1100.82Zm-190.566-.923h190.1v-94.779h-190.1Z" transform="translate(-3363.44 -1004.196)" fill="#d3e3f4"/><g transform="translate(0 79.751)"><path d="M3554.929,1312.127H3363.9a.462.462,0,0,1,0-.923h191.028a.462.462,0,1,1,0,.923Z" transform="translate(-3363.44 -1311.204)" fill="#d3e3f4"/></g><g transform="translate(0 63.801)"><path d="M3554.929,1250.726H3363.9a.461.461,0,0,1,0-.923h191.028a.461.461,0,1,1,0,.923Z" transform="translate(-3363.44 -1249.803)" fill="#d3e3f4"/></g><g transform="translate(0 47.851)"><path d="M3554.929,1189.324H3363.9a.462.462,0,0,1,0-.923h191.028a.462.462,0,1,1,0,.923Z" transform="translate(-3363.44 -1188.401)" fill="#d3e3f4"/></g><g transform="translate(0 31.9)"><path d="M3554.929,1127.922H3363.9a.461.461,0,0,1,0-.923h191.028a.461.461,0,1,1,0,.923Z" transform="translate(-3363.44 -1126.999)" fill="#d3e3f4"/></g><g transform="translate(0 15.95)"><path d="M3554.929,1066.52H3363.9a.461.461,0,0,1,0-.923h191.028a.461.461,0,1,1,0,.923Z" transform="translate(-3363.44 -1065.597)" fill="#d3e3f4"/></g><g transform="translate(159.19)"><path d="M3976.714,1100.82a.461.461,0,0,1-.461-.462v-95.7a.461.461,0,0,1,.923,0v95.7A.462.462,0,0,1,3976.714,1100.82Z" transform="translate(-3976.253 -1004.196)" fill="#d3e3f4"/></g><g transform="translate(127.352)"><path d="M3854.152,1100.82a.461.461,0,0,1-.461-.462v-95.7a.461.461,0,1,1,.922,0v95.7A.461.461,0,0,1,3854.152,1100.82Z" transform="translate(-3853.691 -1004.196)" fill="#d3e3f4"/></g><g transform="translate(95.514)"><path d="M3731.59,1100.82a.462.462,0,0,1-.462-.462v-95.7a.461.461,0,0,1,.923,0v95.7A.461.461,0,0,1,3731.59,1100.82Z" transform="translate(-3731.127 -1004.196)" fill="#d3e3f4"/></g><g transform="translate(63.676)"><path d="M3609.027,1100.82a.462.462,0,0,1-.462-.462v-95.7a.462.462,0,0,1,.923,0v95.7A.461.461,0,0,1,3609.027,1100.82Z" transform="translate(-3608.564 -1004.196)" fill="#d3e3f4"/></g><g transform="translate(31.838)"><path d="M3486.464,1100.82a.461.461,0,0,1-.461-.462v-95.7a.461.461,0,1,1,.922,0v95.7A.461.461,0,0,1,3486.464,1100.82Z" transform="translate(-3486.003 -1004.196)" fill="#d3e3f4"/></g></g><g transform="translate(4.57 3.112)"><path d="M3362.586,1099.968a.923.923,0,0,1-.413-1.748l31.713-15.888,16.355-15.737,15.189-31.75a.922.922,0,0,1,.219-.291l17.265-15.384a.923.923,0,0,1,1.451.3l14.556,31.3,17.3,30.73,13.025-14.964a.922.922,0,0,1,.665-.316.9.9,0,0,1,.685.271l14.82,14.889,15.488-46.431a.933.933,0,0,1,.223-.36l31.838-31.9a.923.923,0,1,1,1.306,1.3l-31.684,31.747-15.895,47.645a.922.922,0,0,1-1.529.359l-15.176-15.248-13.232,15.2a.922.922,0,0,1-1.5-.153l-17.955-31.9c-.013-.021-.023-.042-.034-.063l-14.048-30.208-16.2,14.434-15.181,31.733a.949.949,0,0,1-.193.267l-16.577,15.95a.909.909,0,0,1-.226.16L3363,1099.87A.919.919,0,0,1,3362.586,1099.968Z" transform="translate(-3361.664 -1002.42)" fill="#94bfff"/></g><g transform="translate(4.57 3.112)"><path d="M3362.586,1099.966a.923.923,0,0,1-.661-1.568l46.685-47.851a.922.922,0,0,1,1.292-.028l16.339,15.338,31.206-31.267a.923.923,0,0,1,1.293-.013l15.9,15.308,14.627-15.281a.925.925,0,0,1,.658-.285.939.939,0,0,1,.662.271l30.932,30.993,31.265-62.654a.923.923,0,1,1,1.651.824l-31.838,63.8a.923.923,0,0,1-1.479.24l-31.171-31.232-14.615,15.268a.922.922,0,0,1-1.306.027l-15.917-15.322-31.2,31.259a.921.921,0,0,1-1.284.021l-16.331-15.331-46.052,47.2A.92.92,0,0,1,3362.586,1099.966Z" transform="translate(-3361.664 -1002.418)" fill="#2870db"/></g></g><g transform="translate(893.62 2988.739)"><path d="M9.867,0h52.3a9.867,9.867,0,0,1,9.867,9.867V39.96a65.3,65.3,0,0,1-65.3,65.3H0a0,0,0,0,1,0,0V9.867A9.867,9.867,0,0,1,9.867,0Z" transform="translate(32.174)" fill="#2870db"/><path d="M9.373,0H59.428A9.373,9.373,0,0,1,68.8,9.373V38.535A62.033,62.033,0,0,1,6.768,100.568H0a0,0,0,0,1,0,0V9.373A9.373,9.373,0,0,1,9.373,0Z" transform="translate(32.985 1.781)" fill="#fff"/><path d="M3101.344,1114.785v-1.814a2.434,2.434,0,0,0-2.238-2.591h-69a2.434,2.434,0,0,0-2.238,2.591v1.814c0,12.856,9,23.278,20.112,23.278h70.5C3107.373,1138.063,3101.192,1128.813,3101.344,1114.785Z" transform="translate(-3027.87 -1033.07)" fill="#2870db"/><path d="M3108.127,1124.12v-1.468a2.1,2.1,0,0,0-2.1-2.1h-64.608a2.1,2.1,0,0,0-2.1,2.1v1.468a18.831,18.831,0,0,0,18.832,18.832h68.8C3116.559,1142.953,3108.127,1137.919,3108.127,1124.12Z" transform="translate(-3036.351 -1040.603)" fill="#fff"/><g transform="translate(42.6 11.399)"><path d="M3243.824,888.992h-49.143a2.824,2.824,0,0,1-2.821-2.82v-26.7a2.824,2.824,0,0,1,2.821-2.82h49.143a2.823,2.823,0,0,1,2.821,2.82v26.7A2.823,2.823,0,0,1,3243.824,888.992Zm-49.143-31.417a1.9,1.9,0,0,0-1.9,1.9v26.7a1.9,1.9,0,0,0,1.9,1.9h49.143a1.9,1.9,0,0,0,1.9-1.9v-26.7a1.9,1.9,0,0,0-1.9-1.9Z" transform="translate(-3191.86 -856.653)" fill="#2870db"/></g><path d="M3171.108,1023.084H3117.09a1.4,1.4,0,1,1,0-2.791h54.019a1.4,1.4,0,0,1,0,2.791Z" transform="translate(-3092.88 -966.385)" fill="#2870db"/><path d="M3171.108,1042.684H3117.09a1.4,1.4,0,1,1,0-2.791h54.019a1.4,1.4,0,1,1,0,2.791Z" transform="translate(-3092.88 -980.894)" fill="#2870db"/><path d="M3171.108,1061.6H3117.09a1.4,1.4,0,1,1,0-2.791h54.019a1.4,1.4,0,0,1,0,2.791Z" transform="translate(-3092.88 -994.897)" fill="#2870db"/><g transform="translate(78.654 15.647)"><rect width="3.186" height="2.867" rx="1.434" fill="#2870db"/><rect width="3.186" height="2.867" rx="1.434" transform="translate(5.793)" fill="#2870db"/><rect width="3.186" height="2.867" rx="1.434" transform="translate(11.585)" fill="#2870db"/></g><rect width="7.273" height="12.009" transform="translate(47.975 27.569)" fill="#2870db"/><rect width="7.273" height="11.008" transform="translate(68.026 28.57)" fill="#2870db"/><rect width="7.273" height="15.922" transform="translate(79.624 23.655)" fill="#2870db"/><rect width="7.273" height="7.273" transform="translate(57.804 32.304)" fill="#2870db"/></g><g transform="translate(1350.618 3078.415)"><path d="M4813.011,1197.834H4838.9a25.892,25.892,0,1,1-25.893-25.893Z" transform="translate(-4787.119 -1168.315)" fill="#2870db"/><g transform="translate(4.337)"><path d="M4929.381,1183.877a25.893,25.893,0,0,0-25.893-25.893v25.893Z" transform="translate(-4877.596 -1157.984)" fill="#2870db"/><path d="M4803.813,1257.661a25.892,25.892,0,0,0,25.893,25.893A26.017,26.017,0,0,1,4803.813,1257.661Z" transform="translate(-4803.813 -1231.768)" fill="#2870db"/><path d="M4829.707,1157.984a25.892,25.892,0,0,0-25.893,25.893A26.017,26.017,0,0,1,4829.707,1157.984Z" transform="translate(-4803.813 -1157.984)" fill="#2870db"/><path d="M4903.488,1283.554a25.892,25.892,0,0,0,25.893-25.893A26.017,26.017,0,0,1,4903.488,1283.554Z" transform="translate(-4877.596 -1231.768)" fill="#2870db"/></g></g><path d="M3672.561,1063.013a2.3,2.3,0,1,0-2.294,2.3A2.3,2.3,0,0,0,3672.561,1063.013Z" transform="translate(-2608.072 1992.431)" fill="#2870db"/><path d="M2.3,0A2.3,2.3,0,1,1,0,2.3,2.3,2.3,0,0,1,2.3,0Z" transform="translate(1025.754 3084.482)" fill="#91bdff"/><path d="M3728.657,1122.234a2.3,2.3,0,1,0-2.294,2.3A2.295,2.295,0,0,0,3728.657,1122.234Z" transform="translate(-2649.596 1948.594)" fill="#91bdff"/><path d="M3851.22,1122.234a2.3,2.3,0,1,0-2.3,2.3A2.3,2.3,0,0,0,3851.22,1122.234Z" transform="translate(-2740.321 1948.594)" fill="#91bdff"/><path d="M3973.783,1122.234a2.3,2.3,0,1,0-2.3,2.3A2.3,2.3,0,0,0,3973.783,1122.234Z" transform="translate(-2831.046 1948.594)" fill="#2870db"/><g transform="translate(894.656 3079.615)"><circle cx="12.389" cy="12.389" r="12.389" transform="translate(0 24.495) rotate(-81.323)" fill="#94bfff"/><g transform="translate(8.83 10.023)"><path d="M3069.907,1209.608h-.026a.692.692,0,0,1-.494-.234l-3.365-3.824a.692.692,0,0,1,1.039-.915l2.883,3.277,6.667-6.526a.692.692,0,0,1,.968.99l-7.189,7.036A.689.689,0,0,1,3069.907,1209.608Z" transform="translate(-3065.85 -1201.188)" fill="#fff"/></g></g><g transform="translate(733.725 3005.436)"><rect width="8.247" height="44.989" transform="translate(0 13.697)" fill="#2870db"/><rect width="8.247" height="31.901" transform="translate(34.949 26.785)" fill="#2870db"/><rect width="8.247" height="44.989" transform="translate(52.424 13.697)" fill="#2870db"/><rect width="8.247" height="15.95" transform="translate(69.899 42.735)" fill="#2870db"/><rect width="8.247" height="58.686" transform="translate(17.475)" fill="#2870db"/><rect width="8.247" height="31.901" transform="translate(87.432 26.785)" fill="#2870db"/></g><g transform="translate(1241.143 2991.236)"><rect width="8.247" height="23.862" transform="translate(0 31.968)" fill="#2870db"/><rect width="8.247" height="16.099" transform="translate(105.702 39.731)" fill="#2870db"/><rect width="8.247" height="55.83" transform="translate(34.949)" fill="#2870db"/><rect width="8.247" height="25.095" transform="translate(52.424 30.735)" fill="#2870db"/><rect width="8.247" height="32.198" transform="translate(69.899 23.632)" fill="#2870db"/><rect width="8.247" height="39.617" transform="translate(17.475 16.214)" fill="#2870db"/><rect width="8.247" height="48.794" transform="translate(87.432 7.036)" fill="#2870db"/></g><g transform="translate(674.612 3108.324)"><g clip-path="url(#a)"><path d="M2325.477,1417.577l-29.657-18.136-5.365,34.348A34.8,34.8,0,0,0,2325.477,1417.577Z" transform="translate(-2263.006 -1366.627)" fill="#325994"/><path d="M2340.794,1370.717c.08-.131.184-.311.18-.3a34.766,34.766,0,0,0,.77-34.221c-10.5,5.5-4.246,2.158-30.639,16.431C2340.811,1370.787,2336.2,1367.986,2340.794,1370.717Z" transform="translate(-2278.292 -1319.808)" fill="#77aeff"/><path d="M2185.6,1288.474l32.6,12.013,30.583-16.537C2234.482,1257.494,2195.976,1260.667,2185.6,1288.474Z" transform="translate(-2185.391 -1267.673)" fill="#d3e3f4"/><path d="M2206.612,1399.557l5.365-34.347-32.6-12.013C2171.623,1373.981,2185.383,1396.21,2206.612,1399.557Z" transform="translate(-2179.163 -1332.396)" fill="#2870db"/><path d="M2239.96,1314.942a36.058,36.058,0,0,0,.9-33.8l.019-.01-.549-1.015c-.01-.021-.022-.04-.033-.061l-.449-.835-.016.009a35.5,35.5,0,0,0-14.33-13.9,36.21,36.21,0,0,0-50.03,18.387l-.019-.007-.4,1.076-.4,1.085.019.007a35.468,35.468,0,0,0,3.039,29.306,35.952,35.952,0,0,0,24.349,17.3l0,.02,1.137.179,1.142.18,0-.02a35.947,35.947,0,0,0,34.456-15.992l.023.014.226-.37c.006,0,.369-.6.369-.6.056-.092.123-.207.162-.273l.024-.04.019-.031.365-.6Zm-3.478-31.36,2.4-1.253a33.745,33.745,0,0,1-.865,31.38l-.22-.129c-1.211-.718-1.738-1.03-4.153-2.5l-22.595-13.817,18.756-10.142C2232.556,1285.635,2233.685,1285.045,2236.482,1283.582Zm-58.847.928a33.634,33.634,0,0,1,60.1-4.306l-9.032,4.884c-1.865,1-4.471,2.414-8.835,4.776l-10.821,5.854-.278.15-.909-.556-.049.317-14.283-5.263Zm2.063,29.507a33.173,33.173,0,0,1-2.868-27.346l21.474,7.913,9.143,3.369-5.037,32.253A33.654,33.654,0,0,1,2179.7,1314.018Zm24.991,16.549,4.917-31.482,12.8,7.826c5.159,3.156,8.11,4.961,9.968,6.094l4.417,2.7A33.475,33.475,0,0,1,2204.688,1330.567Z" transform="translate(-2175.919 -1264.385)" fill="#e7f3fe"/></g></g><circle cx="10.352" cy="10.352" r="10.352" transform="translate(665.551 3225.893) rotate(-88.321)" fill="#d3e3f4"/><path d="M2190.632,1674.018a5.193,5.193,0,1,1-5.193-5.193A5.194,5.194,0,0,1,2190.632,1674.018Z" transform="translate(-1506.812 1542.291)" fill="#fff"/><path d="M19.684,0h0A19.685,19.685,0,0,1,39.369,19.685v0A19.684,19.684,0,0,1,19.685,39.369h0A19.685,19.685,0,0,1,0,19.684v0A19.684,19.684,0,0,1,19.684,0Z" transform="translate(1352.831 3176.34)" fill="#2870db"/><g transform="translate(1363.651 3181.212)"><path d="M4870.978,1595.387h-25.7a8,8,0,0,1-7.988-7.988v-25.7a8,8,0,0,1,7.988-7.988h25.7a8,8,0,0,1,7.988,7.988v25.7A8,8,0,0,1,4870.978,1595.387Zm-25.7-39.369a5.687,5.687,0,0,0-5.681,5.681v25.7a5.688,5.688,0,0,0,5.681,5.681h25.7a5.688,5.688,0,0,0,5.682-5.681v-25.7a5.688,5.688,0,0,0-5.682-5.681Z" transform="translate(-4837.289 -1553.711)" fill="#fff"/></g><path d="M3158.227,1638.938l-6.1-7.037a3.126,3.126,0,0,1,.313-4.4l7.037-6.1a3.126,3.126,0,0,1,4.4.313l6.1,7.037a3.126,3.126,0,0,1-.313,4.4l-7.037,6.1A3.125,3.125,0,0,1,3158.227,1638.938Z" transform="translate(-2225.667 1577.956)" fill="#d3e3f4"/><circle cx="5.793" cy="5.793" r="5.793" transform="matrix(0.924, -0.383, 0.383, 0.924, 958.819, 3220.35)" fill="#d3e3f4"/><path d="M5205.391,1630.922a5.774,5.774,0,1,1-5.773-5.774A5.773,5.773,0,0,1,5205.391,1630.922Z" transform="translate(-3737.571 1574.622)" fill="#2870db"/><path d="M4630.758,1177.936a5.774,5.774,0,1,1-5.774-5.774A5.774,5.774,0,0,1,4630.758,1177.936Z" transform="translate(-3312.209 1909.936)" fill="#2870db"/><path d="M5061.5,1456.769a4.5,4.5,0,1,1-4.5-4.5A4.5,4.5,0,0,1,5061.5,1456.769Z" transform="translate(-3632.943 1702.591)" fill="#2870db"/><g transform="translate(1170.299 3058.88)"><path d="M8.169,0h83.07a8.17,8.17,0,0,1,8.17,8.17V36.755a8.17,8.17,0,0,1-8.17,8.17H8.169A8.169,8.169,0,0,1,0,36.756V8.169A8.169,8.169,0,0,1,8.169,0Z" fill="#2870db"/><rect width="93.973" height="31.014" rx="6.6" transform="translate(2.718 11.803)" fill="#fff"/><g transform="translate(4.098 3.306)"><path d="M1.752,0h.389A1.752,1.752,0,0,1,3.894,1.752v0A1.753,1.753,0,0,1,2.142,3.5H1.752A1.752,1.752,0,0,1,0,1.753v0A1.752,1.752,0,0,1,1.752,0Z" fill="#fff"/><path d="M1.752,0h.39A1.752,1.752,0,0,1,3.894,1.752v0A1.753,1.753,0,0,1,2.142,3.5H1.753A1.753,1.753,0,0,1,0,1.752v0A1.752,1.752,0,0,1,1.752,0Z" transform="translate(7.081)" fill="#fff"/><path d="M1.752,0h.389A1.752,1.752,0,0,1,3.894,1.752v0A1.753,1.753,0,0,1,2.142,3.5H1.752A1.752,1.752,0,0,1,0,1.753v0A1.752,1.752,0,0,1,1.752,0Z" transform="translate(14.161)" fill="#fff"/></g><path d="M4304.586,1145.912h-49.707a1.487,1.487,0,0,1,0-2.974h49.707a1.487,1.487,0,1,1,0,2.974Z" transform="translate(-4211.719 -1127.311)" fill="#2870db"/><path d="M4160.664,1234.228h-49.706a1.487,1.487,0,1,1,0-2.974h49.706a1.487,1.487,0,1,1,0,2.974Z" transform="translate(-4105.184 -1192.686)" fill="#2870db"/><rect width="6.16" height="2.974" rx="1.487" transform="translate(58.986 38.568)" fill="#2870db"/><rect width="6.16" height="2.974" rx="1.487" transform="translate(66.739 38.568)" fill="#2870db"/><path d="M4214.872,1173.577h-82.313a1.009,1.009,0,1,1,0-2.018h82.313a1.009,1.009,0,1,1,0,2.018Z" transform="translate(-4121.527 -1148.497)" fill="#2870db"/><path d="M4214.872,1190.341h-82.313a1.009,1.009,0,1,1,0-2.018h82.313a1.009,1.009,0,1,1,0,2.018Z" transform="translate(-4121.527 -1160.907)" fill="#2870db"/></g><circle cx="11.417" cy="11.417" r="11.417" transform="matrix(0.099, -0.995, 0.995, 0.099, 666.131, 3067.965)" fill="#8ab2eb"/><path d="M2575.3,1199.138h-82.045a1.524,1.524,0,1,1,0-3.047H2575.3a1.524,1.524,0,1,1,0,3.047Z" transform="translate(-1737.386 1892.223)" fill="#8ab2eb"/><path d="M2575.3,1228.436h-82.045a1.524,1.524,0,0,1,0-3.048H2575.3a1.524,1.524,0,1,1,0,3.048Z" transform="translate(-1737.386 1870.536)" fill="#8ab2eb"/><g transform="translate(1032.219 3145.376)"><path d="M3675.226,1478.1a57.869,57.869,0,0,0,.36-6.409c0-1.143-.037-2.278-.1-3.405l-10.59-3.426a46.563,46.563,0,0,0-3.749-12.689l7.022-8.641a57.182,57.182,0,0,0-5.563-8.086l-10.592,3.456a47.077,47.077,0,0,0-10.485-8.059l.6-11.128a56.6,56.6,0,0,0-9.246-3.276l-6.541,9.025a47.081,47.081,0,0,0-13.222-.346l-6.055-9.36a56.689,56.689,0,0,0-9.408,2.78l.013,11.145a46.979,46.979,0,0,0-10.9,7.5l-10.392-4.01a57.428,57.428,0,0,0-5.984,7.78l6.558,9a46.572,46.572,0,0,0-4.421,12.472l-10.755,2.862a57.625,57.625,0,0,0-.36,6.409c0,1.143.038,2.278.1,3.4l10.59,3.427a46.574,46.574,0,0,0,3.75,12.689l-7.022,8.641a57.223,57.223,0,0,0,5.564,8.086l10.591-3.456a47.061,47.061,0,0,0,10.485,8.06l-.6,11.128a56.535,56.535,0,0,0,9.245,3.277l6.541-9.025a47.11,47.11,0,0,0,13.222.346l6.055,9.359a56.622,56.622,0,0,0,9.407-2.78l-.014-11.145a46.973,46.973,0,0,0,10.9-7.5l10.391,4.009a57.328,57.328,0,0,0,5.984-7.781l-6.558-9a46.521,46.521,0,0,0,4.422-12.472Zm-56.724,15.98a22.389,22.389,0,1,1,22.389-22.389A22.389,22.389,0,0,1,3618.5,1494.084Z" transform="translate(-3561.418 -1415.758)" fill="#2870db"/><g transform="translate(86.468 42.19)"><path d="M3895.436,1617.77a1.153,1.153,0,0,1-.887-1.891,37.567,37.567,0,0,0,6.618-36.178,1.153,1.153,0,1,1,2.181-.751,39.866,39.866,0,0,1-7.025,38.4A1.152,1.152,0,0,1,3895.436,1617.77Z" transform="translate(-3894.282 -1578.172)" fill="#90b6ec"/></g><g transform="translate(69.92 18.438)"><path d="M3845.039,1497.243a1.153,1.153,0,0,1-.792-.313,37.273,37.273,0,0,0-12.909-7.954,1.153,1.153,0,0,1,.787-2.168,39.568,39.568,0,0,1,13.7,8.443,1.153,1.153,0,0,1-.791,1.993Z" transform="translate(-3830.579 -1486.737)" fill="#90b6ec"/></g><g transform="translate(47.246 16.132)"><path d="M3744.448,1481.339a1.153,1.153,0,0,1-.281-2.272,39.957,39.957,0,0,1,9.772-1.209,1.154,1.154,0,0,1,0,2.307,37.669,37.669,0,0,0-9.208,1.138A1.141,1.141,0,0,1,3744.448,1481.339Z" transform="translate(-3743.296 -1477.858)" fill="#90b6ec"/></g></g></g></g></svg>