<svg xmlns="http://www.w3.org/2000/svg" width="965.558" height="691.454" viewBox="0 0 965.558 691.454"><g transform="translate(-488.507 -2159)"><g transform="translate(488.507 2636.411)" opacity="0.177"><path d="M-2238.755,7152.352c-44.23,5.382-216.729,19.061-305.19,64.807s-437,20.855-509.533-22.873-38.039-85.887-38.039-85.887,38.924-59.425,306.959-76.02,455.573,14.575,455.573,14.575,160.113,18.837,191.959,58.081C-2118.448,7127.236-2194.525,7146.969-2238.755,7152.352Z" transform="translate(3099.716 -7027.513)" fill="rgba(135,182,253,0.76)"/></g><g transform="translate(465 2159.001)"><rect width="748.723" height="38" transform="translate(344.938 -0.002) rotate(30.649)" fill="#f2f2f2"/><rect width="748.723" height="38" transform="translate(204.938 31.998) rotate(30.649)" fill="#f2f2f2"/><rect width="748.723" height="38" transform="translate(80.939 66.998) rotate(30.649)" fill="#f2f2f2"/><circle cx="201.669" cy="201.669" r="201.669" transform="translate(367.842 44.088)" fill="#2870db"/><path d="M674.976,427.414a35.95,35.95,0,1,1,35.95-35.95,35.95,35.95,0,0,1-35.95,35.95Zm0-70.146a34.2,34.2,0,1,0,34.2,34.2,34.2,34.2,0,0,0-34.2-34.2Z" transform="translate(-105.465 -144.832)" fill="#2870db" opacity="0.3"/><path d="M674.976,459.857a68.392,68.392,0,1,1,68.392-68.392,68.392,68.392,0,0,1-68.392,68.392Zm0-135.03a66.638,66.638,0,1,0,66.638,66.638,66.638,66.638,0,0,0-66.638-66.638Z" transform="translate(-105.465 -144.832)" fill="#fff"/><path d="M674.976,487.915a96.45,96.45,0,1,1,96.45-96.45,96.45,96.45,0,0,1-96.45,96.45Zm0-191.147a94.7,94.7,0,1,0,94.7,94.7A94.7,94.7,0,0,0,674.976,296.768Z" transform="translate(-105.465 -144.832)" fill="#fff"/><path d="M674.976,524.741c-73.489,0-133.277-59.787-133.277-133.277s59.788-133.277,133.277-133.277,133.277,59.788,133.277,133.277S748.465,524.741,674.976,524.741Zm0-264.8c-72.522,0-131.523,59-131.523,131.523s59,131.523,131.523,131.523,131.523-59,131.523-131.523-59-131.523-131.523-131.523Z" transform="translate(-105.465 -144.832)" fill="#fff"/><path d="M674.976,555.43c-90.411,0-163.965-73.554-163.965-163.965S584.565,227.5,674.976,227.5s163.965,73.554,163.965,163.965S765.387,555.43,674.976,555.43Zm0-326.177c-89.444,0-162.212,72.768-162.212,162.212s72.768,162.212,162.212,162.212,162.212-72.767,162.212-162.212S764.42,229.253,674.976,229.253Z" transform="translate(-105.465 -144.832)" fill="#fff"/><circle cx="16.66" cy="16.66" r="16.66" transform="translate(552.851 229.096)" fill="#fff"/><circle cx="16.66" cy="16.66" r="16.66" transform="translate(595.815 277.322)" fill="#fff"/><circle cx="16.66" cy="16.66" r="16.66" transform="translate(479.198 270.307)" fill="#fff"/><circle cx="7.891" cy="7.891" r="7.891" transform="translate(604.583 286.967)" fill="#2f2e41"/><circle cx="7.891" cy="7.891" r="7.891" transform="translate(929.884 149.306)" fill="#2870db"/><path d="M1043.24,324.827a22.8,22.8,0,1,1,22.8-22.8A22.8,22.8,0,0,1,1043.24,324.827Zm0-43.841a21.044,21.044,0,1,0,21.044,21.044,21.044,21.044,0,0,0-21.044-21.044Z" transform="translate(-105.465 -144.832)" fill="#2f2e41"/><circle cx="7.891" cy="7.891" r="7.891" transform="translate(877.274 376.402)" fill="#2870db"/><path d="M990.631,551.923a22.8,22.8,0,1,1,22.8-22.8,22.8,22.8,0,0,1-22.8,22.8Zm0-43.841a21.044,21.044,0,1,0,21.044,21.044,21.044,21.044,0,0,0-21.044-21.044Z" transform="translate(-105.465 -144.832)" fill="#2f2e41"/><circle cx="7.891" cy="7.891" r="7.891" transform="translate(243.334 186.132)" fill="#2870db"/><path d="M356.69,361.653a22.8,22.8,0,1,1,22.8-22.8A22.8,22.8,0,0,1,356.69,361.653Zm0-43.841a21.044,21.044,0,1,0,21.044,21.044,21.044,21.044,0,0,0-21.044-21.044Z" transform="translate(-105.465 -144.832)" fill="#2f2e41"/><circle cx="7.891" cy="7.891" r="7.891" transform="translate(561.619 237.865)" fill="#393939"/><circle cx="7.891" cy="7.891" r="7.891" transform="translate(487.966 279.075)" fill="#393939"/><path d="M569.949,246.194H568.2V155.882h348.1v1.754H569.949Z" fill="#393939"/><path d="M496.735,286.967h-1.754V198.394L273.132,194.9l.027-1.753,223.576,3.521Z" fill="#393939"/><path d="M863.245,385.17H611.6V294.858h1.754v88.559H863.245Z" fill="#393939"/><rect width="96.45" height="6.138" transform="translate(889.55 198.408)" fill="#2870db"/><rect width="96.45" height="6.138" transform="translate(889.55 215.944)" fill="#2870db"/><rect width="96.45" height="6.138" transform="translate(889.55 233.481)" fill="#2870db"/><rect width="96.45" height="6.138" transform="translate(836.941 425.504)" fill="#619df7"/><rect width="96.45" height="6.138" transform="translate(836.941 443.04)" fill="#619df7"/><rect width="96.45" height="6.138" transform="translate(836.941 460.577)" fill="#619df7"/><rect width="96.45" height="6.138" transform="translate(203 236.111)" fill="#2870db"/><rect width="96.45" height="6.138" transform="translate(203 253.647)" fill="#2870db"/><rect width="96.45" height="6.138" transform="translate(203 271.184)" fill="#2870db"/><path d="M179.456,324.019s9.179,26.124,3.53,30.143S202.05,391,202.05,391l29.654-8.038L215.465,355.5s-2.118-27.463-2.118-31.482S179.456,324.019,179.456,324.019Z" transform="translate(-105.465 -144.832)" fill="#ffb8b8"/><path d="M179.456,324.019s9.179,26.124,3.53,30.143S202.05,391,202.05,391l29.654-8.038L215.465,355.5s-2.118-27.463-2.118-31.482S179.456,324.019,179.456,324.019Z" transform="translate(-105.465 -144.832)" opacity="0.1"/><path d="M164.05,510.234s-2.679,33.492,0,50.908,6.7,65.644,6.7,65.644,0,91.1,14.736,92.438,25.454,2.679,26.794-2.679-6.7-8.038-2.679-10.717,5.359-12.057,0-22.775,0-119.231,0-119.231l25.454,68.323s2.679,56.266,5.359,64.3-2.679,22.774,6.7,24.114,20.1-6.7,25.454-9.378-8.038-2.679-5.359-4.019,10.717-5.359,8.038-6.7-5.359-65.644-5.359-65.644-7.368-137.317-16.746-142.676-15.406,3.871-15.406,3.871Z" transform="translate(-105.465 -144.832)" fill="#2f2e41"/><path d="M188.164,713.865v10.717s-12.057,29.133,0,29.133,21.435,3.019,21.435-1V716.544Z" transform="translate(-105.465 -144.832)" fill="#2f2e41"/><path d="M267.2,713.846v10.717s12.057,29.133,0,29.133-21.435,3.019-21.435-1V716.525Z" transform="translate(-105.465 -144.832)" fill="#2f2e41"/><circle cx="24.114" cy="24.114" r="24.114" transform="translate(68.632 150.384)" fill="#ffb8b8"/><path d="M190.843,364.209s6.7,20.1,17.416,16.076l10.717-4.019,18.755,128.609S223,526.31,201.561,512.913,190.843,364.209,190.843,364.209Z" transform="translate(-105.465 -144.832)" fill="#d0cde1"/><path d="M256.488,456.647l-4.019,37.511s-24.114,21.435-18.755,22.774,8.038-4.019,8.038-4.019,9.378,9.378,14.736,4.019,18.755-56.266,18.755-56.266Z" transform="translate(-105.465 -144.832)" fill="#ffb8b8"/><path d="M198.725,285.25c-5.346-.191-11.067-.286-15.574,2.6a22.8,22.8,0,0,0-5.382,5.269c-4.39,5.549-8.183,12.532-6.552,19.417l1.894-.739a12.4,12.4,0,0,1-1.2,5.313c.267-.775,1.16.479.921,1.263l-2.086,6.844a6.444,6.444,0,0,1,8.218,4.9c.238-7.95,1.063-17.066,7.512-21.72,3.252-2.347,7.368-3.064,11.328-3.7,3.653-.587,7.483-1.147,10.982.056s6.479,4.781,5.686,8.4c1.613-.556,3.418.569,4.215,2.077a10.912,10.912,0,0,1,.863,4.995c1.72,1.215,3.677-1.2,4.378-3.184,1.645-4.662,3.108-9.624,2.221-14.487s-4.849-9.511-9.793-9.527a3.432,3.432,0,0,0,.893-2.417l-4.074-.344a4.5,4.5,0,0,0,2.691-1.419C214.233,290.641,201.371,285.344,198.725,285.25Z" transform="translate(-105.465 -144.832)" fill="#2f2e41"/><path d="M154.672,468.7l18.755,8.038S209.6,482.1,209.6,467.364s-36.171-6.7-36.171-6.7L161.37,456.81Z" transform="translate(-105.465 -144.832)" fill="#ffb8b8"/><path d="M209.6,360.19l6.029-12.727s35.5,16.746,40.86,22.1,5.359,13.4,5.359,13.4l-9.378,33.492s2.679,73.682,2.679,76.362,9.378,17.416,2.679,12.057-8.038-10.717-13.4-2.679-17.416,17.416-17.416,17.416Z" transform="translate(-105.465 -144.832)" fill="#1e67d5"/><path d="M197.542,356.171s-10.906-10.687-14.831-10.032-9.284,10.032-9.284,10.032-32.152,10.717-30.813,21.435,16.076,62.965,16.076,62.965,12.057,62.965,1.34,69.663,50.908,24.114,52.247,16.076,4.019-88.419,0-100.476S197.542,356.171,197.542,356.171Z" transform="translate(-105.465 -144.832)" fill="#1e67d5"/><path d="M244.43,377.606H261s11.568,50.908,12.908,56.266,4.019,30.813,2.679,30.813-28.133-5.359-28.133-1.34Z" transform="translate(-105.465 -144.832)" fill="#1e67d5"/><path d="M158.691,369.568l-16.076,4.019-12.057,71s-4.019,18.755,2.679,20.1,25.454,12.057,25.454,12.057,2.679-20.1,8.038-20.1l-13.4-10.717,8.038-46.889Z" transform="translate(-105.465 -144.832)" fill="#1e67d5"/></g></g></svg>