<svg id="undraw_responsive_6c8s" xmlns="http://www.w3.org/2000/svg" xmlns:xlink="http://www.w3.org/1999/xlink" width="660.556" height="341.348" viewBox="0 0 660.556 341.348">
  <defs>
    <linearGradient id="linear-gradient" x1="0.5" y1="1" x2="0.5" gradientUnits="objectBoundingBox">
      <stop offset="0" stop-color="gray" stop-opacity="0.251"/>
      <stop offset="0.54" stop-color="gray" stop-opacity="0.122"/>
      <stop offset="1" stop-color="gray" stop-opacity="0.102"/>
    </linearGradient>
    <linearGradient id="linear-gradient-3" x1="0" y1="0.5" x2="1" y2="0.5" xlink:href="#linear-gradient"/>
    <linearGradient id="linear-gradient-4" x1="0" y1="0.5" x2="1" y2="0.5" xlink:href="#linear-gradient"/>
  </defs>
  <g id="Group_908" data-name="Group 908" transform="translate(146.684)" opacity="0.7">
    <path id="Path_1581" data-name="Path 1581" d="M685.417,199H341.09A11.131,11.131,0,0,0,330,210.165V447.151a11.131,11.131,0,0,0,11.09,11.165H459.515v40.907h-5.4a5.644,5.644,0,0,0-5.623,5.664v8.207h11.022v4.855H566.992v-4.855h11.022v-8.207a5.644,5.644,0,0,0-5.623-5.664h-5.079v-.354h-.347V458.316H685.417a11.131,11.131,0,0,0,11.09-11.165V210.165A11.131,11.131,0,0,0,685.417,199Z" transform="translate(-330 -199)" fill="url(#linear-gradient)"/>
  </g>
  <rect id="Rectangle_192" data-name="Rectangle 192" width="106.076" height="62.558" transform="translate(277.24 252.271)" fill="#bdbdbd"/>
  <g id="Group_909" data-name="Group 909" transform="translate(276.9 249.551)" opacity="0.1">
    <path id="Path_1582" data-name="Path 1582" d="M523.928,574.84H626.04c1.231-5.351,2.217-8.84,2.217-8.84H521.5S522.595,569.475,523.928,574.84Z" transform="translate(-521.5 -566)"/>
  </g>
  <path id="Path_1583" data-name="Path 1583" d="M230.668,3H570.52a10.948,10.948,0,0,1,10.948,10.948V223.312H219.72V13.948A10.948,10.948,0,0,1,230.668,3Z" transform="translate(-70.316 -0.96)" fill="#535461"/>
  <path id="Path_1584" data-name="Path 1584" d="M684.8,560H344.948A10.948,10.948,0,0,1,334,549.051V526H695.747v23.051A10.948,10.948,0,0,1,684.8,560Z" transform="translate(-184.596 -303.648)" fill="#bdbdbd"/>
  <circle id="Ellipse_281" data-name="Ellipse 281" cx="6.12" cy="6.12" r="6.12" transform="translate(324.158 233.232)" fill="#535461"/>
  <path id="Path_1585" data-name="Path 1585" d="M397.275,436H514a5.555,5.555,0,0,1,5.555,5.555V449.6H391.72v-8.044A5.555,5.555,0,0,1,397.275,436Z" transform="translate(-125.36 -139.53)" fill="#bdbdbd"/>
  <g id="Group_910" data-name="Group 910" transform="translate(218.082 48.36)" opacity="0.5">
    <rect id="Rectangle_193" data-name="Rectangle 193" width="224.392" height="127.672" rx="4.5" fill="url(#linear-gradient)"/>
  </g>
  <rect id="Rectangle_194" data-name="Rectangle 194" width="218.64" height="125.088" rx="4.5" transform="translate(220.958 49.298)" fill="#fff"/>
  <g id="Group_911" data-name="Group 911" transform="translate(281.864 67.256)" opacity="0.5">
    <rect id="Rectangle_195" data-name="Rectangle 195" width="24.098" height="21.691" rx="4.5" fill="#2870db"/>
  </g>
  <rect id="Rectangle_196" data-name="Rectangle 196" width="65.067" height="2.407" rx="1.204" transform="translate(313.19 67.256)" fill="#e0e0e0"/>
  <rect id="Rectangle_197" data-name="Rectangle 197" width="54.085" height="2.407" rx="1.204" transform="translate(313.19 74.491)" fill="#e0e0e0"/>
  <g id="Group_912" data-name="Group 912" transform="translate(281.864 100.997)" opacity="0.5">
    <rect id="Rectangle_198" data-name="Rectangle 198" width="24.098" height="21.691" rx="4.5" fill="#2870db"/>
  </g>
  <rect id="Rectangle_199" data-name="Rectangle 199" width="65.067" height="2.407" rx="1.204" transform="translate(313.19 100.997)" fill="#e0e0e0"/>
  <rect id="Rectangle_200" data-name="Rectangle 200" width="65.067" height="2.407" rx="1.204" transform="translate(313.19 108.225)" fill="#e0e0e0"/>
  <g id="Group_913" data-name="Group 913" transform="translate(281.864 134.737)" opacity="0.5">
    <rect id="Rectangle_201" data-name="Rectangle 201" width="24.098" height="21.691" rx="4.5" fill="#2870db"/>
  </g>
  <rect id="Rectangle_202" data-name="Rectangle 202" width="65.067" height="2.407" rx="1.204" transform="translate(313.19 134.737)" fill="#e0e0e0"/>
  <rect id="Rectangle_203" data-name="Rectangle 203" width="65.502" height="2.407" rx="1.204" transform="translate(313.19 141.965)" fill="#e0e0e0"/>
  <line id="Line_13" data-name="Line 13" y1="14.959" transform="translate(330.278 13.6)" stroke="#6c63ff" stroke-miterlimit="10" stroke-width="2"/>
  <line id="Line_14" data-name="Line 14" y1="19.631" transform="translate(330.278 34.087)" stroke="#6c63ff" stroke-miterlimit="10" stroke-width="2"/>
  <circle id="Ellipse_282" data-name="Ellipse 282" cx="2.72" cy="2.72" r="2.72" transform="translate(327.558 50.998)" fill="#6c63ff"/>
  <circle id="Ellipse_283" data-name="Ellipse 283" cx="2.72" cy="2.72" r="2.72" transform="translate(327.558 28.559)" fill="none" stroke="#fff" stroke-miterlimit="10" stroke-width="1"/>
  <line id="Line_15" data-name="Line 15" y1="14.959" transform="translate(330.278 13.6)" stroke="#2870db" stroke-miterlimit="10" stroke-width="2"/>
  <line id="Line_16" data-name="Line 16" y1="19.631" transform="translate(330.278 34.087)" stroke="#2870db" stroke-miterlimit="10" stroke-width="2"/>
  <circle id="Ellipse_284" data-name="Ellipse 284" cx="2.72" cy="2.72" r="2.72" transform="translate(327.558 50.998)" fill="#2870db"/>
  <circle id="Ellipse_285" data-name="Ellipse 285" cx="2.72" cy="2.72" r="2.72" transform="translate(327.558 28.559)" fill="none" stroke="#fff" stroke-miterlimit="10" stroke-width="1"/>
  <line id="Line_17" data-name="Line 17" y2="21.079" transform="translate(330.278 189.713)" stroke="#2870db" stroke-miterlimit="10" stroke-width="2"/>
  <line id="Line_18" data-name="Line 18" y2="19.631" transform="translate(330.278 170.674)" stroke="#2870db" stroke-miterlimit="10" stroke-width="2"/>
  <circle id="Ellipse_286" data-name="Ellipse 286" cx="2.72" cy="2.72" r="2.72" transform="translate(327.558 167.954)" fill="#2870db"/>
  <line id="Line_19" data-name="Line 19" x1="21.419" transform="translate(186.463 114.576)" stroke="#2870db" stroke-miterlimit="10" stroke-width="2"/>
  <line id="Line_20" data-name="Line 20" x1="19.631" transform="translate(206.951 114.576)" stroke="#2870db" stroke-miterlimit="10" stroke-width="2"/>
  <circle id="Ellipse_287" data-name="Ellipse 287" cx="2.72" cy="2.72" r="2.72" transform="translate(223.862 111.856)" fill="#2870db"/>
  <g id="Group_914" data-name="Group 914" transform="translate(277.58 296.13)" opacity="0.1">
    <rect id="Rectangle_204" data-name="Rectangle 204" width="106.076" height="2.04"/>
  </g>
  <g id="Group_915" data-name="Group 915" transform="translate(12.05 119.345)" opacity="0.7">
    <path id="Path_1586" data-name="Path 1586" d="M241.8,504.76h-49.23l.68-5.535c13.912-12.491,22.908-45.769,22.908-45.769a4.6,4.6,0,0,0-.592.122c-8.16,1.646-13.967,5-18.026,9.03l1.727-14.728c25.7-5.535,35.9-39.534,35.9-39.534-16.4,3.638-26.628,9.268-32.979,14.613l2.53-21.637c17.38,5.963,35.359-25.717,35.359-25.717l-.68-.143.34-.218-.517.184c-19.209-4.141-29.477,6.841-32.809,11.4l.252-2.122q-.762,2.04-1.482,4h0v.054q-2.04,5.528-3.733,10.92h0q-1.476,4.6-2.761,9.112v-.041s-.8-19.352-21.2-24.445c0,0,2.142,42.206,18.312,35.3h0c-1.5,6.12-2.72,12.008-3.781,17.727h0q-1.013,5.583-1.768,10.88l-.1.109.1-.082-.041.279h0q-.68,4.807-1.156,9.37c.313-5.861-.755-22.793-20.705-38.7,0,0-26.519,46.606,18.7,55.758l.3.258-.068-.211.408.088.184-2.394a251.18,251.18,0,0,0,.156,29.987h0c.048.68.1,1.36.143,2.006H138.372c-19,39.3,10.553,60.831,10.553,60.831h81.6C262.209,525.568,241.8,504.76,241.8,504.76ZM188.765,460.1Z" transform="translate(-132.002 -374.513)" fill="url(#linear-gradient-3)"/>
  </g>
  <path id="Path_1587" data-name="Path 1587" d="M215.628,527.2s-12.92-56.438,15.639-129.2" transform="translate(-145.781 -262.685)" fill="none" stroke="#535461" stroke-miterlimit="10" stroke-width="3" opacity="0.6"/>
  <path id="Path_1588" data-name="Path 1588" d="M140.1,563h99.957s19.719,25.159-10.88,62.558H150.3S121.744,599.719,140.1,563Z" transform="translate(-120.574 -315.489)" fill="#2870db"/>
  <path id="Path_1589" data-name="Path 1589" d="M236.165,397.25s9.934-17.679,33.734-12.24c0,0-19.672,33.5-37.4,22.528Z" transform="translate(-152.113 -258.195)" fill="#4db6ac"/>
  <path id="Path_1590" data-name="Path 1590" d="M218.988,420.34s-.768-18.081-20.488-22.84c0,0,2.04,39.439,17.679,32.979Z" transform="translate(-141.232 -262.525)" fill="#4db6ac"/>
  <path id="Path_1591" data-name="Path 1591" d="M218.324,457.6s3.638-18.944,41.717-27.1c0,0-12.144,39.18-43.471,37.609Z" transform="translate(-147.015 -273.085)" fill="#4db6ac"/>
  <path id="Path_1592" data-name="Path 1592" d="M201.785,483.667s4.005-19.808-19.794-38.167c0,0-25.839,43.974,18.686,52.243Z" transform="translate(-133.563 -277.886)" fill="#4db6ac"/>
  <path id="Path_1593" data-name="Path 1593" d="M213.528,525.934s-2.761-27.995,27.158-33.434c0,0-10.927,39.092-27.2,46.062Z" transform="translate(-146.02 -292.927)" fill="#4db6ac"/>
  <path id="Path_1594" data-name="Path 1594" d="M233,408.119S258.839,388.4,269.719,385" transform="translate(-152.273 -258.524)" fill="none" stroke="#535461" stroke-miterlimit="10" stroke-width="1" opacity="0.3"/>
  <path id="Path_1595" data-name="Path 1595" d="M216.5,467.9s31.279-33.319,43.518-37.4" transform="translate(-146.993 -273.085)" fill="none" stroke="#535461" stroke-miterlimit="10" stroke-width="1" opacity="0.3"/>
  <path id="Path_1596" data-name="Path 1596" d="M198.5,397.5s19.039,25.839,17.679,32.639" transform="translate(-141.232 -262.525)" fill="none" stroke="#535461" stroke-miterlimit="10" stroke-width="1" opacity="0.3"/>
  <path id="Path_1597" data-name="Path 1597" d="M185.5,445.5s10.2,46.238,18.359,52.358" transform="translate(-137.072 -277.886)" fill="none" stroke="#535461" stroke-miterlimit="10" stroke-width="1" opacity="0.3"/>
  <path id="Path_1598" data-name="Path 1598" d="M213.5,538.738s16.319-44.878,27.2-46.238" transform="translate(-146.033 -292.927)" fill="none" stroke="#535461" stroke-miterlimit="10" stroke-width="1" opacity="0.3"/>
  <g id="Group_916" data-name="Group 916" transform="translate(18.849 247.511)" opacity="0.1">
    <path id="Path_1599" data-name="Path 1599" d="M242.637,563H142.68c-.224.456-.442.911-.68,1.36h97.237s19.237,24.554-9.792,61.2h2.312C262.356,588.159,242.637,563,242.637,563Z" transform="translate(-142 -563)"/>
  </g>
  <rect id="Rectangle_205" data-name="Rectangle 205" width="660.556" height="22.392" transform="translate(0 309.797)" fill="#e0e0e0"/>
  <rect id="Rectangle_206" data-name="Rectangle 206" width="604.574" height="9.159" transform="translate(27.988 332.189)" fill="#e0e0e0"/>
  <rect id="Rectangle_207" data-name="Rectangle 207" width="604.574" height="3.053" transform="translate(27.988 332.189)" opacity="0.1"/>
  <line id="Line_21" data-name="Line 21" x2="4.08" transform="translate(469.333 114.576)" stroke="#2870db" stroke-miterlimit="10" stroke-width="2"/>
  <line id="Line_22" data-name="Line 22" x2="30.517" transform="translate(433.294 114.576)" stroke="#2870db" stroke-miterlimit="10" stroke-width="2"/>
  <circle id="Ellipse_288" data-name="Ellipse 288" cx="2.72" cy="2.72" r="2.72" transform="translate(430.575 111.856)" fill="#2870db"/>
  <circle id="Ellipse_289" data-name="Ellipse 289" cx="2.72" cy="2.72" r="2.72" transform="translate(463.893 111.856)" fill="none" stroke="#fff" stroke-miterlimit="10" stroke-width="1"/>
  <g id="Group_917" data-name="Group 917" transform="translate(556.71 192.127)" opacity="0.7">
    <path id="Path_1600" data-name="Path 1600" d="M996.918,591.931l.068-.1q.211-.326.415-.68l.075-.129q.2-.333.374-.68l.061-.116c.136-.265.265-.53.381-.809h0a16.194,16.194,0,0,0,.639-1.707l.068-.224c.061-.211.122-.422.177-.632l.068-.3q.068-.286.122-.578a1.843,1.843,0,0,1,.061-.326c.02-.109.061-.381.088-.578a1.5,1.5,0,0,1,.041-.333,3.6,3.6,0,0,0,.054-.625V526.734h-9.418V499.209h-11.56v27.525h-7.969V487.2H959.1v39.534h-4.345V481.55H943.2v45.184H933V582.9a16.8,16.8,0,0,0,17,16.591h32.639a17.129,17.129,0,0,0,13.763-6.84h0Q996.653,592.291,996.918,591.931Z" transform="translate(-933 -481.55)" fill="url(#linear-gradient-4)"/>
  </g>
  <rect id="Rectangle_208" data-name="Rectangle 208" width="10.88" height="67.998" transform="translate(568.27 218.272)" fill="#535461"/>
  <rect id="Rectangle_209" data-name="Rectangle 209" width="10.88" height="22.439" transform="translate(568.27 195.833)" fill="#3ad29f"/>
  <rect id="Rectangle_210" data-name="Rectangle 210" width="10.88" height="67.998" transform="translate(583.229 223.712)" fill="#535461"/>
  <rect id="Rectangle_211" data-name="Rectangle 211" width="10.88" height="22.439" transform="translate(583.229 201.273)" fill="#4d8af0"/>
  <rect id="Rectangle_212" data-name="Rectangle 212" width="10.88" height="67.998" transform="translate(601.589 235.272)" fill="#535461"/>
  <rect id="Rectangle_213" data-name="Rectangle 213" width="10.88" height="22.439" transform="translate(601.589 212.833)" fill="#f55f44"/>
  <path id="Path_1601" data-name="Path 1601" d="M821.72,352h62.558v54.058A15.98,15.98,0,0,1,868.3,422.038H837.7a15.98,15.98,0,0,1-15.979-15.979Z" transform="translate(-262.97 -112.648)" fill="#2870db"/>
  <g id="Group_918" data-name="Group 918" transform="translate(558.75 239.352)" opacity="0.1">
    <path id="Path_1602" data-name="Path 1602" d="M936,551v2.72h59.838v54.058a15.9,15.9,0,0,1-3.4,9.853,15.945,15.945,0,0,0,6.12-12.573V551Z" transform="translate(-936 -551)"/>
  </g>
</svg>
