<svg xmlns="http://www.w3.org/2000/svg" width="37" height="37" viewBox="0 0 37 37"><g transform="translate(-630 -5273)"><rect width="37" height="37" rx="18.5" transform="translate(667 5273) rotate(90)" fill="#2870db"/><path d="M144.281,164.458l9.631-8.359a.409.409,0,0,1,.268-.1h2.256a.2.2,0,0,1,.133.357l-8.927,7.75h14.918a.2.2,0,0,1,.2.2v1.53a.2.2,0,0,1-.2.2H147.644l8.927,7.75a.2.2,0,0,1-.133.357h-2.333a.2.2,0,0,1-.133-.051l-9.692-8.407a.818.818,0,0,1,0-1.234Z" transform="translate(813.686 5138.015) rotate(90)" fill="#fff" stroke="#000" stroke-width="0"/></g></svg>