<svg xmlns="http://www.w3.org/2000/svg" width="1215.215" height="1076.996" viewBox="0 0 1215.215 1076.996"><g transform="matrix(0.999, 0.052, -0.052, 0.999, -204.163, -2401.611)"><path d="M-2973.669,7620.96c53.3,25.583,261.172,90.61,367.772,308.074s526.608,99.14,614.02-108.732,45.839-408.28,45.839-408.28-46.9-282.492-369.9-361.376-548.994,69.29-548.994,69.29-192.947,89.545-231.323,276.1C-3118.646,7501.566-3026.969,7595.375-2973.669,7620.96Z" transform="translate(3482.467 -4642.665)" fill="#f6fafc"/><path d="M-2985.439,7381.8c7.237-1.635,76.955-12.615,160.847,97.139,46.046,63.708-70.982,69.721-110.385,50.461-17.031-10.091-63.708-29.645-76.323-111.015C-3015.745,7392.4-2992.676,7383.432-2985.439,7381.8Z" transform="translate(3563.329 -4317.541)" fill="#f6fafc"/></g></svg>