<svg xmlns="http://www.w3.org/2000/svg" width="439.505" height="863.955" viewBox="0 0 439.505 863.955"><g transform="translate(-205.74 -26.554)"><path d="M644.245,458.554c0,235.87-189.47,427.48-424.51,430.94l-2.12-140.97-.02-1-2.02-133.99-.01-1-1.75-115.99c-.19.01-.38.01-.57.01a38.579,38.579,0,0,1-6.49-.55v-74.89a37.334,37.334,0,0,1,5.92-.55l-1.75-115.99-.01-1-2.02-133.99-.02-1-2.12-140.97q3.24-.06,6.49-.06C451.275,27.554,644.245,220.524,644.245,458.554Z" fill="none"/><path d="M644.245,458.554c0,235.87-189.47,427.48-424.51,430.94l-2.12-140.97-.02-1-2.02-133.99-.01-1-1.75-115.99c-.19.01-.38.01-.57.01a38.579,38.579,0,0,1-6.49-.55v-74.89a37.334,37.334,0,0,1,5.92-.55l-1.75-115.99-.01-1-2.02-133.99-.02-1-2.12-140.97q3.24-.06,6.49-.06C451.275,27.554,644.245,220.524,644.245,458.554Z" fill="none" stroke="#ddedfc" stroke-width="2"/><path d="M503.245,458.554c0,158.7-127.48,287.63-285.63,289.97l-.02-1-2.02-133.99-.01-1-1.75-115.99c-.19.01-.38.01-.57.01a38.579,38.579,0,0,1-6.49-.55v-74.89a37.334,37.334,0,0,1,5.92-.55l-1.75-115.99-.01-1-2.02-133.99-.02-1c1.45-.02,2.91-.03,4.37-.03C373.4,168.554,503.245,298.394,503.245,458.554Z" fill="none"/><path d="M502.245,458.554c0,158.16-127.05,286.64-284.65,288.97l-2.02-133.99-.01-1-1.75-115.99c-.19.01-.38.01-.57.01a38.579,38.579,0,0,1-6.49-.55v-74.89a37.334,37.334,0,0,1,5.92-.55l-1.75-115.99-.01-1-2.02-133.99q2.175-.03,4.35-.03C372.855,169.554,502.245,298.944,502.245,458.554Z" fill="none" stroke="#ddedfc" stroke-width="2"/><path d="M368.245,458.554a154.992,154.992,0,0,1-152.67,154.98l-.01-1-1.75-115.99c-.19.01-.38.01-.57.01a38.579,38.579,0,0,1-6.49-.55v-74.89a37.334,37.334,0,0,1,5.92-.55l-1.75-115.99-.01-1c.77-.01,1.55-.02,2.33-.02A155.005,155.005,0,0,1,368.245,458.554Z" fill="none"/><path d="M367.245,458.554a154,154,0,0,1-151.68,153.98l-1.75-115.99c-.19.01-.38.01-.57.01a38.579,38.579,0,0,1-6.49-.55v-74.89a37.334,37.334,0,0,1,5.92-.55l-1.75-115.99c.77-.01,1.54-.02,2.32-.02A154,154,0,0,1,367.245,458.554Z" fill="none" stroke="#ddedfc" stroke-width="2"/><line x1="0.01" y1="0.56" transform="translate(219.735 889.494)" fill="none" stroke="#000" stroke-miterlimit="10" stroke-width="1"/><path d="M259.118,458.554a49.186,49.186,0,0,1-49.19,49.19v-98.38A49.186,49.186,0,0,1,259.118,458.554Z" fill="#cce1ff"/><path d="M230.258,458.554a20.325,20.325,0,0,1-20.33,20.32v-40.64A20.325,20.325,0,0,1,230.258,458.554Z" fill="#2870db"/></g></svg>