<?xml version="1.0" encoding="utf-8"?>
<!-- Generator: Adobe Illustrator 25.0.0, SVG Export Plug-In . SVG Version: 6.00 Build 0)  -->
<svg version="1.1" id="Layer_1" xmlns="http://www.w3.org/2000/svg" xmlns:xlink="http://www.w3.org/1999/xlink" x="0px" y="0px"
	 viewBox="0 0 439.5 864" style="enable-background:new 0 0 439.5 864;" xml:space="preserve">
<style type="text/css">
	.st0{fill:none;}
	.st1{fill:none;stroke:#DDEDFC;stroke-width:2;}
	.st2{fill:none;stroke:#000000;stroke-miterlimit:10;}
	.st3{fill:#CCE1FF;}
	.st4{fill:#2870DB;}
</style>
<g transform="translate(-205.74 -26.554)">
	<path class="st0" d="M637.8,27.6c2.2,0,4.3,0,6.5,0.1l-2.1,141l0,1l-2,134l0,1l-1.8,116c2,0,4,0.2,5.9,0.5V496
		c-2.1,0.4-4.3,0.5-6.5,0.5c-0.2,0-0.4,0-0.6,0l-1.8,116l0,1l-2,134l0,1l-2.1,141c-235-3.5-424.5-195.1-424.5-430.9
		C206.8,220.5,399.7,27.6,637.8,27.6z"/>
	<path class="st1" d="M637.8,27.6c2.2,0,4.3,0,6.5,0.1l-2.1,141l0,1l-2,134l0,1l-1.8,116c2,0,4,0.2,5.9,0.5V496
		c-2.1,0.4-4.3,0.5-6.5,0.5c-0.2,0-0.4,0-0.6,0l-1.8,116l0,1l-2,134l0,1l-2.1,141c-235-3.5-424.5-195.1-424.5-430.9
		C206.8,220.5,399.7,27.6,637.8,27.6z"/>
	<path class="st0" d="M637.8,168.6c1.5,0,2.9,0,4.4,0l0,1l-2,134l0,1l-1.8,116c2,0,4,0.2,5.9,0.5V496c-2.1,0.4-4.3,0.5-6.5,0.5
		c-0.2,0-0.4,0-0.6,0l-1.8,116l0,1l-2,134l0,1c-158.1-2.3-285.6-131.3-285.6-290C347.8,298.4,477.6,168.6,637.8,168.6z"/>
	<path class="st1" d="M637.8,169.6c1.5,0,2.9,0,4.4,0l-2,134l0,1l-1.8,116c2,0,4,0.2,5.9,0.5V496c-2.1,0.4-4.3,0.5-6.5,0.5
		c-0.2,0-0.4,0-0.6,0l-1.8,116l0,1l-2,134c-157.6-2.3-284.6-130.8-284.6-289C348.8,298.9,478.1,169.6,637.8,169.6z"/>
	<path class="st0" d="M637.8,303.6c0.8,0,1.6,0,2.3,0l0,1l-1.8,116c2,0,4,0.2,5.9,0.5V496c-2.1,0.4-4.3,0.5-6.5,0.5
		c-0.2,0-0.4,0-0.6,0l-1.8,116l0,1c-84.7-1.3-152.7-70.3-152.7-155C482.8,373,552.2,303.6,637.8,303.6z"/>
	<path class="st1" d="M637.8,304.6c0.8,0,1.6,0,2.3,0l-1.8,116c2,0,4,0.2,5.9,0.5V496c-2.1,0.4-4.3,0.5-6.5,0.5c-0.2,0-0.4,0-0.6,0
		l-1.8,116c-84.1-1.3-151.7-69.8-151.7-154C483.8,373.5,552.7,304.6,637.8,304.6z"/>
	<line class="st2" x1="631.3" y1="889.5" x2="631.3" y2="890.1"/>
	<path class="st3" d="M591.9,458.5c0-27.2,22-49.2,49.2-49.2v98.4c0,0,0,0,0,0C613.9,507.7,591.9,485.7,591.9,458.5
		C591.9,458.6,591.9,458.5,591.9,458.5z"/>
	<path class="st4" d="M641.1,438.2v40.6c0,0,0,0,0,0c-11.2,0-20.3-9.1-20.3-20.3C620.7,447.3,629.8,438.2,641.1,438.2z"/>
</g>
</svg>
