<svg xmlns="http://www.w3.org/2000/svg" xmlns:xlink="http://www.w3.org/1999/xlink" width="1920" height="492.786" viewBox="0 0 1920 492.786"><defs><linearGradient id="a" x1="1" y1="1" x2="0" y2="1" gradientUnits="objectBoundingBox"><stop offset="0" stop-color="#2870db"/><stop offset="1" stop-color="#cce1ff"/></linearGradient></defs><g transform="translate(0 -59.647)" opacity="0.18"><path d="M1920,534.981l-.177-397.124C1791.823,158.391,1664,34.718,1536,42.553S1280,93.6,1152,172.177s-256,75.918-384-7.988S512,104.03,384,235.43,128,399.241,0,332.665V534.981Z" transform="translate(0 17.452)" opacity="0.4" fill="url(#a)"/><path d="M1920,506.809l-.177-360.594c-128,31.076-383.269-65.623-383.269-65.623S1280,86.056,1152,88.517s-256,37.668-384,105.62-256,88.525-384,61.717S128,240.637,0,290.625V506.809Z" transform="translate(0 45.624)" opacity="0.4" fill="url(#a)"/><path d="M1920,523.859l-.177-380.477C1791.823,154.376,1664,23.052,1536,36.172S1280,80.6,1152,130.1,896,193.52,768,171.864s-256,13.07-384,104.177S128,371.731,0,289.787V523.859Z" transform="translate(0 28.574)" opacity="0.4" fill="url(#a)"/><path d="M1920,540.6l-.639-340.711c-128,26.25-248.465-111.841-376.465-104.531s-262.9,1-390.9,71.1-256,68.246-384-5.588S512,100.09,384,200.013,128,340.261,0,320.99V540.6Z" transform="translate(0 11.829)" opacity="0.4" fill="url(#a)"/><path d="M1920,552.433l-29.9-242.312c-128,45.026-79.686-165.012-207.686-147.582S1280,128.271,1152,145.16a2225.676,2225.676,0,0,1-384,17.378q-192-7.956-384,87.44T0,326.248V552.433Z" transform="translate(0 0)" opacity="0.4" fill="url(#a)"/></g></svg>