<svg xmlns="http://www.w3.org/2000/svg" width="650.782" height="357.858" viewBox="0 0 650.782 357.858"><g transform="translate(0.041)"><rect width="263.889" height="54.296" transform="translate(278.636 56.401)" fill="none" stroke="#3f3d56" stroke-miterlimit="10" stroke-width="1"/><path d="M250.224,358.192C257.749,346.433,272,338.5,288.334,338.5c24.183,0,43.787,17.382,43.787,38.824,0,13.709-8.014,25.759-20.114,32.667" transform="translate(-129.066 -224.665)" fill="none" stroke="#3f3d56" stroke-miterlimit="10" stroke-width="1"/><rect width="263.889" height="54.296" transform="translate(259.953 66.91)" fill="#2870db"/><circle cx="4.087" cy="4.087" r="4.087" transform="translate(89.049 6.922)" fill="#2870db"/><circle cx="4.087" cy="4.087" r="4.087" transform="translate(103.061 6.922)" fill="#2870db"/><circle cx="4.087" cy="4.087" r="4.087" transform="translate(117.073 6.922)" fill="#2870db"/><rect width="490.414" height="318.769" transform="translate(82.044 0.5)" fill="none" stroke="#3f3d56" stroke-miterlimit="10" stroke-width="1"/><line x2="490.414" transform="translate(82.044 18.21)" fill="none" stroke="#3f3d56" stroke-miterlimit="10" stroke-width="1"/><circle cx="4.087" cy="4.087" r="4.087" transform="translate(90.217 5.171)" fill="none" stroke="#3f3d56" stroke-miterlimit="10" stroke-width="1"/><circle cx="4.087" cy="4.087" r="4.087" transform="translate(104.229 5.171)" fill="none" stroke="#3f3d56" stroke-miterlimit="10" stroke-width="1"/><circle cx="4.087" cy="4.087" r="4.087" transform="translate(118.241 5.171)" fill="none" stroke="#3f3d56" stroke-miterlimit="10" stroke-width="1"/><path d="M62.632,331.2a12.622,12.622,0,1,0-15.553-18.626l4.727,4.467-6.073-1.888a12.574,12.574,0,0,0,.25,9.616,12.377,12.377,0,0,0,1.841,2.966A12.62,12.62,0,0,0,62.632,331.2Z" transform="translate(-43.615 -211.568)" fill="#2870db"/><path d="M134.675,360.928c-4.609-3.234-4.61-10.023-3.465-15.536s2.893-11.527.294-16.522c-3.735-7.178-13.553-7.61-21.609-8.377a75.986,75.986,0,0,1-17.543-3.8,20.5,20.5,0,0,1-6.419-3.225c-2.684-2.194-4.259-5.431-5.729-8.571Q72.858,289.2,66.257,273.18" transform="translate(-52.504 -197.48)" fill="none" stroke="#3f3d56" stroke-miterlimit="10" stroke-width="1"/><path d="M61.29,328.513a12.622,12.622,0,1,0-15.553-18.626l4.727,4.467-6.073-1.887a12.574,12.574,0,0,0,.25,9.616,12.377,12.377,0,0,0,1.841,2.966,12.619,12.619,0,0,0,14.808,3.464Z" transform="translate(-43.056 -210.451)" fill="none" stroke="#3f3d56" stroke-miterlimit="10" stroke-width="1"/><path d="M46.809,273.144a12.607,12.607,0,0,1,1.01-12.065l5.027,3.735-3.1-6.013a12.62,12.62,0,1,1-2.934,14.343Z" transform="translate(-43.96 -190.086)" fill="#2870db"/><path d="M45.02,269.567A12.607,12.607,0,0,1,46.03,257.5l5.027,3.735-3.1-6.013a12.62,12.62,0,1,1-2.934,14.343Z" transform="translate(-43.215 -188.597)" fill="none" stroke="#3f3d56" stroke-miterlimit="10" stroke-width="1"/><path d="M125.77,339.78a12.62,12.62,0,0,0-7.492-23.932l2.384,4.621-5.085-3.78-.032.013A12.621,12.621,0,0,0,125.77,339.78Z" transform="translate(-69.89 -215.142)" fill="#2870db"/><path d="M123.832,336.276a12.62,12.62,0,0,0-7.492-23.932l2.384,4.621-5.085-3.78-.032.013a12.621,12.621,0,1,0,10.225,23.078Z" transform="translate(-69.083 -213.684)" fill="none" stroke="#3f3d56" stroke-miterlimit="10" stroke-width="1"/><path d="M143.361,382.238a12.615,12.615,0,1,0-5.091-8.814l9.918,2.211-8.654,2.081A12.5,12.5,0,0,0,143.361,382.238Z" transform="translate(-82.443 -233.38)" fill="#57b894"/><path d="M142.019,379.554a12.615,12.615,0,1,0-5.091-8.814l9.918,2.211-8.654,2.081a12.5,12.5,0,0,0,3.826,4.522Z" transform="translate(-81.884 -232.263)" fill="#2870db" stroke="#3f3d56" stroke-miterlimit="10" stroke-width="1"/><path d="M1080.016,585.958a12.151,12.151,0,1,0,4.869-22.847l-.575,6.235-2.179-5.722a12.106,12.106,0,0,0-7.135,5.9,11.918,11.918,0,0,0-1.153,3.156A12.148,12.148,0,0,0,1080.016,585.958Z" transform="translate(-471.722 -318.13)" fill="#2870db"/><path d="M1092.022,654.691c-.289-5.413,4.854-9.447,9.71-11.855s10.45-4.658,12.69-9.594c3.218-7.094-2.288-14.788-6.493-21.345a73.162,73.162,0,0,1-7.542-15.548,19.733,19.733,0,0,1-1.371-6.778c.068-3.337,1.584-6.452,3.089-9.432q7.52-14.886,15.737-29.407" transform="translate(-479.396 -312.99)" fill="none" stroke="#3f3d56" stroke-miterlimit="10" stroke-width="1"/><path d="M1081.256,583.348a12.151,12.151,0,1,0,4.868-22.847l-.575,6.235-2.178-5.722a12.105,12.105,0,0,0-7.135,5.9,11.918,11.918,0,0,0-1.153,3.156A12.148,12.148,0,0,0,1081.256,583.348Z" transform="translate(-472.238 -317.044)" fill="none" stroke="#3f3d56" stroke-miterlimit="10" stroke-width="1"/><path d="M1114.6,539.51a12.137,12.137,0,0,1,9.739-6.4l.157,6.027,2.712-5.923a12.149,12.149,0,1,1-12.608,6.3Z" transform="translate(-488.203 -305.655)" fill="#2870db"/><path d="M1116.246,536.029a12.136,12.136,0,0,1,9.739-6.4l.157,6.027,2.712-5.923a12.149,12.149,0,1,1-12.608,6.3Z" transform="translate(-488.89 -304.206)" fill="none" stroke="#3f3d56" stroke-miterlimit="10" stroke-width="1"/><path d="M1111.033,638.879a12.149,12.149,0,0,0,13.677-19.894l-2.084,4.552-.158-6.1a.215.215,0,0,0-.029-.016,12.15,12.15,0,0,0-11.407,21.457Z" transform="translate(-484.628 -340.152)" fill="#2870db"/><path d="M1112.533,635.33a12.149,12.149,0,0,0,13.677-19.894l-2.084,4.552-.157-6.1a.217.217,0,0,0-.029-.016,12.15,12.15,0,1,0-11.407,21.457Z" transform="translate(-485.253 -338.675)" fill="none" stroke="#3f3d56" stroke-miterlimit="10" stroke-width="1"/><path d="M1089.324,677.428a12.144,12.144,0,1,0,3.652-9.093l4.218,8.826-6.718-5.319a12.036,12.036,0,0,0-1.152,5.585Z" transform="translate(-478.275 -360.495)" fill="#2870db"/><path d="M1090.564,674.817a12.144,12.144,0,1,0,3.652-9.093l4.218,8.827-6.718-5.319A12.033,12.033,0,0,0,1090.564,674.817Z" transform="translate(-478.791 -359.409)" fill="none" stroke="#3f3d56" stroke-miterlimit="10" stroke-width="1"/><path d="M145.632,245.2a12.622,12.622,0,1,0-15.553-18.626l4.727,4.467-6.073-1.888a12.574,12.574,0,0,0,.25,9.616,12.377,12.377,0,0,0,1.841,2.966A12.619,12.619,0,0,0,145.632,245.2Z" transform="translate(-78.157 -175.777)" fill="#2870db"/><path d="M168.933,227.465c-2.684-2.195-4.258-5.431-5.729-8.571q-7.347-15.69-13.947-31.714" transform="translate(-87.046 -161.689)" fill="none" stroke="#3f3d56" stroke-miterlimit="10" stroke-width="1"/><path d="M144.29,242.513a12.622,12.622,0,1,0-15.553-18.626l4.727,4.467-6.073-1.887a12.574,12.574,0,0,0,.25,9.616,12.378,12.378,0,0,0,1.841,2.966A12.619,12.619,0,0,0,144.29,242.513Z" transform="translate(-77.599 -174.66)" fill="none" stroke="#3f3d56" stroke-miterlimit="10" stroke-width="1"/><path d="M129.81,187.144a12.607,12.607,0,0,1,1.01-12.065l5.027,3.735-3.1-6.013a12.62,12.62,0,1,1-2.934,14.343Z" transform="translate(-78.502 -154.295)" fill="#2870db"/><path d="M128.021,183.567a12.607,12.607,0,0,1,1.01-12.065l5.027,3.735-3.1-6.013a12.62,12.62,0,1,1-2.934,14.343Z" transform="translate(-77.758 -152.806)" fill="none" stroke="#3f3d56" stroke-miterlimit="10" stroke-width="1"/><line y2="301.512" transform="translate(236.014 18.21)" fill="none" stroke="#3f3d56" stroke-miterlimit="10" stroke-width="1"/><rect width="85.822" height="11.677" transform="translate(291.188 166.453)" fill="#f2f2f2"/><rect width="85.822" height="11.677" transform="translate(426.052 166.453)" fill="#f2f2f2"/><rect width="85.822" height="11.677" transform="translate(295.859 160.614)" fill="none" stroke="#3f3d56" stroke-miterlimit="10" stroke-width="1"/><rect width="85.822" height="11.677" transform="translate(291.188 256.946)" fill="#f2f2f2"/><rect width="85.822" height="11.677" transform="translate(295.859 251.107)" fill="none" stroke="#3f3d56" stroke-miterlimit="10" stroke-width="1"/><rect width="220.686" height="11.677" transform="translate(291.48 210.531)" fill="#f2f2f2"/><rect width="220.686" height="11.677" transform="translate(296.151 205.861)" fill="none" stroke="#3f3d56" stroke-miterlimit="10" stroke-width="1"/><rect width="85.822" height="11.677" transform="translate(430.722 160.614)" fill="none" stroke="#3f3d56" stroke-miterlimit="10" stroke-width="1"/><path d="M974.042,355.9a11.982,11.982,0,0,0,.7,1.835,30.921,30.921,0,0,1,.381,23.275,45.125,45.125,0,0,1,6.279.37,13.289,13.289,0,0,0,6.2-.684,6.3,6.3,0,0,0,3.923-4.739c.383-2.923-1.745-5.473-3.612-7.691-1.9-2.261-3.742-4.754-4.305-7.7-.619-3.241.262-7.041-1.785-9.566a1.979,1.979,0,0,0-.68-.581,7.816,7.816,0,0,0-5.07.136C974.375,351.512,973.623,354.045,974.042,355.9Z" transform="translate(-430.253 -229.475)" fill="#3f3d56"/><path d="M1061.508,708.5a14.709,14.709,0,0,1-.688,2.865s-2.121,4.882-10.846,3.565c-5.7-.861-5.661-3.532-4.716-5.6a13.339,13.339,0,0,1,1.556-2.422c.848-1.146.764-5.519,1.062-9.507s2.1-4.194,2.1-4.194l.107,4.49c3.4-4.457,5.773.764,5.773.764s4.831.1,4.24-2.376c-.629-2.638-1.569-6.815-1.569-6.815s2.338,1.085,2.76,1.849-.084,10.994-.466,11.969a6.966,6.966,0,0,0,.553,4.372A1.666,1.666,0,0,1,1061.508,708.5Z" transform="translate(-459.741 -370.645)" fill="#3f3d56"/><path d="M1063.309,691.285a4.757,4.757,0,0,1-3.326,4.533,6.406,6.406,0,0,1-5.595-.853,3.284,3.284,0,0,1-1.383-3.079l.135-1.128.489-4.113.672-5.666s7.23-3.682,6.748-2.292c-.181.52.219,2.857.792,5.582.407,1.948.9,4.092,1.337,5.911A4.706,4.706,0,0,1,1063.309,691.285Z" transform="translate(-463.154 -366.111)" fill="#fbbebe"/><path d="M1052.26,697.762s6.26-7.353,11.385.669l-.859,5.139H1052.26Z" transform="translate(-462.853 -372.899)" opacity="0.1"/><path d="M1052.26,698.635s6.26-7.353,11.385.668l-.859,5.139H1052.26Z" transform="translate(-462.853 -373.262)" fill="#3f3d56"/><circle cx="0.637" cy="0.637" r="0.637" transform="translate(596.907 328.634)" fill="#f2f2f2"/><circle cx="0.637" cy="0.637" r="0.637" transform="translate(588.769 327.613)" fill="#f2f2f2"/><circle cx="0.637" cy="0.637" r="0.637" transform="translate(594.712 332.949)" fill="#f2f2f2"/><circle cx="0.637" cy="0.637" r="0.637" transform="translate(589.154 332.2)" fill="#f2f2f2"/><circle cx="0.637" cy="0.637" r="0.637" transform="translate(595.944 330.927)" fill="#f2f2f2"/><circle cx="0.637" cy="0.637" r="0.637" transform="translate(588.769 329.907)" fill="#f2f2f2"/><circle cx="0.637" cy="0.637" r="0.637" transform="translate(594.076 335.316)" fill="#f2f2f2"/><circle cx="0.637" cy="0.637" r="0.637" transform="translate(589.154 334.494)" fill="#f2f2f2"/><path d="M971.741,724.244l-8.658,2.928s-4.584-4.584-3.311-5.984c.542-.6,1.016-2.585,1.378-4.668.117-.657.222-1.327.313-1.963.3-2.07.474-3.81.474-3.81s10.059-4.839,8.4,0a11.917,11.917,0,0,0-.476,4.232,28.093,28.093,0,0,0,.537,4.238A40.371,40.371,0,0,0,971.741,724.244Z" transform="translate(-424.268 -378.689)" fill="#fbbebe"/><path d="M971.741,729.892l-8.658,2.929s-4.584-4.584-3.311-5.984c.542-.6,1.016-2.585,1.378-4.668a9.052,9.052,0,0,1,1.011,2.822c7.479,4.108,7.607,1.655,7.607,1.655a4.546,4.546,0,0,1,.634-1.78,40.362,40.362,0,0,0,1.339,5.027Z" transform="translate(-424.268 -384.338)" opacity="0.1"/><path d="M962.842,736.237s-1.5,1.113-5.888,1.273a23.15,23.15,0,0,0-3.425.386,42.788,42.788,0,0,1-14.046.379,30.458,30.458,0,0,1-3.572-.7c-4.52-1.243-1.082-4.1-1.082-4.1s.216-.188.591-.471a12.341,12.341,0,0,1,4.981-2.363c2.832-.446,5.442-5.475,5.442-5.475l1.783-3.216c2.768-2.386,3.726,3.216,3.726,3.216,7.479,4.108,7.607,1.655,7.607,1.655.415-2.2,1.179-2.2,1.179-2.2s1.864,5.019,2.539,6.272a1.235,1.235,0,0,0,.165.255C963.288,731.589,962.842,736.237,962.842,736.237Z" transform="translate(-413.46 -383.997)" fill="#3f3d56"/><circle cx="0.637" cy="0.637" r="0.637" transform="translate(537.222 342.626)" fill="#f2f2f2"/><circle cx="0.637" cy="0.637" r="0.637" transform="translate(533.576 344.408)" fill="#f2f2f2"/><circle cx="0.637" cy="0.637" r="0.637" transform="translate(535.536 343.495)" fill="#f2f2f2"/><circle cx="0.637" cy="0.637" r="0.637" transform="translate(531.524 345.459)" fill="#f2f2f2"/><path d="M971.7,710.747a11.918,11.918,0,0,0-.476,4.232c-2.259-.759-5.959-.627-8.4-.423.3-2.07.474-3.81.474-3.81S973.36,705.908,971.7,710.747Z" transform="translate(-425.633 -378.689)" opacity="0.1"/><path d="M1062.3,684.269c-3.13,3.069-6.122,3.26-8.213,2.376l.672-5.666s7.23-3.682,6.748-2.292C1061.326,679.207,1061.724,681.544,1062.3,684.269Z" transform="translate(-463.611 -366.111)" opacity="0.1"/><path d="M964.8,509.451s-4.966,2.8-5.858,8.276-2.419,12.478-3.565,13.752-4.711,5.348-3.311,7.513,1.655,9.55,1.655,9.55-.509,6.621.891,8.786,2.547,15.916-.509,19.991c0,0-1.019,9.422-.637,10.314s-1.655,3.183-1.019,5.093,3.693,37.053,3.31,38.454c0,0,9.677-1.4,12.224.891a25.084,25.084,0,0,0,0-6.494c-.509-2.674.382-13.242,1.528-15.916s1.4-12.86,1.019-13.879c0,0,2.037-9.04,1.273-10.823s3.311-18.208,3.311-18.208,2.037-3.947,1.528-4.457c0,0,3.311-2.165,2.929-3.82s3.056-3.565,3.056-3.565,3.056,7.513,4.075,8.659,1.059,8.531,2.312,10.059,2.909,9.55,4.564,11.714,8.276,7.894,9.3,14.388c0,0,5.984,9.3,5.73,12.224s6.748,8.276,13.5-1.655a8.823,8.823,0,0,1-3.565-7.258c0-4.966-5.348-20.882-5.348-20.882s-3.056-4.457-1.91-6.621.127-8.531.127-8.531l2.419-3.947s.382-3.82.764-7.767-2.292-8.276-1.019-10.186-.509-11.453-.509-11.453-1.585-16.449-3.947-17.451S964.8,509.451,964.8,509.451Z" transform="translate(-421.022 -295.81)" fill="#3f3d56"/><path d="M981.607,441.657s-2.615.3-5.791.6c-4.594.433-10.362.871-11.05.42-1.161-.764,0-10.441,0-10.441s.4-10.568.018-17.953c-.311-5.992,3.657-10.393,5.162-11.839.351-.336.568-.512.568-.512l1.273,1.019,7.258,12.351Z" transform="translate(-426.226 -251.063)" fill="#fbbebe"/><path d="M1022.36,385.538l-7.131,4.329-11.714,8.913s-12.1-6.366-9.04-10.059a5.726,5.726,0,0,0,1.118-2.5c.919-4.253-1.118-10.362-1.118-10.362s15.937-21.521,15.025-4.839c-.367,6.7,1.637,10.362,4.166,12.343C1017.432,386.315,1022.36,385.538,1022.36,385.538Z" transform="translate(-438.598 -235.562)" fill="#fbbebe"/><path d="M1022.36,385.538l-7.131,4.329-11.714,8.913s-12.1-6.366-9.04-10.059a5.726,5.726,0,0,0,1.118-2.5c.919-4.253-1.118-10.362-1.118-10.362s15.937-21.521,15.025-4.839c-.367,6.7,1.637,10.362,4.166,12.343C1017.432,386.315,1022.36,385.538,1022.36,385.538Z" transform="translate(-438.598 -235.562)" opacity="0.1"/><ellipse cx="14.746" cy="15.623" rx="14.746" ry="15.623" transform="translate(547.138 115.215)" opacity="0.1"/><ellipse cx="14.746" cy="15.623" rx="14.746" ry="15.623" transform="translate(547.138 114.706)" fill="#fbbebe"/><path d="M1022.36,398.856l-7.131,4.329-11.714,8.913s-12.1-6.366-9.04-10.059a5.725,5.725,0,0,0,1.118-2.5c13.344,11.409,17.4-.4,18.073-2.857C1017.432,399.632,1022.36,398.856,1022.36,398.856Z" transform="translate(-438.598 -248.879)" opacity="0.1"/><path d="M985.408,441.657s-2.615.3-5.791.6c-.125-2.74-.54-5.839-.464-7.729.127-3.183.127-3.565-.891-5.348s-.891-3.183-.764-5.475c.122-2.2-.458-2.638-2.524-6.145l-.278-.476c-1.014-1.747-1.3-4.907-1.314-7.892a.073.073,0,0,0,0-.033c0-.711.01-1.411.035-2.078,0-.028,0-.056,0-.084.074-2.017.239-3.736.326-4.553.351-.336.568-.512.568-.512l1.273,1.019,7.258,12.351Z" transform="translate(-430.026 -251.063)" opacity="0.1"/><path d="M1020.9,400.356c-.01-.005,1.538,1.165,1.528,1.163-4.609-1.989-7.225,8.029-7.925,11.182-.13.581-.194.927-.194.927s.082.845.183,2.19c.344,4.5.935,14.584-.438,17.037a3.8,3.8,0,0,0-.328.817,17.222,17.222,0,0,0-.158,5.9,59.151,59.151,0,0,0,1.123,6.649s3.056,7.767,1.783,12.86a18.9,18.9,0,0,0-.372,5.776,34.175,34.175,0,0,0,.807,5.269c.12.507.2.8.2.8q-2.88.985-5.63,1.635a54.623,54.623,0,0,1-10.889,1.474,48.345,48.345,0,0,1-31.389-9.952c-.214-.178-.374-.318-.476-.415-1.783-1.655,1.655-2.929,1.273-4.075s1.742-3.693,1.742-3.693-.469-4.2,1.441-5.093,3.311-3.947,4.388-6.494-.186-9.168-.059-12.351.127-3.565-.891-5.348-.891-3.183-.764-5.475c.122-2.2-.458-2.638-2.524-6.145l-.278-.476c-1.014-1.747.566-4.756.556-7.741,0-.01.586.01.584,0,0-.711-1.193-1.668-1.168-2.335,0-.028-.584-.556-.584-.584a18.914,18.914,0,0,0-.279-4.492c10.186-5.221,12.606.219,12.606.219,14.9,12.822,18.279-3.2,18.279-3.2,8.108-2.771,18.774,4.693,19.382,5.126Z" transform="translate(-427.873 -248.499)" fill="#55536e"/><path d="M964.686,466.986s-1.274,6.8,2.411,10.594a4.145,4.145,0,0,0,4.8.824A6.5,6.5,0,0,0,975,475.763C976.012,473.5,972.835,462.465,964.686,466.986Z" transform="translate(-426.318 -277.689)" fill="#fbbebe"/><path d="M1046.5,447.145a3.8,3.8,0,0,0-.328.817l.583-14.887.183-2.967C1047.278,434.61,1047.868,444.693,1046.5,447.145Z" transform="translate(-460.317 -262.79)" opacity="0.1"/><path d="M1036.372,490.31a18.893,18.893,0,0,0-.372,5.776c-.825,1.495-1.531,2.763-1.989,3.588l-.568,1.014a24.054,24.054,0,0,0-2.065,3.1,5.991,5.991,0,0,0-.863,2.519c0,1.958-1.974,15.01-11.332,11.763-6.043-2.1-2.185-8.518,1.306-12.807a47.947,47.947,0,0,1,3.723-4.064s1.08-1.375,2.116-2.814a17.075,17.075,0,0,0,1.831-2.916c.446-1.273,3.385-6.876,3.385-6.876s2.918-6.176,2.282-9.04a55.091,55.091,0,0,1-.359-8.75,59.137,59.137,0,0,0,1.123,6.649S1037.645,485.217,1036.372,490.31Z" transform="translate(-447.77 -279.725)" opacity="0.1"/><path d="M1042.171,405.539s4.584,3.183,4.456,11.46-1.655,22.6-1.655,22.6l-.955,8.913s-1.21,3.629-1.019,4.711-10,19.227-10,19.227-2.929,3.662-2.929,5.619-1.974,15.009-11.332,11.762,5.03-16.871,5.03-16.871,3.5-4.457,3.947-5.73,3.387-6.876,3.387-6.876,2.917-6.175,2.281-9.04-.255-13.266-.255-13.266l.637-16.274.255-4.138S1036.374,403.884,1042.171,405.539Z" transform="translate(-447.585 -252.507)" fill="#fbbebe"/><path d="M977.074,455.734l6.948-2.524a3.289,3.289,0,0,1,3.381.7l9.221,8.709s.509,1.4-.17,1.336-10.611-9.994-10.611-9.994L976,457.271h0A1.635,1.635,0,0,1,977.074,455.734Z" transform="translate(-431.114 -272.322)" fill="#2870db"/><path d="M943.849,324.216l9.55-3.46-10.61-9.994-9.847,3.31Z" transform="translate(-388.058 -129.123)" fill="#4b4b5b"/><circle cx="0.849" cy="0.849" r="0.849" transform="translate(540.596 222.002)" fill="#f2f2f2"/><circle cx="0.849" cy="0.849" r="0.849" transform="translate(534.824 232.909)" fill="#f2f2f2"/><circle cx="0.849" cy="0.849" r="0.849" transform="translate(580.935 236.875)" fill="#f2f2f2"/><circle cx="0.849" cy="0.849" r="0.849" transform="translate(585.736 252.284)" fill="#f2f2f2"/><circle cx="0.849" cy="0.849" r="0.849" transform="translate(583.868 247.947)" fill="#f2f2f2"/><circle cx="0.849" cy="0.849" r="0.849" transform="translate(582.243 242.411)" fill="#f2f2f2"/><circle cx="0.849" cy="0.849" r="0.849" transform="translate(537.519 227.166)" fill="#f2f2f2"/><circle cx="0.849" cy="0.849" r="0.849" transform="translate(531.457 238.573)" fill="#f2f2f2"/><path d="M1024.946,401.51l0,.008c-4.609-1.989-7.225,8.029-7.925,11.182l-7.24-10.362s-2.969,4.752-12.562,5.475-11.926-7.3-11.926-7.3c-1.317-.1-7.278,10.63-9.443,14.482l-.278-.476c-1.014-1.747-1.3-4.907-1.314-7.892a.074.074,0,0,0,0-.033c.008-.693.02-1.388.036-2.078,0-.028,0-.056,0-.084.1-2.827.385-5.065.385-5.065,10.186-5.221,12.606.219,12.606.219,14.9,12.822,18.279-3.2,18.279-3.2C1013.673,393.614,1024.339,401.078,1024.946,401.51Z" transform="translate(-430.39 -248.499)" fill="#2870db"/><path d="M964.293,565.065c.127.318,10.823,12.669,14.77,13.306S964.293,565.065,964.293,565.065Z" transform="translate(-426.243 -318.955)" opacity="0.1"/><path d="M975.04,532.617s.109,8.708-2.565,10.675S975.04,532.617,975.04,532.617Z" transform="translate(-429.332 -305.451)" opacity="0.1"/><path d="M985.207,537.913s-.255,10.25,3.565,12.669C988.773,550.582,981.77,543.77,985.207,537.913Z" transform="translate(-434.552 -307.655)" opacity="0.1"/><path d="M971.157,628.095s-7.13,5.284-9.1,5.666S971.157,628.095,971.157,628.095Z" transform="translate(-425.213 -345.187)" opacity="0.1"/><path d="M974.117,338.763c-1.536,1.294-.983,3.982.587,5.235s3.716,1.446,5.724,1.5c3.865.1,7.794-.125,11.542.826a9.356,9.356,0,0,1,4.427,2.268,9.964,9.964,0,0,1,2.3,4.577,25.069,25.069,0,0,1,.787,7.673,26.618,26.618,0,0,0-.114,5.2,16.641,16.641,0,0,0,1.624,4.629,192.339,192.339,0,0,0,9.836,18.247,3.4,3.4,0,0,0,1.282,1.4,3.467,3.467,0,0,0,2.919-.452,21.918,21.918,0,0,1-.9-5.529,2.472,2.472,0,0,0,2.613-.913,7.252,7.252,0,0,0,1.19-2.676l1.713-5.9c.53-1.826,1.316-3.921,3.139-4.458a11.369,11.369,0,0,0,1.925-.449,2.465,2.465,0,0,0,1.189-2.428,5.246,5.246,0,0,0-1.15-2.592c-2.578-3.468-6.876-5.525-8.888-9.349-1.728-3.284-1.428-7.236-.858-10.9s1.363-7.436.486-11.042a14.63,14.63,0,0,0-5.678-8.134,22.9,22.9,0,0,0-9.287-3.818,9.273,9.273,0,0,0-4.694.032c-1.158.391-2.149,1.164-3.279,1.629-2.567,1.057-5.527.426-8.22,1.1a11.054,11.054,0,0,0-6.08,4.393,23.322,23.322,0,0,0-3.184,6.925c-.5,1.619.3,2.267-1.147,3.147" transform="translate(-429.953 -217.545)" opacity="0.1"/><path d="M974.554,337.891c-1.536,1.294-.983,3.982.587,5.236s3.716,1.446,5.724,1.5c3.865.1,7.794-.125,11.542.826a9.356,9.356,0,0,1,4.427,2.268,9.964,9.964,0,0,1,2.3,4.577,25.067,25.067,0,0,1,.787,7.673,26.613,26.613,0,0,0-.114,5.2,16.638,16.638,0,0,0,1.624,4.629,192.349,192.349,0,0,0,9.836,18.247,3.4,3.4,0,0,0,1.281,1.4,3.467,3.467,0,0,0,2.919-.452,21.917,21.917,0,0,1-.9-5.529,2.472,2.472,0,0,0,2.613-.913,7.251,7.251,0,0,0,1.19-2.676l1.713-5.9c.53-1.825,1.316-3.921,3.139-4.458a11.361,11.361,0,0,0,1.925-.449,2.465,2.465,0,0,0,1.189-2.428,5.244,5.244,0,0,0-1.15-2.592c-2.578-3.468-6.876-5.525-8.888-9.349-1.728-3.284-1.428-7.236-.858-10.9s1.363-7.436.486-11.042a14.63,14.63,0,0,0-5.678-8.134,22.9,22.9,0,0,0-9.287-3.818,9.273,9.273,0,0,0-4.694.032c-1.158.391-2.149,1.164-3.279,1.629-2.567,1.057-5.527.426-8.22,1.1a11.054,11.054,0,0,0-6.08,4.393,23.321,23.321,0,0,0-3.184,6.925c-.5,1.619.3,2.267-1.147,3.147" transform="translate(-430.135 -217.182)" fill="#3f3d56"/><path d="M972.471,465.865s11.651-7.767,14.961-2.992-10.25,10.632-10.25,10.632Z" transform="translate(-429.647 -275.779)" fill="#fbbebe"/><path d="M978.564,400.465c-.043.749-.186,1.667-.6,1.8,1.087-.026,2.159.774,3.238.535a3.3,3.3,0,0,0,2.044-2.108.982.982,0,0,1,.274-.45c.113-.066.236,0,.35.067a33.991,33.991,0,0,1,5.861,4.424c.6.556,1.259,1.158,1.913.868a14.61,14.61,0,0,0-1.25-6.127,7.829,7.829,0,0,0-3.337-3.651,10.223,10.223,0,0,0-3.925-1.021,3.932,3.932,0,0,1-1.692-.421c-.579-.34-2.427-2.548-2.842-.94a17.642,17.642,0,0,0,.064,3.289C978.665,397.978,978.635,399.225,978.564,400.465Z" transform="translate(-431.931 -247.289)" fill="#3f3d56"/><g transform="translate(543.583 109.615)" opacity="0.1"><path d="M1013.692,400.4a3.4,3.4,0,0,1-1.281-1.4,192.361,192.361,0,0,1-9.836-18.247,16.643,16.643,0,0,1-1.624-4.63,26.613,26.613,0,0,1,.114-5.2,25.07,25.07,0,0,0-.787-7.673,9.964,9.964,0,0,0-2.3-4.577,9.356,9.356,0,0,0-4.427-2.268c-3.748-.951-7.676-.727-11.542-.826-2.008-.052-4.154-.244-5.724-1.5a3.955,3.955,0,0,1-1.308-4.195,2.522,2.522,0,0,1-.325.26c-1.5,1.3-.945,3.963.615,5.208s3.716,1.446,5.724,1.5c3.865.1,7.794-.125,11.542.826a9.356,9.356,0,0,1,4.427,2.268,9.964,9.964,0,0,1,2.3,4.577,25.07,25.07,0,0,1,.787,7.673,26.613,26.613,0,0,0-.114,5.2,16.643,16.643,0,0,0,1.624,4.629,192.3,192.3,0,0,0,9.836,18.247,3.4,3.4,0,0,0,1.281,1.4,3.467,3.467,0,0,0,2.919-.452c-.076-.256-.147-.514-.214-.772a2.326,2.326,0,0,1-1.687-.048Z" transform="translate(-973.77 -339.015)"/><path d="M974.989,350.412c.062-.038.114-.074.168-.111.01-.009.018-.019.028-.027Z" transform="translate(-974.277 -339.18)"/><path d="M976.815,341.12c-.054.037-.106.073-.168.111l.2-.138c-.01.009-.018.019-.028.027,1.208-.826.5-1.486.979-3.036a23.556,23.556,0,0,1,3.107-6.812,13.5,13.5,0,0,0-.942,1.16,23.321,23.321,0,0,0-3.184,6.925,10.836,10.836,0,0,0-.249,2.064A2.439,2.439,0,0,1,976.815,341.12Z" transform="translate(-974.917 -331.272)"/><path d="M1060.839,401.486a11.365,11.365,0,0,1-1.925.449,3.713,3.713,0,0,0-2.13,1.881,3.057,3.057,0,0,1,1.111-.607,11.363,11.363,0,0,0,1.925-.449,2.172,2.172,0,0,0,1.055-1.294Z" transform="translate(-1008.318 -360.485)"/><path d="M1045.61,425.859q.022.662.085,1.322a2.868,2.868,0,0,0,1.509-.961,4.244,4.244,0,0,0,.506-.787A2.27,2.27,0,0,1,1045.61,425.859Z" transform="translate(-1003.668 -370.459)"/></g><path d="M967.644,465.79s3.072-1.244,4.877-.967" transform="translate(-427.638 -277.22)" opacity="0.1"/><path d="M982.816,490.477s1.559,2.419,9.442,3.438S982.816,490.477,982.816,490.477Z" transform="translate(-433.952 -287.914)" opacity="0.1"/><path d="M977.96,505.962s7.09,6.239,18.464,3.947S977.96,505.962,977.96,505.962Z" transform="translate(-431.931 -294.358)" opacity="0.1"/><line y1="18.099" x2="116.764" transform="translate(514.21 339.265)" fill="none" stroke="#3f3d56" stroke-miterlimit="10" stroke-width="1"/><path d="M224.367,391.523c0,15.257,10.023,28.44,24.558,34.688l-20.785-50.374A34.671,34.671,0,0,0,224.367,391.523Zm72.989-1.945a18.686,18.686,0,0,0-3.593-10.63c-2.209-3.175-4.278-5.863-4.278-9.038a7.09,7.09,0,0,1,7.316-6.841c.193,0,.376.021.565.031a46.691,46.691,0,0,0-29.426-10.118c-15.223,0-28.615,6.909-36.407,17.372,1.022.027,1.987.046,2.8.046,4.558,0,11.613-.489,11.613-.489a1.6,1.6,0,1,1,.28,3.175s-2.361.246-4.988.367L257.111,415.2l9.536-25.3-6.79-16.452c-2.346-.122-4.569-.367-4.569-.367a1.6,1.6,0,1,1,.275-3.175s7.2.489,11.478.489c4.557,0,11.613-.489,11.613-.489a1.6,1.6,0,1,1,.279,3.175s-2.365.246-4.987.367l15.747,41.432,4.345-12.847c1.885-5.331,3.318-9.16,3.318-12.459Z" transform="translate(-118.305 -230.691)" fill="#2870db"/><path d="M290.992,409.188l-13.074,33.6a49.01,49.01,0,0,0,26.779-.614,3.144,3.144,0,0,1-.31-.531Zm37.469-21.863a26.219,26.219,0,0,1,.294,3.963,32.78,32.78,0,0,1-3.313,13.805l-13.31,34.039c12.954-6.682,21.667-19.1,21.667-33.316a34.9,34.9,0,0,0-5.338-18.492Z" transform="translate(-140.592 -244.984)" fill="#2870db"/></g></svg>