<svg xmlns="http://www.w3.org/2000/svg" xmlns:xlink="http://www.w3.org/1999/xlink" width="668.559" height="493.902" viewBox="0 0 668.559 493.902"><defs><linearGradient id="a" x1="0.5" y1="1" x2="0.5" gradientUnits="objectBoundingBox"><stop offset="0" stop-color="gray" stop-opacity="0.251"/><stop offset="0.54" stop-color="gray" stop-opacity="0.122"/><stop offset="1" stop-color="gray" stop-opacity="0.102"/></linearGradient><linearGradient id="b" x1="0.5" y1="1" x2="0.5" y2="0" xlink:href="#a"/><linearGradient id="c" x1="16.117" y1="1" x2="16.117" y2="0" xlink:href="#a"/></defs><g transform="translate(-0.503 -0.011)"><path d="M118.339,390.7c-8.022,1.3-18.083,5.034-17.989,13.7.047,4.4,2.968,8.149,5.809,11.365a215.927,215.927,0,0,0,41,36.213c7.233,4.9,15.008,9.586,19.814,17.16s6.017,17.214,6.4,26.386a202.809,202.809,0,0,1-7.581,64.343c23.551,4.486,49.817,8.416,69.444-5.749,11.752-8.483,19.7-22.7,32.8-28.578,8.744-3.931,18.645-3.583,28.177-3.082q67.686,3.563,135.037,13.37c18.8,2.741,37.971,5.843,56.575,2.3s36.908-15.1,43.767-33.84c1.056-2.888,2.006-6.11,4.372-7.848,2.139-1.551,4.94-1.518,7.541-1.424l157.151,5.4c8.61.294,17.521.535,25.4-3.008,7.641-3.429,13.517-10.028,19.173-16.492,12.935-14.747,26.847-32.89,23.043-52.905-3.042-16.044-16.639-27.255-30.123-35.1s-28.358-14.272-38.265-26.82c-15.075-19.1-14.48-46.434-15.416-71.215a395.6,395.6,0,0,0-8.256-66.737c-4.085-19.313-9.774-38.653-20.409-54.964s-26.9-29.374-45.3-31.767c-24.026-3.129-48.179,11.859-71.683,5.5-19.854-5.348-33.519-24.354-49.97-37.523-29.22-23.4-67.565-28.3-103.818-28.746-38.439-.488-77.894,3.4-112.155,21.452-7.848,4.131-15.523,9.132-20.958,16.432-8.33,11.2-10.348,26.239-15.8,39.328-21.96,52.7-93.383,64.069-116.567,116.212-8.229,18.5-8.149,40.07-2.153,59.5,6.451,20.9,24.608,32.449,31.807,50.672C141.463,389.221,127.732,389.174,118.339,390.7Z" transform="translate(-99.846 -80.59)" fill="#2870db" opacity="0.1"/><path d="M164.14,87.83V396.009H659.366V87.83Z" transform="translate(-54.41 -29.112)" fill="#2870db"/><rect width="484.764" height="23.538" transform="translate(114.964 61.974)" fill="#f6f7f9"/><g transform="translate(114.964 61.974)"><rect width="484.764" height="23.538" fill="#2870db"/></g><rect width="484.764" height="278.13" transform="translate(114.964 85.512)" fill="#f6f7f9"/><circle cx="5.234" cy="5.234" r="5.234" transform="translate(121.355 68.365)" fill="#f6f7f9"/><circle cx="5.234" cy="5.234" r="5.234" transform="translate(135.3 68.365)" fill="#f6f7f9"/><circle cx="5.234" cy="5.234" r="5.234" transform="translate(149.252 68.365)" fill="#f6f7f9"/><g transform="translate(131.817 120.1)" opacity="0.2"><rect width="249.358" height="18.016" fill="#2870db"/></g><g transform="translate(445.111 120.1)" opacity="0.2"><rect width="130.779" height="18.016" fill="#2870db"/></g><g transform="translate(180.35 207.868)" opacity="0.2"><rect width="17.435" height="57.545" transform="translate(0 82.54)" fill="#2870db"/><rect width="17.435" height="98.811" transform="translate(33.713 41.267)" fill="#2870db"/><rect width="17.435" height="140.078" transform="translate(67.425)" fill="#2870db"/><rect width="17.435" height="126.715" transform="translate(101.138 13.37)" fill="#2870db"/><rect width="17.435" height="87.186" transform="translate(134.85 52.892)" fill="#2870db"/></g><g transform="translate(444.823 177.645)" opacity="0.2"><rect width="130.779" height="160.715" fill="#2870db"/></g><path d="M1051.72,480.925c-.836-4.252-2.44-8.41-2.48-12.742-.06-7.033,3.683-15.2-1.237-20.4-1.123-1.183-2.627-2.066-3.463-3.449a7.6,7.6,0,0,1-.869-3.891c-.08-8.2,4.439-16.532,1.731-24.307a8.261,8.261,0,0,0-3.1-4.325,9,9,0,0,0-5.261-1.177c-1.731,0-3.556.194-5.348.227a11.558,11.558,0,0,1-3-.394c-2.072-.588-3.83-1.945-5.883-2.614a9.614,9.614,0,0,0-3.343-.461c-4.492-.147-8.6,2.841-11.792,5.736a44.037,44.037,0,0,1-5.047,3.67c.267-.187-6.237,4.278-3.79,4.325a8.518,8.518,0,0,1,4.84,1.685,13.076,13.076,0,0,0,.668,15.162c-1.063-1.043-2.239-2.186-3.443-3.343-3.583-3.523-8.59-8.249-10.943-9.54a77.463,77.463,0,0,1-9.4-6.6s-7.186,4.011-4.974,9.58a22.377,22.377,0,0,1,3.082,1.21,5.768,5.768,0,0,0,.421,2.159,23.8,23.8,0,0,1,6.384,3.129,10.851,10.851,0,0,1,.615.956c.956,1.671,3.931,4.713,7.568,8.1,2.554,2.56,5.916,5.622,9.265,8.57-1.009,2.005-2.072,4.011-2.26,6.017a7.4,7.4,0,0,1-.755-.348c-4.974-2.674-16.579-2.393-16.579-2.393s-9.673-5.054-11.605-16.492c0,0-1.932-6.919-1.384-8.777H970.3l.247-.053,2.32-4.2a1.858,1.858,0,0,0-1.524-2.728c-11.311-1.016-11.846,9.359-11.846,9.359h.1l-.033.087c1.384,6.652,2.487,6.117,2.213,11.438L966.2,455.8s.274,4.011,8.289,9.312a173.211,173.211,0,0,1,17.134,13.571s-4.833,2.527-3.042,14.1c2.193,14.146-1.1,34.321-1.1,34.321v13.036l.615-.167c-.08.435-.154.9-.234,1.4a73.4,73.4,0,0,0-.381,19.794c1.658,13.838,8.289,32.757,8.289,32.757a59.229,59.229,0,0,1,3.042,11.973,11.039,11.039,0,0,0,.708,3.075,24.18,24.18,0,0,1,1.939,9.232,65,65,0,0,0,4.258,23.337c2.8,7.113,3.844,11.284,4.151,13.718-2.005,2.594-4.586,5.422-6.638,5.7-3.871.535-11.331,1.063-6.357,7.447a4.547,4.547,0,0,0,.575.608c-3.777.6-7.928,1.925-3.891,7.106,4.974,6.384,34.261,3.456,34.261,3.456s.187-3.55,0-7.447c2.052-.14,3.343-.267,3.343-.267s.829-15.429-2.761-17.294a7.757,7.757,0,0,0-1.939.468c-.388-2.133-.668-4.786-.869-6.745l1.424-.107v-.107h.087v-23.25s-1.658-14.366-7.735-20.724a12.911,12.911,0,0,1-2.005-2.674l-.08-.167c.04-1.818.04-4.272,0-7.086l.087-.154c.107-.174.214-.328.314-.468a5.808,5.808,0,0,1,.455-.535l.087-.114h0s3.343-4.011,14.647-29.267c6.906-15.416,5.081-24.066,2.607-28.525-.521-2.005-1.611-6.5-2.975-14.192a55.637,55.637,0,0,1-.8-9.887,19.88,19.88,0,0,0,5.241.588,17.8,17.8,0,0,0,8.022-1.711c-1.805-2.634-3.69-5.722-2.781-8.751,1.029-3.449,5.107-5.034,7.46-7.815C1052.482,489.983,1052.555,485.183,1051.72,480.925Z" transform="translate(-384.653 -188.919)" fill="url(#a)"/><path d="M990.156,428.25s-6.859,3.958-4.746,9.5c0,0,7.126,2.112,10.027,7.387s25.33,24.273,25.33,24.273l16.378-8.176s-5.689-7.594-23.685-12.9c0,0-10.609-11.365-14.306-13.484A80.037,80.037,0,0,1,990.156,428.25Z" transform="translate(-393.108 -195.835)" fill="#797c9c"/><path d="M995.156,433.25s-6.859,3.957-4.746,9.5c0,0,7.126,2.112,10.027,7.387s25.329,24.273,25.329,24.273l16.378-8.176s-5.689-7.594-23.685-12.9c0,0-10.609-11.365-14.306-13.484A80.044,80.044,0,0,1,995.156,433.25Z" transform="translate(-394.766 -197.492)" opacity="0.05"/><rect width="637.082" height="4.68" transform="translate(16.407 489.233)" fill="#2870db"/><rect width="135.017" height="165.922" transform="translate(466.77 227.849)" fill="url(#b)"/><rect width="130.779" height="160.715" transform="translate(468.889 230.456)" fill="#2870db"/><rect width="26.74" height="26.74" transform="translate(477.673 244.562)" fill="#e8eaf1"/><rect width="94.927" height="5.348" transform="translate(491.043 287.346)" fill="#e8eaf1"/><rect width="94.927" height="5.348" transform="translate(491.043 298.71)" fill="#e8eaf1"/><rect width="94.927" height="5.348" transform="translate(491.043 310.075)" fill="#e8eaf1"/><rect width="94.927" height="5.348" transform="translate(491.043 321.439)" fill="#e8eaf1"/><rect width="94.927" height="5.348" transform="translate(491.043 332.804)" fill="#e8eaf1"/><rect width="94.927" height="5.348" transform="translate(491.043 344.169)" fill="#e8eaf1"/><rect width="94.927" height="5.348" transform="translate(491.043 355.533)" fill="#e8eaf1"/><path d="M1051.81,764.89s.789,11.605,2.112,12.929-11.873,2.112-11.873,2.112l1.845-15.041Z" transform="translate(-412.018 -307.431)" fill="#ffb9b9"/><path d="M1051.81,764.89s.789,11.605,2.112,12.929-11.873,2.112-11.873,2.112l1.845-15.041Z" transform="translate(-412.018 -307.431)" opacity="0.05"/><path d="M1045.3,776.477s-1.845,0-8.443,3.429c0,0-4.486-.789-6.331-7.126,0,0-5.542,9.5-9.232,10.027s-10.816,1.056-6.07,7.387,32.716,3.429,32.716,3.429S1048.726,778.322,1045.3,776.477Z" transform="translate(-402.604 -310.046)" fill="#e4e2f3"/><path d="M1045.3,776.477s-1.845,0-8.443,3.429c0,0-4.486-.789-6.331-7.126,0,0-5.542,9.5-9.232,10.027s-10.816,1.056-6.07,7.387,32.716,3.429,32.716,3.429S1048.726,778.322,1045.3,776.477Z" transform="translate(-402.604 -310.046)" opacity="0.05"/><path d="M1048.138,786.953l-1.845,5.014-12.133-3.429.669-4.974.167-1.2.461-3.343s10.288-2.641,10.288-1.337a20.454,20.454,0,0,0,.668,3.215c.421,1.625.949,3.469,1.337,4.68C1047.978,786.425,1048.138,786.953,1048.138,786.953Z" transform="translate(-409.403 -311.551)" fill="#ffb9b9"/><path d="M1038.16,657.9a7.213,7.213,0,0,0,0,7.353,12.792,12.792,0,0,0,1.9,2.627c5.8,6.331,7.387,20.576,7.387,20.576v22.95l-3.958.3-6.331.488-9.5-39.047s-5.542-28.492-2.9-33.505,5.014-36.407,5.014-36.407l2.193-2.266,5.194-5.381H1052.2a10.115,10.115,0,0,1,2.928,3.269c2.527,4.178,4.793,12.869-2.133,28.913-10.816,25.062-13.985,29.02-13.985,29.02A6.084,6.084,0,0,0,1038.16,657.9Z" transform="translate(-406.049 -251.308)" fill="#4c4c78"/><path d="M1038.29,657.731a7.213,7.213,0,0,0,0,7.354,12.779,12.779,0,0,0,1.9,2.627c5.8,6.331,7.387,20.576,7.387,20.576v22.95l-3.958.3-6.331.488-9.5-39.047s-5.542-28.492-2.9-33.505,5.014-36.407,5.014-36.407l2.193-2.266,5.194-5.381h15.041a10.115,10.115,0,0,1,2.928,3.269c2.527,4.178,4.793,12.869-2.133,28.913-10.816,25.062-13.985,29.02-13.985,29.02A6.064,6.064,0,0,0,1038.29,657.731Z" transform="translate(-406.092 -251.252)" opacity="0.05"/><path d="M1046.865,780.93l-11.425,1.431.461-3.343s10.288-2.641,10.288-1.337A20.478,20.478,0,0,0,1046.865,780.93Z" transform="translate(-409.827 -311.551)" opacity="0.1"/><path d="M1030.04,622.125s.669,20.77.762,33.82V663.3a16.268,16.268,0,0,1-.214,2.895c-.789,2.373.789,7.648.789,7.648a76.151,76.151,0,0,1,4.746,32.716v11.605l-12.661,1.584s2.112-1.584-3.7-16.886a66.691,66.691,0,0,1-4.071-23.143,24.766,24.766,0,0,0-1.852-9.159,11.3,11.3,0,0,1-.668-3.048,60.552,60.552,0,0,0-2.9-11.873s-6.331-18.718-7.915-32.449a75.541,75.541,0,0,1,.368-19.627,48.988,48.988,0,0,1,.949-4.907s25.791-16.231,35.531-5.014a12.7,12.7,0,0,1,2.2,3.7,24.38,24.38,0,0,1,1.243,4.111C1045.676,616.323,1030.04,622.125,1030.04,622.125Z" transform="translate(-398.705 -249.352)" fill="#4c4c78"/><circle cx="13.457" cy="13.457" r="13.457" transform="translate(617.096 230.309)" fill="#ffb9b9"/><path d="M1031.356,453.779s5.542,15.563,0,23.745,17.675,5.542,17.675,5.542L1058,472.25s-10.556,0-11.084-18.471S1031.356,453.779,1031.356,453.779Z" transform="translate(-408.19 -201.576)" fill="#ffb9b9"/><path d="M1048.926,599.961a34.62,34.62,0,0,1-5.876,1.471c-3.282.508-7.16.528-9.426-1.471-1.337-1.183-4.68-1.337-8.631-.949-8.376.8-19.707,3.924-21.873,4.539a49.016,49.016,0,0,1,.949-4.907s25.791-16.231,35.531-5.014h5.629a10.115,10.115,0,0,1,2.928,3.269C1048.645,599,1048.926,599.961,1048.926,599.961Z" transform="translate(-399.113 -249.348)" opacity="0.1"/><path d="M1048.138,790.049l-1.845,5.014-12.133-3.429.669-4.974c2.086,4.613,5.642,5.241,5.642,5.241a43.036,43.036,0,0,1,7.26-3.182C1047.978,789.521,1048.138,790.049,1048.138,790.049Z" transform="translate(-409.403 -314.647)" opacity="0.1"/><path d="M1040.553,787.927s-1.845,0-8.443,3.429c0,0-4.486-.789-6.331-7.126,0,0-5.542,9.5-9.232,10.028s-10.816,1.056-6.07,7.387,32.716,3.429,32.716,3.429S1043.983,789.772,1040.553,787.927Z" transform="translate(-401.029 -313.842)" fill="#e4e2f3"/><path d="M962.62,444.448s.515-10.275,11.311-9.272a1.845,1.845,0,0,1,1.457,2.674l-2.213,4.165Z" transform="translate(-385.688 -198.108)" fill="#ffb9b9"/><path d="M1024.974,474.163s-12.929-2.112-16.358-4.746c0,0-2.641,5.014-7.387,2.373s-15.83-2.373-15.83-2.373a23.926,23.926,0,0,1-11.084-16.358s-1.845-6.859-1.337-8.69c0,0-6.859-7.126-10.288,2.373,1.337,6.6,2.373,6.07,2.112,11.365l4.218,11.605s.261,3.958,7.915,9.232A169.245,169.245,0,0,1,993.294,492.4s-4.619,2.507-2.9,13.985c2.1,14.039-1.056,34.033-1.056,34.033v12.929s26.386-7.648,30.865-3.7,15.3,0,15.3,0a147.406,147.406,0,0,1-3.169-15.3,67.07,67.07,0,0,1,.261-21.392s6.859-18.2,10.027-25.59-2.373-17.381-7.915-21.1-7.6-1.477-7.6-1.477S1036.847,471.79,1024.974,474.163Z" transform="translate(-385.711 -200.327)" fill="#797c9c"/><path d="M1005.15,545.987s2.106-.508,12.655-2.092,29.02,2.112,29.02,2.112" transform="translate(-399.786 -234.04)" opacity="0.05"/><path d="M1018.528,425.408c6.017.127,10.469,7.547,7.8,12.9-1.17,2.353-3.436,4.425-3.2,7.039a25.442,25.442,0,0,0,1.016,3.429c1.263,5.348-5.134,10.355-3.67,15.636a11.292,11.292,0,0,0,2.286,3.831l11.11,14a10.512,10.512,0,0,1,1.658,2.567,10.825,10.825,0,0,1,.481,4.111c-.053,6.685.381,13.858,4.325,19.28a17.716,17.716,0,0,0,21.586,5.221c-1.725-2.614-3.523-5.676-2.674-8.691.983-3.416,4.873-4.994,7.119-7.748,2.714-3.343,2.781-8.089,2.006-12.307s-2.333-8.343-2.367-12.635c-.053-6.972,3.516-15.075-1.183-20.222-1.076-1.177-2.507-2.046-3.309-3.423a7.776,7.776,0,0,1-.829-3.864c-.074-8.129,4.238-16.4,1.651-24.106a8.188,8.188,0,0,0-2.962-4.292c-3.663-2.467-8.744-.074-12.982-1.337-2.005-.582-3.657-1.932-5.615-2.594-5.281-1.785-10.168,1.8-13.818,5.234a42.078,42.078,0,0,1-4.82,3.637C1022.4,420.935,1016.188,425.361,1018.528,425.408Z" transform="translate(-404.046 -190.359)" opacity="0.1"/><path d="M1019.528,425.408c6.016.127,10.469,7.547,7.8,12.9-1.17,2.353-3.436,4.425-3.2,7.039a25.424,25.424,0,0,0,1.016,3.429c1.264,5.348-5.134,10.355-3.67,15.636a11.289,11.289,0,0,0,2.286,3.831l11.11,14a10.515,10.515,0,0,1,1.658,2.567,10.82,10.82,0,0,1,.481,4.111c-.054,6.685.381,13.858,4.325,19.28a17.716,17.716,0,0,0,21.586,5.221c-1.725-2.614-3.523-5.676-2.674-8.691.983-3.416,4.874-4.994,7.12-7.748,2.714-3.343,2.781-8.089,2.005-12.307s-2.333-8.343-2.366-12.635c-.054-6.972,3.516-15.075-1.183-20.222-1.076-1.177-2.507-2.046-3.309-3.423a7.777,7.777,0,0,1-.829-3.864c-.074-8.129,4.238-16.4,1.651-24.106a8.189,8.189,0,0,0-2.962-4.292c-3.663-2.467-8.744-.074-12.982-1.337-2.005-.582-3.657-1.932-5.615-2.594-5.281-1.785-10.168,1.8-13.818,5.234a42.089,42.089,0,0,1-4.82,3.637C1023.4,420.935,1017.188,425.361,1019.528,425.408Z" transform="translate(-404.377 -190.359)" fill="#5b5b5b"/><path d="M685.147,556.445A23.186,23.186,0,0,1,681.2,551.6c-2.313-3.637-6.184-5.6-8.838-6.571v-1.183h.16l-.074-1.1h.074l-.187-2.9h0l-.943-14.493s-3.409-9.713,2.607-18.6.374-17.421-5.281-20.757c0,0-2.674-14.085-.374-17.421a97.1,97.1,0,0,0-9.493-4.833q-.074-.261-.14-.535c-.06-1.337-.14-2.627-.214-3.937a14.391,14.391,0,0,1,.374-2.006q.11-.411.241-.842a14.46,14.46,0,0,0,9.232-13.41,14.2,14.2,0,0,0-.9-4.974,6.338,6.338,0,0,0,.669-1.578,6.438,6.438,0,0,0-.9-4.626,16.681,16.681,0,0,0-8.022-7.514c-3.924-1.6-9.834-1.223-13.918-.735-2.293.274-4.914,1.05-5.742,3.169a21.964,21.964,0,0,0-.521,2.44c-.856,3.236-4.566,4.746-6.859,7.22-2.006,2.186-2.915,5.141-3.57,8.022a74.063,74.063,0,0,0-1.337,25.182c.234,1.939.542,3.864.869,5.789-1.377,1.939-2.621,5.348-2.052,11.364l-4.526,21.5-1.885,12.6a11.017,11.017,0,0,0,3.4,9.64,84.9,84.9,0,0,1,8.55,10.736,25.567,25.567,0,0,0-1.377,8.543c.047,1.337.12,2.6.214,3.817a33.982,33.982,0,0,0,1.444,7.554c.528,5.174,1.578,11.792,3.623,16.044l.755,22.609s-1.13,20.757-3.4,24.835S637.77,663.2,637.77,663.2v4.82l-1.21,3.53-.3-.227c-5.662,7.046,0,9.64,0,9.64s1.538.074,4.011.167a4.552,4.552,0,0,0,2.413,5.02s32.088,1.484,37.744,0,4.151-6.685,1.13-6.3a13.8,13.8,0,0,1-4.519-.595c1.765-2.066.354-4.867-1.892-4.593-3.022.368-9.814-2.32-9.814-2.32v.047a5.125,5.125,0,0,0-.669-.2,75.69,75.69,0,0,1-7.467-2.106c-1.457-3.122-4.813-11.518-2.407-18.05a32.41,32.41,0,0,0,1.444-10.656,121.723,121.723,0,0,1,4.967-33.813L665.727,592s6.418-18.905,6.792-24.066l-.054-7.567c5.308,3.416,9.519,2.38,12.214.8a2.908,2.908,0,0,0,.468-4.72Zm-50.372-39.321c.127-.542.234-1.137.328-1.758h2.674a13.77,13.77,0,0,1,1.337,7.293C637.068,521.991,634.006,520.4,634.775,517.124Z" transform="translate(-271.957 -194.147)" fill="url(#c)"/><path d="M646.981,785.4l-1.451,4.359,4.72,4.72,15.616,3.63,11.258-1.09-.729-4.011h0a4.82,4.82,0,0,0-3.576-3.516c-4.626-1.09-13.45-3.563-15.309-7.013Z" transform="translate(-280.573 -313.262)" fill="#db8b8b"/><path d="M646.981,785.4l-1.451,4.359,4.72,4.72,15.616,3.63,11.258-1.09-.729-4.011h0a4.82,4.82,0,0,0-3.576-3.516c-4.626-1.09-13.45-3.563-15.309-7.013Z" transform="translate(-280.573 -313.262)" opacity="0.1"/><path d="M672.289,799.02l-2.179-2.908,2.179-3.342s6.538,2.641,9.439,2.273,4.359,4.72-1.09,6.177-36.32,0-36.32,0-5.448-2.54,0-9.439l4.719,3.63s8.022,4.359,11.986,3.63Z" transform="translate(-279.369 -316.345)" fill="#474463"/><path d="M686.34,804.643l-11.258,1.09-15.6-3.657-4.72-4.68.388-1.156.542-1.618.528-1.584,10.529-2.908a6.524,6.524,0,0,0,2.133,2.139c3.423,2.34,9.566,4.011,13.169,4.873a3.749,3.749,0,0,1,.448.134,4.8,4.8,0,0,1,3.129,3.383Z" transform="translate(-283.632 -315.798)" fill="#db8b8b"/><path d="M686.34,807.673l-11.258,1.09-15.6-3.657-4.72-4.679.388-1.156,4.339,3.343s8.022,4.359,11.986,3.63H682.73l-2.179-2.908,1.959-3.022a4.8,4.8,0,0,1,3.129,3.383Z" transform="translate(-283.632 -318.827)" opacity="0.1"/><path d="M681.519,806.62l-2.179-2.908,2.179-3.343s6.538,2.641,9.439,2.273,4.359,4.72-1.09,6.177-36.32,0-36.32,0-5.448-2.54,0-9.439l4.72,3.63s8.022,4.359,11.986,3.63Z" transform="translate(-282.428 -318.864)" fill="#474463"/><path d="M674.354,485.576s-17.434,1.818-14.888-5.448a13.075,13.075,0,0,0,.535-6.411,17.775,17.775,0,0,0-3.082-7.387l16.345,2.54a20.468,20.468,0,0,0-2.213,5.248C669.107,481.826,674.354,485.576,674.354,485.576Z" transform="translate(-284.349 -208.458)" fill="#db8b8b"/><path d="M638.46,619s.361,15.616,4.011,23.244L643.2,664.4s-1.09,20.336-3.269,24.333,4.72,37.77,4.72,37.77v5.809s11.605,4.345,14.894-.735l-3.269-43.219,1.451-59.924Z" transform="translate(-278.229 -259.068)" fill="#474463"/><path d="M638.46,619s.361,15.616,4.011,23.244L643.2,664.4s-1.09,20.336-3.269,24.333,4.72,37.77,4.72,37.77v5.809s11.605,4.345,14.894-.735l-3.269-43.219,1.451-59.924Z" transform="translate(-278.229 -259.068)" opacity="0.1"/><path d="M625.563,544l-2.179,5.809-1.818,12.347a10.923,10.923,0,0,0,3.269,9.439C629.193,575.954,635,585.033,635,585.033l6.9-20.724s-6.9-1.09-5.809-5.809.729-13.437.729-13.437Z" transform="translate(-272.592 -234.206)" fill="#cbcdda"/><path d="M625.563,543l-2.179,5.809-1.818,12.347a10.923,10.923,0,0,0,3.269,9.439C629.193,574.954,635,584.033,635,584.033l6.9-20.724s-6.9-1.09-5.809-5.809.729-13.437.729-13.437Z" transform="translate(-272.592 -233.874)" opacity="0.05"/><path d="M669.336,792.246c-4.68,7.354-11.906,3.175-13.2,2.346l.528-1.584L667.2,790.1A6.523,6.523,0,0,0,669.336,792.246Z" transform="translate(-284.09 -315.788)" opacity="0.1"/><path d="M677.506,620.181c-.361,5.087-6.538,23.6-6.538,23.6l-4.352,15.242a121.27,121.27,0,0,0-4.786,33.158,32.244,32.244,0,0,1-1.39,10.435c-2.908,8.022,2.908,18.885,2.908,18.885-5.087,9.078-13.8,2.908-13.8,2.908V718.6s-6.9-31.593-5.087-37.77S647,657.951,647,657.951V627.808a34.207,34.207,0,0,1-9.967-21.686c-.087-1.19-.154-2.44-.2-3.737-.294-8.2,5.308-17.8,7.494-21.225.528-.829.856-1.29.856-1.29l32.088,12.7h.073v3.991Z" transform="translate(-277.686 -246.097)" fill="#474463"/><path d="M673.275,468.87a20.468,20.468,0,0,0-2.213,5.248,14.212,14.212,0,0,1-11.05-.4,17.775,17.775,0,0,0-3.082-7.387Z" transform="translate(-284.352 -208.458)" opacity="0.1"/><circle cx="14.166" cy="14.166" r="14.166" transform="translate(367.491 237.529)" fill="#db8b8b"/><path d="M680.571,596.576h-.154c-15.229,3.129-34.348-12.742-34.348-12.742a18.82,18.82,0,0,0,1.337-2.674c.528-.829.856-1.29.856-1.29l32.088,12.7.08,1.27Z" transform="translate(-280.752 -246.097)" opacity="0.1"/><path d="M669.37,490.358s-20.336-12.347-26.874-7.267l-9.078,11.619s-5.809,1.818-4.72,13.437l-4.359,21.064,13.076,3.269s7.628,7.267,1.451,17.8c0,0,19.246,15.977,34.5,12.7l-1.123-17.054s-3.269-9.439,2.54-18.156.361-17.067-5.087-20.336C669.738,507.432,667.191,493.627,669.37,490.358Z" transform="translate(-273.548 -213.608)" fill="#cbcdda"/><path d="M691.481,605.4s7.628,1.451,11.258,7.267a22.629,22.629,0,0,0,3.8,4.746,2.881,2.881,0,0,1-.448,4.593c-2.881,1.731-7.581,2.8-13.517-2.079C682.4,611.577,691.481,605.4,691.481,605.4Z" transform="translate(-294.569 -254.56)" fill="#db8b8b"/><path d="M669.461,504.764s-7.267-.729-9.078,18.156-4.72,23.244-4.72,23.244-1.818,9.807,2.54,15.616,12.7,18.156,12.7,18.156,9.078,2.54,10.9-6.538l-11.258-21.065s-1.818-7.267,2.54-12.347S680.719,501.128,669.461,504.764Z" transform="translate(-283.807 -221.109)" opacity="0.1"/><path d="M670.551,503.135s-7.267-.729-9.078,18.157-4.72,23.244-4.72,23.244-1.818,9.807,2.54,15.616S672,578.308,672,578.308s9.078,2.54,10.9-6.538l-11.258-21.065s-1.812-7.26,2.54-12.32S681.809,499.5,670.551,503.135Z" transform="translate(-284.169 -220.569)" fill="#cbcdda"/><path d="M684.065,523.64s.729,11.258-2.54,17.434-3.269,14.166,0,18.524" transform="translate(-291.692 -227.457)" opacity="0.1"/><path d="M677.734,499.937s-2.908-2.908-11.258-3.269-11.986-2.908-11.986-2.908" transform="translate(-283.543 -217.551)" opacity="0.1"/><path d="M647.732,429.5c-2.206.274-4.726,1.029-5.522,3.1a21.861,21.861,0,0,0-.5,2.393c-.822,3.175-4.392,4.68-6.6,7.073-1.945,2.139-2.8,5.034-3.436,7.862a73.858,73.858,0,0,0-1.277,24.674c.709,6.016,2.159,11.953,2.56,18s-.334,12.414-3.643,17.495c-1.424,2.186-3.3,4.1-4.305,6.511,2.086,1.691,4.954,1.932,7.641,2.005q4.68.16,9.359,0a9.992,9.992,0,0,0,4.766-.989,7.354,7.354,0,0,0,2.5-2.674,19.184,19.184,0,0,0,2.159-10.195c-.08-3.51-.635-7.013-.668-10.536a9.217,9.217,0,0,1,1.217-5.522,17.658,17.658,0,0,1,3.042-2.814c3.891-3.443,5.221-8.971,5.348-14.166s-.729-10.4-.287-15.569c.174-2.005.929-4.459,2.921-4.853a11.238,11.238,0,0,0,1.9-.241c1.6-.615,1.444-2.868,1.9-4.519.515-1.852,2.092-3.282,2.54-5.154,1.043-4.392-4.546-9.64-8.209-11.171C657.372,428.649,651.69,429.03,647.732,429.5Z" transform="translate(-273.77 -196.113)" opacity="0.1"/><path d="M647.232,428.413c-2.206.274-4.726,1.029-5.522,3.1a21.878,21.878,0,0,0-.5,2.393c-.822,3.175-4.392,4.68-6.6,7.073-1.945,2.139-2.8,5.034-3.436,7.862a73.856,73.856,0,0,0-1.277,24.674c.708,6.017,2.159,11.953,2.56,18s-.334,12.414-3.643,17.495c-1.424,2.186-3.3,4.1-4.305,6.511,2.086,1.691,4.954,1.932,7.641,2.005q4.68.16,9.359,0a9.99,9.99,0,0,0,4.766-.989,7.355,7.355,0,0,0,2.5-2.674,19.185,19.185,0,0,0,2.159-10.195c-.08-3.51-.635-7.013-.669-10.536a9.217,9.217,0,0,1,1.217-5.522,17.651,17.651,0,0,1,3.042-2.814c3.891-3.443,5.221-8.971,5.348-14.166s-.729-10.4-.287-15.569c.174-2.005.929-4.459,2.921-4.853a11.236,11.236,0,0,0,1.9-.241c1.6-.615,1.444-2.868,1.9-4.519.515-1.852,2.092-3.282,2.54-5.154,1.043-4.392-4.546-9.64-8.209-11.171C656.845,427.557,651.163,427.932,647.232,428.413Z" transform="translate(-273.605 -195.751)" fill="#472727"/></g></svg>