<svg xmlns="http://www.w3.org/2000/svg" width="1385.694" height="821.524" viewBox="0 0 1385.694 821.524">
  <g id="Group_1094" data-name="Group 1094" transform="translate(-140.5 807.29)">
    <path id="Path_2441" data-name="Path 2441" d="M3108.036,1181.533c106.458-97.936,131.893-297.893,33.287-436.92-82.188-115.878-233.574-235.074-424.34-269.82s-357.891-34.707-430.169,11.2c-59.147,37.564-31.653,89.882-13.1,134.339,24.761,59.348,28.41,106.468-73.456,192.685-116.284,98.418-147.76,135.365-153.588,230.529-4.741,77.4,62.312,181.511,150.3,196.429,122.49,20.77,167.956-34.089,287.792-71.07,96.134-29.668,162.809-15.794,249.97,41.063S2951.806,1325.256,3108.036,1181.533Z" transform="translate(-1676.946 -1257.143)" fill="#2870db"/>
    <g id="Group_1093" data-name="Group 1093" transform="translate(-859.347 -1046.6)">
      <g id="Group_1023" data-name="Group 1023" transform="translate(999.847 239.309)">
        <path id="Path_1513" data-name="Path 1513" d="M585.248,209.742l-.978-5.2-9.892-8.436-11.7,6.718,13.915,11.849a19.177,19.177,0,0,1,8.653-4.935Z" transform="translate(8.058 94.397)" fill="#72b5e8"/>
        <path id="Path_1518" data-name="Path 1518" d="M571.9,216l-11.762,6.892,12.2-1.544C572.1,219.435,571.967,217.652,571.9,216Z" transform="translate(5.075 117.751)" fill="#d1ebff"/>
        <path id="Path_1575" data-name="Path 1575" d="M457.988,140.466c0-7.131-10.11-12.936-22.459-13.045s-22.35,5.74-22.329,12.893c0,6.523,8.479,11.936,19.372,12.806v3.827c-2.065.3-3.587,1.391-3.587,2.674v12.349c0,1.565,2.174,2.8,4.87,2.826h3.674c2.674,0,4.848-1.239,4.827-2.783V159.664c0-1.3-1.544-2.392-3.609-2.718v-3.609C449.726,152.38,458.009,147.01,457.988,140.466Z" transform="translate(-167.455 13.743)" fill="#fff"/>
        <path id="Path_1576" data-name="Path 1576" d="M783.046,719.024,394.372,494.5c-15.045-8.7-27.242-32-27.242-52.071V88.888c0-20.067,12.2-29.286,27.242-20.589L783.046,292.8c15.045,8.7,27.242,31.982,27.242,52.049V698.413C810.375,718.48,798.091,727.7,783.046,719.024Z" transform="translate(-221.548 -59.519)" fill="#cce1ff"/>
        <path id="Path_1577" data-name="Path 1577" d="M788.231,290.209,399.579,65.771c-5.957-3.435-11.458-4.087-15.958-2.348-.565.217-11.219,5.718-11.74,6.022h0c4.631-2.174,10.523-1.848,16.937,1.87l388.652,224.46c15.045,8.7,27.242,31.982,27.242,52.049V701.386c0,12.523-4.761,20.828-11.98,23.176a4.477,4.477,0,0,0,2.391-.8c.348-.2,11.632-6.3,11.958-6.522,5.174-3.631,8.414-11.066,8.414-21.394V342.258C815.495,322.191,803.276,298.884,788.231,290.209Z" transform="translate(-215.971 -62.492)" fill="#6ca1f1"/>
        <path id="Path_1578" data-name="Path 1578" d="M785.231,290.921,396.513,66.4c-5.935-3.435-11.458-4.066-15.936-2.348-.565.239-8.175,4.348-8.7,4.566h0c4.631-2.174,10.523-1.848,16.937,1.87L777.469,295.03Z" transform="translate(-215.971 -61.747)" fill="#4f9fdb"/>
        <path id="Path_1579" data-name="Path 1579" d="M777.722,292.51,389.113,67.984c-6.153-3.566-11.827-4.087-16.393-2.174A20.111,20.111,0,0,1,385.765,68.9l388.761,224.59c15.045,8.7,27.242,31.982,27.242,52.049V699.1c0,11.849-4.348,19.872-10.871,22.7,8.414-1.326,14.11-9.958,14.11-23.677V344.559C805.029,324.492,792.941,301.185,777.722,292.51Z" transform="translate(-214.985 -59.879)" fill="#fff"/>
        <path id="Path_1580" data-name="Path 1580" d="M374.17,90.45V412.573c0,15.741,7.479,31.112,19.567,38.809L778.194,673.494l.652.37a5.2,5.2,0,0,0,7.784-4.522V328.781Z" transform="translate(-213.282 -29.665)" fill="#3f8eee"/>
        <path id="Path_1581" data-name="Path 1581" d="M786.149,670.95l-.631-.348L401,448.49c-12.11-7.7-19.567-23.068-19.567-38.809V94.624l-7.24-4.174V412.573c0,15.741,7.479,31.112,19.567,38.809L778.17,673.494l.652.37a5.2,5.2,0,0,0,7.457-2.8Z" transform="translate(-213.259 -29.665)" fill="#3d68b2"/>
        <path id="Path_1582" data-name="Path 1582" d="M554,185.166a16.436,16.436,0,0,0,7.5,12.914c4.131,2.392,7.479.478,7.479-4.348A16.524,16.524,0,0,0,561.5,180.8C557.283,178.492,554,180.4,554,185.166Z" transform="translate(-2.134 75.272)" fill="#fc0"/>
        <path id="Path_1583" data-name="Path 1583" d="M545.07,180.034a16.567,16.567,0,0,0,7.5,12.936c4.131,2.392,7.5.478,7.5-4.348a16.566,16.566,0,0,0-7.5-13.045C548.44,173.272,545.07,175.273,545.07,180.034Z" transform="translate(-12.619 69.164)" fill="#eb4680"/>
        <path id="Path_1584" data-name="Path 1584" d="M536.18,174.811a16.524,16.524,0,0,0,7.479,12.936c4.153,2.392,7.5.478,7.5-4.348a16.437,16.437,0,0,0-7.5-12.914C539.528,168.158,536.18,170.071,536.18,174.811Z" transform="translate(-23.057 63.147)" fill="#0fbab8"/>
        <path id="Path_1585" data-name="Path 1585" d="M508.857,176.173l-28.264-16.284c-2.848-1.631-5.153-.326-5.153,2.957a11.371,11.371,0,0,0,5.153,8.892l28.264,16.285c2.848,1.631,5.174.326,5.174-2.935a11.414,11.414,0,0,0-5.174-8.914Zm46.44,26.807L527.033,186.7c-2.848-1.631-5.174-.326-5.174,2.957a11.393,11.393,0,0,0,5.174,8.892L555.3,214.83c2.848,1.631,5.153.326,5.153-2.957A11.37,11.37,0,0,0,555.3,202.981Zm46.418,26.807L573.451,213.5c-2.848-1.631-5.153-.326-5.153,2.957a11.371,11.371,0,0,0,5.153,8.892l28.264,16.284c2.848,1.631,5.175.326,5.175-2.957a11.392,11.392,0,0,0-5.174-8.892Zm46.44,26.829-28.264-16.284c-2.848-1.631-5.153-.326-5.153,2.935a11.393,11.393,0,0,0,5.153,8.914l28.264,16.284c2.848,1.631,5.153.326,5.153-2.957A11.371,11.371,0,0,0,648.155,256.617Z" transform="translate(-94.376 51.044)" fill="#72b5e8"/>
        <path id="Path_1586" data-name="Path 1586" d="M139.17,119.63V241.013l13.284-7.783V111.52Z" transform="translate(163.407 130.851)" fill="#6ca1f1"/>
        <path id="Path_1587" data-name="Path 1587" d="M282.191,197.441V318.824L17.4,166.959V45.25Z" transform="translate(20.43 53.039)" fill="#bcd7ff"/>
        <path id="Path_1588" data-name="Path 1588" d="M17.4,49.571,282.191,201.762l13.241-8.11L30.532,41.57Z" transform="translate(20.43 48.718)" fill="#6ca1f1"/>
        <path id="Path_1589" data-name="Path 1589" d="M17.4,45.25,282.191,197.441l13.241-8.11-13.262,6.262Z" transform="translate(20.43 53.039)" fill="#fff" opacity="0.7"/>
        <path id="Path_1590" data-name="Path 1590" d="M166.495,179.268v-5.153L82.92,126.61v5.153Z" transform="translate(97.361 148.569)" fill="#3f8eee"/>
        <path id="Path_1591" data-name="Path 1591" d="M66.27,82.52v5.153l140.472,80.379v-5.174Z" transform="translate(77.811 96.8)" fill="#3f8eee"/>
        <path id="Path_1592" data-name="Path 1592" d="M115.732,130.788,66.27,102.22v5.153l49.462,28.568Z" transform="translate(77.811 119.931)" fill="#3f8eee"/>
        <path id="Path_1593" data-name="Path 1593" d="M104.42,134.1v5.153L124.835,150.3v-5.153Z" transform="translate(122.606 157.363)" fill="#3f8eee"/>
        <path id="Path_1594" data-name="Path 1594" d="M146.04,138.419,66.27,92.37v5.153l79.77,46.049Z" transform="translate(77.811 108.366)" fill="#3f8eee"/>
        <path id="Path_1595" data-name="Path 1595" d="M95.491,114.171,66.27,97.3v5.153l29.221,16.871Z" transform="translate(77.811 114.154)" fill="#3f8eee"/>
        <path id="Path_1596" data-name="Path 1596" d="M76.29,123.013l56.072,32.373v-5.153L76.29,117.86Z" transform="translate(89.577 138.295)" fill="#3f8eee"/>
        <path id="Path_1597" data-name="Path 1597" d="M82.04,106.4v5.153l78.726,44.722v-5.153Z" transform="translate(96.328 124.839)" fill="#3f8eee"/>
        <path id="Path_1598" data-name="Path 1598" d="M91.35,116.7v5.174l39.374,22.72v-5.153Z" transform="translate(107.259 136.933)" fill="#3f8eee"/>
        <path id="Path_1599" data-name="Path 1599" d="M82.989,121.723,66.27,112.07v5.153l16.719,9.653Z" transform="translate(77.811 131.497)" fill="#3f8eee"/>
        <path id="Path_1600" data-name="Path 1600" d="M105.29,120.053l55.637,31.395v-5.153L105.29,114.9Z" transform="translate(123.627 134.819)" fill="#3f8eee"/>
        <path id="Path_1601" data-name="Path 1601" d="M120.58,133.484,142.974,146.4v-5.153L120.58,128.31Z" transform="translate(141.58 150.565)" fill="#3f8eee"/>
        <path id="Path_1602" data-name="Path 1602" d="M66.27,92.6,206.742,172.96v-5.153L66.27,87.45Z" transform="translate(77.811 102.589)" fill="#3f8eee"/>
        <path id="Path_1603" data-name="Path 1603" d="M111.79,133.653l41.5,23.242v-5.153L111.79,128.5Z" transform="translate(131.259 150.788)" fill="#3f8eee"/>
        <path id="Path_1604" data-name="Path 1604" d="M97.382,134.959,66.27,117v5.153l31.112,17.959Z" transform="translate(77.811 137.285)" fill="#3f8eee"/>
        <path id="Path_1605" data-name="Path 1605" d="M123.69,154.963l15.632,9.023v-5.153L123.69,149.81Z" transform="translate(145.231 175.809)" fill="#3f8eee"/>
        <path id="Path_1606" data-name="Path 1606" d="M116.15,145.683l32.025,18.5v-5.153l-32.025-18.5Z" transform="translate(136.378 164.913)" fill="#3f8eee"/>
        <path id="Path_1607" data-name="Path 1607" d="M66.27,112.3,206.742,192.66v-5.153L66.27,107.15Z" transform="translate(77.811 125.72)" fill="#3f8eee"/>
        <path id="Path_1608" data-name="Path 1608" d="M385.769,150.976l-46.179-26.72c-8.066-4.653-14.61.283-14.61,11.066v53.484c0,10.871,6.522,23.285,14.61,27.938l46.179,26.72c8.088,4.653,14.632-.283,14.632-11.045V178.914C400.4,168.152,393.857,155.629,385.769,150.976Z" transform="translate(-271.039 7.972)" fill="#fff"/>
        <path id="Path_1609" data-name="Path 1609" d="M391.487,239.008l-46.179-26.72c-8.088-4.653-14.632-17.154-14.632-27.938V130.909a17.393,17.393,0,0,1,1.8-8.349c-4.479.739-7.5,5.37-7.5,12.7v53.484c0,10.871,6.522,23.285,14.61,27.938l46.179,26.72c5.522,3.2,10.327,1.87,12.828-2.718a10.87,10.87,0,0,1-7.109-1.674Z" transform="translate(-271.039 8.037)" fill="#3d68b2"/>
        <path id="Path_1610" data-name="Path 1610" d="M369.269,157.839l-46.179-26.7c-8.066-4.674-14.61.283-14.61,11.045v53.463c0,10.762,6.522,23.263,14.61,27.938l46.179,26.72c8.088,4.674,14.632-.283,14.632-11.045V185.777C383.9,175.015,377.357,162.514,369.269,157.839Z" transform="translate(-290.413 16.045)" fill="#bcd7ff"/>
        <path id="Path_1611" data-name="Path 1611" d="M374.1,155.789l-46.179-26.7a9.588,9.588,0,0,0-9.132-1h0l-8,4.7h0a9.262,9.262,0,0,1,9.632.717L366.6,160.2c8.088,4.674,14.632,17.176,14.632,27.938V241.6c0,5.24-1.565,9.066-4.087,11.132l4.348-2.935a13.154,13.154,0,0,0,7.153-12.61V183.726C388.712,172.964,382.167,160.463,374.1,155.789Z" transform="translate(-287.7 13.683)" fill="#6ca1f1"/>
        <path id="Path_1612" data-name="Path 1612" d="M367.313,157.517,321.134,130.8c-4.022-2.3-7.653-2.174-10.284-.283a9.871,9.871,0,0,1,8.5,1.239l46.179,26.72c8.088,4.653,14.632,17.176,14.632,27.938v53.376c0,5.414-1.674,9.349-4.348,11.349,3.7-1.413,6.109-5.783,6.109-12.306v-53.4C381.923,174.693,375.379,162.17,367.313,157.517Z" transform="translate(-287.63 15.694)" fill="#fff" opacity="0.7"/>
        <path id="Path_1613" data-name="Path 1613" d="M314.11,137v61.2l50.006,28.916V165.873Zm46.875,84.575-43.657-25.22V142.5l43.657,25.22Z" transform="translate(-283.803 24.992)" fill="#3f8eee"/>
        <path id="Path_1614" data-name="Path 1614" d="M338.924,161.62c0,4.022-2.848,5.631-6.327,3.609a13.914,13.914,0,0,1-6.327-10.871c0-4,2.826-5.631,6.327-3.609a14,14,0,0,1,6.327,10.871Z" transform="translate(-269.525 40.116)" fill="#3f8eee"/>
        <path id="Path_1615" data-name="Path 1615" d="M14.71,104.29,27.755,87.44,41,120.944l9.632-7.827,10.632,28.895-.217,2.913L14.906,120.248Z" transform="translate(17.272 102.577)" fill="#3f8eee"/>
        <path id="Path_1625" data-name="Path 1625" d="M289.69,223.147V366.19l12.821-7.491V215.32Z" transform="translate(340.605 257.722)" fill="#6ca1f1"/>
        <path id="Path_1626" data-name="Path 1626" d="M446.213,308.991V457.2L156.42,291.032V142.45Z" transform="translate(183.661 167.167)" fill="#bcd7ff"/>
        <path id="Path_1627" data-name="Path 1627" d="M156.42,146.759,446.213,313.3l13.241-8.11-289.9-166.41Z" transform="translate(183.661 162.858)" fill="#6ca1f1"/>
        <path id="Path_1628" data-name="Path 1628" d="M156.42,142.45l289.793,166.54,13.241-8.11-13.284,6.262Z" transform="translate(183.661 167.167)" fill="#fff" opacity="0.7"/>
        <ellipse id="Ellipse_240" data-name="Ellipse 240" cx="37.026" cy="64.116" rx="37.026" ry="64.116" transform="translate(502.488 478.141) rotate(-30.31)" fill="#cce1ff"/>
        <path id="Path_1629" data-name="Path 1629" d="M589.745,377.185c-25.133-14.5-45.4-49.614-45.4-78.444,0-10.74,2.826-19.111,7.7-24.611-7.479,5-12.045,14.763-12.045,28.416,0,28.829,20.35,63.942,45.483,78.444,15.741,9.088,29.612,7.914,37.765-1.326C614.856,385.208,603.051,384.729,589.745,377.185Z" transform="translate(-18.572 186.004)" fill="#3684d6"/>
        <path id="Path_1630" data-name="Path 1630" d="M546.6,248.363l-9.784-5.631V352.919l9.784,5.653Zm14.089-5.522-9.784-5.631V360.92l9.784,5.653Zm14.48,24.894-9.762-5.653V369.2l9.762,5.653Zm-67.4,7.762v60.376l9.784,5.631V281.15Zm24.285-16.784-9.784-5.631v91.075l9.784,5.653Zm57.289,39.613-9.762-5.631v84.792l9.762,5.653ZM603.3,333.308l-9.784-5.653V385.64l9.784,5.653ZM503.1,265.017l-9.762-5.653v67.747l9.762,5.631Zm-38.765,4v41.026l9.784,5.653V274.671Zm24.285-16.11-9.784-5.631v71.051l9.784,5.653Z" transform="translate(-107.42 142.654)" fill="#cce1ff"/>
        <path id="Path_1631" data-name="Path 1631" d="M546.624,281.731l-9.784-5.653v66.942l9.784,5.653Zm14.088-30.438-9.784-5.653V351.021l9.784,5.653Zm14.48,26.09-9.762-5.653v87.553l9.762,5.653Zm-67.4,2.87V325.91l9.784,5.631V285.884Zm24.285-1.8-9.784-5.631v61.442l9.784,5.653Zm-29-17.785-9.762-5.653v62.2l9.762,5.631ZM464.31,288.275v11.871l9.784,5.653V293.906Zm24.285,0-9.784-5.653v25.785l9.784,5.653Zm100.772,15.893-9.719-5.566V367.61l9.762,5.653Zm13.958,27.786-9.784-5.631V375.7l9.784,5.653Z" transform="translate(-107.444 152.553)" fill="#2870db"/>
        <path id="Path_1632" data-name="Path 1632" d="M220.424,202.07l-9.784-5.653V195.2l9.784,5.631Z" transform="translate(247.324 229.104)" fill="#fff"/>
        <path id="Path_1633" data-name="Path 1633" d="M213.754,190.06l-9.784-5.653V183.19l9.784,5.653Z" transform="translate(239.493 215.003)" fill="#fff"/>
        <path id="Path_1634" data-name="Path 1634" d="M233.362,227.18l-9.762-5.631V220.31l9.762,5.653Z" transform="translate(262.542 258.587)" fill="#fff"/>
        <path id="Path_1635" data-name="Path 1635" d="M207.262,204.06l-9.762-5.653V197.19l9.762,5.653Z" transform="translate(231.896 231.441)" fill="#fff"/>
        <path id="Path_1636" data-name="Path 1636" d="M226.964,214.4l-9.784-5.653V207.53l9.784,5.653Z" transform="translate(255.003 243.582)" fill="#fff"/>
        <path id="Path_1637" data-name="Path 1637" d="M180.6,207.09l-9.784-5.653V200.22l9.784,5.653Z" transform="translate(200.569 234.999)" fill="#fff"/>
        <path id="Path_1638" data-name="Path 1638" d="M187.274,194.38l-9.784-5.653V187.51l9.784,5.631Z" transform="translate(208.401 220.075)" fill="#fff"/>
        <path id="Path_1639" data-name="Path 1639" d="M173.922,208.441v1.218l-9.762-5.631V202.81Z" transform="translate(192.749 238.04)" fill="#fff"/>
        <path id="Path_1640" data-name="Path 1640" d="M200.614,202.56l-9.784-5.631V195.69l9.784,5.653Z" transform="translate(224.064 229.68)" fill="#fff"/>
        <path id="Path_1641" data-name="Path 1641" d="M193.944,205.969l-9.784-5.631V199.12l9.784,5.631Z" transform="translate(216.232 233.707)" fill="#fff"/>
        <path id="Path_1642" data-name="Path 1642" d="M545.055,309.538c.587-21.742,16.437-30.438,35.852-19.241,10,5.783,19.046,15.719,25.568,27.09l7.175-1.8c-8.175-14.806-19.828-27.873-32.743-35.33-24.438-14.11-44.353-2.957-44.657,24.829l5.74,5.218Z" transform="translate(-22.975 186.014)" fill="#6ca1f1"/>
        <path id="Path_1643" data-name="Path 1643" d="M600.319,357.421a30.938,30.938,0,0,1-18-4.783c-18.393-10.632-33.591-35.374-35.656-57.05l-8.7-4.348c0,.152-2.935.761-2.914.913,2.457,26.829,24.351,57.267,47.266,70.53,8.327,4.8,13.958,7.327,20.633,6.522.283,0,2.718-.739,3-.761Z" transform="translate(-24.384 206.094)" fill="#6ca1f1"/>
        <path id="Path_1644" data-name="Path 1644" d="M573.668,298.035a68.6,68.6,0,0,1,6.957,28.264c0,13.045-5.305,21.568-13.545,24.372l5.544,11c10.219-3.522,16.763-14.154,16.763-30.308a85.3,85.3,0,0,0-8.7-35.134Z" transform="translate(13.224 211.953)" fill="#6ca1f1"/>
        <path id="Path_1645" data-name="Path 1645" d="M579.189,327.273a30.023,30.023,0,0,1-6.283-7.544c-1.044-1.739-1.022-3.631,0-4.218a8.152,8.152,0,0,0,3.218-3.587c1.109.3,2.478-.109,2.478-1.609a6.068,6.068,0,0,0-1.609-4.087,20,20,0,0,0-10.132-17.785,9.349,9.349,0,0,0-6.153-1.718,30.235,30.235,0,0,0-3.653,1c-2.065,1.022-.152,3.239-.3,6.827-.913-.217-1.609.674-1.609,2.174a7.305,7.305,0,0,0,2.479,4.479,36.973,36.973,0,0,0,3.218,7.305c1,1.761,1.044,3.674,0,4.218a8.327,8.327,0,0,1-6.283.283,4.588,4.588,0,0,0-2.631-.109,30.291,30.291,0,0,0-3.131.87c-1.413.7.2,1.718.2,4.131v6.805a4.545,4.545,0,0,0,2.174,3.587l29.2,19.372c.5.3,3.37-.717,3.718-.87a1.505,1.505,0,0,0,.761-1.392v-6.827A16.22,16.22,0,0,0,579.189,327.273Z" transform="translate(-8.929 200.76)" fill="#6ca1f1"/>
        <path id="Path_1646" data-name="Path 1646" d="M544.155,309.781c.587-21.742,16.415-30.438,35.852-19.22,10,5.762,19.046,15.719,25.568,27.068l7.153-1.783c-8.153-14.828-19.807-27.873-32.721-35.33-24.459-14.132-44.375-2.957-44.657,24.829Z" transform="translate(-24.032 186.314)" fill="#fff"/>
        <path id="Path_1647" data-name="Path 1647" d="M597.845,357.681a30.938,30.938,0,0,1-18-4.783c-18.415-10.632-33.59-35.374-35.656-57.05l-8.7-4.348c2.348,27.09,21.372,58.2,44.418,71.508,8.7,5,16.763,6.827,23.611,5.849Z" transform="translate(-23.868 206.399)" fill="#fff"/>
        <path id="Path_1648" data-name="Path 1648" d="M572.779,298.285a68.681,68.681,0,0,1,6.957,28.264c0,13.045-5.3,21.568-13.567,24.372l5.566,10.979c10.2-3.5,16.741-14.154,16.741-30.286a84.964,84.964,0,0,0-8.588-35.134Z" transform="translate(12.156 212.247)" fill="#fff"/>
        <path id="Path_1649" data-name="Path 1649" d="M577.893,327.559a30.091,30.091,0,0,1-6.305-7.544c-1.043-1.739-1-3.631,0-4.218a7.979,7.979,0,0,0,3.2-3.587c1.109.3,2.479-.109,2.479-1.609a6,6,0,0,0-1.587-4.087,20.046,20.046,0,0,0-10.131-17.785c-7.588-4.348-9.849-.2-10.131,6.087-.913-.2-1.587.7-1.587,2.174a7.3,7.3,0,0,0,2.479,4.479,33.95,33.95,0,0,0,3.218,7.284c1,1.761,1.044,3.7,0,4.24a8.284,8.284,0,0,1-6.305.261c-3.174-.957-5.566.978-5.566,4.892v6.827a4.544,4.544,0,0,0,2.174,3.587L581.436,346.8c1.153.674,2.174.13,2.174-1.174V338.8a16.221,16.221,0,0,0-5.718-11.24Z" transform="translate(-9.589 201.039)" fill="#fff"/>
        <path id="Path_1650" data-name="Path 1650" d="M543.635,309.915c.587-21.742,16.437-30.438,35.852-19.22,10,5.761,19.046,15.719,25.568,27.068l7.175-1.8c-8.175-14.806-19.828-27.851-32.743-35.33-24.438-14.11-44.353-2.935-44.657,24.851Z" transform="translate(-24.642 186.462)" fill="#2870db"/>
        <path id="Path_1651" data-name="Path 1651" d="M597.325,357.811a30.982,30.982,0,0,1-18-4.783c-18.393-10.632-33.591-35.374-35.656-57.05l-8.7-4.348c2.348,27.09,21.372,58.2,44.418,71.508,8.7,5,16.763,6.827,23.633,5.849Z" transform="translate(-24.478 206.552)" fill="#2870db"/>
        <path id="Path_1652" data-name="Path 1652" d="M572.248,298.4a68.619,68.619,0,0,1,6.957,28.264c0,13.045-5.3,21.568-13.545,24.372L571.2,361.91c10.218-3.5,16.763-14.154,16.763-30.286a85.291,85.291,0,0,0-8.523-35Z" transform="translate(11.557 212.411)" fill="#2870db"/>
        <path id="Path_1653" data-name="Path 1653" d="M577.309,327.689a30.9,30.9,0,0,1-6.283-7.544c-1.044-1.739-1.022-3.631,0-4.218a8.151,8.151,0,0,0,3.218-3.587c1.109.3,2.478-.109,2.478-1.609a6.023,6.023,0,0,0-1.609-4.087,20,20,0,0,0-10.131-17.784c-7.588-4.348-9.849-.2-10.11,6.087-.913-.2-1.609.7-1.609,2.174a7.3,7.3,0,0,0,2.478,4.479,36.234,36.234,0,0,0,3.218,7.283c1.022,1.761,1.044,3.7,0,4.24a8.218,8.218,0,0,1-6.283.261c-3.2-.957-5.566.978-5.566,4.892V325.1a4.609,4.609,0,0,0,2.174,3.587l31.591,18.241c1.152.674,2.174.13,2.174-1.174V339.1a16.176,16.176,0,0,0-5.74-11.414Z" transform="translate(-10.224 201.192)" fill="#2870db"/>
        <path id="Path_1654" data-name="Path 1654" d="M157.16,205.2v62.072l10.392-5.718V199.13Z" transform="translate(184.53 233.719)" fill="#6ca1f1"/>
        <path id="Path_1655" data-name="Path 1655" d="M281.218,273.72v62.072L51.54,203.19V140.77Z" transform="translate(60.516 165.195)" fill="#4588ee"/>
        <path id="Path_1656" data-name="Path 1656" d="M51.54,143.975l229.678,132.95,10.349-6.066L61.8,138.04Z" transform="translate(60.516 161.989)" fill="#6ca1f1"/>
        <path id="Path_1657" data-name="Path 1657" d="M51.54,140.77,281.218,273.72l10.349-6.066-10.132,4.435Z" transform="translate(60.516 165.195)" fill="#fff" opacity="0.7"/>
        <path id="Path_1658" data-name="Path 1658" d="M263.425,306.712,56.75,186.089V149.52L263.425,270.142Z" transform="translate(66.633 175.469)" fill="#cce1ff"/>
        <path id="Path_1659" data-name="Path 1659" d="M360.91,216.73l4.174,2.413L367.02,239.1h0l2.065-17.654,4.718,2.718,2.065,20.046h0L377.8,226.47l3.74,2.174-2.783,24.568-5.414-3.131-1.979-17h0L369.389,247.8l-5.761-3.326Z" transform="translate(-228.852 118.608)" fill="#2870db"/>
        <path id="Path_1660" data-name="Path 1660" d="M372.29,223.35l4.174,2.413,1.935,19.959h0l2.065-17.676,4.718,2.739,2.065,20.024h0l1.935-17.719,3.74,2.174-2.783,24.568-5.414-3.109-1.978-17h0l-1.978,14.719-5.761-3.326Z" transform="translate(-215.49 126.381)" fill="#2870db"/>
        <path id="Path_1661" data-name="Path 1661" d="M383.76,229.87l4.174,2.413,1.935,19.959h0l2.066-17.654,4.718,2.718,2.066,20.046h0l1.935-17.741,3.74,2.174-2.718,24.633-5.414-3.109-1.957-17h0l-1.978,14.719-5.87-3.37Z" transform="translate(-202.022 134.036)" fill="#2870db"/>
        <path id="Path_1662" data-name="Path 1662" d="M99.5,57.125v43.287l6.522-3.609V53.19Z" transform="translate(116.829 62.362)" fill="#518de4"/>
        <path id="Path_1663" data-name="Path 1663" d="M120.326,67.2v43.287L81.8,88.224V44.61Z" transform="translate(96.046 52.288)" fill="#a7caff"/>
        <path id="Path_1664" data-name="Path 1664" d="M81.8,46.677l38.526,22.589,6.479-3.935L88.192,42.85Z" transform="translate(96.046 50.221)" fill="#518de4"/>
        <path id="Path_1665" data-name="Path 1665" d="M81.8,44.61,120.326,67.2l6.479-3.935L120,65.112Z" transform="translate(96.046 52.288)" fill="#fff"/>
        <path id="Path_1668" data-name="Path 1668" d="M86.42,31.53l62.4,36.591,10.479-6.37-10.2,4.87Z" transform="translate(101.471 36.93)" fill="#fff" opacity="0.7"/>
        <path id="Path_1666" data-name="Path 1666" d="M115.08,51.8V121.9l10.566-5.827V45.43Z" transform="translate(135.122 53.251)" fill="#6ca1f1"/>
        <path id="Path_1667" data-name="Path 1667" d="M86.42,34.865l62.4,36.591,10.479-6.37L96.769,28.69Z" transform="translate(101.471 33.595)" fill="#6ca1f1"/>
        <path id="Path_1669" data-name="Path 1669" d="M86.42,31.53V60.6L119.445,79.97v41.265l29.373,16.98V68.121Z" transform="translate(101.471 36.93)" fill="#a7caff"/>
        <path id="Path_1670" data-name="Path 1670" d="M176.42,128.572v48.4l7.305-4.022V124.18Z" transform="translate(207.144 145.716)" fill="#2870db"/>
        <path id="Path_1671" data-name="Path 1671" d="M199.7,139.844v48.4l-43.07-24.894V114.58Z" transform="translate(183.908 134.444)" fill="#4588ee"/>
        <path id="Path_1672" data-name="Path 1672" d="M156.63,116.881l43.07,25.264,7.262-4.392L163.783,112.62Z" transform="translate(183.908 132.142)" fill="#2870db"/>
        <path id="Path_1673" data-name="Path 1673" d="M156.63,114.58l43.07,25.264,7.262-4.392-7.61,2.065Z" transform="translate(183.908 134.444)" fill="#fff" opacity="0.7"/>
        <path id="Path_1674" data-name="Path 1674" d="M202.42,143.572v48.4l7.305-4.022V139.18Z" transform="translate(237.673 163.328)" fill="#2870db"/>
        <path id="Path_1675" data-name="Path 1675" d="M225.7,154.844v48.4l-43.07-24.894V129.58Z" transform="translate(214.436 152.056)" fill="#4588ee"/>
        <path id="Path_1676" data-name="Path 1676" d="M182.63,131.881l43.07,25.264,7.262-4.392L189.783,127.62Z" transform="translate(214.436 149.755)" fill="#2870db"/>
        <path id="Path_1677" data-name="Path 1677" d="M182.63,129.58l43.07,25.264,7.262-4.392-7.61,2.065Z" transform="translate(214.436 152.056)" fill="#fff" opacity="0.7"/>
        <path id="Path_1678" data-name="Path 1678" d="M228.25,158.4v48.4l7.305-4.022V154.01Z" transform="translate(268.001 180.741)" fill="#2870db"/>
        <path id="Path_1679" data-name="Path 1679" d="M251.54,169.674v48.4l-43.07-24.894V144.41Z" transform="translate(244.777 169.469)" fill="#4588ee"/>
        <path id="Path_1680" data-name="Path 1680" d="M208.47,146.7l43.07,25.264,7.24-4.392L215.6,142.46Z" transform="translate(244.777 167.179)" fill="#2870db"/>
        <path id="Path_1681" data-name="Path 1681" d="M208.47,144.41l43.07,25.264,7.24-4.392-7.609,2.065Z" transform="translate(244.777 169.469)" fill="#fff" opacity="0.7"/>
        <path id="Path_1682" data-name="Path 1682" d="M253.75,172.9v48.4l7.305-4.022V168.51Z" transform="translate(297.943 197.766)" fill="#2870db"/>
        <path id="Path_1683" data-name="Path 1683" d="M277.04,184.174v48.4l-43.07-24.894V158.91Z" transform="translate(274.717 186.494)" fill="#4588ee"/>
        <path id="Path_1684" data-name="Path 1684" d="M233.97,161.2l43.07,25.264,7.24-4.392L241.1,156.96Z" transform="translate(274.717 184.204)" fill="#2870db"/>
        <path id="Path_1685" data-name="Path 1685" d="M233.97,158.91l43.07,25.264,7.24-4.392-7.61,2.065Z" transform="translate(274.717 186.494)" fill="#fff" opacity="0.7"/>
        <path id="Path_1686" data-name="Path 1686" d="M532.9,241.747a18.567,18.567,0,0,1-4-4.761c-.652-1.109-.63-2.3,0-2.674a5.153,5.153,0,0,0,2.022-2.174c.7.174,1.565,0,1.565-1.022a3.87,3.87,0,0,0-1-2.587,12.719,12.719,0,0,0-6.523-11.262c-4.8-2.761-6.24-.13-6.414,3.87-.565-.13-1,.435-1,1.413a4.675,4.675,0,0,0,1.565,2.826,22.822,22.822,0,0,0,2.022,4.609c.652,1.109.674,2.348,0,2.674a5.261,5.261,0,0,1-3.979.174c-2.022-.609-3.522.609-3.522,3.087v4.348a2.871,2.871,0,0,0,1.326,2.174l20,11.545a.8.8,0,0,0,1.3-.739V248.9a10.327,10.327,0,0,0-3.37-7.153Z" transform="translate(-49.523 117.898)" fill="#cce1ff"/>
        <path id="Path_1687" data-name="Path 1687" d="M537.72,253.361l6.979,4.022v-12.5l-6.979-4.044Zm11.045,6.392,6.957,3.979V240.816l-6.979-4.022Zm11.067-27v33.373l6.979,4.131V236.772Z" transform="translate(-21.249 137.418)" fill="#cce1ff"/>
        <path id="Path_1688" data-name="Path 1688" d="M511.265,225.555a10.2,10.2,0,0,0-.13-1.979l3.283-.413a31.11,31.11,0,0,0-1.478-5l-3.761-1.131a26.8,26.8,0,0,0-2.348-4.044l.913-3.783a29.927,29.927,0,0,0-3.609-3.7l-2.022,2.609a15.68,15.68,0,0,0-1.652-1.109,12.792,12.792,0,0,0-1.652-.8l-2.022-4.957a10.066,10.066,0,0,0-3.609-.348l.913,4.827a5.066,5.066,0,0,0-2.348,1.326l-3.761-3.2a10.025,10.025,0,0,0-1.5,3.261l3.3,4.348a11.733,11.733,0,0,0-.13,1.8,15.359,15.359,0,0,0,.13,1.979l-3.3.413a30.593,30.593,0,0,0,1.5,5l3.761,1.131a25.072,25.072,0,0,0,2.348,4.044l-.913,3.783a30.051,30.051,0,0,0,3.609,3.8l2.022-2.631a15.909,15.909,0,0,0,1.652,1.131,12.547,12.547,0,0,0,1.653.783l2.022,4.957a10.59,10.59,0,0,0,3.609.37l-.913-4.848a5.174,5.174,0,0,0,2.348-1.326l3.761,3.2a9.807,9.807,0,0,0,1.478-3.261l-3.283-4.218a16.045,16.045,0,0,0,.13-2.022Zm-10.871-1.261a9.567,9.567,0,0,1-4.348-7.479c0-2.761,1.957-3.87,4.348-2.479a9.609,9.609,0,0,1,4.348,7.479c.065,2.761-1.913,3.87-4.283,2.479Z" transform="translate(-81.413 99.978)" fill="#cce1ff"/>
        <path id="Path_1689" data-name="Path 1689" d="M460.492,185.958,474.363,207.7l13.849-5.653h0a5.284,5.284,0,0,0-1.652-1.609L462.122,186.2a2.022,2.022,0,0,0-1.652-.3Z" transform="translate(-111.953 82.329)" fill="#cce1ff"/>
        <path id="Path_1690" data-name="Path 1690" d="M488.863,201.922l-13.893,7.936-4.044-6.805-9.914,4.066h0l9.219-5.261-9.219-15.937a1.761,1.761,0,0,0-1.044,1.848v16.567a6.023,6.023,0,0,0,2.718,4.7l24.5,14.023c1.5.87,2.718.174,2.718-1.544V204.944a5.7,5.7,0,0,0-1.044-3.022Zm0,21.2L478.949,207.6l.739-.413,9.218,15.915Z" transform="translate(-112.56 82.432)" fill="#cce1ff"/>
        <path id="Path_1691" data-name="Path 1691" d="M76.64,194.485v62.051l9.805-5.566V188.55Z" transform="translate(89.988 221.296)" fill="#6ca1f1"/>
        <path id="Path_1692" data-name="Path 1692" d="M166.693,243.424v62.05L0,209.268v-62.4Z" transform="translate(0 172.357)" fill="#bcd7ff"/>
        <path id="Path_1693" data-name="Path 1693" d="M0,150.005l166.693,96.554,9.74-5.935L9.675,144.2Z" transform="translate(0 169.222)" fill="#6ca1f1"/>
        <path id="Path_1694" data-name="Path 1694" d="M0,146.87l166.693,96.554,9.74-5.935-10.153,4.087Z" transform="translate(0 172.357)" fill="#fff" opacity="0.7"/>
        <path id="Path_1695" data-name="Path 1695" d="M357.569,242.125l-30.438-17.589c-1.87-1.087-3.37-.217-3.37,1.935V247.1a7.458,7.458,0,0,0,3.37,5.849l19.046,10.871L355.7,280.26V269.389l1.913,1.109c1.87,1.065,3.392.217,3.392-1.935V247.93a7.479,7.479,0,0,0-3.435-5.8Zm-21.481,3.87c-1,.565-2.609-.37-3.587-2.174s-1-3.544,0-4.109,2.587.37,3.587,2.174.978,3.544,0,4.109Zm8.24,4.761c-.978.565-2.587-.37-3.587-2.174s-.978-3.566,0-4.131,2.609.37,3.587,2.174S345.328,250.191,344.328,250.756Zm8.262,4.761c-1,.565-2.609-.37-3.587-2.174s-1-3.566,0-4.131,2.587.37,3.587,2.174,1.065,3.479,0,4.131Zm-31.417-9.871V228.884l-11.632-6.631c-1.87-1.087-3.392-.217-3.392,1.935v20.633a7.479,7.479,0,0,0,3.392,5.849l1.891,1.087v10.871l9.523-5.435,19.046,11c1.87,1.065,3.392.217,3.392-1.935v-.978l-16.306-9.392a13.045,13.045,0,0,1-5.914-10.24Z" transform="translate(-293.148 124.543)" fill="#3f8eee"/>
        <path id="Path_1696" data-name="Path 1696" d="M34.37,173.46v5.153L114.009,224.6v-5.153Z" transform="translate(40.356 203.578)" fill="#3f8eee"/>
        <path id="Path_1697" data-name="Path 1697" d="M88.833,214.792,34.37,183.31v5.153l54.463,31.482Z" transform="translate(40.356 215.144)" fill="#3f8eee"/>
        <path id="Path_1698" data-name="Path 1698" d="M34.37,183.543l79.639,45.983v-5.153L34.37,178.39Z" transform="translate(40.356 209.367)" fill="#cce1ff"/>
        <path id="Path_1699" data-name="Path 1699" d="M499.71,346.627l-51.767-29.156c4.348-3.283,7.088-7.175,7.088-11.371,0-11.588-19.763-20.981-44.135-20.981S366.76,294.512,366.76,306.1,386.523,327.06,410.9,327.06a90.209,90.209,0,0,0,14.48-1.174l55.746,31.308a15.675,15.675,0,0,0,14.045-.587C499.753,354.432,505.232,349.866,499.71,346.627Z" transform="translate(-221.983 198.908)" fill="#92b4d1" opacity="0.2"/>
        <path id="Path_1700" data-name="Path 1700" d="M439.869,314.151a11.849,11.849,0,1,1-16.067-4.827A11.849,11.849,0,0,1,439.869,314.151Z" transform="translate(-162.316 225.666)" fill="#2870db"/>
        <path id="Path_1701" data-name="Path 1701" d="M424.435,276.51,398.78,290.338l38.265,70.573h0v.109c2.174,4.131,9.762,4.348,16.85.565s11.023-10.262,8.7-14.393h0Z" transform="translate(-184.386 188.799)" fill="#4588ee"/>
        <path id="Path_1702" data-name="Path 1702" d="M424.72,278.283c2.174,4.131-1.718,10.566-8.7,14.393s-14.632,3.566-16.85-.565,1.718-10.566,8.805-14.371S422.5,274.174,424.72,278.283Z" transform="translate(-184.65 187.069)" fill="#72b5e8"/>
        <path id="Path_1703" data-name="Path 1703" d="M411.079,267.9l-15.219,8.218,10.871,20.133h0c1.326,2.457,5.827,2.587,10.023.326s6.522-6.109,5.24-8.544h0Z" transform="translate(-187.815 178.689)" fill="#2870db"/>
        <path id="Path_1704" data-name="Path 1704" d="M419.684,198.631c-19-10.871-36.221-12.219-48.832-5.392-.348.2-18.437,10.284-19,11.153,12.806-9.675,31.808-9.523,52.984,2.718,38.635,22.307,69.943,76.313,69.943,120.644,0,22.611-8.153,38.33-21.263,45.353a16.194,16.194,0,0,0,3.413-1.5l13.045-7.914c12.154-7.436,19.567-22.763,19.567-44.418C489.626,274.965,458.3,220.938,419.684,198.631Z" transform="translate(-239.49 86.114)" fill="#6ca1f1"/>
        <path id="Path_1705" data-name="Path 1705" d="M413.981,202.55c-38.613-22.307-69.921-4.457-69.921,39.874s31.308,98.337,69.921,120.644,69.943,4.348,69.943-39.874S452.637,224.857,413.981,202.55Zm-1.044,150.017c-32.765-18.937-59.354-64.768-59.354-102.381s26.59-52.767,59.354-33.83S472.2,281.015,472.2,318.628s-26.481,52.723-59.267,33.852Z" transform="translate(-248.636 90.675)" fill="#4588ee"/>
        <path id="Path_1706" data-name="Path 1706" d="M420.079,336.815c-32.765-18.915-59.355-64.746-59.355-102.359,0-15.35,4.348-26.96,11.893-34.026C357.963,204.365,348.44,218.8,348.44,241.3c0,37.613,26.59,83.444,59.355,102.381,19.415,11.2,36.635,10.458,47.462.174C445.429,346.512,433.254,344.424,420.079,336.815Z" transform="translate(-243.493 99.469)" fill="#6ca1f1"/>
        <path id="Path_1707" data-name="Path 1707" d="M403.6,201.773c-18.524-10.7-35.352-12.132-47.831-5.892,11.653-3.261,28.808-1.478,44.483,7.566C438.888,225.753,470.2,279.76,470.2,324.091c0,23.068-11.175,39.613-24.764,46.418,17.067-4.783,28.134-21.742,28.134-48.114C473.544,278.086,442.236,224.058,403.6,201.773Z" transform="translate(-234.887 89.778)" fill="#fff"/>
      </g>
    </g>
  </g>
</svg>
