<?xml version="1.0" encoding="utf-8"?>
<!-- Generator: Adobe Illustrator 25.0.0, SVG Export Plug-In . SVG Version: 6.00 Build 0)  -->
<svg version="1.1" id="Layer_1" xmlns="http://www.w3.org/2000/svg" xmlns:xlink="http://www.w3.org/1999/xlink" x="0px" y="0px"
	 viewBox="0 0 1948.4 355.8" style="enable-background:new 0 0 1948.4 355.8;" xml:space="preserve">
<style type="text/css">
	.st0{fill:#2870DB;}
	.st1{fill:none;stroke:#FFFFFF;stroke-width:7;}
	.st2{fill:none;stroke:#2870DB;}
	.st3{fill:none;stroke:#82CDFF;}
	.st4{fill:none;stroke:#CCE1FF;}
	.st5{fill:#CCE1FF;}
	.st6{fill:none;stroke:#FFFFFF;stroke-width:14;}
	.st7{fill:none;stroke:#FFFFFF;stroke-width:9;}
</style>
<g id="Group_1096" transform="translate(152.769 -933.808)">
	<g id="Ellipse_39" transform="translate(1511 1022)">
		<ellipse class="st0" cx="-117.1" cy="21" rx="20" ry="21"/>
		<ellipse class="st1" cx="-117.1" cy="21" rx="16.5" ry="17.5"/>
	</g>
	<path id="Path_264" class="st2" d="M-190.1,966.8c0,0,178.6,150,327.7,85.4C255.5,988.4,391.2,906.4,486,943.3
		c36.1,16.1,67,33.1,184.6,191.1s230,88.4,283.1,27.8s92-137.7,143.4-157.4s98.2-11.1,181.3,47.4s115.4,66,172.3,54.6
		s108.9-111.8,215.4-128.5s181.1-37.7,181.1-37.7"/>
	<path id="Path_265" class="st3" d="M-289.6,965.6c0,0,283.4,220.4,436.9,125.8S396.8,944,463,965.6s127.8,83.9,213.6,190.3
		s166.9,117.1,245.4,54.8s116.9-178,182.7-197.8c48.4-18.3,95.7-8.3,181.1,62.4c57.5,47.7,134,66.5,208,34.9
		c59.4-25.4,77.1-87.8,178-116.5c24.5-7,71.9-13.3,105.6-15c39.6,1.4,30.5-12.7,30.5-12.7"/>
	<path id="Path_266" class="st2" d="M-152.5,1107.4c0,0,185.8,89.4,317.5,14s170.9-113.9,229.4-127s120.7,4.7,209.2,105
		s133.1,138.4,182.8,155.9s119,0.5,161.4-52.6s91-119.2,104.6-134.3s58.5-71,121.2-44.8s109,86.5,185.3,107.6s144.6,1.9,186.7-32.1
		s99.2-76.5,152.5-92.9c57.4-14.6,152.9-15.5,152.9-15.5"/>
	<path id="Path_267" class="st4" d="M-264.2,1116c0,0,260.4,114.4,390,66.2s191-127.9,261.2-149.9s111.2-7.7,191.5,71.5
		s141.1,141.6,177.1,161.9s115.6,61.7,207.9-59.7s133.9-211.6,222.4-164.6s136.4,102,210.7,113.2s156.1-29.3,209.3-75.3
		s113.3-66,165.2-61.9s88-15.6,88-15.6"/>
	<g id="Ellipse_36" transform="translate(207 1003)">
		<circle class="st5" cx="-110.1" cy="27" r="27"/>
		<circle class="st6" cx="-110.1" cy="27" r="20"/>
	</g>
	<g id="Ellipse_40" transform="translate(1786 1078)">
		<circle class="st5" cx="-110.1" cy="27" r="27"/>
		<circle class="st6" cx="-110.1" cy="27" r="20"/>
	</g>
	<g id="Ellipse_37" transform="translate(519 1108)">
		<circle class="st0" cx="-119.1" cy="18" r="18"/>
		<circle class="st7" cx="-119.1" cy="18" r="13.5"/>
	</g>
	<g id="Ellipse_38" transform="translate(893 1167)">
		<circle class="st5" cx="-121.1" cy="16" r="16"/>
		<circle class="st1" cx="-121.1" cy="16" r="12.5"/>
	</g>
	<g id="Ellipse_53" transform="translate(893 1167)">
		<circle class="st5" cx="-121.1" cy="16" r="16"/>
		<circle class="st1" cx="-121.1" cy="16" r="12.5"/>
	</g>
</g>
</svg>
