<svg xmlns="http://www.w3.org/2000/svg" width="33.475" height="33.475" viewBox="0 0 33.475 33.475"><g transform="translate(-1293.22 -1332.547)"><ellipse cx="3.254" cy="3.254" rx="3.254" ry="3.254" transform="translate(1312.794 1341.593)" fill="#2870db"/><ellipse cx="3.254" cy="3.254" rx="3.254" ry="3.254" transform="translate(1300.761 1341.593)" fill="#2870db"/><path d="M18.721,2A16.737,16.737,0,1,0,35.475,18.737,16.729,16.729,0,0,0,18.721,2Zm.017,30.127a13.39,13.39,0,1,1,13.39-13.39A13.386,13.386,0,0,1,18.737,32.127ZM26.119,21.9a1.247,1.247,0,0,0-1.724.4,6.668,6.668,0,0,1-11.314-.017,1.252,1.252,0,1,0-2.126,1.322,9.163,9.163,0,0,0,15.566.017,1.251,1.251,0,0,0-.4-1.724Z" transform="translate(1291.22 1330.547)" fill="#2870db"/></g></svg>