<svg xmlns="http://www.w3.org/2000/svg" width="26.764" height="36.314" viewBox="0 0 26.764 36.314"><path d="M18.382,3a12.837,12.837,0,0,0-2.676.268A13.362,13.362,0,0,0,9.475,26.356a3.717,3.717,0,0,1,1.261,2.81v4.415A3.834,3.834,0,0,0,14.559,37.4h.535a3.783,3.783,0,0,0,6.575,0H22.2a3.834,3.834,0,0,0,3.823-3.823V29.166a3.707,3.707,0,0,1,1.223-2.79A13.364,13.364,0,0,0,18.382,3Zm.956,21.024H17.426v-4.95l-3.5-3.479,1.357-1.357,3.1,3.1,3.1-3.1L22.835,15.6l-3.5,3.5Zm1.911,9.556c-.019,0-.038-.019-.057-.019v.019H15.572v-.019c-.019,0-.038.019-.057.019a.956.956,0,0,1,0-1.911c.019,0,.038.019.057.019v-.019h5.619v.019c.019,0,.038-.019.057-.019a.956.956,0,0,1,0,1.911Zm0-3.823H15.515a.956.956,0,0,1,0-1.911h5.734a.956.956,0,0,1,0,1.911Z" transform="translate(-4.997 -3)" fill="#2870db"/></svg>