<svg xmlns="http://www.w3.org/2000/svg" width="38.382" height="24.425" viewBox="0 0 38.382 24.425"><path d="M27.17,15.468a5.234,5.234,0,1,0-5.234-5.234A5.212,5.212,0,0,0,27.17,15.468Zm-13.957,0a5.234,5.234,0,1,0-5.234-5.234A5.212,5.212,0,0,0,13.212,15.468Zm0,3.489C9.147,18.957,1,21,1,25.063V27.68a1.75,1.75,0,0,0,1.745,1.745H23.68a1.75,1.75,0,0,0,1.745-1.745V25.063C25.425,21,17.277,18.957,13.212,18.957Zm13.957,0c-.506,0-1.082.035-1.692.087.035.017.052.052.07.07a7.257,7.257,0,0,1,3.367,5.949V27.68a5.242,5.242,0,0,1-.314,1.745h9.037a1.75,1.75,0,0,0,1.745-1.745V25.063C39.382,21,31.235,18.957,27.17,18.957Z" transform="translate(-1 -5)" fill="#2870db"/></svg>